ply
format ascii 1.0
element vertex 322
property float x
property float y
property float z
property float nx
property float ny
property float nz
property uchar diffuse_red
property uchar diffuse_green
property uchar diffuse_blue
end_header
0.423806 -0.49372 0.0710181 0.136811 0.0602294 -0.988764 171 76 110
0.293591 -0.461142 0.0358695 0.283047 -0.0229448 -0.958832 179 103 129
0.473511 -0.474024 0.0822596 0.37368 0.0344781 -0.926917 129 121 162
-0.319834 -0.50137 -0.0740054 0.466995 -0.0291947 -0.883777 167 132 134
-0.351808 -0.497042 -0.0745148 0.551585 0.066147 -0.831492 180 135 144
-0.0659598 -0.43103 -0.0401847 0.182629 -0.0991926 -0.978165 193 140 171
0.0670565 -0.416098 -0.0126955 0.256957 -0.0239843 -0.966125 176 158 187
-0.144616 -0.408821 -0.0634599 0.221883 0.0567074 -0.973423 193 157 180
0.15328 -0.395395 0.0047604 0.161248 -0.0675098 -0.984602 186 81 121
-0.584706 -0.419503 -0.150349 0.219971 -0.0768378 -0.972476 199 138 148
0.407235 -0.359352 0.0621992 0.253356 -0.0470369 -0.966229 154 153 185
-0.800538 -0.409256 -0.196537 0.196629 -0.144327 -0.969797 181 112 130
0.162996 -0.372734 0.00677837 0.28673 -0.0778309 -0.954845 184 101 137
-0.165403 -0.370916 -0.0687417 0.26427 -0.051892 -0.963052 129 114 158
0.16312 -0.34315 -0.000249574 0.11971 -0.0468825 -0.991702 173 149 178
0.42886 -0.346215 0.0669559 0.259191 -0.0535498 -0.96434 65 79 151
-0.54026 -0.385308 -0.144929 0.134845 -0.107609 -0.985006 70 123 80
0.411097 -0.315346 0.0642353 0.0098931 -0.0682341 -0.99762 111 115 165
0.555846 -0.300532 0.0943245 0.22015 -0.0367184 -0.974775 152 50 76
-0.637533 -0.365282 -0.167692 0.180344 -0.121507 -0.97607 184 147 160
-0.27855 -0.442073 -0.0823258 0.246699 -0.0715697 -0.966446 197 157 168
-0.146854 -0.33082 -0.066898 0.265036 -0.0903902 -0.959993 196 176 193
-0.144461 -0.311525 -0.0643528 0.15973 -0.122354 -0.979549 193 180 194
0.0900949 -0.295555 -0.0130829 0.174089 -0.0635466 -0.982677 18 39 133
0.411332 -0.290761 0.0630702 -0.0347189 -0.0499343 -0.998149 104 108 161
-0.59378 -0.341003 -0.158366 0.250811 -0.056493 -0.966387 52 126 69
-0.207939 -0.318435 -0.082557 0.168049 -0.0676233 -0.983457 196 183 196
0.432155 -0.256073 0.0632702 0.263726 -0.0383208 -0.963836 41 63 152
0.55559 -0.276844 0.0928631 0.22329 -0.0497068 -0.973483 153 50 75
-0.751289 -0.325969 -0.195112 0.196894 -0.12687 -0.972181 194 153 164
-0.519243 -0.309399 -0.151777 0.37852 -0.0783101 -0.922274 85 92 152
-0.122921 -0.297521 -0.0635137 0.199759 -0.0404618 -0.979009 194 186 200
-0.541615 -0.306004 -0.154837 0.288014 -0.047844 -0.956431 79 84 146
-0.289802 -0.303269 -0.0994424 0.191012 -0.11552 -0.974767 184 163 178
0.291776 -0.254806 0.031266 0.247621 -0.0481197 -0.967661 69 85 164
0.291376 -0.278542 0.0319443 0.221229 -0.0579169 -0.973501 82 95 169
-0.798423 -0.309226 -0.199798 0.324707 -0.0644321 -0.943618 195 176 188
-0.0258096 -0.252348 -0.0440786 0.19804 -0.0467519 -0.979079 193 185 201
0.0164322 -0.221044 -0.0373434 0.209592 -0.064082 -0.975687 46 65 152
0.291803 -0.230128 0.0295345 0.246609 -0.0498792 -0.967831 59 76 160
-0.143723 -0.23462 -0.0730528 0.269838 -0.0297128 -0.962447 17 39 139
-0.677268 -0.256201 -0.18899 0.204077 -0.0297585 -0.978502 39 127 61
0.131607 -0.222101 -0.0110576 0.126447 -0.0633937 -0.989946 89 96 157
-0.286377 -0.222557 -0.10374 0.21037 -0.0419823 -0.97672 113 119 172
0.0163062 -0.197432 -0.0387834 0.229655 -0.0615765 -0.971323 39 60 149
0.132707 -0.194689 -0.0102591 0.250218 -0.0619567 -0.966205 87 93 153
0.152531 -0.20254 -0.00863721 0.236564 -0.0917642 -0.967272 41 60 150
-0.127275 -0.210142 -0.0702051 0.191029 -0.0390635 -0.980807 159 157 197
-0.286241 -0.198783 -0.104481 0.220419 -0.03232 -0.97487 74 85 152
0.15367 -0.175987 -0.0148309 0.0985306 -0.0120068 -0.995062 27 50 145
-0.0394806 -0.174801 -0.0531004 0.269128 -0.0830576 -0.959516 195 164 184
-0.678697 -0.223182 -0.187096 0.291122 -0.0328383 -0.956122 107 152 121
-0.0805756 -0.160935 -0.0616566 0.246673 -0.0395444 -0.968291 199 166 187
0.350213 -0.153281 0.0426425 0.137994 -0.0092738 -0.990389 21 41 134
-0.678339 -0.200449 -0.187615 0.280683 -0.0438045 -0.958801 169 182 180
-0.657387 -0.187733 -0.183403 0.182287 -0.0572556 -0.981577 54 64 136
0.600732 -0.132604 0.0960437 0.234545 -0.104595 -0.966462 170 56 85
0.113177 -0.133787 -0.0206556 0.19105 -0.100769 -0.976394 178 176 206
-0.324743 -0.149748 -0.120866 0.283125 -0.033391 -0.958501 78 142 206
0.408728 -0.118015 0.0488901 0.131128 -0.00576606 -0.991349 158 48 70
0.465919 -0.0996937 0.0609456 0.255511 -0.0981533 -0.961811 176 60 84
0.505104 -0.0994001 0.0702519 0.210623 -0.0805554 -0.974243 172 90 114
0.523313 -0.0860477 0.073404 0.206323 -0.0768548 -0.975461 144 122 160
0.645269 -0.0844203 0.107829 0.374359 0.0712315 -0.924544 185 170 182
0.236205 -0.0790295 0.00463279 0.245384 -0.0735075 -0.966635 183 95 134
0.371576 -0.0921579 0.0405538 0.244177 -0.10186 -0.964366 169 68 99
-0.637116 -0.125135 -0.186521 0.22244 -0.0259411 -0.974601 20 42 137
0.485795 -0.0430446 0.0632431 0.236786 0.0110355 -0.971499 98 93 148
0.193007 -0.064151 -0.00659839 0.291431 -0.103778 -0.950945 168 79 113
0.351456 -0.0344469 0.0297392 0.214443 -0.0537738 -0.975255 80 81 146
0.504852 -0.0294478 0.0661246 0.233815 -0.0472357 -0.971133 165 129 167
-0.156821 -0.0481923 -0.0896415 0.471387 0.00268339 -0.881923 49 62 145
0.216623 -0.0247095 -0.00525188 0.214175 -0.0423489 -0.975877 188 140 168
0.275541 -0.0548426 0.012535 0.284525 -0.0618056 -0.956675 189 137 170
0.161956 -0.0141001 -0.0183556 0.223865 -0.0558584 -0.973018 161 155 190
0.0888214 -0.0152675 -0.0345472 0.323144 -0.0374845 -0.945607 177 153 185
0.180075 -0.00361373 -0.0136364 0.227989 -0.00931474 -0.973619 84 85 150
0.307277 0.00666551 0.0166749 0.194881 -0.0812073 -0.97746 165 115 151
0.448964 0.00221185 0.051908 0.258086 -0.0766638 -0.963076 183 61 85
-0.260393 0.139033 -0.131175 0.104725 0.141528 -0.984379 193 171 188
0.0357999 -0.00352095 -0.0496084 0.299069 0.0920239 -0.949783 193 157 185
-0.380759 -0.0260905 -0.13667 0.280239 0.00862773 -0.959892 52 101 177
0.216691 0.0181882 -0.00501118 0.249708 -0.0317534 -0.9678 191 157 185
0.270452 0.0275078 0.0089168 0.240325 -0.00371416 -0.970686 193 116 154
0.0538102 0.0288657 -0.0448386 0.268737 -0.0247186 -0.962896 104 100 158
0.107595 -0.00365539 -0.0311428 0.232058 -0.0191602 -0.972513 130 123 168
-0.0250724 0.032148 -0.0625298 0.226916 0.00956791 -0.973867 108 106 164
-0.0801354 0.0424847 -0.0761591 0.231591 0.00785443 -0.972782 190 170 194
-0.227079 0.0464771 -0.109159 0.203837 0.000369189 -0.979005 164 154 187
-0.262528 0.046062 -0.118156 0.276849 0.0317174 -0.96039 186 172 194
0.0484324 0.0754433 -0.048854 0.220414 -0.0843256 -0.971754 195 112 151
-0.0618299 0.0740822 -0.0716246 0.206465 0.0554197 -0.976883 193 160 188
-0.366259 0.0688218 -0.138985 0.220149 -0.0985431 -0.970476 178 165 194
-0.691595 0.0716547 -0.20977 0.193019 -0.0264588 -0.980838 153 159 154
-0.47503 0.0813469 -0.162365 0.250277 -0.0876416 -0.964199 167 113 140
-0.421634 0.0789495 -0.151835 0.259871 -0.056875 -0.963967 134 102 149
-0.297261 0.0991562 -0.125833 0.212284 -0.0978269 -0.972299 128 118 164
-0.182127 0.096322 -0.0963538 0.235722 0.0743671 -0.968971 197 162 189
-0.729185 0.0703272 -0.216219 0.166055 -0.0394727 -0.985326 186 164 176
-0.531117 0.0917633 -0.175308 0.246064 -0.0787324 -0.966051 165 127 159
-0.384455 0.101004 -0.143999 0.271013 -0.0313634 -0.962064 106 104 160
-0.315691 0.109433 -0.129935 0.274384 -0.0378069 -0.960877 193 172 193
0.539639 0.173026 0.0761153 0.222447 0.123553 -0.967085 187 60 78
-0.403228 0.133458 -0.148152 0.230903 0.0167169 -0.972833 193 162 186
-0.438865 0.132943 -0.155969 0.260561 0.0620179 -0.963463 187 166 191
-0.505752 0.154117 -0.174381 0.193794 -0.108674 -0.975005 187 173 194
-0.297363 0.184866 -0.129296 0.345746 0.0115914 -0.938257 177 171 177
-0.862317 0.127135 -0.242789 0.0748901 -0.0154189 -0.997072 111 152 121
-0.594635 0.154105 -0.191892 0.207071 -0.0337746 -0.977743 128 113 159
-0.490248 0.169497 -0.170953 0.251245 -0.116215 -0.960922 197 167 186
-0.209108 0.202814 -0.107318 0.212004 0.131845 -0.968334 158 156 161
-0.404464 0.223077 -0.152442 0.359911 0.130418 -0.923827 181 79 84
-0.185551 0.273471 -0.10254 0.256248 0.10174 -0.961242 101 118 98
0.571001 0.226181 0.209461 0.127359 0.988654 -0.079642 169 105 96
-0.366039 0.284782 -0.143149 0.171038 0.115277 -0.978497 181 83 82
0.134954 0.310279 0.034237 0.233608 0.958471 -0.163588 95 87 111
0.0862149 0.31018 0.0183516 0.220067 0.966705 -0.130579 156 44 34
-0.0658477 0.33967 -0.00995802 0.128303 0.99155 -0.0191237 147 46 38
0.204263 0.298748 0.131299 -0.0595661 0.99784 0.02769 136 38 29
-0.131999 0.348781 -0.0384906 0.172567 0.983557 -0.0532588 126 114 129
-0.00969767 0.330674 0.0347039 0.120467 0.990416 -0.067551 113 100 119
0.154516 0.303368 0.120148 0.212665 0.976803 -0.0250541 52 51 93
0.00450399 0.329647 0.0846682 0.170094 0.984319 -0.0467313 45 47 94
0.0303857 0.325966 0.120575 0.229416 0.973304 -0.00679611 150 89 89
-0.162144 0.358876 0.0700591 0.21743 0.975529 -0.0326629 113 107 122
-0.403866 -0.488601 -0.0908973 0.44537 0.0650242 -0.892982 190 143 153
0.551506 -0.428961 0.0989111 0.169952 -0.034558 -0.984846 155 107 129
-0.388629 -0.45112 -0.101815 0.341858 -0.0409661 -0.938859 170 91 100
0.632296 -0.378391 0.118337 0.182441 -0.0520352 -0.981839 172 59 95
0.180975 -0.360252 0.00589341 0.158058 -0.0602924 -0.985587 183 114 144
-0.637939 -0.392232 -0.164873 0.180112 -0.0560308 -0.982049 200 142 152
-0.393538 -0.38331 -0.113161 0.244431 -0.0975184 -0.96475 183 144 162
-0.185874 -0.362888 -0.0743598 0.183011 -0.0393405 -0.982324 136 124 169
-0.103879 -0.362359 -0.0513163 0.23367 0.0675982 -0.969964 174 150 178
0.120326 -0.344208 -0.00675973 0.234236 -0.10282 -0.966727 180 168 191
0.252184 -0.33211 0.025015 0.266106 -0.04005 -0.963111 186 163 179
-0.0812014 -0.32679 -0.0481308 0.193118 -0.115502 -0.974354 193 172 190
-0.638107 -0.340182 -0.168038 0.190771 -0.108683 -0.9756 177 125 136
-0.167339 -0.321718 -0.0709442 0.146924 -0.113248 -0.982643 194 178 193
-0.565141 -0.347816 -0.151859 0.168951 -0.125622 -0.977586 62 130 80
0.576474 -0.264224 0.0967533 0.221019 -0.0590671 -0.973479 177 58 92
-0.328678 -0.29833 -0.107196 0.155301 -0.0251965 -0.987546 117 121 173
0.131331 -0.246116 -0.00963136 0.121289 -0.0789408 -0.989473 100 104 160
0.110617 -0.257957 -0.0121836 0.204096 -0.0449673 -0.977917 178 175 201
-0.614772 -0.301702 -0.166796 0.184991 -0.0682342 -0.980369 156 168 162
-0.848943 -0.272206 -0.232705 0.0896794 0.0609824 -0.994102 196 147 156
-0.518577 -0.258636 -0.147526 0.263598 -0.0442821 -0.963616 13 38 139
-0.0395832 -0.232539 -0.0485343 0.249022 -0.0683869 -0.96608 185 156 173
0.637573 -0.179781 0.106885 0.177075 -0.0726135 -0.981515 171 48 73
0.351772 -0.17247 0.0395097 0.176614 -0.0518865 -0.982911 12 35 134
0.112596 -0.15808 -0.0176045 0.176753 -0.0565299 -0.982631 188 184 204
0.2162 -0.16322 0.00637669 0.218725 -0.0653073 -0.973599 18 41 138
0.390129 -0.15092 0.0451795 0.138703 -0.0349796 -0.989717 184 173 195
-0.28707 -0.174769 -0.106267 0.218702 -0.0571208 -0.974119 59 73 145
0.254492 -0.138063 0.0157296 0.307862 -0.0306538 -0.950937 189 177 194
0.501219 -0.120707 0.070595 0.214142 -0.051533 -0.975442 160 62 83
-0.286877 -0.150636 -0.107675 0.232216 -0.0453156 -0.971608 88 97 159
0.541423 -0.09729 0.078302 0.231412 -0.0556336 -0.971264 158 109 141
-0.620474 -0.165007 -0.174135 0.300323 -0.036989 -0.95312 12 36 137
-0.617981 -0.137929 -0.180031 0.294507 -0.0218558 -0.9554 11 36 138
-0.699486 -0.137 -0.19508 0.301686 -0.0480095 -0.952198 163 179 172
0.275172 -0.0781089 0.0142102 0.281856 -0.117073 -0.952287 191 113 154
-0.65797 -0.113242 -0.190655 0.182491 -0.0633125 -0.981167 54 72 157
-0.305854 -0.0934681 -0.115064 0.220009 -0.0770065 -0.972454 89 97 160
0.724927 -0.0444177 0.12465 0.288068 -0.0596288 -0.955752 184 175 189
0.153491 -0.067225 -0.0146252 0.27443 -0.12454 -0.953508 173 113 141
0.133061 -0.0547405 -0.0210518 0.194919 -0.147862 -0.969609 167 92 123
0.0917011 -0.0381054 -0.034099 0.229666 -0.044906 -0.972233 180 118 147
0.429624 -0.0310586 0.0482611 0.224487 -0.0272908 -0.974094 130 122 170
0.56085 -0.0164969 0.0792273 0.210736 -0.10699 -0.971671 189 169 182
0.252298 -0.00469237 0.00410781 0.229274 -0.0204296 -0.973147 137 133 182
-0.657491 -0.065451 -0.193202 0.188967 -0.054886 -0.980448 26 47 140
-0.714682 -0.0769308 -0.203279 0.234164 -0.132843 -0.963079 152 64 89
-0.305256 -0.0259996 -0.117632 0.235767 -0.043107 -0.970853 159 90 113
0.435816 0.0137561 0.0469313 0.248419 -0.0405978 -0.967802 183 48 65
-0.483403 -0.021249 -0.154309 0.25929 -0.0602228 -0.96392 193 190 205
0.326143 0.0397174 0.0198159 0.23596 -0.0582543 -0.970015 190 80 115
-0.43767 0.0148295 -0.149795 0.180862 -0.0244379 -0.983205 46 82 161
0.140509 0.047682 -0.0251156 0.265826 -0.111318 -0.957573 193 143 175
0.159146 0.057553 -0.0197192 0.19553 -0.0752498 -0.977806 196 128 164
-0.132853 0.0749376 -0.0889336 0.238264 -0.00197586 -0.971199 149 138 178
-0.114808 0.042484 -0.0840264 0.224339 -0.0170094 -0.974363 113 112 163
-0.754662 0.0105764 -0.215154 0.327957 -0.0513035 -0.943298 146 43 58
-0.208449 0.0787624 -0.10555 0.202359 -0.0299237 -0.978854 141 139 188
-0.151047 0.0639002 -0.0925922 0.240011 -0.00242902 -0.970767 154 151 195
-0.398068 0.0379343 -0.143228 0.177089 -0.0816493 -0.980802 189 153 170
0.307279 0.115127 0.0111342 0.228829 -0.0524802 -0.972051 193 158 169
-0.797438 0.0299537 -0.226937 0.161386 -0.0691524 -0.984466 131 163 138
-0.0543153 0.0977574 -0.0738921 0.176088 -0.0334855 -0.983805 198 129 165
-0.63526 0.0592605 -0.196585 0.232338 -0.0699806 -0.970115 189 161 178
-0.455478 0.0705729 -0.157531 0.218722 -0.0865675 -0.97194 170 117 141
-0.512416 0.0810446 -0.171209 0.182056 -0.0568618 -0.981643 173 123 147
0.411035 0.150834 0.0380869 0.172866 0.115293 -0.978175 198 176 188
-0.244862 0.120746 -0.113855 0.289789 -0.0372766 -0.956365 196 166 187
-0.297299 0.164724 -0.130247 0.304096 0.0410005 -0.951759 192 172 187
0.52298 0.199956 0.0795335 0.22662 0.162317 -0.960363 197 103 141
-0.65139 0.142799 -0.203872 0.136333 -0.0437222 -0.989697 58 73 51
-0.279244 0.194173 -0.125689 0.232599 -0.0802273 -0.969258 71 97 75
0.38504 0.233154 0.0420501 0.308327 0.408098 -0.859297 196 104 145
-0.882357 0.16274 -0.248944 -0.61684 0.0679337 -0.784151 82 105 63
-0.525982 0.209572 -0.180178 0.172968 0.0180087 -0.984763 165 34 35
-0.454863 0.231741 -0.164804 0.248498 0.0241967 -0.96833 200 160 173
-0.859482 0.197693 -0.249622 0.283772 -0.108194 -0.952769 140 156 139
-0.785555 0.19441 -0.234693 0.141367 -0.0609034 -0.988082 192 130 135
-0.332636 0.246503 -0.138023 0.242409 -0.0910324 -0.965894 186 130 136
-0.348381 0.252688 -0.139419 0.0357536 -0.0725353 -0.996725 197 149 157
-0.212338 0.279289 -0.110419 0.139717 0.107159 -0.984376 73 101 80
-0.420709 0.273565 -0.155404 0.292713 -0.0386873 -0.955418 193 92 91
0.416561 0.255318 0.138532 0.147567 0.988985 -0.0114978 165 104 95
0.353226 0.266715 0.121468 0.17197 0.984929 0.0184308 174 126 119
-0.857907 0.260357 -0.247017 -0.549105 0.340136 -0.763408 178 66 64
0.0809901 0.310816 0.00173038 0.248704 0.967183 -0.0519932 163 43 33
0.210312 0.290829 0.0600691 0.234701 0.967426 -0.0948734 154 59 51
0.290454 0.277396 0.10627 0.284096 0.957519 -0.0494872 170 122 114
0.350441 0.266522 0.156149 0.107277 0.992382 0.0605714 163 102 93
0.139004 0.30467 0.0583382 0.280402 0.959819 0.0110834 135 128 143
0.175886 0.29902 0.0827548 0.230593 0.973045 -0.00292675 72 68 107
-0.211468 0.366313 -0.0896085 0.270548 0.427987 -0.86234 157 38 34
-0.271657 0.3583 -0.104197 0.280966 0.795097 -0.537475 170 52 55
-0.261932 0.36877 -0.0948796 0.101177 0.856491 -0.50615 157 38 32
0.0362055 0.322921 0.0479801 0.167438 0.985601 -0.0235642 63 66 107
-0.0205633 0.333526 0.0465674 0.15883 0.987123 -0.0190022 153 94 93
-0.062879 0.342245 0.0496137 0.175267 0.98449 0.00775484 38 44 94
-0.0226357 0.335238 0.092456 0.207157 0.977044 -0.0496978 159 88 85
-0.195501 0.363504 0.0215418 0.204132 0.978743 -0.019814 36 43 94
-0.282787 -0.510142 -0.0742508 0.331525 -0.0722208 -0.940678 126 146 123
0.113671 -0.454092 0.00116608 0.166076 -0.0650184 -0.983967 187 104 142
0.449836 -0.387978 0.0778596 0.280959 -0.0520574 -0.958307 33 50 134
-0.331285 -0.380934 -0.0990158 0.235402 -0.131015 -0.963027 195 185 197
0.141829 -0.335155 -7.22032e-05 0.297943 -0.0798588 -0.951237 115 113 161
0.597776 -0.303889 0.110724 0.280926 0.0225298 -0.959465 176 58 93
-0.702906 -0.329494 -0.183005 0.208171 -0.107072 -0.972214 172 104 114
-0.777606 -0.28679 -0.220043 0.402817 0.557187 -0.726141 186 142 152
0.214559 -0.261578 0.014386 0.121969 -0.103499 -0.987123 12 37 137
-0.328103 -0.273158 -0.10847 0.0738663 0.0285224 -0.99686 42 78 157
0.452607 -0.218052 0.0635061 0.257572 -0.0745398 -0.96338 11 35 132
0.464417 -0.186002 0.0595248 0.0581027 0.106986 -0.992562 12 35 133
-0.52425 -0.233714 -0.155162 0.162723 0.000732284 -0.986671 12 38 140
-0.461629 -0.247484 -0.13709 0.179655 -0.0524592 -0.98233 157 174 204
-0.740903 -0.21968 -0.199681 0.278558 -0.0628176 -0.958363 34 128 55
-0.107054 -0.174491 -0.067207 0.197229 -0.0673349 -0.978042 166 105 129
0.197552 -0.151954 0.00110945 0.212753 -0.0572401 -0.975428 14 39 140
-0.306105 -0.139171 -0.113733 0.287593 -0.0352314 -0.957104 43 85 166
0.15468 -0.043096 -0.0184075 0.233824 -0.0615331 -0.970329 187 125 157
0.106903 -0.0262935 -0.0297955 0.290583 -0.103877 -0.951195 187 155 185
-0.422024 -0.00646818 -0.14375 0.208454 0.00281284 -0.978028 70 127 198
0.437741 0.0347068 0.047003 0.260452 0.0351059 -0.964848 182 88 97
-0.7554 -0.0144793 -0.211056 0.341069 -0.0304961 -0.939543 119 42 46
0.161749 0.082552 -0.0229301 0.164193 -0.0558554 -0.984846 198 120 161
-0.171929 0.0572944 -0.0971436 0.170417 0.0156579 -0.985248 115 114 168
0.362348 0.104684 0.0239329 0.18626 -0.0805465 -0.979194 195 181 192
-0.40278 0.0901467 -0.147806 0.247779 -0.072164 -0.966125 152 147 187
0.5778 0.167974 0.0768115 0.112875 -0.126844 -0.985479 183 32 37
-0.315438 0.152888 -0.132495 0.242645 -0.0800847 -0.966803 197 165 186
-0.748057 0.12707 -0.222484 0.209184 -0.0277615 -0.977482 53 86 53
0.52053 0.220932 0.0737097 0.448648 0.691832 -0.565759 189 90 123
-0.526881 0.229024 -0.181563 0.302962 -0.0508748 -0.951644 160 32 33
0.560477 0.228022 0.221685 0.171191 0.983489 -0.0586719 172 114 105
-0.366411 0.304273 -0.141008 0.0454022 0.113882 -0.992456 188 73 75
-0.0123668 0.325711 -0.022119 -0.0759427 0.996079 0.0453724 162 43 33
0.122611 0.305994 0.0412716 0.182974 0.981327 -0.0593242 99 92 116
-0.051283 0.332102 -0.0351304 0.176494 0.952909 -0.246604 157 41 32
-0.108145 0.346401 -0.00361046 0.219937 0.975144 -0.0268573 78 120 153
0.0410465 0.3227 0.0638903 0.17192 0.984875 -0.0215246 125 123 146
-0.0543496 0.338934 0.0859874 0.231358 0.97201 0.0408738 148 91 92
-0.290978 0.380365 -0.00452729 0.173108 0.984572 -0.0255185 169 70 58
-0.379019 0.395403 -0.027993 0.163004 0.986018 -0.0346316 161 51 40
-0.45308 0.406716 -0.0449538 0.163032 0.985548 -0.0459828 161 51 40
-0.261566 0.375988 0.0527018 0.171836 0.985081 0.00936114 163 43 31
0.656743 -0.370057 0.132849 0.370708 0.10602 -0.922679 175 62 97
0.271309 -0.340191 0.029404 0.253493 -0.013766 -0.967239 173 168 191
-0.458419 -0.370531 -0.125956 0.208671 -0.114176 -0.971298 132 129 126
0.332703 -0.253545 0.0397068 0.302814 -0.0700958 -0.950469 12 34 135
-0.440449 -0.23528 -0.133768 0.273915 -0.055692 -0.96014 79 142 203
-0.061669 -0.195403 -0.0549933 0.258597 -0.0377257 -0.965248 198 153 178
-0.443608 -0.183261 -0.137453 0.201815 -0.0500744 -0.978142 79 141 202
-0.0618367 -0.147572 -0.0581597 0.207417 -0.0619901 -0.976287 198 161 184
-0.762905 -0.201775 -0.191744 0.515992 0.128772 -0.846859 34 130 56
0.389928 -0.106087 0.045572 0.117019 -0.0269535 -0.992764 161 66 90
0.11213 -0.0657759 -0.0258559 0.253544 -0.138267 -0.957391 186 152 175
-0.325038 -0.0600356 -0.120601 0.2213 -0.0490529 -0.973972 105 111 168
0.437032 0.0122398 0.0481982 0.223894 -0.0447454 -0.973586 183 48 65
0.372118 0.00200804 0.0330619 0.218112 -0.0468494 -0.974799 181 89 111
0.0540397 0.00655248 -0.0442519 0.210719 -0.0354627 -0.976903 100 92 151
-0.540543 -0.0100347 -0.17238 0.262406 -0.16695 -0.950406 13 38 142
0.413391 0.108027 0.0381909 0.342316 -0.0895729 -0.935306 194 188 200
0.612267 0.173873 0.0896291 0.0365509 0.0523967 -0.997957 186 33 37
-0.222308 0.150084 -0.115814 -0.030483 -0.0907102 -0.995411 197 152 179
-0.193699 0.150449 -0.105192 0.263113 -0.193009 -0.945261 194 137 168
0.146197 0.193251 -0.0275127 0.166725 0.0547896 -0.98448 191 45 57
-0.4391 0.181124 -0.160772 0.293502 -0.0527282 -0.954503 197 146 176
0.0415637 0.322406 0.110404 0.170047 0.985394 0.00905299 79 70 101
0.0759634 0.318901 0.116632 0.078361 0.990753 -0.110766 134 111 123
-0.0400694 -0.374994 -0.0381811 0.197664 -0.0118145 -0.980199 168 134 168
-0.248137 -0.328081 -0.0874566 0.282507 -0.0308547 -0.958769 186 178 196
0.492279 -0.305392 0.074582 0.257831 -0.0515262 -0.964815 11 32 128
-0.658911 -0.304306 -0.173828 0.199814 -0.110871 -0.973541 173 156 156
-0.438935 -0.303482 -0.128266 0.318554 -0.119635 -0.940325 88 142 199
-0.91033 -0.134383 -0.256054 0.405248 0.3033 -0.862429 146 20 36
0.485773 -0.0653011 0.0637324 0.267193 -0.00881223 -0.963603 93 90 147
0.235612 -0.0557195 0.00235354 0.197004 -0.0680991 -0.978034 191 121 158
-0.362455 -0.0369928 -0.131611 0.270684 -0.0166734 -0.962524 43 81 160
0.638443 0.0235682 0.0909359 0.346921 0.0150687 -0.937773 187 181 194
-0.297547 0.0323302 -0.122175 0.231238 -0.0569127 -0.971231 197 177 194
-0.173491 0.138853 -0.100653 0.26473 -0.0155182 -0.964198 200 141 174
-0.261854 0.248166 -0.121048 0.2498 -0.0545133 -0.966762 85 82 75
-0.0840965 -0.424924 -0.0429588 0.16538 -0.0999781 -0.981149 193 147 176
0.411612 -0.26572 0.0611757 -0.0843631 -0.0377399 -0.99572 98 104 162
0.21658 -0.00340128 -0.00490832 0.217675 0.000943636 -0.976021 188 156 184
0.568482 0.0844312 0.0725581 0.313106 -0.0226513 -0.949448 194 183 196
-0.801762 0.207062 -0.237949 0.166733 -0.0595516 -0.984202 187 113 117
-0.232792 0.368084 -0.00270156 0.12098 0.990257 -0.068953 157 61 53
-0.279195 0.378174 -0.0180814 0.0751685 0.996962 -0.0203869 170 72 61
-0.439181 0.405 -0.0406572 0.183235 0.983016 -0.0102164 167 64 52
-0.162073 -0.495853 -0.047004 0.215278 -0.111383 -0.97018 191 145 171
-0.893491 -0.127851 -0.247801 0.271636 0.253712 -0.928355 146 22 35
0.476753 0.0988366 0.053361 0.204079 0.127454 -0.970622 196 190 204
-0.729391 0.116573 -0.218397 0.226149 -0.0223467 -0.973836 47 84 52
0.471977 -0.323074 0.0730837 0.155127 -0.031694 -0.987386 14 36 132
-0.125349 0.111864 -0.0878199 0.207032 -0.0634068 -0.976277 198 124 158
-0.226806 0.130931 -0.112292 0.161841 -0.189472 -0.968456 195 153 179
0.122878 0.296545 0.00257138 0.00967766 0.945156 -0.326475 162 41 34
