ply
format ascii 1.0
element vertex 23
property float x
property float y
property float z
property float nx
property float ny
property float nz
property uchar diffuse_red
property uchar diffuse_green
property uchar diffuse_blue
end_header
-0.443957 -0.480903 -0.0900896 0.579454 -0.184908 -0.793751 194 150 163
0.298937 -0.357662 0.0293842 0.495576 -0.147799 -0.855897 165 162 192
0.432652 -0.302696 0.061921 0.380691 0.0054849 -0.924686 61 74 156
0.806457 0.062074 0.11847 0.282095 0.065912 -0.95712 181 66 99
0.859724 0.188535 0.141098 0.9191 0.00673669 -0.393966 166 105 117
-0.581387 0.0603729 -0.198669 0.500714 -0.21644 -0.838117 191 181 199
-0.150136 -0.195369 -0.0887184 0.585137 0.0206126 -0.810673 35 52 147
-0.24036 0.232891 -0.130486 0.466514 -0.22694 -0.854906 85 106 86
0.440549 -0.491871 0.0652932 0.31692 0.213657 -0.924074 175 72 107
0.396618 -0.45008 0.058137 0.480642 -0.00248518 -0.876914 190 183 203
0.540974 -0.173208 0.0711921 0.312758 -0.015239 -0.949711 31 40 127
0.643218 -0.0715983 0.106153 0.299639 0.0657461 -0.951784 187 177 190
0.812711 0.0257194 0.119779 0.344887 -0.141417 -0.92793 156 32 29
-0.6844 -0.272631 -0.202102 0.573732 -0.159162 -0.80343 182 160 166
-0.292334 -0.420627 -0.10104 0.640179 -0.267494 -0.720152 197 166 180
-0.0363236 -0.310383 -0.0590602 0.433302 -0.0633963 -0.899017 193 170 190
0.703774 -0.519732 0.145063 0.585603 -0.221863 -0.779644 178 92 124
0.761519 0.0914797 0.113044 0.325531 0.00683694 -0.945507 171 31 32
0.315121 -0.372284 0.0435956 0.510206 -0.187091 -0.839457 158 154 185
0.607611 0.0201693 0.0765479 0.439745 -0.048799 -0.896796 188 181 194
0.702841 -0.0408258 0.107388 0.596624 -0.0821636 -0.798304 183 178 192
0.675027 -0.636002 0.272448 0.937187 -0.256008 0.236941 121 30 23
0.845859 0.133203 0.221412 0.967418 -0.0489874 0.248398 88 27 24
