ply
format ascii 1.0
element vertex 17
property float x
property float y
property float z
property float nx
property float ny
property float nz
property uchar diffuse_red
property uchar diffuse_green
property uchar diffuse_blue
end_header
0.396618 -0.45008 0.058137 0.480642 -0.00248518 -0.876914 190 183 203
0.7418 -0.0580597 0.12148 0.422466 0.0580933 -0.904516 196 178 191
0.685314 -0.607086 0.263742 0.973358 -0.168419 -0.155597 80 24 19
0.764933 -0.294879 0.19172 0.980339 -0.136067 0.142903 80 20 16
0.716287 -0.43456 0.262173 0.965968 -0.207238 0.154783 69 21 18
0.807478 -0.110215 0.191904 0.913883 -0.355105 0.196771 75 19 17
0.815409 -0.0773778 0.187426 0.946491 -0.248295 0.206163 81 21 18
0.753078 -0.272957 0.255895 0.907013 -0.231753 0.351593 69 19 17
0.737555 -0.371054 0.286704 0.941976 -0.324044 0.0876125 78 22 18
0.795126 -0.125875 0.220785 0.911939 -0.242899 0.33071 77 19 16
0.861111 0.176493 0.159487 0.717453 -0.696494 -0.012556 146 39 35
0.863891 0.147664 0.182806 0.91862 -0.389307 0.0676644 76 19 18
0.769872 -0.155157 0.287044 0.93446 -0.252153 0.251402 92 24 20
0.785049 -0.243785 0.188565 0.854075 -0.320163 0.409941 70 17 16
0.77247 -0.115493 0.285327 0.866514 -0.293913 0.403446 75 20 17
0.489322 -0.398158 0.0803417 0.452474 0.0315978 -0.891218 23 41 138
0.822151 0.0613052 0.137321 0.662434 -0.608913 -0.436355 191 79 108
