ply
format ascii 1.0
element vertex 107
property float x
property float y
property float z
property float nx
property float ny
property float nz
property uchar diffuse_red
property uchar diffuse_green
property uchar diffuse_blue
end_header
-0.826242 -0.192018 -0.210732 0.475562 0.178747 -0.86133 78 80 44
-0.670645 0.126676 -0.203822 0.168674 0.19213 -0.966765 55 77 53
0.52053 0.220932 0.0737097 0.448648 0.691832 -0.565759 189 90 123
0.536384 0.208844 0.0835695 0.235535 0.185102 -0.954076 193 97 133
-0.211468 0.366313 -0.0896085 0.270548 0.427987 -0.86234 157 38 34
-0.116584 0.348553 -0.0372449 0.125578 0.991608 -0.0307155 123 111 127
0.22014 0.286245 0.0503643 0.29976 0.944417 -0.134984 157 44 34
-0.0658477 0.33967 -0.00995802 0.128303 0.99155 -0.0191237 147 46 38
-0.00375387 0.327423 0.00696392 0.185865 0.972155 -0.142722 145 52 44
-0.0971409 0.344834 -0.0162997 0.204177 0.97869 -0.0218568 101 106 129
0.0910772 0.312205 0.0319929 0.161033 0.984404 -0.0708325 156 58 49
-0.449708 0.402787 -0.0857552 0.24406 0.9433 -0.22499 155 45 33
0.032582 0.323571 0.0316968 0.17559 0.984122 -0.0259459 44 47 96
0.171183 0.299063 0.0670001 0.190225 0.981285 -0.0299025 40 44 97
-0.0405881 0.336228 0.0260683 0.159902 0.986384 -0.0384394 73 67 104
0.45779 0.246453 0.150666 0.260674 0.963299 0.0640625 161 49 37
-0.358696 0.390226 -0.0469534 0.184108 0.982671 0.0214884 167 74 64
-0.314207 0.383211 -0.0357642 0.164211 0.98642 0.00322729 170 83 73
-0.0516173 0.338298 0.0380605 0.115032 0.993249 -0.0150278 48 48 95
0.0730172 0.317124 0.0717141 0.165276 0.986142 -0.0143534 50 54 98
0.116052 0.30816 0.0697179 0.224562 0.971739 -0.0727642 54 55 99
0.326102 0.271823 0.129147 0.172136 0.985048 0.00705529 171 135 127
-0.232792 0.368084 -0.00270156 0.12098 0.990257 -0.068953 157 61 53
-0.338657 0.388964 -0.0172184 0.188848 0.982001 0.00338407 164 54 42
-0.581034 0.429594 -0.0753923 0.19254 0.980698 -0.0340538 159 49 37
-0.550067 0.424201 -0.0675614 0.16361 0.985791 -0.0380588 158 47 34
-0.482228 0.412517 -0.0542406 0.155095 0.987577 -0.0252236 160 49 37
-0.424019 0.403122 -0.0379171 0.156013 0.986507 -0.0496458 162 46 33
-0.408812 0.399953 -0.0332887 0.146358 0.98821 -0.0449427 162 47 35
-0.379019 0.395403 -0.027993 0.163004 0.986018 -0.0346316 161 51 40
0.198847 0.297189 0.116512 0.0701764 0.996794 -0.0384314 162 45 34
0.0296627 0.325019 0.0760494 0.1951 0.980748 -0.00838956 102 102 131
0.0456145 0.322094 0.0803847 0.198741 0.979933 -0.015265 67 69 109
0.267412 0.283986 0.150767 0.109727 0.993446 -0.0320136 175 117 109
-0.318418 0.38528 0.00361081 0.12382 0.992125 -0.01888 170 82 71
-0.286125 0.380368 0.0113884 0.172497 0.983977 -0.0450958 173 83 72
-0.17469 0.359818 0.0421944 0.193562 0.980976 0.0148613 73 75 108
0.00450399 0.329647 0.0846682 0.170094 0.984319 -0.0467313 45 47 94
0.101572 0.312823 0.108962 0.180955 0.981812 -0.0574474 48 50 94
-0.63689 0.43906 -0.0705721 0.245323 0.908025 -0.33957 169 95 86
-0.591544 0.432445 -0.0635572 0.14253 0.979964 -0.139132 161 75 64
-0.0749082 0.343683 0.0641973 0.174997 0.982993 -0.0556778 46 48 93
0.210401 0.291365 0.15249 0.181884 0.968982 0.167306 123 35 27
-0.23389 0.373759 0.0395869 0.329484 0.937642 -0.110761 151 61 54
0.02525 0.324486 0.106714 0.145093 0.988918 0.0314454 86 80 109
0.48506 0.238665 0.221929 0.124801 0.986904 0.102208 162 57 47
-0.528606 0.422752 -0.0173229 0.2024 0.97587 -0.0819305 161 40 29
-0.0339346 0.338113 0.104642 0.184143 0.981575 -0.0510136 159 46 35
-0.162144 0.358876 0.0700591 0.21743 0.975529 -0.0326629 113 107 122
-0.114563 0.349503 0.0853989 0.0606182 0.996763 -0.0528123 152 48 38
-0.173249 0.35959 0.0823156 0.137044 0.988597 0.0623986 155 98 96
0.606837 0.176388 0.0925914 0.125261 0.208373 -0.969996 189 41 50
0.36661 0.235694 0.037213 0.0892757 0.429158 -0.898807 206 114 153
-0.195545 0.357209 -0.0666136 0.167379 0.968159 -0.18615 157 42 32
0.0862149 0.31018 0.0183516 0.220067 0.966705 -0.130579 156 44 34
0.0959326 0.31198 0.0482628 0.219371 0.975282 -0.0264736 159 117 117
0.205041 0.296819 0.0852502 0.0432291 0.990485 -0.130654 152 85 85
0.353226 0.266715 0.121468 0.17197 0.984929 0.0184308 174 126 119
0.290454 0.277396 0.10627 0.284096 0.957519 -0.0494872 170 122 114
-0.502948 0.415508 -0.0854824 0.162264 0.986709 -0.00872319 162 69 59
-0.062879 0.342245 0.0496137 0.175267 0.98449 0.00775484 38 44 94
-0.0205633 0.333526 0.0465674 0.15883 0.987123 -0.0190022 153 94 93
0.0410465 0.3227 0.0638903 0.17192 0.984875 -0.0215246 125 123 146
0.0628012 0.319324 0.0771755 0.211181 0.97701 -0.0292024 38 45 95
0.0158507 0.326796 0.0727427 0.192713 0.980749 -0.0315113 43 48 95
-0.38885 0.398074 -0.0158776 0.116148 0.990915 -0.0678094 166 75 63
-0.302258 0.382754 0.00775985 0.13869 0.989451 -0.0418411 166 74 63
-0.576903 0.429418 -0.0588696 0.136977 0.987993 -0.071471 166 77 67
0.152426 0.298719 0.169646 0.188593 0.946481 0.26193 165 46 35
-0.207256 0.168027 -0.115604 0.164817 0.197655 -0.966317 201 151 181
-0.172622 0.318187 -0.0926252 0.303155 0.208167 -0.929926 121 122 112
-0.208241 0.360707 -0.0686589 0.269674 0.951473 -0.148244 157 41 32
0.0967302 0.308666 0.00480588 0.183304 0.982097 -0.0434265 164 44 34
0.00239209 0.321252 -0.0180863 -0.000931262 0.996133 -0.0878508 163 43 33
-0.112212 0.346962 -0.0193734 0.179465 0.983026 -0.0381141 93 121 149
-0.122025 0.350444 -0.00840794 0.125402 0.989535 -0.0713759 85 124 154
-0.00969767 0.330674 0.0347039 0.120467 0.990416 -0.067551 113 100 119
0.024944 0.325617 0.0596564 0.197409 0.980066 -0.0223752 42 47 96
-0.45308 0.406716 -0.0449538 0.163032 0.985548 -0.0459828 161 51 40
-0.195501 0.363504 0.0215418 0.204132 0.978743 -0.019814 36 43 94
0.571001 0.226181 0.209461 0.127359 0.988654 -0.079642 169 105 96
-0.0591525 0.341619 0.0677971 0.150562 0.985063 -0.083552 71 63 97
0.219681 0.291126 0.138356 0.305261 0.949498 -0.0725911 150 41 31
-0.0226357 0.335238 0.092456 0.207157 0.977044 -0.0496978 159 88 85
0.439155 0.057425 0.0491521 0.283361 0.215875 -0.934401 200 185 197
-0.0911805 0.261071 -0.0799918 0.435303 0.465572 -0.770555 194 48 60
0.447094 0.246591 0.0492392 -0.0232542 0.960274 0.278087 190 59 71
0.434769 0.243817 0.0797458 -0.0570446 0.997131 -0.0497477 166 44 34
-0.237424 0.361773 -0.0605717 -0.366928 0.916304 0.160476 181 46 36
-0.0390577 0.335076 -0.0179603 0.197233 0.980234 0.0154539 135 36 29
-0.507717 0.416891 -0.0636371 0.181341 0.98312 0.0242711 162 52 41
-0.307177 0.383117 -0.00864331 0.140933 0.989938 -0.0126626 163 58 46
-0.0115486 0.332517 0.0808599 0.14376 0.988698 -0.04253 115 95 115
0.551587 0.0985751 0.0632742 0.182608 0.255783 -0.94933 194 180 193
-0.254164 0.342209 -0.108236 0.322788 0.313316 -0.893107 190 81 85
0.125045 0.278965 -0.0151272 0.265718 0.434505 -0.860581 188 51 61
0.474331 0.242266 0.108366 0.526618 0.822572 0.214595 166 50 38
-0.186442 0.359241 -0.0368836 0.115346 0.977954 -0.174073 142 104 110
0.313157 0.274719 0.125991 0.158515 0.987233 -0.0156241 174 133 125
-0.454258 0.399673 0.0261124 0.255326 0.938776 0.231316 166 43 30
-0.061678 0.335151 0.120668 0.00796914 0.97863 0.205473 167 48 34
0.222872 0.280684 0.0270317 0.278757 0.943802 -0.177574 159 40 32
-0.212055 0.363975 -0.0285335 0.141221 0.986809 -0.0791387 159 75 70
0.0464957 0.321549 0.126914 0.150831 0.987758 0.0397824 152 69 65
0.198394 0.293558 0.164996 0.14253 0.989171 0.0350155 152 42 32
-0.229464 0.373162 0.0562353 0.30006 0.949837 -0.0881602 154 51 42
-0.0180411 0.334279 0.109375 0.205775 0.978533 -0.0114145 154 63 57
