ply
format ascii 1.0
element vertex 51
property float x
property float y
property float z
property float nx
property float ny
property float nz
property uchar diffuse_red
property uchar diffuse_green
property uchar diffuse_blue
end_header
0.322506 0.239628 0.0330682 -0.253636 0.957362 -0.138298 191 66 80
-0.950756 -0.146551 -0.226191 -0.946621 0.0147891 -0.322009 157 34 26
-0.936824 -0.059656 -0.223591 -0.810371 -0.124209 -0.5726 156 36 28
-0.919165 0.0368423 -0.231164 -0.788236 0.0470555 -0.613571 156 38 29
-0.929557 -0.0280497 -0.230254 -0.675579 0.104689 -0.729817 150 43 31
-0.887356 0.191329 -0.244702 -0.832952 0.100369 -0.544165 133 45 33
-0.873903 0.272162 -0.243602 -0.577809 0.208808 -0.78901 159 36 29
-0.912505 0.0448 -0.239819 -0.85109 0.145806 -0.504367 128 44 29
-0.970156 -0.17729 -0.194097 -0.969327 0.185273 -0.16149 158 34 25
-0.947114 -0.0367453 -0.203563 -0.986989 -0.0355669 -0.156804 160 36 28
-0.912788 0.145543 -0.206932 -0.95993 0.169979 -0.222803 157 36 27
-0.942847 -0.00521746 -0.196306 -0.970812 0.118525 -0.208509 157 35 25
-0.906623 0.194827 -0.197995 -0.974147 0.146689 -0.171813 157 48 39
-0.959487 -0.0886523 -0.167963 -0.97219 0.13502 -0.19135 157 36 27
-0.986228 -0.188045 -0.137583 -0.960721 0.119647 -0.250396 155 41 30
-0.942789 0.0318055 -0.165506 -0.968645 0.111795 -0.221877 160 35 26
-0.955992 -0.0361945 -0.159875 -0.955056 0.118999 -0.27149 157 36 27
-0.914395 0.191164 -0.172473 -0.936195 0.171843 -0.306609 158 42 32
-0.982852 -0.168436 -0.135356 -0.906908 0.23612 -0.348949 169 79 70
-0.906157 0.230795 -0.176496 -0.956975 0.192487 -0.217134 158 36 27
-0.912432 0.276417 -0.133599 -0.939877 0.169044 -0.296741 157 34 26
-0.460056 0.228887 -0.187413 0.0223859 0.251822 -0.967515 204 167 187
-0.544411 0.235015 -0.201774 -0.087575 0.396459 -0.913866 176 55 61
-0.90231 -0.0556162 -0.251968 -0.353991 -0.0877922 -0.931119 45 132 72
-0.93602 -0.093907 -0.227912 -0.728275 0.00316281 -0.685278 156 31 26
-0.92241 -0.00097304 -0.234709 -0.814573 0.105799 -0.570331 146 36 26
-0.911306 0.0855018 -0.236244 -0.865005 0.184513 -0.466606 153 37 27
-0.899013 0.139187 -0.238318 -0.648965 0.0870582 -0.755821 139 48 33
-0.936679 -0.0278799 -0.215458 -0.76744 -0.169313 -0.61836 165 70 60
-0.931644 0.0312506 -0.207681 -0.957575 0.157291 -0.241476 154 49 40
-0.922993 0.112713 -0.191744 -0.951973 0.14532 -0.269499 165 72 62
-0.932199 0.090047 -0.167561 -0.958647 0.178573 -0.221606 158 38 28
-0.93536 0.0746332 -0.170396 -0.970572 0.0794279 -0.227337 159 34 25
-0.937029 0.0785173 -0.154301 -0.929975 0.253593 -0.266154 157 38 29
-0.937724 0.100727 -0.136397 -0.920809 0.212203 -0.327232 163 76 65
-0.990603 -0.168198 -0.108358 -0.955598 0.127037 -0.265884 166 69 60
-0.941011 0.106185 -0.121875 -0.934943 0.233144 -0.267441 156 59 48
-0.951177 0.0757036 -0.10485 -0.991001 0.0733365 -0.111972 158 33 25
-0.561658 0.243863 -0.199851 -0.0548579 0.520219 -0.852269 178 48 57
-0.960371 -0.133063 -0.198058 -0.946825 0.104003 -0.304477 154 50 41
-0.888579 0.259904 -0.219697 -0.932273 -0.112354 -0.343866 159 32 25
-0.974258 -0.121455 -0.139391 -0.964605 0.0949455 -0.246014 160 34 25
-0.946174 0.0198499 -0.172149 -0.971077 0.0450364 -0.234484 159 35 27
-0.923559 0.201036 -0.125172 -0.963256 0.187783 -0.192029 158 61 50
-0.884022 0.274743 -0.233612 -0.723966 -0.233825 -0.648998 158 34 26
-0.992317 -0.197809 -0.126347 -0.974094 0.0936566 -0.205834 167 64 55
-0.945485 0.0765247 -0.127967 -0.940614 0.180583 -0.287465 152 39 29
-0.965265 -0.135727 -0.0567739 -0.650384 -0.369443 -0.66371 162 34 25
-0.95064 -0.00105095 -0.0661034 -0.797078 -0.16644 -0.580486 155 33 25
-0.930138 0.144737 -0.0811139 -0.98578 0.167306 0.0157047 161 34 25
-0.918411 0.179584 -0.0746196 -0.749056 -0.435965 -0.498848 160 33 26
