ply
format ascii 1.0
element vertex 37
property float x
property float y
property float z
property float nx
property float ny
property float nz
property uchar diffuse_red
property uchar diffuse_green
property uchar diffuse_blue
end_header
-0.0088225 -0.0482359 -0.0245 0 0 1 30 33 139
-0.00337098 -0.0456328 -0.0245 0 0 1 22 35 150
0.00879154 -0.0444377 -0.0245 0 0 1 178 141 150
0.00544351 -0.038794 -0.0245 0 0 1 193 100 80
-0.000850418 -0.0197098 -0.0245 0 0 1 199 162 167
0.0133232 -0.0173535 -0.0245 0 0 1 183 143 158
0.00104513 -0.0157296 -0.0245 0 0 1 185 146 163
-0.00264472 -0.0133549 -0.0245 0 0 1 34 3 101
0.00408345 -0.0126101 -0.0245 0 0 1 201 158 169
0.0135392 -0.00965436 -0.0245 0 0 1 197 156 167
-0.00563774 -0.00874332 -0.0245 0 0 1 150 132 161
0.00738464 0.00238478 -0.0245 0 0 1 19 41 165
-0.00442187 0.00487674 -0.0245 0 0 1 15 39 167
0.0123463 0.00739579 -0.0245 0 0 1 125 105 31
-0.0113296 0.00810995 -0.0245 0 0 1 18 31 144
0.00214379 0.0214558 -0.0245 0 0 1 22 40 163
0.0127577 0.0212824 -0.0245 0 0 1 27 41 161
0.00762815 0.0268615 -0.0245 0 0 1 20 42 163
0.00207255 0.0324262 -0.0245 0 0 1 29 29 131
0.00868753 0.0349962 -0.0245 0 0 1 29 37 157
0.0014139 0.0395163 -0.0245 0 0 1 197 143 40
0.0084887 0.0419724 -0.0245 0 0 1 28 41 157
-0.00960585 0.049339 -0.0245 0 0 1 189 137 107
-0.00517366 -0.0479874 -0.0245 0 0 1 28 34 150
0.00115301 -0.0460871 -0.0245 0 0 1 29 36 146
-0.00275733 -0.0367142 -0.0245 0 0 1 64 36 106
-0.0100376 -0.0349179 -0.0245 0 0 1 35 10 97
0.000132946 -0.0222973 -0.0245 0 0 1 172 134 152
0.00357858 -0.0225413 -0.0245 0 0 1 201 162 165
0.00897677 -0.0203297 -0.0245 0 0 1 93 70 126
-0.0108664 -0.0179483 -0.0245 0 0 1 36 9 99
0.00279766 -0.00207044 -0.0245 0 0 1 20 41 167
0.00427441 0.010216 -0.0245 0 0 1 9 31 164
-0.0106343 0.0163525 -0.0245 0 0 1 200 138 128
0.0107236 0.0186092 -0.0245 0 0 1 26 43 164
-0.0114595 0.0386671 -0.0245 0 0 1 191 40 26
0.00803075 0.0394204 -0.0245 0 0 1 24 38 158
