ply
format ascii 1.0
element vertex 215
property float x
property float y
property float z
property float nx
property float ny
property float nz
property uchar diffuse_red
property uchar diffuse_green
property uchar diffuse_blue
end_header
-0.147296 -0.326659 0 0 0 1 246 184 49
-0.12547 -0.326528 0 0 0 1 240 178 41
-0.0197326 -0.327348 0 0 0 1 246 180 47
-0.0518338 -0.318294 0 0 0 1 156 144 125
0.0947996 -0.318067 0 0 0 1 145 136 118
-0.136604 -0.315608 0 0 0 1 146 142 121
-0.0939363 -0.316287 0 0 0 1 153 143 124
-0.0084297 -0.317454 0 0 0 1 156 147 126
-0.0610058 -0.307437 0 0 0 1 247 174 41
-0.0449661 -0.307383 0 0 0 1 246 170 40
-0.0312811 -0.308292 0 0 0 1 153 145 126
-0.146682 -0.303884 0 0 0 1 244 181 41
-0.131932 -0.301618 0 0 0 1 241 172 39
-0.117798 -0.299184 0 0 0 1 144 136 124
-0.0941438 -0.294567 0 0 0 1 149 142 123
-0.0514401 -0.295394 0 0 0 1 150 144 124
-0.136269 -0.276151 0 0 0 1 140 139 122
-0.0075883 -0.196973 0 0 0 1 109 96 98
0.033539 -0.198022 0 0 0 1 143 131 124
0.063938 -0.197859 0 0 0 1 140 135 118
0.0892952 -0.197561 0 0 0 1 152 143 133
0.036899 -0.187179 0 0 0 1 142 145 125
0.0433291 -0.187998 0 0 0 1 145 144 125
0.0693094 -0.168608 0 0 0 1 142 144 127
-0.0343704 -0.160855 0 0 0 1 142 145 125
-0.148314 -0.109514 0 0 0 1 69 28 18
-0.130451 -0.109029 0 0 0 1 64 25 11
-0.107233 -0.107539 0 0 0 1 66 24 20
-0.101715 -0.0917951 0 0 0 1 172 139 60
-0.148109 -0.0889112 0 0 0 1 69 29 21
-0.0452603 -0.0856213 0 0 0 1 79 25 21
0.00533472 -0.0859889 0 0 0 1 148 145 128
-0.0879987 -0.0837088 0 0 0 1 135 97 34
0.0502347 -0.0830714 0 0 0 1 137 48 39
-0.00932832 -0.0771523 0 0 0 1 140 141 125
-0.122143 -0.0752307 0 0 0 1 192 141 81
-0.00781915 -0.0756536 0 0 0 1 140 141 125
-0.0455096 -0.0709736 0 0 0 1 76 31 21
-0.107833 -0.0613767 0 0 0 1 227 181 100
0.0275499 -0.0634258 0 0 0 1 141 145 126
0.11215 -0.0629902 0 0 0 1 141 143 125
-0.0973388 -0.0470688 0 0 0 1 76 25 17
-0.0616003 -0.0478007 0 0 0 1 77 30 22
-0.0430676 -0.0472442 0 0 0 1 78 31 21
-0.146876 -0.0465287 0 0 0 1 74 29 18
-0.0300232 -0.0349033 0 0 0 1 141 144 124
-0.0473681 -0.0289162 0 0 0 1 142 143 127
0.0525914 -0.0247552 0 0 0 1 145 143 124
-0.0609476 -0.0215739 0 0 0 1 89 47 57
-0.111523 -0.0149102 0 0 0 1 134 91 42
-0.0649225 -0.0169541 0 0 0 1 93 35 31
-0.0435605 -0.014069 0 0 0 1 87 38 26
0.0690322 -0.0139801 0 0 0 1 156 153 127
0.0893505 -0.00802021 0 0 0 1 104 88 81
0.13909 -0.0108 0 0 0 1 57 22 20
0.0691754 -0.00781229 0 0 0 1 160 154 130
0.11964 -0.0046953 0 0 0 1 146 147 126
-0.101215 -0.00366498 0 0 0 1 78 52 58
0.129502 0.00233624 0 0 0 1 139 141 121
-0.0747259 0.00597342 0 0 0 1 210 160 113
0.0658941 0.00449177 0 0 0 1 141 141 127
-0.0584025 0.00722409 0 0 0 1 86 56 63
-0.0370215 0.0070882 0 0 0 1 178 139 113
0.0523411 0.0393032 0 0 0 1 138 139 124
0.0808522 0.0434403 0 0 0 1 137 138 122
0.0626826 0.0538491 0 0 0 1 147 143 124
0.0690797 0.053785 0 0 0 1 138 128 112
0.0928077 0.0535586 0 0 0 1 136 131 113
0.100268 0.0530636 0 0 0 1 123 115 85
0.1238 0.0537446 0 0 0 1 136 128 117
0.129773 0.0535811 0 0 0 1 96 74 51
0.0843624 0.0555767 0 0 0 1 138 139 119
0.0548683 0.0568811 0 0 0 1 136 139 120
-0.123604 0.0602183 0 0 0 1 135 139 122
0.0353729 0.0650039 0 0 0 1 134 136 120
0.112816 0.0654682 0 0 0 1 133 136 117
-0.135264 0.0662381 0 0 0 1 130 132 121
0.0918068 0.0837502 0 0 0 1 133 133 122
0.0465906 0.0868571 0 0 0 1 133 133 122
0.0714724 0.0852994 0 0 0 1 133 135 119
-0.134994 0.0957294 0 0 0 1 113 114 106
0.0591443 0.0967892 0 0 0 1 139 137 123
0.0811884 0.0957562 0 0 0 1 40 36 60
0.0993255 0.0958201 0 0 0 1 56 54 60
0.0350652 0.0989353 0 0 0 1 77 73 79
-0.110341 0.101883 0 0 0 1 90 81 91
-0.0769626 0.102693 0 0 0 1 86 77 64
-0.0731946 0.102922 0 0 0 1 101 91 94
0.0591759 0.101982 0 0 0 1 139 137 123
0.0990216 0.102174 0 0 0 1 49 48 59
0.0464712 0.111851 0 0 0 1 129 131 120
-0.0212241 0.137559 0 0 0 1 182 131 72
0.099832 0.145161 0 0 0 1 129 125 96
0.120146 0.151639 0 0 0 1 50 19 13
0.133836 0.152072 0 0 0 1 124 125 112
0.0372761 0.152843 0 0 0 1 132 131 106
0.11557 0.167835 0 0 0 1 123 125 115
0.11722 0.17476 0 0 0 1 123 124 112
0.0537456 0.187261 0 0 0 1 130 125 108
0.0805539 0.18633 0 0 0 1 110 94 94
0.113509 0.186924 0 0 0 1 39 17 20
0.126663 0.186634 0 0 0 1 128 126 104
0.138784 0.189747 0 0 0 1 119 120 110
-0.011133 0.191137 0 0 0 1 125 127 114
0.0305399 0.195636 0 0 0 1 238 81 8
-0.0961566 0.201799 0 0 0 1 122 124 112
-0.0708901 0.201688 0 0 0 1 80 79 95
-0.022067 0.201959 0 0 0 1 97 100 91
-0.0160565 0.201794 0 0 0 1 94 95 98
-0.000445777 0.202021 0 0 0 1 118 118 107
0.0863523 0.202393 0 0 0 1 109 100 89
-0.106482 0.212382 0 0 0 1 121 123 113
-0.0249232 0.213284 0 0 0 1 123 125 112
0.0351456 0.212873 0 0 0 1 121 122 115
-0.0184991 0.269422 0 0 0 1 202 96 4
0.147011 0.293761 0 0 0 1 84 35 20
0.133897 0.308532 0 0 0 1 187 135 85
-0.119567 0.311571 0 0 0 1 174 133 92
-0.00574758 0.313011 0 0 0 1 182 134 88
0.14712 0.317565 0 0 0 1 103 51 23
-0.0619711 0.319658 0 0 0 1 156 60 11
0.0533317 0.320406 0 0 0 1 41 13 17
0.118502 0.322611 0 0 0 1 52 13 11
-0.106857 0.324227 0 0 0 1 47 14 16
-0.0488287 0.324896 0 0 0 1 64 20 5
0.0962491 -0.197773 0 0 0 1 114 102 103
0.00222243 -0.1777 0 0 0 1 144 144 128
0.00516123 -0.17767 0 0 0 1 141 145 127
0.092762 -0.176458 0 0 0 1 144 142 127
-0.0739144 -0.110694 0 0 0 1 70 22 24
-0.0803338 -0.108652 0 0 0 1 63 26 17
-0.0912979 -0.10658 0 0 0 1 73 22 20
-0.0459774 -0.107724 0 0 0 1 70 24 23
-0.131826 -0.0938585 0 0 0 1 175 149 41
-0.0632297 -0.0887945 0 0 0 1 149 119 29
0.00940481 -0.0870439 0 0 0 1 147 146 126
-0.0962044 -0.085892 0 0 0 1 140 103 33
-0.0611425 -0.0830896 0 0 0 1 214 155 123
0.0894551 -0.0833654 0 0 0 1 147 145 122
-0.0624588 -0.0793596 0 0 0 1 250 194 147
-0.142141 -0.0771508 0 0 0 1 71 28 22
0.113143 -0.0775647 0 0 0 1 142 141 118
0.122644 -0.0784401 0 0 0 1 136 136 119
0.0252883 -0.0750312 0 0 0 1 131 129 120
-0.107264 -0.0668524 0 0 0 1 126 110 9
0.0863666 -0.0639605 0 0 0 1 138 141 126
-0.131972 -0.0625993 0 0 0 1 151 144 0
-0.0745608 -0.0600464 0 0 0 1 151 141 15
-0.131628 -0.0297007 0 0 0 1 137 139 124
-0.0902144 -0.0295945 0 0 0 1 140 142 124
-0.132031 -0.0272341 0 0 0 1 139 138 121
-0.0901934 -0.0270505 0 0 0 1 141 141 123
0.100725 -0.026472 0 0 0 1 143 142 125
-0.0935801 -0.0177511 0 0 0 1 185 135 108
-0.0272048 -0.0140203 0 0 0 1 121 79 43
0.0422554 -0.00972231 0 0 0 1 85 53 53
0.0170585 -0.00169564 0 0 0 1 118 127 121
-0.0668952 0.00525857 0 0 0 1 98 64 70
0.107626 0.0372545 0 0 0 1 136 137 121
0.0845533 0.0395089 0 0 0 1 137 139 120
0.0190038 0.0527265 0 0 0 1 136 137 120
0.0285134 0.0521944 0 0 0 1 149 129 112
0.0389475 0.0518002 0 0 0 1 144 145 125
0.0426514 0.0682072 0 0 0 1 134 136 122
0.0510425 0.0844514 0 0 0 1 133 135 120
0.065988 0.0994057 0 0 0 1 36 33 61
-0.0666639 0.103945 0 0 0 1 73 62 54
0.0508612 0.113755 0 0 0 1 130 132 119
-0.119342 0.147357 0 0 0 1 131 134 111
-0.115635 0.147214 0 0 0 1 76 76 75
-0.0846139 0.147891 0 0 0 1 127 128 115
0.0353805 0.149417 0 0 0 1 69 59 63
-0.0346715 0.153393 0 0 0 1 39 28 39
0.0772849 0.171735 0 0 0 1 126 128 116
0.111696 0.171918 0 0 0 1 123 125 115
0.055852 0.197372 0 0 0 1 135 127 115
-0.0863923 0.20058 0 0 0 1 89 90 88
-0.0256729 0.200279 0 0 0 1 37 41 63
-0.0288154 0.269897 0 0 0 1 223 115 0
0.0302251 0.303755 0 0 0 1 185 136 92
0.0946197 0.310063 0 0 0 1 187 127 74
0.101481 0.309812 0 0 0 1 194 140 83
-0.0878181 0.311931 0 0 0 1 184 142 91
-0.0742881 -0.11645 0 0 0 1 140 133 105
-0.0179452 -0.107205 0 0 0 1 142 145 130
-0.111173 -0.102759 0 0 0 1 86 42 15
-0.102405 -0.104201 0 0 0 1 62 19 7
-0.0698341 -0.0813384 0 0 0 1 221 163 115
0.116066 -0.0816482 0 0 0 1 231 56 41
0.0395706 -0.0792739 0 0 0 1 151 147 123
-0.0691923 -0.0698541 0 0 0 1 176 130 73
-0.121921 -0.0713739 0 0 0 1 106 67 6
-0.0213451 -0.0369867 0 0 0 1 142 145 127
-0.110522 -0.026349 0 0 0 1 171 152 125
-0.0994122 -0.0260876 0 0 0 1 168 156 123
0.0819066 -0.0107961 0 0 0 1 148 145 122
0.0945357 -0.0105087 0 0 0 1 155 151 124
0.107771 -0.0103124 0 0 0 1 141 142 122
0.0497071 0.0794349 0 0 0 1 133 138 117
0.0884776 0.0988844 0 0 0 1 34 30 55
-0.117371 0.147955 0 0 0 1 76 76 75
0.111605 0.146725 0 0 0 1 130 131 114
0.0567157 0.193587 0 0 0 1 67 44 50
-0.082387 0.207183 0 0 0 1 133 134 125
-0.0707301 0.271919 0 0 0 1 141 15 29
0.0394692 0.272467 0 0 0 1 217 114 3
-0.095742 -0.100102 0 0 0 1 77 31 15
0.00767484 -0.0828103 0 0 0 1 146 145 130
0.0957401 -0.0784556 0 0 0 1 86 82 90
0.107691 -0.0782844 0 0 0 1 87 71 6
-0.0784642 -0.0721518 0 0 0 1 195 138 91
0.0652157 0.133875 0 0 0 1 130 132 118
0.0694683 0.16374 0 0 0 1 126 127 117
0.104647 0.196155 0 0 0 1 82 74 89
-0.00311251 -0.0439073 0 0 0 1 142 144 125
