ply
format ascii 1.0
element vertex 476
property float x
property float y
property float z
property float nx
property float ny
property float nz
property uchar diffuse_red
property uchar diffuse_green
property uchar diffuse_blue
end_header
0.71694 0.403734 0.385728 0.886208 -0.142536 -0.440815 173 84 84
0.732252 0.332358 0.331005 0.897991 0.22102 -0.380477 195 175 172
0.70513 0.418459 0.354051 0.813621 0.517813 -0.264369 177 109 110
0.699586 0.701579 0.372372 0.934289 0.0261025 -0.355557 152 33 36
0.688035 0.642683 0.36951 0.925574 -0.19144 -0.326594 190 161 167
0.699362 0.471132 0.332759 0.894686 -0.206003 -0.396357 188 159 163
0.694227 0.48365 0.3174 0.794054 -0.0594689 -0.604931 172 112 115
0.690368 0.594581 0.336473 0.778553 0.385093 -0.495537 182 162 167
0.705133 0.372246 0.300899 0.900992 -0.062708 -0.42928 196 176 173
0.676588 0.552615 0.296366 0.688228 -0.0532501 -0.723537 139 44 45
0.631499 0.664022 0.276353 0.631288 0.233905 -0.739436 165 143 145
0.635225 0.849675 0.393191 0.0985462 0.724563 -0.682128 99 33 34
0.67942 -0.33635 0.163034 0.691659 0.664312 -0.283368 182 167 163
0.665963 0.590291 0.294667 0.695593 0.340615 -0.63256 160 128 129
0.605683 0.833252 0.366506 0.769932 0.522614 -0.366168 51 22 18
0.666552 0.136857 0.190929 0.908302 0.387066 -0.158641 192 160 148
0.657276 -0.371388 0.0859942 0.842629 -0.330235 -0.425349 186 172 169
0.658767 -0.025077 0.122224 0.866116 0.0122663 -0.499693 174 133 116
0.640071 0.204693 0.149906 0.640827 0.402677 -0.653599 177 144 131
0.566018 0.802008 0.31811 0.531269 0.75717 -0.38006 52 20 14
0.616115 -0.467594 0.100286 0.335943 -0.459922 -0.821957 70 40 34
0.626189 -0.416043 0.0804054 0.742312 -0.594535 -0.309031 183 172 170
0.634099 -0.0180477 0.0670014 0.985891 -0.0535563 -0.15859 194 161 150
0.602135 0.259768 0.139532 0.806171 0.11146 -0.581089 154 127 113
0.602504 0.201639 0.103145 0.706509 0.399815 -0.583946 177 142 130
0.463064 0.889907 0.381874 0.326582 0.775511 -0.540303 102 16 16
0.55355 -0.486859 0.0798391 0.110905 -0.329216 -0.937718 174 164 163
0.56612 0.464939 0.114992 0.58311 0.107399 -0.805263 174 160 153
0.5022 0.682861 0.254436 -0.097113 0.590421 -0.801233 138 120 125
0.510316 -0.521069 0.0832357 0.416752 -0.704857 -0.574016 173 163 162
0.364564 0.916679 0.371396 0.0118566 0.619313 -0.785054 129 61 68
0.578448 -0.0569502 -0.0154934 0.806982 0.354495 -0.472348 180 160 151
0.517799 0.298416 0.0543852 0.63762 0.0543708 -0.76843 169 139 128
0.344831 0.884481 0.358249 0.229171 0.333552 -0.914453 118 90 90
0.505218 0.271574 0.0344999 0.722153 0.304789 -0.620965 160 124 109
0.493897 0.350396 0.0656888 0.495387 0.527341 -0.690293 138 109 95
0.533766 0.084759 -0.0202372 0.50738 0.18274 -0.842124 160 126 112
0.527377 -0.191389 -0.0864177 0.526531 -0.0289063 -0.849665 165 149 143
0.497236 0.145502 -0.0310453 0.62054 0.140071 -0.771563 167 133 119
0.488429 0.083994 -0.0577919 0.703407 0.085995 -0.705565 168 139 126
0.353654 0.661467 0.123435 0.166062 -0.887391 -0.43007 63 36 21
0.445725 0.0577649 -0.0724448 0.384616 -0.119484 -0.915311 151 116 100
0.457518 0.126667 -0.0656514 0.439289 0.184503 -0.879195 160 128 115
0.385393 0.272729 -0.0411555 0.344485 0.503302 -0.792475 161 133 123
0.366295 0.324325 -0.0209122 0.563212 0.522678 -0.64 157 130 122
0.271364 0.460062 0.0893312 -0.143132 0.579786 -0.802098 130 98 86
0.356015 0.261309 -0.0619234 0.185335 0.580314 -0.793024 154 120 105
0.379028 -0.224032 -0.162318 0.164136 -0.514719 -0.841501 161 145 138
0.364264 -0.272228 -0.140514 0.0750041 -0.290472 -0.953939 110 85 76
0.343506 -0.256408 -0.145003 -0.00635131 -0.280826 -0.959738 160 143 137
0.297558 0.00863196 -0.0914458 -0.0844433 0.381274 -0.920597 150 122 115
0.293017 0.0854195 -0.0950602 0.273589 -0.26191 -0.925501 148 111 99
0.0984046 0.587147 0.151469 0.765731 0.640275 -0.0608669 36 18 14
0.322682 -0.247388 -0.149756 0.00496831 -0.354074 -0.935204 168 155 149
0.266459 0.0361325 -0.0945896 0.501404 -0.0932349 -0.860175 95 53 46
0.249656 -0.339989 -0.112366 0.0390717 -0.567167 -0.822675 149 133 128
0.209719 -0.313459 -0.10856 -0.205639 -0.257391 -0.944173 167 154 154
0.242494 0.204586 -0.11663 0.615467 0.200563 -0.762217 145 91 93
0.187967 0.324544 -0.0457146 0.446946 0.685775 -0.574414 136 98 93
0.039211 0.678232 0.145272 0.129466 -0.871655 -0.47271 54 26 18
0.226371 0.240008 -0.107619 0.222161 0.727717 -0.648901 165 145 149
0.220873 0.264054 -0.106832 0.608789 0.663649 -0.43468 140 105 108
0.143821 -0.31414 -0.0706286 -0.236809 -0.168426 -0.956846 165 152 151
0.195658 0.294253 -0.103225 0.943393 0.0121696 -0.331455 111 32 36
0.0274236 0.692465 0.0966875 0.491291 -0.789724 -0.367382 75 40 27
0.214105 0.173883 -0.14437 0.943553 -0.0613533 -0.325487 100 12 15
0.21609 0.032691 -0.15445 0.703297 -0.0780684 -0.706597 116 24 25
0.173383 -0.156626 -0.158304 0.128049 -0.527169 -0.840058 121 47 48
0.190163 0.300318 -0.14393 0.943268 0.324224 0.0715851 176 143 147
0.180643 0.342436 -0.141817 0.651984 0.302675 -0.695201 139 22 24
0.12659 0.412615 -0.0766963 0.909421 0.412877 0.0498572 166 127 132
0.070496 0.791314 0.000722517 0.375713 -0.878202 -0.295974 73 46 36
-0.00264005 -0.306566 -0.0151148 0.615502 -0.735406 -0.283436 146 113 121
0.183466 0.20978 -0.211858 0.616554 0.355003 -0.702732 111 13 17
0.117046 0.419228 -0.117975 0.775881 0.5161 -0.362836 145 42 47
0.00490238 -0.285497 -0.062428 0.464051 -0.772317 -0.433801 119 20 23
0.167984 0.0154185 -0.221511 0.840431 -0.428522 -0.331729 151 38 40
0.154259 0.327166 -0.181427 0.705531 0.288539 -0.64728 175 149 153
0.171402 0.223205 -0.218819 0.674925 0.322395 -0.663731 112 13 16
0.16951 0.222216 -0.221437 0.654688 0.317701 -0.685894 115 13 16
0.161869 0.0384398 -0.254296 0.78542 -0.201682 -0.585182 167 81 85
0.0993315 0.381961 -0.207642 0.395661 0.564314 -0.72457 140 25 28
0.0494261 0.384069 -0.220338 0.0984593 0.56275 -0.820743 127 26 25
0.074865 -0.0757869 -0.279144 0.725091 -0.536188 -0.432139 127 33 37
0.0609566 -0.136969 -0.29988 0.931558 -0.307553 0.193937 112 71 72
0.0891641 0.0836432 -0.314514 0.993957 0.101183 -0.0425697 163 105 109
0.0517979 0.352 -0.256107 0.715688 0.423359 -0.555479 153 107 96
-0.0133582 0.484055 -0.211802 0.636148 0.413545 -0.651381 174 143 135
-0.114054 0.775974 -0.129635 0.377539 -0.858466 -0.347132 71 41 30
0.0809059 0.0710511 -0.353654 0.994061 -0.0230057 -0.106363 165 36 40
0.0105702 0.298452 -0.274685 0.713129 0.338567 -0.613856 148 109 100
0.060124 0.178053 -0.337078 0.96199 0.2722 -0.0219884 138 17 21
-0.0540209 0.502986 -0.207936 0.712234 0.510503 -0.481777 171 143 137
0.0790866 0.00381768 -0.370652 0.990121 0.117157 0.0770282 165 26 30
0.0637952 0.101931 -0.364765 0.747176 0.586652 -0.312358 147 24 27
-0.0758771 0.536601 -0.238481 0.884721 0.0794777 -0.459294 150 125 121
-0.00400048 0.256955 -0.364979 0.607799 0.661405 -0.439458 108 60 50
-0.0158573 0.451237 -0.317849 0.765693 0.383217 -0.516585 174 143 133
-0.0233235 0.351195 -0.349802 0.758696 -0.15753 -0.632111 168 134 124
0.0473898 0.0465446 -0.45556 0.829165 0.512271 -0.22375 186 153 159
0.0565756 -0.00133096 -0.47994 0.765436 0.405675 -0.499534 177 145 148
-0.0398457 0.425418 -0.375677 0.694031 0.0950021 -0.713649 168 137 127
-0.0316972 0.333104 -0.376759 0.783227 0.239725 -0.57366 164 128 119
-0.152846 -0.62116 -0.365137 0.753461 -0.320129 -0.574293 150 119 110
-0.0487391 0.347207 -0.38712 0.81906 -0.118866 -0.561259 167 134 124
-0.0676239 0.496734 -0.367236 0.660508 0.642127 -0.389106 191 167 161
-0.142045 -0.616393 -0.392779 0.718894 -0.659145 -0.220724 124 93 81
0.161332 -0.194956 -0.645878 0.606525 -0.150439 -0.780702 178 149 140
-0.0690397 0.324763 -0.41172 0.695786 -0.140384 -0.704397 168 134 126
-0.163617 0.584546 -0.345041 0.673207 0.417938 -0.610016 63 39 32
-0.232009 -0.662752 -0.371819 0.131524 -0.467463 -0.874174 132 119 100
0.121637 -0.121395 -0.636607 0.640841 0.594236 -0.486012 190 164 158
-0.0383951 0.220792 -0.499179 0.658452 0.694879 -0.289109 145 26 27
-0.106844 0.297552 -0.447068 0.894653 0.355121 -0.271081 165 127 118
-0.0529418 0.236604 -0.525767 0.692181 0.699847 -0.176352 140 70 64
-0.142284 0.476171 -0.441352 0.711652 0.63896 -0.292027 159 131 121
-0.0335989 0.0545055 -0.55951 0.694351 0.277375 -0.664033 144 86 88
-0.191709 0.556328 -0.424838 0.823806 0.565887 0.033405 139 106 99
-0.242734 0.698939 -0.3784 0.875661 0.444816 -0.188036 124 74 60
-0.0321419 0.109489 -0.591935 0.905205 -0.416672 -0.083591 144 38 43
-0.152219 0.435011 -0.488447 0.779783 0.311502 -0.543051 156 126 118
-0.241749 0.685756 -0.398615 0.855206 0.434052 -0.283234 115 66 55
-0.00239195 -0.417903 -0.659306 0.627607 -0.639754 -0.44365 154 134 131
-0.232893 0.650764 -0.421283 0.895959 0.363658 -0.254973 113 65 54
-0.242777 0.672308 -0.420111 0.856132 0.398738 -0.328702 94 51 44
-0.0783006 -0.0379691 -0.618387 0.529004 0.805455 -0.267202 77 14 15
-0.0434236 0.123065 -0.639887 0.86971 -0.0693976 -0.488659 140 16 19
-0.276687 0.738185 -0.426779 0.278795 0.649461 -0.707441 115 92 74
0.0712138 -0.167105 -0.764127 0.828037 -0.0382326 -0.559368 168 140 131
-0.289375 0.71924 -0.429744 0.500193 0.562585 -0.658259 109 86 70
-0.281279 0.676425 -0.462196 0.616053 0.596845 -0.514058 101 80 66
-0.17242 0.439022 -0.565489 0.678369 0.486849 -0.550267 93 50 41
-0.0948373 0.00333807 -0.645797 0.932432 -0.235239 -0.274287 100 17 18
-0.264528 0.625669 -0.492793 0.570269 0.542959 -0.616433 108 86 69
-0.0627664 0.109935 -0.667834 0.806363 0.104812 -0.582059 159 114 114
0.0588943 -0.285832 -0.793186 0.496383 -0.242506 -0.833543 160 137 132
0.0532585 -0.179622 -0.787132 0.41813 0.327864 -0.847155 153 120 108
-0.32567 0.710158 -0.464319 0.479633 0.468083 -0.742193 78 58 50
-0.0833917 -0.442315 -0.704468 0.632971 -0.590341 -0.500845 106 84 69
-0.246256 0.533034 -0.560058 0.561286 0.595325 -0.574931 94 72 60
-0.305617 0.642484 -0.506678 0.519548 0.537265 -0.664391 83 64 54
-0.0226997 -0.361267 -0.784569 0.728797 -0.652556 -0.207425 128 109 107
-0.351707 0.711718 -0.493865 0.459332 0.609121 -0.646518 110 89 72
-0.0732221 0.14783 -0.736448 0.579535 0.510791 -0.635005 93 53 43
-0.274735 0.565214 -0.561643 0.342017 0.603105 -0.720617 84 63 52
-0.128288 0.253193 -0.701163 0.539865 0.509004 -0.670419 111 88 71
-0.0188177 -0.277096 -0.81554 0.420783 -0.25258 -0.871289 110 74 65
-0.00434054 -0.173806 -0.819997 0.568784 0.473082 -0.672813 102 56 42
-0.12022 0.209658 -0.730251 0.55725 0.501035 -0.662145 115 93 74
-0.261337 0.469494 -0.608409 0.664882 0.581928 -0.468287 110 90 71
-0.365915 0.669769 -0.533072 0.471437 0.666178 -0.577888 108 89 72
-0.016035 -0.0287943 -0.823961 0.694142 0.442151 -0.56804 119 70 55
0.0192542 -0.131956 -0.863044 0.731176 0.351822 -0.584468 135 84 67
-0.105851 0.131967 -0.775662 0.493964 0.550628 -0.67291 109 88 72
0.0171365 -0.164435 -0.874002 0.990837 0.116312 0.0686484 133 86 70
-0.26352 0.362306 -0.702328 0.454532 0.575 -0.680276 113 95 74
-0.289303 0.480037 -0.627914 0.651617 0.519777 -0.552473 75 58 49
-0.336697 0.564128 -0.606551 0.397144 0.448786 -0.800542 71 53 44
-0.407196 0.675939 -0.558056 0.402037 0.607277 -0.68526 78 60 51
-0.409191 0.700752 -0.548057 0.430005 0.761465 -0.485045 82 63 53
-0.150535 0.20152 -0.758006 0.418375 0.559038 -0.715848 117 97 77
-0.359585 0.597167 -0.598456 0.394829 0.533703 -0.747845 83 64 54
-0.406059 0.697281 -0.546326 0.62035 0.512125 -0.594048 84 65 55
-0.136014 0.158218 -0.780339 0.514945 0.554625 -0.653622 88 68 56
-0.0651765 0.0119033 -0.846219 0.583533 0.514516 -0.628302 107 88 71
0.00185913 -0.154312 -0.900189 0.735443 0.404546 -0.543567 99 56 46
-0.179546 0.248868 -0.745554 0.384202 0.449975 -0.806171 118 99 78
-0.273654 0.412902 -0.679833 0.498327 0.410155 -0.763835 106 88 71
-0.468581 0.726838 -0.552566 0.446527 0.654568 -0.610045 104 88 72
-0.0512834 -0.0316182 -0.867907 0.619018 0.517241 -0.590998 113 93 74
-0.0372067 -0.0610708 -0.87652 0.665312 0.41001 -0.623901 115 93 75
-0.0857772 0.0257023 -0.844689 0.517585 0.591263 -0.618476 85 64 53
-0.186063 0.195087 -0.790451 0.418992 0.474543 -0.774116 83 63 52
-0.34618 0.496133 -0.655105 0.497097 0.542713 -0.67702 106 88 69
-0.342704 0.469452 -0.670163 0.57954 0.486128 -0.654073 106 89 72
-0.207971 0.17223 -0.817573 0.595197 0.538097 -0.596819 110 93 75
-0.412807 0.562177 -0.663338 0.42277 0.613871 -0.666654 108 92 75
-0.384565 0.493675 -0.682669 0.672277 0.387422 -0.630832 73 58 50
-0.0924367 -0.0586283 -0.922879 0.492589 0.525619 -0.693599 116 97 78
-0.287685 0.292843 -0.777354 0.372079 0.622086 -0.688888 113 96 79
-0.22458 0.156294 -0.841281 0.547421 0.563525 -0.618685 89 69 57
-0.37217 0.415677 -0.731163 0.511105 0.447276 -0.733973 82 66 55
-0.197911 0.125151 -0.839045 0.786607 0.292202 -0.543937 114 97 78
-0.182852 0.0711021 -0.882722 0.382642 0.552537 -0.740465 119 102 81
-0.318072 0.27765 -0.809709 0.514373 0.519302 -0.682457 112 96 78
-0.3533 0.360143 -0.769068 0.405597 0.471856 -0.782843 105 87 72
-0.0791479 -0.286187 -0.974135 0.266817 -0.605321 -0.749931 119 109 91
-0.258207 0.171844 -0.85641 0.697298 0.426006 -0.576449 110 94 74
-0.542272 0.660976 -0.66645 0.392157 0.62354 -0.676321 99 86 75
-0.220066 0.0782281 -0.898364 0.42068 0.574476 -0.702144 115 100 79
-0.388219 0.344838 -0.798404 0.412185 0.61661 -0.670742 108 93 75
-0.596822 0.634636 -0.71378 0.268382 0.523973 -0.808346 101 90 77
-0.154433 -0.277467 -1.01293 0.241843 -0.166047 -0.956002 121 115 100
-0.375616 0.249158 -0.863205 0.392961 0.609359 -0.688668 79 63 54
-0.159688 -0.0984761 -0.997045 0.386601 0.535156 -0.751097 116 99 80
-0.553082 0.526819 -0.759201 0.305303 0.575848 -0.758413 102 89 74
-0.357923 0.185703 -0.900443 0.401855 0.547525 -0.733981 82 66 55
-0.330717 0.147427 -0.909524 0.44198 0.697522 -0.564019 83 67 57
-0.413698 0.274565 -0.867188 0.272841 0.515168 -0.812501 112 98 80
-0.432406 0.2881 -0.866578 0.34063 0.508542 -0.790794 101 86 71
-0.365576 0.174254 -0.921349 0.91584 0.394436 -0.0752208 109 94 77
-0.405785 0.224419 -0.89875 0.289535 0.655097 -0.697866 113 97 81
-0.230613 -0.0993977 -1.03321 0.249672 0.535859 -0.806548 113 100 81
-0.241909 -0.0828743 -1.02851 0.280383 0.377153 -0.882689 114 99 80
0.721827 0.386878 0.347428 0.774581 0.42273 -0.47045 167 57 57
0.695834 0.451379 0.332026 0.902966 0.00449082 -0.429688 192 172 175
0.68626 0.583978 0.315608 0.705972 0.295762 -0.643528 169 142 145
0.676455 0.119828 0.226728 0.963701 0.2612 -0.0552613 189 159 148
0.659281 0.650377 0.297368 0.73675 -0.0950686 -0.669449 178 157 160
0.635202 0.507905 0.256893 0.683764 -0.0798525 -0.725322 169 134 136
0.673169 0.0289156 0.154946 0.90651 0.0911096 -0.412237 180 141 125
0.659485 0.0966273 0.146936 0.680023 -0.104924 -0.725644 166 122 102
0.66204 0.0766489 0.143288 0.76434 0.0878715 -0.638798 166 121 101
0.614494 0.167897 0.094093 0.762237 0.352478 -0.542912 170 129 112
0.629417 -0.00559072 0.0522109 0.849043 0.486872 -0.205137 187 152 139
0.553476 0.638322 0.227014 0.0385713 0.154142 -0.987295 125 20 21
0.550192 -0.511274 0.0998949 0.588152 -0.692324 -0.418048 117 92 86
0.6168 0.102784 0.0650956 0.848319 0.128841 -0.513571 183 146 133
0.581678 0.217787 0.0834125 0.734479 0.500645 -0.458142 157 112 95
0.574233 0.439656 0.118838 0.685619 0.0790432 -0.723657 175 161 154
0.596725 -0.0116375 0.0159691 0.231238 -0.636716 -0.73561 161 121 102
0.576147 -0.17593 -0.0361396 0.878913 0.111381 -0.463795 190 173 167
0.382083 0.766112 0.291994 -0.00310205 0.0522436 -0.998629 74 39 25
0.551505 -0.331409 -0.0722362 0.462325 -0.411935 -0.785217 169 154 146
0.550427 -0.0723767 -0.0514459 0.713688 0.235245 -0.65978 161 142 130
0.50422 0.0626781 -0.0343023 0.431101 -0.222745 -0.874378 151 115 97
0.463717 0.312456 0.0235879 0.563462 0.593329 -0.574867 165 136 127
0.424654 0.374869 0.0479708 0.258933 0.759801 -0.596368 154 124 111
0.456848 0.181146 -0.0489779 0.432952 0.326173 -0.840335 153 114 97
0.455582 0.164118 -0.0538691 0.565041 0.357529 -0.743573 151 115 99
0.39276 0.346914 0.00412597 0.448279 0.585861 -0.675138 154 127 117
0.407908 0.0134048 -0.0845902 0.0702179 0.311 -0.947812 167 148 140
0.438657 -0.201725 -0.150332 0.759181 -0.202512 -0.618574 170 155 148
0.324702 -0.270966 -0.146453 0.0646759 -0.493431 -0.867377 151 133 127
0.102508 0.552282 0.147897 0.828635 0.536469 -0.159895 41 18 16
0.254327 -0.0312747 -0.107993 0.532622 0.510269 -0.675233 133 98 92
0.240316 0.0463486 -0.123991 0.950762 -0.0603344 -0.303995 146 117 114
0.223102 -0.129602 -0.13738 0.367439 -0.28387 -0.885667 156 131 126
0.126691 0.439856 -0.00042845 0.960528 0.226537 -0.161453 86 24 26
0.0542792 0.717405 0.0780906 0.368389 -0.833759 -0.411259 65 34 24
0.228142 0.138713 -0.141308 0.651775 0.0363088 -0.757543 102 16 18
0.0880136 0.77809 0.0119458 0.458881 -0.573761 -0.6784 85 47 36
0.106913 0.443488 -0.0513441 0.814926 0.577232 -0.0519506 160 141 146
0.168184 0.743283 0.116673 0.55297 -0.456232 -0.697192 86 49 32
0.0611817 0.753135 0.02012 0.290767 -0.873222 -0.391073 98 57 39
0.160243 -0.112486 -0.172867 0.611696 -0.0794194 -0.787097 158 131 131
0.0906223 -0.212429 -0.104955 0.690628 -0.496805 -0.525565 152 127 129
0.00762026 -0.252998 -0.115571 0.425877 -0.735715 -0.526642 111 16 17
-0.0612245 0.699822 -0.0127516 0.44006 -0.825556 -0.353278 58 30 22
0.0203647 0.497564 -0.1274 0.53409 0.812121 -0.234964 161 124 132
0.143647 0.138055 -0.269941 0.310462 0.155092 -0.937848 162 138 142
-0.0520213 0.733943 -0.0855923 0.314861 -0.836005 -0.449397 91 54 37
0.106534 0.244806 -0.264312 0.320509 0.141711 -0.936586 125 22 23
0.0402226 0.423924 -0.201163 0.499479 0.33262 -0.799927 137 34 34
-0.0648476 0.733072 -0.087776 0.449227 -0.854438 -0.261019 91 53 36
0.0730532 0.154743 -0.304577 0.75056 0.175422 -0.637092 158 113 116
0.0374105 0.385107 -0.278838 0.74639 0.641848 -0.175879 172 133 122
0.0333109 0.400437 -0.26567 0.936897 0.342776 -0.0687659 176 137 127
-0.123635 0.761849 -0.145529 0.570475 -0.432396 -0.698278 79 44 34
-0.145697 0.724881 -0.175797 0.274665 -0.886741 -0.371819 93 54 37
0.0714428 0.00800743 -0.427152 0.937391 0.170888 -0.303472 192 172 176
0.168311 -0.175121 -0.529482 0.856495 0.12533 -0.500709 182 151 141
0.188195 -0.199836 -0.572407 0.961338 0.0462636 -0.271457 190 160 151
0.0574221 0.00845232 -0.459628 0.889199 0.389743 -0.239635 184 163 167
0.159935 -0.257018 -0.599735 0.853785 -0.400397 -0.332767 173 138 126
-0.113847 0.537471 -0.309375 0.814829 0.525495 -0.244764 167 141 135
0.0121062 0.160971 -0.464107 0.900926 -0.370586 -0.225828 146 22 25
-0.0729757 -0.493701 -0.439479 0.787689 -0.610083 -0.0856996 160 126 118
0.013788 0.0610331 -0.501672 0.887159 0.356391 -0.293144 152 23 25
0.0715403 -0.0672343 -0.571442 0.278018 0.91758 -0.284173 186 157 152
0.144854 -0.220536 -0.656263 0.688003 -0.11719 -0.716184 173 138 126
0.117358 -0.315533 -0.655343 0.76717 -0.53971 -0.346646 185 156 148
-0.022269 0.0789074 -0.540513 0.81461 -0.201664 -0.543821 133 36 39
-0.254171 0.738102 -0.319092 0.9452 0.308343 -0.107337 36 19 14
0.0203489 -0.0529627 -0.58188 0.278111 0.914576 -0.293607 173 141 136
0.0951197 -0.333267 -0.681963 0.675396 -0.534965 -0.507595 170 140 132
-0.212634 0.599846 -0.386557 0.688761 -0.0269248 -0.724488 50 28 22
0.0419774 -0.396612 -0.656372 0.710659 -0.681733 -0.173795 174 151 147
0.115781 -0.227951 -0.715094 0.641963 0.394294 -0.657582 172 137 124
0.0339671 -0.0739148 -0.642433 0.422979 0.900264 -0.103016 178 150 145
-0.254624 0.721947 -0.376557 0.824458 0.477668 -0.303484 111 64 53
-0.042375 -0.457949 -0.627377 0.853264 -0.506784 -0.122923 105 74 63
-0.132073 0.254309 -0.531975 0.364344 0.774428 -0.51722 163 119 109
0.0854326 -0.235809 -0.75358 0.763657 0.516417 -0.38748 180 154 146
0.0560621 -0.326543 -0.756797 0.816992 -0.381144 -0.432726 177 153 147
-0.0821151 -0.0787641 -0.664906 0.48218 0.875775 -0.022809 158 117 111
-0.249253 0.57145 -0.526724 0.534538 0.544781 -0.646129 107 86 68
-0.0353961 -0.371427 -0.742211 0.821707 -0.565505 -0.0707239 159 139 134
-0.276785 0.62073 -0.520336 0.41882 0.664749 -0.618626 92 70 58
-0.012593 -0.326723 -0.804965 0.698573 -0.448715 -0.557361 73 44 39
-0.163096 0.314452 -0.675709 0.524356 0.513976 -0.67888 117 96 76
-0.254078 0.484513 -0.598409 0.458057 0.576527 -0.67661 113 92 72
-0.327454 0.589341 -0.576555 0.396421 0.575053 -0.715657 110 90 73
-0.068586 0.0694709 -0.800419 0.570875 0.518039 -0.636975 107 84 67
-0.306743 0.496653 -0.62895 0.652809 0.496177 -0.572406 85 68 56
-0.22534 0.334537 -0.700618 0.653096 0.472054 -0.592141 96 78 63
-0.112302 0.114399 -0.804315 0.611626 0.456484 -0.646169 103 82 68
-0.34158 0.532392 -0.629355 0.351125 0.631779 -0.691062 108 89 71
-0.10988 0.0868729 -0.815231 0.612921 0.642015 -0.460594 87 68 55
-0.0958784 0.0662372 -0.82618 0.453915 0.581641 -0.675022 86 65 54
-0.419619 0.647076 -0.593346 0.424029 0.588955 -0.687992 108 90 74
-0.235692 0.302125 -0.73237 0.509744 0.618301 -0.598217 115 96 77
-0.0650766 -0.0503557 -0.892898 0.559282 0.559079 -0.612073 86 65 54
-0.0825694 -0.0371901 -0.894347 0.43357 0.560315 -0.705736 92 72 58
-0.322767 0.406093 -0.719639 0.287364 0.617132 -0.732509 113 98 78
-0.137258 0.0684225 -0.854604 0.659509 0.558333 -0.503301 113 96 76
-0.386115 0.511962 -0.670368 0.667944 0.382021 -0.638679 81 67 57
-0.326882 0.351059 -0.75361 0.471375 0.4945 -0.730257 108 92 74
-0.433061 0.553137 -0.676964 0.414754 0.497915 -0.761616 108 91 74
-0.265888 0.242652 -0.796289 0.45662 0.559084 -0.692043 113 96 75
-0.113145 -0.0293483 -0.910509 0.489481 0.510733 -0.706795 115 98 77
-0.241866 0.185482 -0.831803 0.655484 0.390662 -0.646316 84 68 55
-0.135583 -0.016365 -0.907722 0.576271 0.575339 -0.580427 110 94 75
-0.49213 0.598993 -0.664775 0.606293 0.595636 -0.526903 99 85 70
-0.170593 0.00962516 -0.908904 0.57539 0.570174 -0.586368 89 71 60
-0.18759 0.0356402 -0.899004 0.480348 0.504203 -0.717666 82 62 52
-0.529756 0.684046 -0.64574 0.350436 0.59133 -0.726308 104 89 73
-0.258004 0.155033 -0.867672 0.674573 0.391644 -0.625753 106 92 76
-0.159679 -0.0223473 -0.937329 0.472821 0.547441 -0.69047 95 76 64
-0.461759 0.461079 -0.74752 0.566455 0.433331 -0.700967 101 87 72
-0.547395 0.616703 -0.682872 0.558974 0.615957 -0.555108 75 63 55
-0.204446 -0.000553085 -0.937442 0.513301 0.535992 -0.670249 117 101 82
-0.197007 0.0119477 -0.926006 0.624987 0.560521 -0.543331 107 91 74
-0.635492 0.712053 -0.639448 0.57843 0.176947 -0.79631 80 69 60
-0.535501 0.596749 -0.706209 0.387367 0.629335 -0.67371 81 70 61
-0.288161 0.123735 -0.908842 0.400737 0.526047 -0.750122 112 96 79
-0.334183 0.200133 -0.864252 0.542176 0.770771 -0.334599 107 94 77
-0.210174 -0.00423506 -0.957094 0.373693 0.5819 -0.72232 115 99 79
-0.193655 -0.0732497 -0.990035 0.605608 0.539397 -0.585056 107 91 73
-0.191894 -0.105519 -1.02027 0.537184 0.448174 -0.714544 77 61 52
-0.230622 -0.0434347 -0.989135 0.630277 0.595961 -0.497575 81 65 54
-0.230439 -0.0576108 -1.00234 0.574629 0.581542 -0.575856 81 66 55
-0.163458 -0.169529 -1.05053 0.515214 0.526528 -0.676256 95 57 49
-0.305931 0.0536902 -0.965763 0.38088 0.510692 -0.770795 116 102 83
-0.247606 -0.0602917 -1.01963 0.320952 0.396419 -0.860141 111 97 78
0.693083 0.110259 0.30699 0.900707 -0.430648 -0.0571862 174 153 142
0.703494 0.132181 0.297806 0.954504 -0.167905 -0.246436 177 159 148
0.697948 0.523747 0.32134 0.864982 0.0735014 -0.496392 142 18 20
0.656179 0.776188 0.335836 0.559679 0.533755 -0.633928 164 146 150
0.675614 0.0941929 0.22473 0.966641 -0.211527 -0.14444 196 165 155
0.609025 0.847353 0.378271 0.622691 0.638143 -0.452802 60 31 27
0.619992 0.600916 0.263832 0.514621 0.381159 -0.768039 139 49 46
0.609414 0.552315 0.24154 0.599062 0.146847 -0.787121 134 34 35
0.492114 0.92774 0.425642 0.141517 0.369996 -0.918192 146 130 134
0.629714 0.10955 0.0850561 0.94999 0.0368544 -0.310099 179 142 128
0.531579 0.704585 0.262307 -0.135247 0.601096 -0.78765 145 133 139
0.620073 -0.078218 0.0295283 0.806748 0.577763 -0.123886 184 161 151
0.558766 0.571742 0.209288 0.497918 0.4672 -0.730617 148 121 121
0.606971 -0.205472 -0.00919565 0.670307 0.195886 -0.715764 113 84 73
0.587711 -0.0875016 -0.0226728 0.870614 0.263049 -0.415737 179 160 151
0.512479 0.00192831 -0.0676962 0.557211 0.377068 -0.739821 171 150 142
0.276616 0.434009 0.073042 -0.130759 0.448328 -0.884254 143 115 105
0.186515 0.738317 0.152161 0.493082 -0.751587 -0.438163 82 47 30
0.31483 -0.335342 -0.134168 -0.293137 -0.050834 -0.954718 168 156 153
0.241155 0.327902 -0.0407739 0.108588 0.544147 -0.831933 146 117 109
0.192024 -0.366765 -0.077072 -0.0326106 -0.513518 -0.857459 139 122 120
0.249735 -0.125997 -0.137719 0.142984 0.122444 -0.982122 159 134 127
0.243582 0.0734472 -0.133426 0.900815 -0.20417 -0.383206 148 122 119
0.241142 0.147212 -0.127165 0.477624 0.158119 -0.864219 119 20 22
0.209343 0.224639 -0.131426 0.884329 0.0918567 -0.457739 157 113 117
0.166995 -0.0950943 -0.174487 0.506383 -0.13681 -0.851386 157 135 135
0.185752 0.00227561 -0.177 0.632957 -0.166786 -0.756007 96 10 13
-0.0711299 -0.392822 0.0379229 0.196418 -0.659893 -0.725232 73 9 13
0.204871 0.142122 -0.209779 0.963383 0.0324513 -0.266156 190 172 177
0.170973 0.239998 -0.213399 0.704704 0.211568 -0.677223 114 13 17
0.122122 -0.115623 -0.204966 0.649091 -0.206258 -0.732215 121 24 27
-0.0842397 0.679712 0.00916529 0.366996 -0.833098 -0.413838 52 26 19
0.122774 0.087197 -0.274262 0.333762 0.0423039 -0.941708 123 18 19
0.0725536 0.257822 -0.267425 0.272563 0.177908 -0.945546 114 57 47
-0.0408689 0.535287 -0.148336 0.593731 0.601959 -0.533975 54 26 22
0.0509004 0.14306 -0.353365 0.755993 -0.379518 -0.53333 127 16 19
-0.0581417 0.525897 -0.222761 0.857837 0.108865 -0.502258 156 130 125
-0.122823 0.626862 -0.298889 0.525557 0.0964916 -0.845269 54 28 18
-0.200959 -0.664704 -0.364824 0.206638 -0.557184 -0.804268 114 84 72
0.112705 -0.340864 -0.634939 0.744066 -0.498782 -0.444503 185 159 152
0.141972 -0.191394 -0.668253 0.667276 -0.19134 -0.719814 168 135 125
0.0831756 -0.339885 -0.695318 0.768318 -0.605643 -0.207085 175 145 137
-0.0483272 0.0126706 -0.579495 0.604533 -0.0257086 -0.796165 158 126 128
-0.0463028 0.0839556 -0.595686 0.835785 -0.318939 -0.446923 123 18 21
-0.0944602 -0.0178314 -0.629781 0.245595 0.744537 -0.620764 114 16 18
-0.053961 0.177087 -0.644843 0.479923 0.509579 -0.714144 127 22 23
-0.107884 0.281325 -0.643006 0.521978 0.530237 -0.668123 117 67 55
-0.294783 0.655966 -0.501473 0.402483 0.578527 -0.709447 82 61 52
-0.348739 0.742274 -0.451446 0.625191 0.543365 -0.560259 94 77 66
0.0273962 -0.236515 -0.808261 0.42221 -0.0495359 -0.905144 154 125 116
-0.199935 0.405051 -0.626145 0.610912 0.79007 -0.0507567 122 100 79
-0.259578 0.530261 -0.579598 0.584126 0.557924 -0.589507 111 90 73
-0.109177 0.236324 -0.700269 0.695706 0.504424 -0.51142 95 61 50
-0.221853 0.471782 -0.61034 0.171095 0.660683 -0.730906 119 98 77
-0.33476 0.647763 -0.531611 0.269847 0.616426 -0.739731 115 96 77
-0.0771725 0.107387 -0.772367 0.496357 0.579509 -0.646373 101 69 56
-0.279158 0.460704 -0.648828 0.40436 0.627984 -0.664928 86 66 56
-0.415479 0.722256 -0.527671 0.446108 0.659516 -0.605001 93 77 66
-0.059828 -0.00291375 -0.861952 0.370124 0.522443 -0.768154 96 74 58
0.00651865 -0.239921 -0.945538 0.270576 -0.248669 -0.930028 102 61 49
-0.189074 0.160131 -0.806692 0.48359 0.526697 -0.699093 115 97 77
-0.507378 0.715384 -0.592962 0.281469 0.71326 -0.6419 105 90 77
-0.242665 0.172831 -0.843257 0.391655 0.579609 -0.714604 108 90 75
-0.261674 0.224158 -0.809924 0.494005 0.649956 -0.577508 113 96 75
-0.344812 0.322852 -0.794523 0.304876 0.64294 -0.702624 101 85 70
-0.140613 -0.0498201 -0.94971 0.445391 0.618828 -0.647054 112 94 77
-0.593954 0.692302 -0.663875 0.368106 0.550222 -0.749502 81 69 61
-0.215644 0.0125534 -0.94011 0.514691 0.531467 -0.672783 117 102 82
-0.535146 0.569881 -0.742095 0.254043 0.580913 -0.773306 103 92 76
-0.200566 -0.299266 -1.00008 0.38106 -0.647421 -0.660029 101 94 79
-0.242374 -0.0337101 -0.994525 0.435129 0.627615 -0.645572 85 67 56
-0.202471 -0.130434 -1.04664 0.496799 0.523082 -0.692514 110 94 74
0.677099 0.775369 0.352292 0.421068 0.655619 -0.626789 182 167 172
0.594567 -0.525493 0.132516 0.569821 -0.634005 -0.52282 68 40 35
0.573636 0.499853 0.132474 0.64593 0.35954 -0.673428 177 163 158
0.576617 -0.266516 -0.0643946 0.590487 0.150104 -0.792965 171 154 146
0.457464 0.597651 0.140929 0.340659 0.81484 -0.469026 172 165 166
0.418615 0.189483 -0.0635917 0.476885 0.206883 -0.854272 160 128 115
0.393075 0.00177717 -0.0951344 -0.0457734 0.467926 -0.882582 163 144 137
0.148199 0.728506 0.167753 0.591293 -0.337462 -0.732455 82 47 30
0.267983 0.318392 -0.0446765 0.0110506 0.716997 -0.696989 156 130 123
0.228152 -0.203304 -0.140012 -0.193531 -0.307727 -0.931584 164 143 139
0.14303 0.372122 -0.0619711 0.943735 0.329899 0.0230104 145 86 89
0.00967076 0.711852 0.0500273 0.369695 -0.837754 -0.401863 80 44 29
0.029158 0.73418 0.00898767 0.506905 -0.826022 -0.246445 86 49 32
0.464773 -0.272104 -0.116787 0.291486 0.0332525 -0.955997 153 137 127
0.0502211 0.48539 -0.0925365 0.537137 0.811023 -0.231788 164 132 138
0.135287 0.321357 -0.218186 0.618263 0.512426 -0.595962 172 158 163
0.126443 -0.0288113 -0.260238 0.667018 -0.329346 -0.668295 173 160 164
0.112705 0.166224 -0.282777 0.562093 0.155279 -0.812367 138 108 111
0.0767197 -0.0128073 -0.355532 0.97728 0.117135 0.176641 169 31 34
0.017921 0.203035 -0.414167 0.857892 0.394608 -0.329098 188 173 179
-0.0753261 0.503728 -0.361073 0.415902 0.815922 -0.401617 189 164 158
-0.135368 -0.56553 -0.426509 0.894524 -0.00947086 -0.44692 110 72 60
0.040688 -0.41071 -0.618509 0.65502 -0.654169 -0.378169 168 142 135
-0.0179964 0.157243 -0.575919 0.882001 0.0839067 -0.463719 180 163 168
-0.1345 0.323455 -0.50076 0.825714 0.528288 -0.19776 174 138 128
-0.213463 0.51757 -0.541053 0.603056 0.566741 -0.561363 109 83 66
-0.135161 0.264591 -0.686974 0.554512 0.54454 -0.62928 108 83 65
-0.242024 0.455246 -0.607116 0.558614 0.529617 -0.638322 109 89 70
-0.104971 0.147712 -0.765417 0.598376 0.51687 -0.612203 96 75 61
-0.0912371 0.120875 -0.774481 0.62001 0.549534 -0.56 112 90 72
-0.0705666 -0.0975864 -0.935306 0.485748 0.524975 -0.698892 104 82 64
-0.187449 0.0939156 -0.850617 0.691055 0.553916 -0.464349 115 99 78
-0.144115 -0.0943872 -0.984211 0.178671 0.637001 -0.749872 121 104 83
-0.449171 0.438685 -0.765605 0.411095 0.490341 -0.768483 108 93 78
-0.120827 -0.186675 -1.04898 0.57834 -0.466993 -0.66891 96 70 63
-0.547377 0.502167 -0.772927 0.29164 0.529592 -0.796542 100 84 71
-0.409527 0.247435 -0.882614 0.22274 0.652218 -0.724568 111 98 79
-0.408054 0.205558 -0.906016 0.28385 0.544007 -0.789611 105 83 69
-0.51341 0.386217 -0.829242 0.153018 0.621966 -0.767948 88 60 53
0.744945 0.22944 0.420651 0.924138 -0.0343854 -0.38051 198 183 175
0.589941 0.79048 0.315067 0.393849 0.435246 -0.809595 59 22 18
0.62975 -0.0819109 0.0896877 0.886292 0.300274 -0.352593 182 151 138
0.519629 0.498792 0.0922585 0.413714 0.283549 -0.865125 154 141 133
0.536865 -0.336143 -0.0816254 0.560679 -0.403366 -0.723143 168 153 146
0.239276 0.397161 0.00292395 0.13698 0.514455 -0.846506 145 111 98
0.221125 0.00461699 -0.145565 0.727662 -0.101784 -0.678342 112 14 16
0.118987 -0.172119 -0.161757 0.584986 -0.736373 -0.33992 125 24 26
0.0857976 0.0692915 -0.29733 0.964578 -0.159507 -0.210113 139 80 82
0.134955 -0.189306 -0.398648 0.277237 0.82746 -0.488314 205 178 173
0.0284557 0.242314 -0.289957 0.45934 0.764761 -0.451827 108 56 45
0.176198 -0.242141 -0.571608 0.920157 -0.273782 -0.279921 177 143 133
0.00351973 0.0361666 -0.515629 0.785818 0.527325 -0.323138 146 23 26
-0.135635 0.268365 -0.55989 0.965644 -0.136888 -0.220892 158 116 105
-0.598934 0.657504 -0.702438 0.522214 0.634295 -0.570055 98 85 72
-0.32002 0.109973 -0.935838 0.477016 0.459382 -0.749282 101 86 73
0.701898 0.421829 0.290583 0.980742 0.180121 -0.0755111 171 114 116
0.453354 -0.0545574 -0.106904 0.192473 0.177165 -0.965177 165 148 140
0.311961 -0.160064 -0.177082 -0.0408102 -0.223104 -0.97394 163 146 140
0.155317 -0.239366 -0.630483 0.923196 -0.301027 -0.238942 179 148 138
0.0614213 -0.0857532 -0.644224 0.401929 0.900562 -0.165653 181 156 151
-0.30652 0.58549 -0.553619 0.508664 0.515513 -0.68957 97 78 63
0.677703 -0.187341 0.122088 0.828854 0.391508 -0.399653 190 171 161
0.415756 0.790328 0.302698 0.317568 -0.86651 -0.385111 80 43 28
0.487602 0.481821 0.0771077 0.446319 0.252356 -0.858555 150 137 129
0.443008 -0.0815435 -0.122806 0.175177 0.382058 -0.907383 166 149 140
-0.157823 0.707409 -0.126568 0.267429 -0.885185 -0.380696 74 40 27
-0.067906 0.421375 -0.415519 0.792558 0.16173 -0.587958 164 132 120
-0.069971 0.0806879 -0.688317 0.95498 -0.0202169 -0.29598 157 129 129
0.181217 -0.0374192 -0.178447 0.611786 -0.0786213 -0.787106 139 82 81
