ply
format ascii 1.0
element vertex 325
property float x
property float y
property float z
property float nx
property float ny
property float nz
property uchar diffuse_red
property uchar diffuse_green
property uchar diffuse_blue
end_header
0.208984 0.415996 1.04448 0.139672 -0.509709 0.848934 149 23 29
0.179506 0.414623 1.05601 0.0406055 -0.904575 0.424375 148 18 23
-0.0308622 0.422293 1.17651 0.521199 -0.634571 0.570676 81 50 38
0.051943 0.353367 1.06902 0.457371 -0.829033 0.321739 159 23 27
0.0617458 0.239254 0.971452 0.0517001 -0.477197 0.877274 178 156 155
0.267888 -0.0430502 0.69586 -0.152281 -0.194168 0.969077 169 129 117
-0.109597 0.351965 1.05919 -0.0870719 -0.679453 0.728534 66 36 24
-0.0815933 0.232483 0.970804 -0.656677 -0.466396 0.592664 178 158 158
0.0653056 0.0504093 0.799402 -0.0141388 -0.940756 0.338791 173 159 154
0.0776933 0.0323348 0.762595 -0.0294772 -0.955064 0.29493 157 125 113
-0.155952 0.326474 0.957664 -0.0642052 -0.897537 0.43624 131 111 111
0.445195 -0.46239 0.410468 0.0539815 -0.583508 0.810311 78 48 42
-0.230196 0.371232 1.00206 -0.0985847 -0.985198 0.14024 99 56 39
0.373281 -0.478341 0.396777 0.188741 -0.943749 0.271504 185 168 167
0.161292 -0.244845 0.556589 0.159662 -0.913114 0.375141 173 154 149
0.0788877 -0.242586 0.555878 0.162521 -0.76828 0.619139 169 148 143
0.211802 -0.442584 0.409447 -0.454746 -0.668494 0.588491 147 135 128
-0.243693 0.40879 0.757098 -0.321195 -0.946556 -0.0294146 31 19 16
-0.128419 0.0556135 0.705957 -0.0406854 -0.558237 0.828683 145 107 91
-0.253814 0.408819 0.739448 -0.458375 -0.879206 0.129957 32 18 14
-0.332733 0.360158 0.847368 0.531398 -0.841662 -0.0960251 89 56 37
0.148755 -0.399031 0.423371 -0.285052 -0.950793 0.121398 159 147 145
-0.373528 0.348155 0.832314 0.149442 -0.987457 -0.0509591 91 57 39
-0.426656 0.343524 0.759432 0.519914 -0.849414 -0.0904708 87 53 37
-0.250604 0.183325 0.587742 -0.323785 -0.00525385 0.946116 144 107 100
0.0762312 -0.38811 0.323032 -0.410753 -0.911354 0.0267721 144 135 132
0.0425727 -0.354442 0.328098 -0.451928 -0.890716 0.0488448 146 139 138
-0.214273 0.0166543 0.541638 -0.577714 -0.483495 0.65763 155 127 120
-0.0958727 -0.13462 0.384935 -0.928423 -0.346842 0.13316 142 120 116
-0.24047 0.00305983 0.490151 -0.673513 -0.709519 0.207279 140 105 97
-0.444 0.388328 0.629225 0.392412 -0.890706 -0.229466 54 29 22
-0.301894 0.0757051 0.50901 -0.604234 -0.524193 0.600104 155 123 130
-0.362781 0.29973 0.538238 -0.698245 -0.11547 0.706484 95 40 45
-0.311782 0.0603429 0.479138 -0.496532 -0.407129 0.766617 126 18 22
0.0251923 -0.356907 0.145883 -0.11016 -0.993794 -0.0154468 109 95 91
-0.332156 0.0923344 0.483732 -0.659662 -0.399555 0.636555 153 109 115
-0.258757 -0.00774856 0.402264 -0.583921 -0.681181 0.441621 148 126 135
-0.381134 0.117604 0.468551 -0.60209 -0.591024 0.536822 157 135 142
-0.333365 0.0428767 0.425231 -0.361303 -0.595624 0.71742 122 19 26
-0.206065 -0.19587 0.335343 -0.145046 -0.0733398 0.986704 117 13 18
-0.181698 -0.266305 0.290766 0.436584 -0.246374 0.865272 133 39 45
-0.467971 0.276551 0.497105 -0.492377 -0.469943 0.73261 74 26 28
-0.420914 0.147776 0.45443 -0.495938 -0.789652 0.361242 118 33 37
-0.388232 0.0485032 0.393081 -0.534113 -0.341546 0.77335 114 14 19
-0.410083 0.0734287 0.410372 -0.23968 -0.908518 0.34227 146 98 104
-0.31413 -0.258434 0.309754 -0.146903 -0.563395 0.813021 157 104 111
-0.477951 0.0640386 0.392023 0.210997 -0.575693 0.789974 155 109 98
-0.404832 -0.150157 0.369884 0.214479 -0.335157 0.917425 164 136 142
-0.346469 -0.253553 0.293665 -0.0702586 -0.579066 0.812249 129 24 28
-0.372928 -0.254836 0.275386 -0.471495 -0.786131 0.399611 118 14 17
-0.482807 -0.140726 0.358159 0.0383433 -0.248718 0.967817 127 15 19
-0.519585 -0.0102357 0.347115 -0.084509 -0.546151 0.833414 148 96 82
-0.706275 0.254323 0.49091 -0.224373 -0.460618 0.858771 138 107 98
-0.461741 -0.160567 0.324626 -0.830354 -0.282216 0.480486 129 15 19
-0.523453 -0.0633982 0.33622 -0.670941 -0.375931 0.639151 131 22 22
-0.556638 -0.0228242 0.342647 -0.381538 -0.408029 0.829422 134 79 68
-0.458297 -0.225745 0.260819 -0.34071 -0.8802 0.330402 144 101 110
-0.450736 -0.277973 0.255871 -0.617831 -0.718486 0.319474 145 108 117
-0.506787 -0.193467 0.251888 -0.696546 -0.588288 0.41078 151 119 130
-0.628137 -0.000301385 0.301312 -0.600527 -0.590549 0.53909 130 92 80
-0.870303 0.269087 0.493568 0.451008 -0.87517 -0.175128 54 34 27
-0.511648 -0.223886 0.208597 -0.300464 -0.71619 0.629915 116 16 20
-0.60459 -0.148857 0.297033 -0.475612 -0.677025 0.561633 152 120 124
-0.510771 -0.379831 0.126137 0.112257 -0.630101 0.768356 161 129 137
-0.490356 -0.566121 0.0313692 0.0424252 -0.850676 0.523975 176 146 138
-0.949388 0.132351 0.353824 -0.602254 -0.706955 0.370816 107 75 55
-0.603514 -0.388637 0.094624 -0.0762896 -0.573253 0.815819 160 93 99
-0.597784 -0.401469 0.0805054 0.228529 -0.691887 0.684884 146 40 43
-0.928013 0.0818518 0.319967 -0.722216 -0.637085 0.269306 109 79 59
-0.982206 0.15261 0.331555 -0.382492 -0.599367 0.703177 85 56 42
-0.551464 -0.46903 0.0178787 0.169554 -0.45981 0.87168 156 119 112
-0.524331 -0.560296 0.0253135 -0.0509096 -0.662776 0.747085 165 134 126
-0.65338 -0.378825 0.0834979 -0.0639197 -0.390511 0.918376 152 107 114
-0.516908 -0.595087 -0.0464682 -0.0821725 -0.994705 0.0617165 174 145 138
-1.01933 0.153699 0.315642 -0.373531 -0.479568 0.794033 109 79 59
-0.735765 -0.340912 0.124458 0.0402421 0.0489531 0.99799 109 58 45
-0.715685 -0.386169 0.112212 0.40129 -0.247844 0.881782 120 63 48
-0.63558 -0.436335 0.00885574 0.294077 -0.650277 0.70047 102 21 23
-0.961408 0.00434457 0.233995 -0.743508 -0.457417 0.487817 107 80 62
-0.70346 -0.436095 0.0867204 0.658347 -0.505004 0.558166 118 65 51
-0.841897 -0.245245 0.1179 -0.556877 -0.538496 0.632384 105 79 61
-0.823163 -0.276076 0.10609 -0.505842 -0.648374 0.568977 105 78 60
-0.96074 -0.0668189 0.18538 -0.228246 -0.0822137 0.970126 85 60 47
-1.06594 0.121403 0.237365 -0.695587 -0.213453 0.686 80 54 41
-0.64486 -0.605335 -0.00663455 0.339371 -0.34192 0.876309 131 84 70
-1.1406 0.22762 0.252253 -0.749339 -0.30622 0.587129 105 77 57
-0.853711 -0.265172 0.0873737 -0.673061 -0.507659 0.53784 89 65 52
-1.06874 0.0890811 0.227818 -0.699811 -0.214699 0.6813 106 78 59
-0.998865 -0.0332392 0.165412 0.667411 -0.542363 0.510299 103 75 56
-0.812532 -0.348986 0.0455484 -0.676608 -0.451532 0.581654 85 60 46
-0.96205 -0.10271 0.112592 -0.165625 -0.948307 0.270708 106 80 59
-0.918314 -0.199548 0.0914422 -0.622795 -0.70216 0.345105 106 80 59
-0.851436 -0.298953 0.0577506 -0.539594 -0.563801 0.625273 107 81 61
-0.769142 -0.446558 0.00530112 -0.668725 -0.324228 0.669091 107 79 59
-0.876303 -0.24092 0.0639475 -0.619322 -0.552507 0.557831 101 76 57
-0.752078 -0.475373 -0.00324141 -0.629037 -0.564657 0.534299 110 83 61
-1.08756 0.0552392 0.150609 -0.394548 -0.419038 0.817764 102 77 57
-1.11325 0.0929713 0.159087 -0.165832 -0.857116 0.487701 106 80 61
-1.1915 0.185847 0.165881 -0.0943304 -0.975454 0.198974 104 80 62
-0.8642 -0.352179 -0.0144393 -0.600973 -0.614886 0.510635 105 80 60
-0.997532 -0.161609 0.0499752 -0.692289 -0.348016 0.632156 104 79 60
-1.15362 0.105943 0.110733 -0.589165 -0.385658 0.710037 80 58 46
-1.04178 -0.0972353 0.0633386 -0.108457 -0.425057 0.898645 84 61 48
-0.77656 -0.563914 -0.104192 -0.71645 -0.342019 0.608049 110 85 62
-0.889874 -0.394512 -0.0712755 -0.311691 -0.549424 0.77523 69 47 35
-0.91085 -0.367272 -0.0542836 -0.151256 -0.543218 0.825855 106 81 61
-1.15324 0.0303678 0.0598113 -0.45681 -0.652997 0.604085 103 77 58
-1.24539 0.145234 0.114783 -0.29873 -0.629147 0.717589 102 78 62
-1.14343 -0.0156629 0.0448231 -0.376486 -0.743236 0.553046 96 71 55
-0.917639 -0.402928 -0.0981783 -0.555917 -0.664593 0.499273 103 78 59
-0.955841 -0.342102 -0.0799609 -0.821989 -0.512842 0.247643 103 78 57
-0.837185 -0.546678 -0.164829 -0.837602 -0.48143 0.258161 85 63 48
-1.17298 0.0065692 0.0102762 -0.0493606 -0.345525 0.93711 75 54 42
-0.901583 -0.452876 -0.131005 -0.28339 -0.867736 0.408318 103 77 57
-0.930635 -0.41694 -0.120174 -0.519094 -0.539885 0.662621 99 74 55
-1.18492 -0.0295589 -0.00512899 -0.0353896 -0.195542 0.980056 95 70 55
-0.862816 -0.530415 -0.17163 -0.552396 -0.734779 0.393648 104 79 59
-0.898676 -0.490931 -0.154631 -0.596146 -0.248825 0.763345 94 70 53
-0.98767 -0.34664 -0.117041 -0.145233 -0.988584 0.040095 74 53 40
-0.976057 -0.369397 -0.119012 -0.343703 -0.503728 0.792544 99 76 57
-0.943453 -0.437914 -0.15074 -0.472868 -0.621056 0.625049 62 43 33
-1.09283 -0.211304 -0.0839839 -0.630816 -0.452938 0.630015 96 70 54
-0.942537 -0.505454 -0.209571 -0.283892 -0.513289 0.809901 90 67 52
0.186362 0.317559 1.00596 0.0940993 -0.636 0.765931 161 27 31
0.137064 0.375005 1.02812 0.121577 -0.400568 0.908165 176 129 138
0.179135 0.261141 0.970175 0.157125 -0.54254 0.825205 183 151 155
0.0623091 0.3581 1.03364 0.4558 -0.809687 0.369667 163 82 91
0.117691 0.270163 0.991778 0.185818 -0.284395 0.940527 152 54 59
0.216441 0.0485602 0.778127 0.0958545 -0.989895 -0.104504 182 166 162
0.254985 -0.0273788 0.697806 0.169527 -0.288555 0.942336 181 145 134
0.252735 -0.149588 0.656927 0.417309 -0.390734 0.820476 182 146 136
0.364079 -0.183009 0.544894 0.239176 -0.0789099 0.967765 200 179 175
0.452112 -0.433095 0.429819 0.398027 -0.61562 0.680136 84 50 42
-0.152356 0.298416 0.953263 -0.26461 -0.382915 0.885075 145 126 124
0.041988 0.0144657 0.734336 0.0872848 -0.922764 0.375351 175 138 126
0.3909 -0.474495 0.414352 0.331652 -0.883809 0.329984 172 154 151
-0.0973126 0.0503731 0.801094 -0.416299 -0.813068 -0.406959 163 153 149
-0.104428 7.42534e-05 0.663252 -0.357707 -0.914043 0.191238 161 127 115
-0.195421 0.106379 0.648644 -0.422663 -0.44389 0.790137 153 124 115
-0.269329 0.436942 0.616039 -0.323402 -0.865166 -0.383274 31 14 13
-0.273722 0.333052 0.598248 -0.699545 -0.110464 0.706 77 13 15
-0.0942101 -0.134417 0.459954 -0.91678 -0.354613 0.183747 134 106 97
-0.24589 0.0383204 0.523826 -0.916589 -0.341812 0.207436 145 112 105
0.00630909 -0.348956 0.247788 -0.503871 -0.851185 0.14696 155 149 147
-0.256791 -0.0306582 0.387972 -0.578092 -0.813583 -0.0623848 142 122 130
-0.225949 -0.144166 0.341461 0.191198 -0.275834 0.941998 130 33 37
-0.262978 -0.13633 0.351066 0.209398 -0.22422 0.951776 116 13 16
-0.243872 -0.265508 0.308634 -0.00119515 -0.739494 0.673162 169 139 145
-0.508269 0.268299 0.47058 -0.467063 -0.434071 0.770347 136 101 94
-0.308029 -0.168609 0.362166 0.275877 -0.0301239 0.960721 146 90 97
-0.268819 -0.292434 0.316644 0.2806 -0.657685 0.699081 167 142 148
-0.459072 0.084087 0.392402 0.0212415 -0.30993 0.950521 157 112 105
-0.429325 -0.00696651 0.354101 0.284074 -0.269131 0.920256 110 24 25
-0.649267 0.237328 0.51605 0.281092 -0.89716 0.340722 140 111 103
-0.353598 -0.244932 0.309409 0.261436 -0.303262 0.916343 138 41 45
-0.70342 0.295491 0.549777 -0.424566 -0.748537 0.509349 75 42 28
-0.448169 -0.172266 0.341871 -0.0679116 -0.643659 0.762293 123 13 16
-0.443829 -0.195713 0.325482 -0.229723 -0.813246 0.534658 124 14 18
-0.664486 0.0540569 0.431605 -0.140393 -0.929357 0.341447 167 130 118
-0.776078 0.251392 0.465831 -0.550963 -0.117886 0.826161 152 120 110
-0.457684 -0.235927 0.199948 -0.538097 -0.841763 0.0434434 142 75 83
-0.824982 0.0717107 0.399671 0.0885792 -0.670581 0.736528 145 116 107
-0.532935 -0.304258 0.112886 -0.190304 0.0394472 0.980933 150 99 106
-0.454426 -0.467727 0.0360657 0.623722 -0.284484 0.728038 188 158 152
-0.786689 0.000276926 0.286473 0.273727 -0.955796 0.107372 134 98 90
-0.550746 -0.374386 0.120434 -0.0713751 -0.463425 0.883257 132 22 26
-0.645401 -0.18299 0.117715 -0.745003 -0.378727 0.549123 122 15 19
-0.923419 0.0657686 0.302629 -0.589984 -0.744876 0.311576 102 72 55
-0.70461 -0.261356 0.123186 0.504138 -0.292947 0.81242 143 69 74
-0.701618 -0.313817 0.114413 0.233681 0.080675 0.968961 131 23 23
-0.943318 0.0559652 0.280088 -0.206974 -0.978202 0.0168314 83 55 43
-0.623102 -0.41408 0.0505153 -0.0475347 -0.998868 0.00154102 147 106 112
-1.04582 0.196896 0.338398 -0.647709 -0.757995 0.0769227 109 79 58
-0.891181 -0.106262 0.253471 -0.440622 -0.572584 0.691375 105 80 59
-0.59786 -0.472224 -0.00541451 -0.271859 -0.354253 0.894761 144 107 100
-0.994367 0.0890192 0.272044 -0.346884 -0.934967 -0.0742119 108 80 59
-1.03532 0.147864 0.30338 -0.721544 -0.675595 0.151478 107 78 58
-0.989673 0.0812684 0.252416 -0.376338 -0.910859 -0.169428 106 78 60
-0.579056 -0.606583 -0.0262249 -0.166261 -0.731407 0.661363 121 83 72
-0.623233 -0.561691 -0.0080609 -0.00673995 -0.118571 0.992923 105 60 46
-0.998143 0.0394204 0.222181 -0.530322 -0.333589 0.779408 88 61 47
-1.02022 0.0753804 0.220465 -0.534971 -0.593795 0.60101 81 55 43
-0.798568 -0.329514 0.0834546 -0.737271 -0.494297 0.460545 109 83 62
-0.62744 -0.616631 -0.0155251 0.460992 -0.273877 0.844084 130 80 61
-1.1325 0.206103 0.243788 -0.240193 -0.0577401 0.969006 107 78 59
-1.0102 0.0156365 0.191923 -0.245312 -0.962409 0.116579 104 77 58
-0.892396 -0.20587 0.131626 0.0186679 -0.566714 0.823704 84 59 46
-0.866121 -0.225952 0.104096 -0.374662 -0.570791 0.730634 82 59 45
-0.837823 -0.277769 0.0886739 -0.56938 -0.544864 0.615574 85 59 46
-0.731474 -0.502462 -0.0172779 -0.423817 -0.518564 0.74261 111 84 62
-1.12196 0.129195 0.18277 0.00543799 -0.939126 0.34353 78 54 42
-0.912793 -0.210405 0.0699709 -0.528052 -0.77279 0.352076 106 80 60
-0.695771 -0.623439 -0.0861339 -0.558893 -0.57631 0.596243 103 77 59
-1.00704 -0.0941363 0.0771162 -0.261818 -0.466024 0.845147 105 78 59
-0.780598 -0.461433 -0.0292409 -0.446805 -0.546388 0.708396 87 61 48
-0.920878 -0.226051 0.0313199 -0.204142 -0.881328 0.42613 76 53 40
-0.761265 -0.515178 -0.0509222 -0.651779 -0.295342 0.69854 80 56 43
-0.726909 -0.595554 -0.0922469 -0.553522 -0.62446 0.551057 91 68 54
-1.10196 0.0275726 0.0958702 -0.260091 -0.965219 0.026555 104 78 59
-0.795411 -0.503938 -0.0745882 -0.6111 -0.335693 0.716844 109 83 61
-0.813694 -0.467277 -0.0603464 -0.539117 -0.667931 0.51305 108 82 61
-1.19708 0.148373 0.127731 -0.430777 -0.126827 0.893502 73 52 41
-1.12799 -0.0143793 0.0658577 -0.729038 -0.497584 0.470014 105 79 60
-1.00823 -0.231078 -0.0440778 -0.375498 -0.768714 0.517764 102 78 59
-0.779586 -0.607124 -0.139983 -0.61852 -0.383148 0.686025 75 54 41
-1.18792 0.0582544 0.0604192 -0.442749 -0.862449 0.245266 66 46 36
-1.02308 -0.255629 -0.071283 -0.736212 -0.314035 0.599477 72 51 41
-0.900769 -0.475287 -0.13827 -0.565108 -0.286451 0.773692 102 76 56
-1.00848 -0.308573 -0.0871526 -0.246073 -0.51248 0.822686 69 48 37
-0.858233 -0.5455 -0.187071 -0.436042 -0.766442 0.471629 104 79 60
-1.05471 -0.276472 -0.0891114 -0.254926 -0.850522 0.460027 97 73 56
-0.991121 -0.373736 -0.135159 -0.323735 -0.448579 0.83305 99 76 57
-0.895469 -0.537139 -0.207375 -0.661571 -0.694594 0.2826 76 55 42
-0.871209 -0.577224 -0.200709 -0.379815 -0.652837 0.655396 78 59 47
-0.956723 -0.460207 -0.180102 -0.380577 -0.817552 0.432169 96 71 54
-0.913127 -0.566989 -0.213481 -0.134634 -0.221063 0.965922 99 76 56
0.27352 0.296079 0.961215 0.270607 -0.258816 0.927247 178 78 85
0.162742 0.304397 0.999752 0.0843172 -0.465302 0.881126 155 22 27
-0.116141 0.339226 0.991449 -0.56315 -0.760616 0.322994 65 37 32
0.256744 -0.175014 0.635637 0.307943 -0.514552 0.800255 189 159 150
-0.244218 0.373304 0.916165 0.0944767 -0.995512 0.00556332 86 54 35
-0.0904151 0.0621564 0.79454 -0.025853 -0.993421 0.111566 163 151 146
-0.109587 0.0772213 0.709216 0.0345042 -0.60673 0.794158 153 120 109
-0.248749 0.284741 0.74834 -0.514107 -0.829809 0.217052 123 107 103
-0.338859 0.374336 0.812595 0.426875 -0.904265 -0.00907872 86 54 37
-0.445089 0.342258 0.734142 0.268778 -0.953184 -0.138559 86 51 35
-0.321107 0.266274 0.56391 -0.538257 -0.0507855 0.841249 141 120 122
-0.301187 0.18663 0.55244 -0.259491 -0.449412 0.854806 113 11 14
0.0628727 -0.405435 0.239087 -0.659097 -0.721685 -0.21157 154 145 142
-0.33691 0.122669 0.514747 -0.567939 -0.468392 0.676797 154 134 139
-0.477671 0.386876 0.586075 0.415851 -0.885004 -0.209374 68 35 25
-0.407005 0.263386 0.500332 -0.581274 -0.0654598 0.811071 141 116 119
0.034469 -0.351234 0.120703 -0.478674 -0.861737 -0.168169 131 119 117
-0.419575 0.167681 0.469653 -0.712664 -0.285377 0.640835 101 11 14
-0.289726 -0.0542698 0.339479 -0.518365 0.0340852 0.85448 127 23 27
-0.623562 0.316796 0.598617 0.403009 -0.884294 -0.235814 78 44 30
-0.220831 -0.321919 0.26364 0.197527 -0.896381 0.396842 167 148 155
-0.34723 -0.179574 0.350827 0.062257 -0.333442 0.940713 168 143 150
-0.370395 -0.202404 0.347552 -0.418286 -0.651326 0.633096 167 125 132
-0.302089 -0.307909 0.274673 -0.385516 -0.738375 0.553336 131 18 21
-0.430215 -0.181088 0.344251 -0.120254 -0.579688 0.805916 129 18 22
-0.817494 0.259526 0.55034 -0.110153 -0.889486 0.443486 63 43 35
-0.436759 -0.335946 0.205362 0.00950128 -0.609037 0.793085 117 15 18
-0.620139 -0.00131665 0.275347 -0.280543 -0.827588 0.486202 143 103 91
-0.847817 0.235465 0.440582 -0.0397633 0.00884452 0.99917 139 105 94
-0.505324 -0.245541 0.15112 -0.0292703 -0.521563 0.852711 117 16 20
-0.628764 -0.169223 0.252726 -0.4814 -0.649643 0.588403 119 21 21
-0.698254 -0.0440047 0.227192 -0.457409 -0.549586 0.699094 143 102 91
-1.0074 0.218893 0.373301 -0.2272 -0.973033 0.0398379 108 76 55
-0.985973 0.179728 0.343092 -0.185274 -0.912427 0.364899 93 64 48
-0.867128 -0.16434 0.17368 -0.598603 -0.801012 0.00730931 108 81 61
-1.09761 0.230311 0.298437 -0.616865 -0.412569 0.670272 99 71 55
-0.541047 -0.712911 -0.0569743 0.0510251 -0.751881 0.657322 146 112 103
-1.04697 0.131487 0.252928 -0.632377 -0.317376 0.706663 81 55 43
-1.02393 0.0175902 0.180139 -0.687797 -0.530966 0.494984 106 78 59
-0.698207 -0.56858 0.013096 -0.338603 -0.52351 0.781848 88 49 39
-1.07701 0.0940107 0.172133 -0.775058 -0.307752 0.551882 105 79 58
-0.984505 -0.0977679 0.115849 -0.509676 -0.856463 0.0818696 108 81 60
-1.06494 -0.00147379 0.131196 -0.230098 -0.702098 0.673879 86 61 46
-1.12815 0.0124041 0.0798254 -0.403083 -0.183541 0.89657 105 80 62
-0.989019 -0.235633 -0.0140361 -0.789394 -0.410863 0.456124 103 79 59
-1.08913 -0.145038 -0.0193154 -0.586446 -0.69494 0.416102 98 73 56
-0.79387 -0.635764 -0.183981 -0.453061 -0.814875 0.361543 109 85 64
-0.838017 -0.568748 -0.172767 -0.663136 -0.504369 0.553048 105 82 61
-0.86039 -0.597161 -0.218291 -0.597856 -0.556604 0.576854 84 65 51
-0.872533 -0.633188 -0.261479 -0.61192 -0.535161 0.582371 100 78 59
0.18526 0.388922 1.03546 0.0878929 -0.21464 0.97273 168 94 104
0.0687176 0.251878 0.985316 0.156502 -0.234636 0.959403 171 124 129
0.437289 -0.313893 0.509132 0.0753958 -0.73241 0.676676 196 177 174
0.182935 -0.0324363 0.705311 0.23207 -0.645737 0.727439 181 141 128
-0.205629 0.373492 0.997101 0.19943 -0.979031 0.0415459 81 46 32
0.324277 -0.466098 0.423832 0.00702404 -0.836438 0.548016 176 163 161
-0.244681 0.408536 0.82086 -0.509776 -0.851674 0.121572 60 36 24
-0.225699 0.278122 0.744875 -0.406148 -0.912623 -0.0465028 130 116 112
0.0685537 -0.349437 0.439932 -0.290678 -0.892885 0.343895 158 148 144
-0.212649 0.0926758 0.639561 -0.426666 -0.132846 0.8946 154 125 117
-0.189691 -0.0337669 0.50828 -0.876718 -0.291894 0.382315 151 120 110
-0.29838 0.0291222 0.478289 -0.225532 0.0368414 0.973539 116 13 16
-0.512039 0.346474 0.639649 0.374821 -0.916909 0.137066 80 45 32
-0.278295 -0.0829618 0.348986 0.126868 0.0462417 0.990841 127 22 26
-0.51264 0.152514 0.507436 0.514714 -0.238875 0.823412 146 106 96
-0.392364 0.0271829 0.373786 -0.478927 -0.449632 0.753962 129 14 17
-0.393182 -0.0988111 0.370207 -0.158745 0.06088 0.985441 166 137 143
-0.509289 0.012529 0.363909 0.0926231 -0.0661223 0.993503 145 97 86
-0.432191 -0.222766 0.296524 -0.24214 -0.901504 0.358689 124 16 20
-0.342637 -0.38139 0.212495 -0.128439 -0.610662 0.781406 170 137 146
-0.738707 0.272287 0.485569 -0.299312 -0.747735 0.59271 136 106 99
-0.546377 -0.155101 0.299371 -0.822687 -0.344138 0.452499 166 140 148
-0.475732 -0.377851 0.135594 -0.1167 -0.529395 0.840311 160 133 141
-0.539347 -0.414309 0.0635981 0.182842 -0.964403 0.191042 138 33 38
-0.640039 -0.219752 0.0868055 -0.685992 -0.12976 0.715945 105 24 29
-0.799123 -0.034521 0.228051 0.437426 0.0303006 0.898743 122 67 53
-0.620352 -0.378493 0.0885758 -0.0745523 -0.688595 0.721303 159 120 125
-0.885195 -0.0318659 0.296021 -0.800157 -0.435595 0.412318 103 68 50
-0.730555 -0.35287 0.103193 -0.3813 -0.307959 0.871649 102 55 42
-0.908878 -0.0847321 0.205117 -0.269792 -0.961762 -0.0471921 109 82 62
-0.886715 -0.120615 0.193703 -0.131929 -0.983034 -0.127429 108 79 59
-0.644726 -0.583425 0.00199275 0.453085 -0.216785 0.864707 122 69 52
-0.813461 -0.327664 0.0555017 -0.313992 -0.633519 0.70715 78 51 38
-0.828934 -0.4836 -0.103418 -0.110107 -0.217363 0.969861 105 79 59
0.378004 0.119353 0.844845 -0.00845219 -0.730017 0.683378 188 175 170
-0.055529 0.380804 1.12086 -0.465338 -0.830851 0.3052 103 50 36
0.15344 -0.0536696 0.70161 0.257927 -0.526586 0.81005 178 141 129
-0.152033 0.217718 0.937413 -0.2685 -0.614354 0.741941 156 142 140
0.145936 -0.441059 0.333062 -0.752256 -0.486579 0.444243 160 153 151
-0.23015 0.0498395 0.569915 -0.838363 -0.270453 0.473289 151 120 111
-0.167842 -0.175263 0.34045 0.123161 -0.34204 0.931579 141 100 105
-0.548507 0.119342 0.49187 -0.401538 -0.837561 0.370485 159 118 106
-0.966976 0.183313 0.42755 -0.425641 -0.556179 0.713789 104 70 52
-0.684054 -0.247276 0.115544 0.536156 -0.429129 0.726902 117 23 26
-0.529445 -0.544899 0.0379072 -0.0788937 -0.0817973 0.993521 165 134 127
-0.935157 -0.307664 -0.0175748 0.0664765 -0.0159267 0.997661 106 80 59
-0.812865 -0.619815 -0.191182 -0.633489 -0.439412 0.636875 103 80 60
-1.08308 -0.231295 -0.0903779 -0.350687 -0.457665 0.817044 92 69 54
-1.04847 -0.298757 -0.110174 -0.75743 -0.207108 0.619198 96 70 53
0.22683 -0.167916 0.661355 0.282492 -0.336884 0.898169 173 137 126
-0.420492 -0.326034 0.217363 -0.00243934 -0.689211 0.724557 132 39 44
-0.755496 0.126773 0.445658 -0.219659 -0.973208 0.0679373 161 125 113
-0.65366 -0.153455 0.148974 -0.58263 -0.760263 0.2873 136 94 99
-0.949125 -0.401297 -0.123623 -0.500883 -0.605364 0.618589 75 54 41
0.388123 -0.288343 0.537942 0.347785 -0.677207 0.64841 200 181 177
-0.114053 0.154438 0.883234 -0.0886108 -0.667212 0.739578 161 149 145
-0.438964 -0.534576 0.0238453 0.27471 -0.334397 0.901505 174 137 128
0.0212165 0.12143 0.889017 -0.194817 -0.833948 0.51631 171 156 149
-0.418771 0.414627 0.609528 0.596123 -0.802843 -0.00893755 52 27 21
