ply
format ascii 1.0
element vertex 105
property float x
property float y
property float z
property float nx
property float ny
property float nz
property uchar diffuse_red
property uchar diffuse_green
property uchar diffuse_blue
end_header
0.281936 0.244814 0.936301 0.525179 -0.542038 0.656035 194 177 178
0.257171 0.28277 0.950237 -0.0320292 -0.578482 0.815066 187 145 150
0.224451 0.246262 0.961113 0.257818 -0.494723 0.829927 190 164 166
0.0785891 0.365685 1.05231 0.203674 -0.534638 0.82017 157 31 37
0.179135 0.261141 0.970175 0.157125 -0.54254 0.825205 183 151 155
-0.0178579 0.403654 1.13581 -0.00388298 -0.8341 0.551599 90 35 28
0.117691 0.270163 0.991778 0.185818 -0.284395 0.940527 152 54 59
0.150991 0.24954 0.957695 0.357986 -0.928629 0.097439 188 167 166
0.0920832 0.257951 0.990365 0.127969 -0.236019 0.963286 158 85 90
-0.0716284 0.375616 1.10369 -0.419705 -0.819266 0.390706 101 52 35
-0.0844473 -0.371434 0.20421 0.207295 -0.927718 0.310435 120 71 73
0.247648 0.0321872 0.726186 -0.02747 -0.756893 0.652961 174 137 124
0.195992 0.0387824 0.760687 0.151606 -0.968839 -0.195875 169 143 133
0.141284 0.0345304 0.768444 0.165998 -0.969325 0.181261 163 138 129
-0.188662 0.324646 0.971504 -0.0435797 -0.832771 0.551899 62 39 32
0.0776933 0.0323348 0.762595 -0.0294772 -0.955064 0.29493 157 125 113
0.0623899 0.0275681 0.746869 0.193867 -0.955803 0.221036 171 134 122
0.118551 -0.254544 0.552802 0.196628 -0.899668 0.389788 167 147 141
0.373281 -0.478341 0.396777 0.188741 -0.943749 0.271504 185 168 167
0.16859 -0.40104 0.487716 -0.588128 -0.660625 0.466562 165 153 151
-0.149266 -0.154443 0.341492 -0.246019 -0.948502 0.19955 86 46 48
-0.22193 -0.113629 0.341596 0.512289 -0.198785 0.83549 144 84 89
-0.589932 0.230212 0.48382 0.375474 -0.805206 0.45898 149 112 101
-0.222275 -0.178163 0.335063 0.344148 -0.0859356 0.934974 115 13 17
-0.477951 0.0640386 0.392023 0.210997 -0.575693 0.789974 155 109 98
-0.202254 -0.262796 0.294777 0.0888696 -0.691828 0.716573 147 76 82
-0.785055 0.319908 0.493841 0.0800532 -0.721287 0.687994 75 36 27
-0.0259153 -0.360473 0.142533 -0.230393 -0.903813 -0.360612 151 140 137
-0.697432 0.17245 0.500952 -0.254538 -0.758143 0.600359 158 125 115
-0.286867 -0.21974 0.333721 0.016091 -0.373184 0.927618 166 132 140
-0.243872 -0.265508 0.308634 -0.00119515 -0.739494 0.673162 169 139 145
-0.111615 -0.36949 0.213516 0.207712 -0.905519 0.369989 105 27 29
-0.271692 -0.30156 0.295989 0.423943 -0.604615 0.674324 168 127 134
-0.333592 -0.250417 0.308972 -0.0304565 -0.553117 0.832547 153 79 86
-0.107544 -0.375797 0.147126 0.0502105 -0.733249 0.678104 103 21 24
-0.359458 -0.231482 0.323367 -0.082387 -0.587004 0.805381 152 80 87
-0.368001 -0.329557 0.218381 -0.470469 -0.557975 0.683609 153 117 125
-0.839313 0.0582727 0.391924 -0.159039 -0.69564 0.700566 135 105 99
-0.869115 0.0404995 0.367652 -0.119942 -0.979926 -0.159244 112 65 52
-0.857037 0.0160714 0.325297 0.147253 -0.981822 -0.119756 107 58 45
-0.491534 -0.395041 0.133419 -0.285401 -0.938402 0.194802 164 145 153
-0.883404 -0.126227 0.246083 -0.334184 -0.599722 0.727087 107 81 62
-0.576887 -0.374183 0.12002 -0.297776 -0.613545 0.731363 136 19 22
-0.572179 -0.388842 0.108179 -0.51633 -0.799112 0.307931 137 20 23
-0.547641 -0.451431 0.0131079 -0.074524 -0.504224 0.860351 155 118 113
-0.568348 -0.584109 -0.00399185 -0.0518081 -0.555761 0.829726 154 124 117
-0.662353 -0.569432 0.00988738 0.234348 -0.30051 0.924541 115 65 50
-0.723172 -0.60568 -0.0282943 -0.424563 -0.568807 0.704418 99 75 57
0.353332 0.274644 0.90928 0.325741 -0.34379 0.880739 202 182 187
0.315395 0.279831 0.944091 0.465922 -0.455405 0.758632 200 172 178
0.186362 0.317559 1.00596 0.0940993 -0.636 0.765931 161 27 31
-0.131173 0.291401 0.954212 -0.293802 -0.494977 0.817728 152 132 130
0.162297 -0.185255 0.651516 -0.18204 -0.344184 0.921086 160 116 102
-0.188698 0.152527 0.822766 -0.465923 -0.818166 0.336929 138 125 122
0.394489 -0.432324 0.475227 0.507701 -0.692806 0.512114 184 167 164
0.168866 -0.383553 0.49793 -0.0912248 -0.736253 0.67053 167 153 149
0.13013 -0.408076 0.413991 -0.392319 -0.85105 0.349 158 148 148
-0.0559475 -0.210925 0.463642 -0.376241 -0.734825 0.564335 154 138 135
-0.476824 0.27551 0.504552 -0.487909 -0.465687 0.738297 63 21 21
-0.714711 0.284039 0.495934 0.0499549 -0.900632 0.431703 112 83 77
-0.225121 -0.220924 0.337555 0.12803 -0.521081 0.84385 115 16 20
-0.404832 -0.150157 0.369884 0.214479 -0.335157 0.917425 164 136 142
-0.307346 -0.356075 0.22384 0.192255 -0.722112 0.664524 146 47 52
-0.376705 -0.298229 0.240555 -0.450833 -0.624572 0.637698 144 91 99
-0.593836 -0.226581 0.167925 -0.386239 -0.752262 0.53378 146 120 129
-0.533775 -0.369658 0.129377 0.126937 -0.338193 0.932476 140 62 69
-0.477041 -0.473144 0.0484294 -0.0814237 -0.107857 0.990827 173 140 134
-0.620352 -0.378493 0.0885758 -0.0745523 -0.688595 0.721303 159 120 125
-0.680454 -0.355473 0.100435 0.488684 -0.25831 0.833345 123 20 24
-0.508923 -0.555838 0.0406549 0.282333 -0.333348 0.899537 173 144 137
-0.59132 -0.537891 0.00469932 -0.190513 -0.254352 0.948161 143 108 99
0.443779 -0.445194 0.421984 0.483124 -0.748967 0.453475 77 46 40
-0.349755 0.366885 0.83276 0.368082 -0.891082 -0.265495 89 56 37
0.0522165 -0.376278 0.324328 -0.44732 -0.875155 0.184415 102 90 86
-0.489014 0.144865 0.49073 0.395726 -0.228147 0.889578 147 106 94
-0.306581 -0.0145854 0.384211 0.44613 -0.801895 0.397407 146 122 130
-0.117434 -0.192857 0.318646 -0.449749 -0.601646 0.660111 131 97 94
-0.187085 -0.248192 0.302762 0.493569 -0.393917 0.775383 120 16 21
-0.687991 0.204234 0.520871 -0.0825837 -0.64358 0.76091 144 114 106
-0.380606 -0.177893 0.377718 -0.032703 -0.44666 0.894105 162 139 145
-0.503145 -0.137895 0.358341 -0.234389 -0.365773 0.900706 129 17 21
-0.321471 -0.303119 0.279674 -0.516555 -0.680058 0.520281 126 17 21
-0.407589 -0.241674 0.280607 -0.17812 -0.76158 0.623113 120 15 19
-0.191899 -0.426011 -0.0403544 0.860544 -0.0705694 0.504465 144 108 102
-0.475897 -0.406453 0.110778 -0.110934 -0.993455 -0.0271946 174 155 163
-0.507191 -0.395836 0.115244 -0.283151 -0.817355 0.501752 159 122 131
-0.552431 -0.422672 0.0486432 0.467923 -0.690169 0.55201 123 24 27
-0.63448 -0.390028 0.0815993 0.0531401 -0.284733 0.957133 152 114 119
0.0767489 0.393996 1.13523 0.339394 -0.939681 -0.0425606 190 172 179
0.162054 0.360019 1.01974 -0.0245973 -0.36988 0.928754 175 132 137
0.366999 -0.0563692 0.711496 0.316073 -0.20663 0.92596 201 175 167
-0.0272182 -0.360511 0.126862 0.22415 -0.844966 -0.485583 157 142 139
-0.220831 -0.321919 0.26364 0.197527 -0.896381 0.396842 167 148 155
-0.97756 0.14546 0.397468 -0.416929 -0.59901 0.683636 91 64 49
-0.647654 0.299626 0.614834 0.53282 -0.835831 -0.132243 86 48 34
0.140913 -0.458743 0.189195 -0.221851 -0.95176 -0.211978 149 143 140
-0.609578 0.214309 0.492511 0.53598 -0.763282 0.360729 150 115 104
-0.404755 -0.254215 0.262447 -0.279706 -0.677561 0.680203 126 36 42
-0.633247 -0.709415 -0.120112 -0.145243 -0.970989 0.189963 78 55 40
0.0111364 -0.301845 0.487461 -0.154895 -0.965405 -0.209762 156 143 139
-0.70461 -0.261356 0.123186 0.504138 -0.292947 0.81242 143 69 74
-0.55201 0.367216 0.575196 0.396863 -0.888085 -0.231959 53 27 19
0.156149 0.253394 0.949481 0.441861 -0.85228 0.279962 190 172 170
0.14054 -0.391997 0.443605 -0.446022 -0.834899 0.322503 131 116 114
-0.215209 -0.352129 0.236325 -0.0849373 -0.929612 0.358619 152 94 99
