ply
format ascii 1.0
element vertex 375
property float x
property float y
property float z
property float nx
property float ny
property float nz
property uchar diffuse_red
property uchar diffuse_green
property uchar diffuse_blue
end_header
0.741828 0.324616 0.347907 0.954751 0.230259 -0.188232 192 171 167
0.7197 0.449932 0.367751 0.861421 -0.011055 -0.507771 194 171 175
0.711645 0.404685 0.344137 0.809685 0.46878 -0.353066 170 74 75
0.700357 0.567605 0.32483 0.889653 0.00445139 -0.456615 178 133 136
0.695834 0.451379 0.332026 0.902966 0.00449082 -0.429688 192 172 175
0.681801 0.706573 0.341295 0.884747 0.0822052 -0.458765 140 20 23
0.703933 0.39512 0.272857 0.958913 0.277004 -0.061281 192 172 171
0.69849 0.276377 0.24747 0.840468 -0.229673 -0.490778 190 174 166
0.674598 0.528869 0.295883 0.722793 -0.0826619 -0.686103 132 17 19
0.648829 0.614589 0.289345 0.762167 0.160008 -0.627295 133 94 90
0.608896 0.813874 0.344725 0.762006 0.237276 -0.602534 53 24 22
0.590889 0.833497 0.352272 0.771087 0.523245 -0.362821 58 30 24
0.666552 0.136857 0.190929 0.908302 0.387066 -0.158641 192 160 148
0.660425 0.338729 0.183207 0.539001 0.286102 -0.792227 179 163 154
0.671439 -0.40313 0.130529 0.970504 0.119543 -0.209358 72 42 35
0.606165 0.572787 0.246413 0.466786 0.232131 -0.853362 128 18 19
0.517408 0.853403 0.391149 0.278908 0.778178 -0.562718 60 38 28
0.650922 0.421022 0.184327 0.758018 0.243637 -0.60502 178 161 153
0.640071 0.204693 0.149906 0.640827 0.402677 -0.653599 177 144 131
0.658767 -0.025077 0.122224 0.866116 0.0122663 -0.499693 174 133 116
0.650041 0.132064 0.143023 0.900376 0.125529 -0.416611 171 128 110
0.657276 -0.371388 0.0859942 0.842629 -0.330235 -0.425349 186 172 169
0.64161 0.0314311 0.0840128 0.927879 0.177908 -0.327702 185 149 136
0.614209 0.318697 0.14896 0.651649 0.105544 -0.751142 173 156 146
0.599753 0.271835 0.133402 0.651452 -0.154269 -0.74284 156 130 116
0.629417 -0.00559072 0.0522109 0.849043 0.486872 -0.205137 187 152 139
0.593175 0.173246 0.0646462 0.780726 0.444449 -0.439241 179 146 135
0.536318 0.348449 0.0836039 0.457186 0.247877 -0.85413 147 127 114
0.576147 -0.17593 -0.0361396 0.878913 0.111381 -0.463795 190 173 167
0.578448 -0.0569502 -0.0154934 0.806982 0.354495 -0.472348 180 160 151
0.530944 0.246811 0.0475217 0.59603 0.580917 -0.554331 174 138 122
0.354837 0.870498 0.280269 0.306409 0.64189 -0.702916 101 28 27
0.527377 -0.191389 -0.0864177 0.526531 -0.0289063 -0.849665 165 149 143
0.522274 -0.00913926 -0.0568074 0.650483 0.365018 -0.666059 174 154 147
0.497236 0.145502 -0.0310453 0.62054 0.140071 -0.771563 167 133 119
0.322446 0.843563 0.227169 0.40669 0.782375 -0.471693 101 74 64
0.510337 0.116985 -0.0277289 0.587 0.0370542 -0.808738 162 125 109
0.314047 0.821382 0.192175 0.195768 0.754598 -0.626303 60 38 28
0.485871 -0.195196 -0.108268 0.533293 -0.0709454 -0.84295 160 144 136
0.445725 0.0577649 -0.0724448 0.384616 -0.119484 -0.915311 151 116 100
0.457518 0.126667 -0.0656514 0.439289 0.184503 -0.879195 160 128 115
0.402395 0.303729 -0.0167684 0.332877 0.523683 -0.784187 152 118 102
0.407908 0.0134048 -0.0845902 0.0702179 0.311 -0.947812 167 148 140
0.426893 -0.285562 -0.133497 0.210215 0.114575 -0.970918 162 146 138
0.385393 0.272729 -0.0411555 0.344485 0.503302 -0.792475 161 133 123
0.366295 0.324325 -0.0209122 0.563212 0.522678 -0.64 157 130 122
0.193467 0.881163 0.272402 0.121462 0.711025 -0.692597 123 82 88
0.347541 0.204347 -0.0830718 0.222761 0.460979 -0.858997 155 121 107
0.263032 0.387944 0.00340272 0.21379 0.421574 -0.881231 141 103 89
0.210655 0.447436 0.0549018 0.550161 0.587468 -0.593468 132 105 95
0.297558 0.00863196 -0.0914458 -0.0844433 0.381274 -0.920597 150 122 115
0.266459 0.0361325 -0.0945896 0.501404 -0.0932349 -0.860175 95 53 46
0.160951 0.379101 -0.0135346 -0.0081137 0.298304 -0.954437 133 92 83
0.226817 0.223398 -0.119097 0.597031 0.524576 -0.606937 154 116 119
0.220873 0.264054 -0.106832 0.608789 0.663649 -0.43468 140 105 108
0.214105 0.173883 -0.14437 0.943553 -0.0613533 -0.325487 100 12 15
0.199751 0.25459 -0.14967 0.991364 0.127969 -0.0286396 176 146 151
0.190163 0.300318 -0.14393 0.943268 0.324224 0.0715851 176 143 147
0.131452 0.39275 -0.0732384 0.991728 0.124518 -0.0311594 155 88 93
0.183466 0.20978 -0.211858 0.616554 0.355003 -0.702732 111 13 17
0.0321038 0.514927 -0.0386023 0.350506 0.834803 -0.424557 131 48 53
0.037426 0.498411 -0.0641441 0.513561 0.798814 -0.31329 126 46 51
0.107557 0.0934214 -0.282089 0.379936 0.041017 -0.924103 124 24 26
0.0259431 0.464657 -0.183436 0.0133221 0.66612 -0.745725 173 142 146
0.0730532 0.154743 -0.304577 0.75056 0.175422 -0.637092 158 113 116
0.0333109 0.400437 -0.26567 0.936897 0.342776 -0.0687659 176 137 127
-0.0479588 0.550267 -0.168272 0.815314 -0.303687 -0.492988 50 25 18
0.0790866 0.00381768 -0.370652 0.990121 0.117157 0.0770282 165 26 30
-0.0540209 0.502986 -0.207936 0.712234 0.510503 -0.481777 171 143 137
0.158007 -0.130556 -0.47526 0.901384 0.325496 0.285586 204 177 168
0.040296 0.225746 -0.347672 0.585203 0.504345 -0.634959 140 33 32
0.00623404 0.336836 -0.312473 0.805269 0.194986 -0.55993 170 136 127
-0.0758771 0.536601 -0.238481 0.884721 0.0794777 -0.459294 150 125 121
-0.0533496 0.494163 -0.294298 0.632097 0.625582 -0.457277 174 147 138
-0.0347984 0.327432 -0.328846 0.707751 0.431814 -0.559128 151 114 105
0.0544924 0.0363522 -0.475458 0.360175 0.417233 -0.834381 181 135 140
0.16791 -0.189147 -0.634284 0.819571 -0.0776717 -0.567689 182 154 146
-0.0487391 0.347207 -0.38712 0.81906 -0.118866 -0.561259 167 134 124
0.031812 0.00583819 -0.509049 0.665244 0.423917 -0.61461 136 34 36
-0.00678463 0.22483 -0.447076 0.7289 0.66487 -0.163258 169 138 142
-0.0676239 0.496734 -0.367236 0.660508 0.642127 -0.389106 191 167 161
0.144854 -0.220536 -0.656263 0.688003 -0.11719 -0.716184 173 138 126
0.1439 -0.133653 -0.64334 0.657494 0.671726 -0.341302 189 161 152
0.121637 -0.121395 -0.636607 0.640841 0.594236 -0.486012 190 164 158
0.0678658 -0.0815985 -0.608973 0.471175 0.87684 -0.0956285 176 149 143
0.0579943 -0.0787259 -0.627895 0.373092 0.91351 -0.162175 174 147 142
-0.0966707 0.446166 -0.443709 0.454576 0.55284 -0.698376 154 123 110
-0.25343 0.761936 -0.260219 0.750344 -0.141639 -0.645695 62 45 37
-0.0376074 0.0374222 -0.563508 0.819788 0.384712 -0.4242 152 95 97
-0.110685 0.390357 -0.468988 0.747149 -0.0312963 -0.663919 159 128 118
-0.171277 0.524244 -0.438722 0.768338 0.614934 -0.177518 157 130 124
-0.241749 0.685756 -0.398615 0.855206 0.434052 -0.283234 115 66 55
-0.0434236 0.123065 -0.639887 0.86971 -0.0693976 -0.488659 140 16 19
-0.232893 0.650764 -0.421283 0.895959 0.363658 -0.254973 113 65 54
0.0588943 -0.285832 -0.793186 0.496383 -0.242506 -0.833543 160 137 132
0.0532585 -0.179622 -0.787132 0.41813 0.327864 -0.847155 153 120 108
-0.289375 0.71924 -0.429744 0.500193 0.562585 -0.658259 109 86 70
0.0264052 -0.208381 -0.816388 0.603207 0.125695 -0.787618 130 94 83
-0.0935833 -0.0287039 -0.70899 0.697054 0.551536 -0.458175 98 28 28
-0.150756 0.3556 -0.621825 0.739072 0.482904 -0.469655 95 59 47
-0.212351 0.502796 -0.555124 0.587764 0.554659 -0.588971 110 86 69
-0.0732221 0.14783 -0.736448 0.579535 0.510791 -0.635005 93 53 43
-0.128288 0.253193 -0.701163 0.539865 0.509004 -0.670419 111 88 71
-0.12022 0.209658 -0.730251 0.55725 0.501035 -0.662145 115 93 74
-0.0258403 -0.0150771 -0.827464 0.645187 0.485245 -0.590146 98 55 44
-0.329968 0.66859 -0.520456 0.385296 0.668478 -0.636147 113 92 73
-0.398301 0.750339 -0.490221 0.374531 0.614653 -0.69421 111 90 77
-0.0651765 0.0119033 -0.846219 0.583533 0.514516 -0.628302 107 88 71
-0.0372067 -0.0610708 -0.87652 0.665312 0.41001 -0.623901 115 93 75
-0.0512834 -0.0316182 -0.867907 0.619018 0.517241 -0.590998 113 93 74
-0.122075 0.145053 -0.777075 0.588311 0.515755 -0.622806 79 59 49
-0.150535 0.20152 -0.758006 0.418375 0.559038 -0.715848 117 97 77
-0.220075 0.35701 -0.676287 0.586548 0.576375 -0.568992 79 60 50
-0.0857772 0.0257023 -0.844689 0.517585 0.591263 -0.618476 85 64 53
-0.179546 0.248868 -0.745554 0.384202 0.449975 -0.806171 118 99 78
-0.336697 0.564128 -0.606551 0.397144 0.448786 -0.800542 71 53 44
-0.235874 0.333087 -0.717751 0.326905 0.673007 -0.663472 117 99 77
-0.273654 0.412902 -0.679833 0.498327 0.410155 -0.763835 106 88 71
-0.232999 0.25466 -0.770547 0.563931 0.515087 -0.645498 89 72 61
-0.0924367 -0.0586283 -0.922879 0.492589 0.525619 -0.693599 116 97 78
-0.109197 -0.0165095 -0.902644 0.328346 0.567636 -0.754969 121 103 82
-0.376903 0.587945 -0.61496 0.376881 0.582857 -0.719888 111 93 75
-0.207971 0.17223 -0.817573 0.595197 0.538097 -0.596819 110 93 75
-0.208564 0.126687 -0.854502 0.514861 0.515428 -0.685019 116 98 80
-0.246519 0.220318 -0.807801 0.5001 0.562662 -0.658264 115 98 76
-0.408811 0.591716 -0.644199 0.300885 0.719095 -0.626394 106 89 73
-0.22458 0.156294 -0.841281 0.547421 0.563525 -0.618685 89 69 57
-0.161127 -0.00580458 -0.92585 0.511804 0.562342 -0.649482 89 69 57
-0.182852 0.0711021 -0.882722 0.382642 0.552537 -0.740465 119 102 81
-0.129981 -0.0897147 -0.959262 0.557253 0.57666 -0.597437 115 99 79
-0.384565 0.493675 -0.682669 0.672277 0.387422 -0.630832 73 58 50
-0.26105 0.17151 -0.854725 0.647455 0.391251 -0.654007 110 94 74
-0.318072 0.27765 -0.809709 0.514373 0.519302 -0.682457 112 96 78
-0.403926 0.442415 -0.744154 0.407224 0.68322 -0.606119 110 95 77
-0.388219 0.344838 -0.798404 0.412185 0.61661 -0.670742 108 93 75
-0.360259 0.269087 -0.835434 0.430332 0.58887 -0.684138 108 93 76
-0.228253 -0.007557 -0.969216 0.4794 0.564789 -0.671706 88 72 60
-0.592948 0.717543 -0.622364 0.617599 0.426154 -0.661033 97 84 73
-0.227222 -0.0249875 -0.980338 0.399976 0.483766 -0.778453 88 71 59
-0.375616 0.249158 -0.863205 0.392961 0.609359 -0.688668 79 63 54
-0.580305 0.673524 -0.674354 0.491782 0.662424 -0.565106 71 60 51
-0.391383 0.262175 -0.866104 0.464095 0.514973 -0.720707 84 71 58
-0.469088 0.435304 -0.779345 0.584641 0.564967 -0.582244 77 64 55
-0.413698 0.274565 -0.867188 0.272841 0.515168 -0.812501 112 98 80
-0.365576 0.174254 -0.921349 0.91584 0.394436 -0.0752208 109 94 77
-0.645117 0.670692 -0.694366 0.433271 0.463904 -0.772703 93 78 68
0.702846 0.689291 0.392526 0.972294 0.156883 -0.1733 153 25 28
0.678404 0.685884 0.341688 0.852776 -0.0472403 -0.520138 151 39 43
0.668438 0.657922 0.319697 0.834727 0.0324019 -0.549709 185 156 161
0.631499 0.664022 0.276353 0.631288 0.233905 -0.739436 165 143 145
0.635202 0.507905 0.256893 0.683764 -0.0798525 -0.725322 169 134 136
0.60015 0.719387 0.276883 0.36021 0.607534 -0.707921 127 26 27
0.659485 0.0966273 0.146936 0.680023 -0.104924 -0.725644 166 122 102
0.518734 0.755265 0.283638 -0.0302592 0.0779639 -0.996497 44 19 15
0.463064 0.889907 0.381874 0.326582 0.775511 -0.540303 102 16 16
0.60405 0.329848 0.138508 0.574551 0.126012 -0.80871 170 153 143
0.614494 0.167897 0.094093 0.762237 0.352478 -0.542912 170 129 112
0.6168 0.102784 0.0650956 0.848319 0.128841 -0.513571 183 146 133
0.574233 0.439656 0.118838 0.685619 0.0790432 -0.723657 175 161 154
0.472713 0.68721 0.259224 -0.0547922 0.517975 -0.853639 124 103 107
0.583933 0.131418 0.0367414 0.677218 0.19811 -0.70861 159 117 99
0.575544 -0.231941 -0.0507003 0.660038 0.39951 -0.636192 145 121 109
0.555382 -0.252223 -0.0796614 0.502205 0.473598 -0.723529 169 153 146
0.319367 0.867388 0.289642 0.0523639 0.685155 -0.726513 101 23 22
0.541181 -0.0592145 -0.0574385 0.841868 0.299231 -0.449131 171 152 143
0.424654 0.374869 0.0479708 0.258933 0.759801 -0.596368 154 124 111
0.456848 0.181146 -0.0489779 0.432952 0.326173 -0.840335 153 114 97
0.455582 0.164118 -0.0538691 0.565041 0.357529 -0.743573 151 115 99
0.438657 -0.201725 -0.150332 0.759181 -0.202512 -0.618574 170 155 148
0.224965 0.856822 0.170335 0.62149 0.729054 -0.286757 95 12 14
0.206006 0.509646 0.0920752 0.451133 0.50021 -0.7391 83 58 52
0.303167 0.102667 -0.0997791 0.135469 -0.207178 -0.968879 145 106 93
0.224813 0.328661 -0.0499356 0.0078712 0.742732 -0.669543 146 113 107
0.050083 0.50406 0.135099 0.799327 0.48575 -0.353726 107 69 68
-0.0149681 0.53422 -0.00777923 0.46167 0.840271 -0.284262 135 100 101
0.140916 0.179853 -0.259774 0.641743 0.140927 -0.75386 173 152 156
0.114034 0.225247 -0.268563 0.268094 0.466201 -0.843079 139 48 51
-0.0191002 0.517677 -0.147515 0.596159 0.607482 -0.524938 86 36 35
0.0881377 -0.0420901 -0.404919 0.92946 0.244656 -0.276131 177 76 78
-0.00141845 0.47436 -0.282489 0.269791 0.820649 -0.503733 191 159 148
0.169604 -0.249349 -0.58644 0.86485 -0.431179 -0.257139 174 139 128
0.0228382 0.0809292 -0.429917 0.782301 0.56108 -0.270545 178 151 155
-0.110628 0.548308 -0.290598 0.701797 0.625962 -0.340076 156 131 127
0.111152 -0.0918577 -0.581719 0.420117 0.849495 -0.319155 194 168 162
0.131245 -0.174061 -0.674717 0.901878 0.196696 -0.384612 166 130 117
-0.0463028 0.0839556 -0.595686 0.835785 -0.318939 -0.446923 123 18 21
0.0506144 -0.0985483 -0.715945 0.313044 0.799273 -0.512999 173 145 139
-0.247996 0.711115 -0.354941 0.970356 0.157132 0.183628 93 50 39
-0.152219 0.435011 -0.488447 0.779783 0.311502 -0.543051 156 126 118
0.0619402 -0.30156 -0.775793 0.806486 -0.411949 -0.42412 167 142 135
-0.205235 0.574646 -0.446733 0.871391 0.485151 -0.0728521 125 73 59
-0.0821151 -0.0787641 -0.664906 0.48218 0.875775 -0.022809 158 117 111
-0.264528 0.625669 -0.492793 0.570269 0.542959 -0.616433 108 86 69
-0.00434054 -0.173806 -0.819997 0.568784 0.473082 -0.672813 102 56 42
-0.249253 0.57145 -0.526724 0.534538 0.544781 -0.646129 107 86 68
-0.326008 0.72989 -0.451119 0.485789 0.485092 -0.727115 83 64 55
-0.305111 0.676503 -0.475383 0.596026 0.574787 -0.56069 80 62 52
-0.294783 0.655966 -0.501473 0.402483 0.578527 -0.709447 82 61 52
-0.219072 0.406983 -0.636617 0.571424 0.486326 -0.661031 107 87 69
-0.068586 0.0694709 -0.800419 0.570875 0.518039 -0.636975 107 84 67
-0.351707 0.711718 -0.493865 0.459332 0.609121 -0.646518 110 89 72
0.0125205 -0.172706 -0.900764 0.901781 0.121652 -0.414719 100 60 47
-0.261337 0.469494 -0.608409 0.664882 0.581928 -0.468287 110 90 71
-0.377168 0.726951 -0.494063 0.357594 0.611077 -0.706194 112 93 75
-0.083472 0.0526452 -0.824782 0.529031 0.588373 -0.611509 89 67 54
-0.135091 0.175042 -0.770767 0.452192 0.518468 -0.72575 91 71 58
-0.112302 0.114399 -0.804315 0.611626 0.456484 -0.646169 103 82 68
-0.23862 0.371512 -0.67695 0.667276 0.555549 -0.496094 92 72 60
-0.327454 0.589341 -0.576555 0.396421 0.575053 -0.715657 110 90 73
-0.365915 0.669769 -0.533072 0.471437 0.666178 -0.577888 108 89 72
-0.263544 0.426699 -0.65295 0.528385 0.562107 -0.636274 86 67 55
-0.0958784 0.0662372 -0.82618 0.453915 0.581641 -0.675022 86 65 54
-0.255173 0.401249 -0.667712 0.52983 0.530556 -0.661656 87 68 56
-0.265769 0.444565 -0.639523 0.426805 0.558482 -0.711292 86 67 54
-0.118483 0.0779138 -0.828759 0.500532 0.517669 -0.693893 95 77 62
-0.22534 0.334537 -0.700618 0.653096 0.472054 -0.592141 96 78 63
-0.289303 0.480037 -0.627914 0.651617 0.519777 -0.552473 75 58 49
-0.306743 0.496653 -0.62895 0.652809 0.496177 -0.572406 85 68 56
-0.0650766 -0.0503557 -0.892898 0.559282 0.559079 -0.612073 86 65 54
-0.0790225 -0.0536235 -0.906832 0.530287 0.534863 -0.657812 99 80 65
-0.0821059 -0.0196004 -0.885233 0.464425 0.49883 -0.731764 93 73 59
-0.238751 0.287396 -0.742972 0.586865 0.582872 -0.562006 112 93 72
-0.267301 0.395884 -0.685397 0.309571 0.563986 -0.765563 110 92 72
-0.125572 0.0236281 -0.878334 0.428344 0.571383 -0.700031 116 98 77
-0.419619 0.647076 -0.593346 0.424029 0.588955 -0.687992 108 90 74
-0.135583 -0.016365 -0.907722 0.576271 0.575339 -0.580427 110 94 75
-0.322767 0.406093 -0.719639 0.287364 0.617132 -0.732509 113 98 78
-0.175273 0.0755845 -0.863906 0.534051 0.566056 -0.62799 114 97 77
-0.201257 0.110274 -0.84985 0.798379 0.396966 -0.452779 114 97 77
-0.261674 0.224158 -0.809924 0.494005 0.649956 -0.577508 113 96 75
-0.326882 0.351059 -0.75361 0.471375 0.4945 -0.730257 108 92 74
-0.386115 0.511962 -0.670368 0.667944 0.382021 -0.638679 81 67 57
-0.479247 0.681123 -0.601471 0.486016 0.527473 -0.696822 81 66 56
-0.169682 0.00965656 -0.908978 0.534864 0.581872 -0.612655 88 70 59
-0.171882 0.0264348 -0.897385 0.539446 0.517807 -0.663983 90 71 61
-0.18759 0.0356402 -0.899004 0.480348 0.504203 -0.717666 82 62 52
-0.159679 -0.0223473 -0.937329 0.472821 0.547441 -0.69047 95 76 64
-0.433061 0.553137 -0.676964 0.414754 0.497915 -0.761616 108 91 74
-0.204446 -0.000553085 -0.937442 0.513301 0.535992 -0.670249 117 101 82
-0.423616 0.489601 -0.713834 0.496043 0.467932 -0.731423 105 90 73
-0.372983 0.352169 -0.782777 0.408861 0.549534 -0.728591 94 76 59
-0.493159 0.647565 -0.649541 0.439488 0.665017 -0.603822 107 92 76
-0.49213 0.598993 -0.664775 0.606293 0.595636 -0.526903 99 85 70
-0.33317 0.272513 -0.824614 0.435827 0.628737 -0.644006 114 98 80
-0.193655 -0.0732497 -0.990035 0.605608 0.539397 -0.585056 107 91 73
-0.210174 -0.00423506 -0.957094 0.373693 0.5819 -0.72232 115 99 79
-0.461759 0.461079 -0.74752 0.566455 0.433331 -0.700967 101 87 72
-0.334183 0.200133 -0.864252 0.542176 0.770771 -0.334599 107 94 77
-0.315362 0.22259 -0.869414 0.140567 0.357813 -0.923152 113 98 78
-0.191894 -0.105519 -1.02027 0.537184 0.448174 -0.714544 77 61 52
-0.182 -0.163683 -1.05169 0.570046 0.423525 -0.704042 87 54 48
-0.242377 0.00550805 -0.972659 0.51634 0.257327 -0.816807 105 89 75
-0.230622 -0.0434347 -0.989135 0.630277 0.595961 -0.497575 81 65 54
-0.242374 -0.0337101 -0.994525 0.435129 0.627615 -0.645572 85 67 56
-0.251892 -0.0142912 -0.978162 0.501269 0.636147 -0.586555 92 73 62
-0.26586 0.0162732 -0.964913 0.559205 0.562816 -0.608709 88 71 61
-0.547395 0.616703 -0.682872 0.558974 0.615957 -0.555108 75 63 55
-0.535501 0.596749 -0.706209 0.387367 0.629335 -0.67371 81 70 61
-0.362356 0.206217 -0.889439 0.376091 0.491875 -0.785248 98 82 70
-0.593954 0.692302 -0.663875 0.368106 0.550222 -0.749502 81 69 61
-0.27838 0.0173491 -0.986728 0.312916 0.136935 -0.939858 114 99 79
-0.217631 -0.138485 -1.05793 0.307719 0.638662 -0.705279 117 102 83
-0.230613 -0.0993977 -1.03321 0.249672 0.535859 -0.806548 113 100 81
-0.435777 0.266204 -0.873567 0.102937 0.451522 -0.886302 112 96 79
-0.484978 0.407652 -0.812486 0.518572 0.555544 -0.649965 88 76 64
-0.547377 0.502167 -0.772927 0.29164 0.529592 -0.796542 100 84 71
-0.596822 0.634636 -0.71378 0.268382 0.523973 -0.808346 101 90 77
0.704093 0.591771 0.390095 0.920699 0.38994 0.0160938 188 166 169
0.719381 0.50623 0.366617 0.956942 -0.184813 -0.223845 149 35 39
0.703494 0.132181 0.297806 0.954504 -0.167905 -0.246436 177 159 148
0.697948 0.523747 0.32134 0.864982 0.0735014 -0.496392 142 18 20
0.635016 0.700047 0.287141 0.58298 0.254959 -0.771446 136 49 51
0.637181 0.589046 0.268171 0.554255 0.313065 -0.771227 153 70 70
0.637761 0.488252 0.246744 0.724911 0.165223 -0.668735 168 143 144
0.612374 0.632507 0.258453 0.474217 -0.168373 -0.864157 157 116 116
0.659539 0.115858 0.149224 0.749715 0.18249 -0.636103 173 131 113
0.609414 0.552315 0.24154 0.599062 0.146847 -0.787121 134 34 35
0.64515 -0.0328325 0.10792 0.788039 -0.0940145 -0.608405 177 137 121
0.558766 0.571742 0.209288 0.497918 0.4672 -0.730617 148 121 121
0.622947 -0.0850927 0.0517122 0.864805 0.49581 -0.0792732 192 169 160
0.606971 -0.205472 -0.00919565 0.670307 0.195886 -0.715764 113 84 73
0.581256 -0.014797 0.00306024 0.673438 -0.232119 -0.701856 156 118 100
0.587711 -0.0875016 -0.0226728 0.870614 0.263049 -0.415737 179 160 151
0.576617 -0.266516 -0.0643946 0.590487 0.150104 -0.792965 171 154 146
0.510175 -0.0148395 -0.0711463 0.514245 0.401548 -0.757833 167 149 142
0.432553 0.355592 0.0342655 0.260907 0.729042 -0.632792 146 109 93
0.443133 -0.259339 -0.123324 0.445902 -0.0406375 -0.89416 144 124 113
0.274329 0.514065 0.107974 -0.0455169 0.467552 -0.882794 146 131 126
0.0980485 0.7261 0.140274 0.584071 -0.68548 -0.434717 84 46 30
0.243582 0.0734472 -0.133426 0.900815 -0.20417 -0.383206 148 122 119
0.106483 0.463852 0.0210654 0.984365 0.108913 0.138434 80 15 18
0.18544 0.0223244 -0.175427 0.816465 -0.146573 -0.558481 100 11 14
-0.107977 0.881827 0.221547 0.477583 0.302949 -0.824704 151 138 146
0.10973 -0.133605 -0.201843 0.531866 -0.258331 -0.806463 113 13 15
0.179358 0.200197 -0.221769 0.63379 0.234719 -0.737032 122 35 39
0.170973 0.239998 -0.213399 0.704704 0.211568 -0.677223 114 13 17
0.126443 -0.0288113 -0.260238 0.667018 -0.329346 -0.668295 173 160 164
0.139235 0.0815663 -0.270148 0.315766 -0.000975539 -0.948837 117 14 16
-0.0698211 0.550347 -0.0390928 0.752618 0.623122 -0.212803 53 26 24
0.0852601 -0.0494937 -0.385016 0.977624 0.208552 -0.0275249 190 86 88
0.0563674 0.121268 -0.356484 0.861595 0.464725 -0.204168 134 18 20
0.0203489 -0.0529627 -0.58188 0.278111 0.914576 -0.293607 173 141 136
-0.0483272 0.0126706 -0.579495 0.604533 -0.0257086 -0.796165 158 126 128
-0.134282 0.313394 -0.519245 0.870836 0.34838 -0.346809 173 136 126
-0.0944602 -0.0178314 -0.629781 0.245595 0.744537 -0.620764 114 16 18
-0.0653574 0.0790573 -0.671879 0.907523 -0.139433 -0.396182 168 142 144
0.0106584 -0.170495 -0.807407 0.58554 0.506053 -0.633287 110 69 55
-0.150402 0.354402 -0.622536 0.738136 0.484351 -0.469639 95 59 48
-0.111635 0.251229 -0.686514 0.680516 0.519931 -0.516304 92 54 44
-0.348739 0.742274 -0.451446 0.625191 0.543365 -0.560259 94 77 66
-0.199935 0.405051 -0.626145 0.610912 0.79007 -0.0507567 122 100 79
-0.221853 0.471782 -0.61034 0.171095 0.660683 -0.730906 119 98 77
-0.259578 0.530261 -0.579598 0.584126 0.557924 -0.589507 111 90 73
-0.361994 0.701009 -0.503187 0.224628 0.703113 -0.674667 112 92 74
-0.155586 0.258614 -0.724052 0.321617 0.693699 -0.644471 103 81 67
-0.337608 0.612041 -0.557113 0.523086 0.584032 -0.620716 105 85 68
-0.415479 0.722256 -0.527671 0.446108 0.659516 -0.605001 93 77 66
-0.189074 0.160131 -0.806692 0.48359 0.526697 -0.699093 115 97 77
-0.319793 0.414406 -0.699695 0.474749 0.377568 -0.79502 111 94 75
-0.386211 0.566423 -0.635243 0.343135 0.48622 -0.803648 108 92 74
-0.140613 -0.0498201 -0.94971 0.445391 0.618828 -0.647054 112 94 77
-0.412807 0.562177 -0.663338 0.42277 0.613871 -0.666654 108 92 75
-0.507378 0.715384 -0.592962 0.281469 0.71326 -0.6419 105 90 77
-0.344812 0.322852 -0.794523 0.304876 0.64294 -0.702624 101 85 70
-0.215644 0.0125534 -0.94011 0.514691 0.531467 -0.672783 117 102 82
-0.436203 0.444397 -0.748939 0.534027 0.469183 -0.703337 106 92 75
-0.536492 0.682183 -0.640545 0.271439 0.717578 -0.641407 105 91 76
-0.409395 0.414661 -0.773571 0.378799 0.346759 -0.858062 109 94 76
-0.381097 0.324976 -0.814729 0.337412 0.572489 -0.747268 109 94 75
0.579855 0.509611 0.141008 0.738232 0.529265 -0.4182 172 157 152
0.246245 0.842477 0.174753 0.369008 0.782799 -0.501058 92 38 34
0.440101 -0.165833 -0.14678 0.688789 0.221403 -0.690326 166 150 142
0.148199 0.728506 0.167753 0.591293 -0.337462 -0.732455 82 47 30
0.213532 0.0139383 -0.155562 0.49083 0.0883537 -0.866764 106 12 14
0.135287 0.321357 -0.218186 0.618263 0.512426 -0.595962 172 158 163
0.112705 0.166224 -0.282777 0.562093 0.155279 -0.812367 138 108 111
0.00793693 0.367449 -0.308597 0.902676 0.182416 -0.389746 176 141 130
0.017921 0.203035 -0.414167 0.857892 0.394608 -0.329098 188 173 179
0.118884 -0.106194 -0.610632 0.915941 0.326934 -0.232737 182 154 147
-0.0179964 0.157243 -0.575919 0.882001 0.0839067 -0.463719 180 163 168
-0.13119 0.345372 -0.508403 0.745431 0.266937 -0.6108 167 132 122
0.0560517 -0.206311 -0.778281 0.707077 0.0259529 -0.706659 162 130 119
-0.0912371 0.120875 -0.774481 0.62001 0.549534 -0.56 112 90 72
-0.279158 0.460704 -0.648828 0.40436 0.627984 -0.664928 86 66 56
-0.0705666 -0.0975864 -0.935306 0.485748 0.524975 -0.698892 104 82 64
-0.0918373 -0.112997 -0.959497 0.532675 0.554342 -0.639502 115 97 77
-0.120972 -0.10517 -0.976947 0.426601 0.561499 -0.709035 119 101 81
-0.292551 0.226671 -0.828679 0.326766 0.687692 -0.648308 115 99 79
-0.435485 0.461959 -0.735406 0.483541 0.342102 -0.805701 110 96 78
-0.421335 0.193911 -0.913059 0.67036 0.455927 -0.585447 93 61 53
-0.437829 0.238214 -0.893498 0.280999 0.504608 -0.81634 92 63 54
0.610915 0.419697 0.152473 0.524719 0.0999922 -0.845382 174 158 149
0.550362 0.495823 0.108963 0.534896 0.253453 -0.806007 164 150 144
0.215857 -0.013731 -0.146918 0.624258 0.127967 -0.770666 111 14 16
0.0808136 0.0658329 -0.316664 0.980605 -0.164945 -0.105863 162 84 89
0.0284557 0.242314 -0.289957 0.45934 0.764761 -0.451827 108 56 45
0.00382009 0.0200608 -0.527077 0.610183 0.296974 -0.734495 143 32 35
-0.1362 0.361608 -0.497045 0.746994 0.0217409 -0.664475 164 130 121
-0.314731 0.231622 -0.843428 0.260893 0.515345 -0.816305 112 97 77
-0.301459 -0.0360634 -1.02344 0.147946 0.794681 -0.588723 94 60 53
-0.51341 0.386217 -0.829242 0.153018 0.621966 -0.767948 88 60 53
0.713491 0.467994 0.368898 0.944991 0.196429 -0.261548 189 159 163
0.686816 -0.208552 0.168273 0.581796 0.541335 -0.607017 204 187 180
0.579488 -0.352463 -0.0364013 0.67495 -0.328403 -0.660753 173 156 150
0.55826 0.0820024 0.000295795 0.485002 0.252907 -0.837144 160 121 104
0.339792 0.283796 -0.0573961 0.203087 0.329193 -0.922165 161 131 120
0.0721745 -0.0944214 -0.669505 0.623553 0.770084 -0.134733 173 145 138
-0.102617 0.195818 -0.728056 0.664336 0.4901 -0.564321 107 79 63
-0.219581 0.111933 -0.862236 0.650652 0.566602 -0.505583 101 84 70
-0.323043 0.128516 -0.924765 0.437076 0.506843 -0.743018 86 69 57
-0.446422 0.349043 -0.829546 0.4338 0.578753 -0.690553 74 61 52
0.592947 0.147487 0.0526106 0.821939 0.183199 -0.53931 169 130 115
0.406778 -0.109329 -0.145172 0.248335 0.279784 -0.927389 157 141 133
-0.0465583 0.456296 -0.378095 0.691853 0.36329 -0.623987 180 153 145
0.178112 0.131921 -0.253638 0.329985 0.311291 -0.891184 160 137 141
