ply
format ascii 1.0
element vertex 295
property float x
property float y
property float z
property float nx
property float ny
property float nz
property uchar diffuse_red
property uchar diffuse_green
property uchar diffuse_blue
end_header
0.521374 -0.0355555 0.691244 0.323804 -0.896836 0.301392 186 161 153
0.55215 -0.0658609 0.590913 0.575743 -0.81467 -0.0695204 186 156 148
0.720039 0.548886 0.370317 0.959533 -0.26611 -0.0920989 178 108 111
0.649393 0.00482194 0.473553 0.707885 -0.697943 -0.108511 189 174 170
0.697948 0.523747 0.32134 0.864982 0.0735014 -0.496392 142 18 20
0.593964 -0.0600899 0.454204 0.84234 -0.492541 0.218784 198 170 163
0.656077 0.671112 0.309418 0.695987 -0.0421002 -0.71682 177 139 145
0.641697 -0.00111062 0.385883 0.620978 -0.702268 -0.348145 202 172 163
0.64755 0.661502 0.289598 0.660016 0.0803883 -0.746939 171 145 149
0.627436 0.639665 0.268043 0.595688 -0.107308 -0.796016 170 145 148
0.635202 0.507905 0.256893 0.683764 -0.0798525 -0.725322 169 134 136
0.626244 0.558589 0.251721 0.4559 0.107848 -0.883473 128 16 17
0.709114 -0.33909 0.204034 0.780452 -0.606024 -0.153721 190 173 169
0.645749 -0.054952 0.254906 0.901248 -0.404247 0.156002 192 162 153
0.701168 -0.355511 0.208043 0.664804 -0.721926 -0.191984 182 162 157
0.675302 0.106171 0.17864 0.940788 0.219267 -0.258536 187 154 142
0.679385 -0.400131 0.228627 0.935748 -0.35169 0.0262742 84 49 43
0.654854 -0.063458 0.170871 0.860385 -0.509585 -0.00780329 189 153 141
0.656038 -0.414534 0.117068 0.705406 -0.377408 -0.599971 80 50 45
0.629516 -0.00247338 0.0376057 0.679914 -0.0606143 -0.730781 186 151 139
0.626189 -0.416043 0.0804054 0.742312 -0.594535 -0.309031 183 172 170
0.592688 -0.50171 0.111123 0.112898 -0.657203 -0.745211 62 36 30
0.596725 -0.0116375 0.0159691 0.231238 -0.636716 -0.73561 161 121 102
0.473835 0.472011 0.067516 0.444234 0.0868328 -0.891693 151 138 130
0.421613 -0.615268 0.267318 0.730379 -0.676371 0.0952287 168 152 147
0.597046 -0.244299 -0.0268986 0.808224 0.0959545 -0.581005 180 163 156
0.565771 -0.0555884 -0.02932 0.679694 0.368719 -0.634085 175 156 148
0.533766 0.084759 -0.0202372 0.50738 0.18274 -0.842124 160 126 112
0.574575 -0.17843 -0.0476421 0.889467 0.131735 -0.4376 186 169 164
0.50422 0.0626781 -0.0343023 0.431101 -0.222745 -0.874378 151 115 97
0.488429 0.083994 -0.0577919 0.703407 0.085995 -0.705565 168 139 126
0.551505 -0.331409 -0.0722362 0.462325 -0.411935 -0.785217 169 154 146
0.445725 0.0577649 -0.0724448 0.384616 -0.119484 -0.915311 151 116 100
0.472777 -0.202091 -0.118379 0.433266 -0.169945 -0.885098 157 140 132
0.443133 -0.259339 -0.123324 0.445902 -0.0406375 -0.89416 144 124 113
0.443538 -0.213123 -0.135912 0.560568 -0.460936 -0.687968 164 147 140
0.438657 -0.201725 -0.150332 0.759181 -0.202512 -0.618574 170 155 148
0.42164 -0.234433 -0.143113 0.427536 -0.610118 -0.667061 144 124 116
0.292831 -0.507368 0.00322284 0.119788 -0.410455 -0.903979 162 159 159
0.268465 0.131647 -0.112269 0.611224 -0.0830719 -0.787086 113 23 22
0.364963 -0.296012 -0.131548 0.10869 -0.348027 -0.931163 164 149 142
0.240316 0.0463486 -0.123991 0.950762 -0.0603344 -0.303995 146 117 114
0.231029 -0.454993 -0.0214572 -0.146113 -0.364145 -0.91981 167 161 160
0.343506 -0.256408 -0.145003 -0.00635131 -0.280826 -0.959738 160 143 137
0.197255 0.275575 -0.148865 0.971729 -0.150263 -0.182106 176 155 159
-0.0727911 0.747227 -0.104788 0.570405 -0.473215 -0.671347 89 49 34
0.198325 -0.0585956 -0.159702 0.442364 -0.19874 -0.874538 152 117 116
0.122844 -0.255158 -0.0680159 0.46426 -0.544451 -0.698596 153 124 123
-0.0833243 -0.334432 0.0791455 -0.0429536 -0.796777 -0.602744 125 50 57
0.160243 -0.112486 -0.172867 0.611696 -0.0794194 -0.787097 158 131 131
0.17353 0.0336781 -0.223369 0.859315 -0.391931 -0.328585 153 30 33
0.0776881 -0.219029 -0.118232 0.645281 -0.436933 -0.626659 151 126 128
-0.187488 -0.39918 0.0967803 0.769549 -0.638045 0.0262906 101 40 42
0.119171 -0.141785 -0.193491 0.721935 -0.311805 -0.617728 116 14 16
0.0678444 -0.199386 -0.165698 0.379566 -0.911337 -0.159357 153 132 138
0.0991295 -0.120664 -0.213756 0.639879 -0.365234 -0.676136 112 14 16
-0.10548 -0.384453 -0.019362 0.839961 -0.542311 -0.0190908 87 25 25
0.0730532 0.154743 -0.304577 0.75056 0.175422 -0.637092 158 113 116
-0.0524571 -0.29253 -0.100421 0.743013 -0.429744 -0.513081 134 92 94
0.0695198 -0.109517 -0.235978 0.435071 -0.616093 -0.656615 106 14 17
-0.219127 -0.425617 0.0282524 0.953361 -0.16126 0.255144 83 26 26
0.074865 -0.0757869 -0.279144 0.725091 -0.536188 -0.432139 127 33 37
0.0752819 0.0440199 -0.316801 0.93712 -0.184444 -0.296291 157 86 89
-0.189708 -0.402777 -0.030677 0.844067 -0.462956 0.270597 109 67 64
-0.17365 0.584625 -0.379272 0.633542 0.00416861 -0.773698 78 51 45
0.087495 -0.0610257 -0.404277 0.962145 0.272538 0.000500734 185 118 119
0.0219358 0.190257 -0.436683 0.969844 0.189515 -0.153255 187 165 170
-0.0719354 0.421621 -0.42024 0.759711 0.173735 -0.626623 165 134 122
0.0460032 -0.345129 -0.323681 0.657358 -0.605661 0.448391 169 131 117
0.0542607 0.026634 -0.460298 0.891334 0.376069 -0.25317 187 161 167
-0.0736355 -0.422455 -0.268137 0.970978 0.0840163 0.223928 132 87 75
-0.0707272 -0.431093 -0.365655 0.453508 -0.890732 0.0304556 180 145 134
-0.0384498 0.1103 -0.626295 0.92722 -0.268219 -0.261381 146 21 24
0.126923 -0.316832 -0.621996 0.884573 -0.22091 -0.410767 185 152 140
-0.276164 -0.672225 -0.296067 0.837319 -0.542472 -0.0679794 165 133 124
-0.10765 -0.500905 -0.449553 0.824503 -0.54675 0.145804 148 111 101
0.11795 -0.233059 -0.679793 0.805994 -0.114548 -0.580735 181 151 141
-0.507522 -0.800393 -0.15711 0.549859 -0.666223 0.503788 99 63 54
0.036459 -0.417796 -0.597482 0.712568 -0.700716 0.035263 167 140 132
0.0942112 -0.168647 -0.745721 0.521001 -0.330974 -0.786774 172 142 132
-0.450406 -0.797292 -0.282803 0.388471 -0.824587 -0.411274 117 104 85
-0.278427 -0.669087 -0.427427 0.400887 -0.871402 -0.28275 97 82 68
-0.243199 -0.63489 -0.47024 0.372242 -0.844789 -0.384404 95 81 66
-0.153529 -0.563875 -0.552048 0.372866 -0.823076 -0.428389 97 82 68
-0.0254449 -0.433466 -0.651803 0.776696 -0.570433 -0.267112 130 103 98
-0.390321 -0.740937 -0.356334 0.381131 -0.840172 -0.385813 120 106 84
0.0581008 -0.316808 -0.772304 0.811396 -0.340861 -0.474816 165 140 133
-0.140846 -0.540134 -0.591027 0.31337 -0.811233 -0.493659 108 93 76
-0.357707 -0.696456 -0.413114 0.348381 -0.818261 -0.457252 118 106 85
-0.308181 -0.657208 -0.462138 0.346795 -0.786562 -0.510934 117 106 86
-0.196749 -0.582707 -0.555519 0.354534 -0.821033 -0.447449 118 105 85
-0.184485 -0.567996 -0.574516 0.35702 -0.841792 -0.404873 120 107 86
-0.00815101 -0.351772 -0.770849 0.63915 -0.600044 -0.481075 154 133 127
0.0187928 -0.286859 -0.819597 0.233799 -0.273679 -0.932972 117 81 71
-0.287405 -0.585453 -0.570623 0.326178 -0.813633 -0.481258 116 105 86
-0.516362 -0.753477 -0.387669 0.326957 -0.7549 -0.568528 91 81 66
-0.346231 -0.626623 -0.539748 0.291552 -0.787 -0.543718 97 85 70
-0.327921 -0.6107 -0.557218 0.284781 -0.850009 -0.443154 94 81 66
-0.169679 -0.498875 -0.668196 0.302047 -0.794743 -0.526451 120 106 85
-0.356684 -0.615235 -0.563545 0.290846 -0.78831 -0.542196 111 100 80
-0.191635 -0.477976 -0.713298 0.306724 -0.811802 -0.496889 92 79 66
-0.620998 -0.792106 -0.363319 0.373956 -0.780077 -0.501634 107 99 82
-0.462967 -0.608995 -0.524834 0.389519 -0.797742 -0.460305 113 99 78
0.0166547 -0.28896 -0.897659 0.625316 -0.740347 -0.246714 132 105 83
-0.0344939 -0.121962 -0.926831 0.614859 0.0609555 -0.786277 112 87 71
-0.178397 -0.456893 -0.747503 0.308177 -0.820472 -0.481511 117 106 85
-0.567763 -0.704659 -0.465727 0.336934 -0.772173 -0.538725 109 98 78
-0.302903 -0.539192 -0.65699 0.317334 -0.728362 -0.607279 116 106 85
-0.298379 -0.509612 -0.702274 0.320532 -0.811368 -0.488817 84 74 63
-0.669419 -0.761702 -0.42322 0.237671 -0.945104 -0.224258 105 95 77
-0.508451 -0.655628 -0.544214 0.335195 -0.779033 -0.52986 110 101 81
-0.182531 -0.421089 -0.800314 0.287824 -0.756073 -0.587802 114 102 82
-0.0328779 -0.25988 -0.953917 0.415519 -0.28575 -0.863534 100 67 54
-0.458379 -0.554632 -0.626813 0.165192 -0.809294 -0.563698 112 99 77
-0.419903 -0.502747 -0.669872 -0.060003 -0.81753 -0.572752 114 102 80
-0.600015 -0.674636 -0.532945 0.346506 -0.785614 -0.512588 107 98 79
-0.473795 -0.537935 -0.647046 0.11322 -0.803356 -0.584638 106 92 73
-0.0739243 -0.168731 -0.971314 0.667148 0.296671 -0.683301 88 57 48
-0.322667 -0.440805 -0.810471 0.575044 -0.731108 -0.367158 107 99 79
-0.250263 -0.387664 -0.866695 0.117013 -0.494751 -0.861121 112 102 81
-0.223262 -0.34663 -0.932888 0.0765619 -0.577537 -0.812766 110 100 80
-0.397268 -0.421623 -0.823559 0.20299 -0.957831 -0.20336 108 97 77
-0.300728 -0.39153 -0.881962 0.305194 -0.782884 -0.542171 84 75 60
0.725858 0.450154 0.384782 0.978937 -0.13791 -0.150545 193 170 176
0.70787 0.544185 0.357711 0.954395 -0.0758463 -0.288751 160 60 62
0.656618 0.00645864 0.399047 0.609838 -0.715537 -0.340739 178 146 135
0.671761 0.489889 0.291601 0.76549 -0.0346436 -0.642515 170 120 122
0.637299 -0.112918 0.277227 0.985949 0.165533 -0.0224661 42 38 39
0.677981 0.0937667 0.172069 0.897084 0.0597913 -0.437795 190 158 146
0.64579 -0.0793625 0.185265 0.891678 -0.441124 0.101592 183 145 130
0.651257 0.107709 0.135432 0.826438 0.0899462 -0.555797 172 130 111
0.519417 0.587947 0.167851 0.112682 -0.345408 -0.931664 165 150 152
0.635298 -0.120161 0.12972 0.992403 0.0901149 0.0837552 192 166 155
0.67357 -0.244103 0.0676615 0.933994 0.264962 -0.239689 179 158 149
0.67834 -0.265798 0.0757922 0.900388 -0.00420084 -0.435068 180 160 150
0.669796 -0.322307 0.0642397 0.975162 0.193801 -0.107239 186 169 161
0.625854 -0.423526 0.0982454 0.75143 -0.646127 -0.133686 151 130 126
0.641465 -0.310268 0.00888649 0.838273 -0.0131441 -0.545092 181 163 155
0.53677 -0.525219 0.106974 0.488615 -0.714973 -0.500069 106 79 73
0.606971 -0.205472 -0.00919565 0.670307 0.195886 -0.715764 113 84 73
0.561372 -0.19833 -0.0538664 0.730068 -0.00650426 -0.683343 171 151 144
0.539495 -0.00462178 -0.0207506 0.671686 0.348422 -0.653788 161 129 115
0.511337 0.13691 -0.0239162 0.62572 0.196777 -0.75482 166 128 113
0.507818 -0.0337357 -0.072858 0.392062 0.236858 -0.888924 164 147 137
0.496393 -0.26698 -0.106587 0.355383 0.245384 -0.901936 160 144 136
0.485871 -0.195196 -0.108268 0.533293 -0.0709454 -0.84295 160 144 136
0.244556 0.0885951 -0.121962 0.744609 -0.336565 -0.576439 151 121 120
0.215214 0.154232 -0.151417 0.924066 -0.0745288 -0.374898 100 23 27
-0.0648476 0.733072 -0.087776 0.449227 -0.854438 -0.261019 91 53 36
0.180041 0.248528 -0.199942 0.666954 0.0239588 -0.744713 130 29 33
0.204871 0.142122 -0.209779 0.963383 0.0324513 -0.266156 190 172 177
0.12948 0.339989 -0.201396 0.700898 0.165858 -0.69371 175 151 157
0.169487 0.0949685 -0.253634 0.451149 -0.119751 -0.884378 142 37 41
0.126256 0.172755 -0.270837 0.616083 0.17152 -0.76878 161 140 144
0.122122 -0.115623 -0.204966 0.649091 -0.206258 -0.732215 121 24 27
0.122774 0.087197 -0.274262 0.333762 0.0423039 -0.941708 123 18 19
-0.00655102 -0.238038 -0.125904 0.413398 -0.778665 -0.471999 102 18 20
-0.0360174 -0.252785 -0.116327 0.174754 -0.739096 -0.650537 109 31 31
0.056559 -0.15874 -0.215337 0.208236 -0.528714 -0.82286 147 112 116
-0.300232 -0.509987 0.078615 0.778705 -0.376874 0.50158 131 31 32
0.0509004 0.14306 -0.353365 0.755993 -0.379518 -0.53333 127 16 19
-0.154028 -0.433569 -0.111327 0.796702 -0.495217 0.34645 157 119 107
0.0801349 -0.0164406 -0.378002 0.990201 0.138647 0.0166828 176 34 37
-0.0566011 0.45097 -0.39668 0.824003 0.223578 -0.520607 178 150 143
0.0644235 0.0650431 -0.40098 0.69388 0.341725 -0.633842 182 149 155
-0.0472392 -0.402242 -0.3069 0.820459 -0.551467 -0.150768 170 139 130
-0.12899 0.368768 -0.482978 0.707228 0.170915 -0.686015 168 135 126
-0.158963 -0.585836 -0.236582 0.79877 -0.466562 -0.37985 171 136 123
-0.114113 -0.462615 -0.384392 0.522873 -0.834133 0.175572 166 129 118
0.147606 -0.274148 -0.629909 0.926865 -0.299584 -0.226209 183 152 141
-0.0463028 0.0839556 -0.595686 0.835785 -0.318939 -0.446923 123 18 21
-0.189818 -0.663702 -0.326015 0.689142 -0.716704 -0.106856 166 137 129
-0.0281193 -0.460011 -0.579879 0.72898 -0.665433 -0.160586 152 120 111
-0.236019 -0.675048 -0.383884 0.378135 -0.851967 -0.362169 122 106 84
-0.0971931 -0.572681 -0.507256 0.363631 -0.821111 -0.439943 128 108 84
0.0419774 -0.396612 -0.656372 0.710659 -0.681733 -0.173795 174 151 147
-0.153993 -0.582244 -0.509385 0.408157 -0.824934 -0.391011 122 107 85
-0.123155 -0.575061 -0.511188 0.343501 -0.828185 -0.442851 126 107 84
0.100595 -0.262236 -0.744722 0.899305 0.385647 -0.206218 182 156 148
0.0581332 -0.205321 -0.78772 0.744838 0.336455 -0.576206 162 130 119
-0.110042 -0.517995 -0.608008 0.368544 -0.830442 -0.417783 101 85 71
-0.477659 -0.781243 -0.32728 0.375516 -0.785293 -0.492243 97 88 73
-0.556929 -0.833422 -0.286553 0.302422 -0.777539 -0.551338 116 106 86
-0.410514 -0.717391 -0.411386 0.36772 -0.792539 -0.486481 101 91 75
-0.540457 -0.801292 -0.323116 0.347678 -0.77907 -0.521699 112 103 83
-0.0931984 -0.455584 -0.692115 0.336047 -0.834694 -0.4363 120 104 85
-0.360901 -0.641805 -0.519068 0.288082 -0.841991 -0.456137 97 85 70
0.0169789 -0.226436 -0.875712 0.945892 -0.0729007 0.316185 15 10 9
-0.301046 -0.565434 -0.616149 0.332944 -0.824314 -0.45788 98 84 70
-0.225142 -0.506972 -0.67875 0.223195 -0.760813 -0.609384 98 84 69
0.000499497 -0.309965 -0.869733 0.699563 -0.686762 -0.197404 132 105 85
-0.0890917 -0.396215 -0.793342 0.325291 -0.813088 -0.482777 120 106 85
-0.0420308 -0.349699 -0.849105 0.343271 -0.838699 -0.422788 117 103 82
-0.492848 -0.693746 -0.495047 0.26279 -0.480178 -0.836882 117 108 91
-0.556633 -0.68474 -0.518408 0.42269 -0.80868 -0.409108 91 81 67
-0.573597 -0.647862 -0.566325 0.332637 -0.764579 -0.55206 105 95 75
-0.165731 -0.362094 -0.888068 0.22514 -0.787508 -0.573709 106 94 76
-0.271155 -0.358774 -0.876072 0.210109 -0.596886 -0.774327 112 99 78
-0.350556 -0.401886 -0.841069 0.264691 -0.927177 -0.265106 94 83 67
-0.399229 -0.442225 -0.810458 0.328344 -0.828663 -0.453329 105 98 78
0.647096 0.138003 0.62296 0.765621 -0.570988 0.296307 210 197 193
0.5426 -0.0339593 0.657342 0.545804 -0.837866 0.0088828 186 165 159
0.61574 0.652491 0.259254 0.589202 0.0175494 -0.807795 167 136 139
0.677915 -0.417118 0.239658 0.909903 -0.352843 0.218126 82 49 43
0.530672 -0.565069 0.33036 0.414345 -0.907239 0.0723487 83 51 45
0.497599 -0.573882 0.31848 0.232272 -0.963548 0.132759 78 45 40
0.639531 -0.041982 0.101977 0.755489 -0.0161962 -0.654962 184 147 133
0.628149 0.0115532 0.0548607 0.893589 0.106842 -0.435985 184 149 137
0.605578 0.162279 0.0773007 0.781205 0.230454 -0.58018 182 146 133
0.656391 -0.185569 0.0415547 0.918007 0.105567 -0.382257 184 165 155
0.550192 -0.511274 0.0998949 0.588152 -0.692324 -0.418048 117 92 86
0.48828 -0.53957 0.0865557 0.210033 -0.858127 -0.468513 183 173 171
0.5942 -0.276446 -0.0491908 0.650415 -0.0349719 -0.758774 177 159 152
0.393455 -0.575241 0.0674518 0.102661 -0.719525 -0.686837 155 142 137
0.448498 -0.176869 -0.135345 0.774152 -0.0386812 -0.631817 164 146 137
0.453225 -0.318489 -0.133112 0.323572 -0.253025 -0.911745 169 155 149
0.316723 -0.473071 -0.0210381 0.088247 -0.48523 -0.869921 170 166 167
-0.0153404 0.74074 -0.0549754 0.387237 -0.86396 -0.321903 97 57 39
0.234911 -0.431709 -0.0373395 -0.132882 -0.388029 -0.912017 167 158 156
0.205293 0.0966205 -0.215016 0.98969 -0.113276 -0.0876513 187 149 154
0.175713 -0.00503325 -0.190178 0.669784 -0.31569 -0.672108 113 19 21
-0.0506423 -0.322066 -0.045166 0.454057 -0.811403 -0.368046 151 131 136
0.131818 -0.00646074 -0.264578 0.644882 -0.346401 -0.681273 176 157 161
0.112705 0.166224 -0.282777 0.562093 0.155279 -0.812367 138 108 111
0.0498192 -0.199018 -0.182051 0.422032 -0.784541 -0.454296 151 132 136
-0.232759 -0.485506 -0.00919549 0.585409 -0.615762 0.527384 182 148 139
0.0790866 0.00381768 -0.370652 0.990121 0.117157 0.0770282 165 26 30
-0.127835 -0.443276 -0.14531 0.799542 -0.526419 0.289164 160 123 111
-0.141869 -0.437283 -0.208643 0.880095 -0.414523 -0.231526 157 117 103
-0.11919 -0.500507 -0.261918 0.980973 -0.105761 -0.162804 159 122 109
0.179713 -0.184475 -0.576902 0.929387 0.163605 -0.330868 193 163 154
-0.0179964 0.157243 -0.575919 0.882001 0.0839067 -0.463719 180 163 168
-0.224597 -0.655003 -0.289912 0.382885 -0.869892 -0.310943 172 142 133
-0.420246 -0.763816 -0.199606 0.674682 -0.70529 -0.217643 169 150 146
-0.0653574 0.0790573 -0.671879 0.907523 -0.139433 -0.396182 168 142 144
-0.285311 -0.705218 -0.33406 0.596027 -0.702627 -0.388673 103 72 60
-0.330054 -0.698897 -0.395381 0.379824 -0.851073 -0.362502 121 107 85
-0.582957 -0.828204 -0.234425 0.275682 -0.851006 -0.446977 115 97 76
0.0069959 -0.310163 -0.811118 0.445107 -0.459665 -0.768497 108 74 66
-0.205228 -0.495086 -0.69628 0.279927 -0.798968 -0.532251 102 91 75
-0.466675 -0.692067 -0.48351 0.274669 -0.626517 -0.729406 112 101 80
0.00522186 -0.281161 -0.91661 0.409149 -0.786941 -0.461867 112 89 71
-0.207078 -0.455608 -0.757448 0.303848 -0.802525 -0.51345 117 106 85
-0.657454 -0.72419 -0.475767 0.240406 -0.959423 -0.147347 97 85 69
-0.571193 -0.639773 -0.543826 -0.0042915 -0.883565 -0.468289 110 97 76
-0.244048 -0.366643 -0.847609 0.207204 -0.789014 -0.57838 113 100 77
0.744456 0.198715 0.415822 0.991686 -0.128652 0.00290132 193 177 168
0.712948 0.562829 0.356985 0.993477 -0.0107423 -0.113526 184 135 139
0.696584 0.308003 0.232638 0.861149 -0.238727 -0.44881 182 165 156
0.64606 0.495702 0.267643 0.710319 -0.0662502 -0.700755 172 142 144
0.697381 -0.293332 0.114394 0.996143 0.0554305 -0.0680128 191 173 166
0.658767 -0.025077 0.122224 0.866116 0.0122663 -0.499693 174 133 116
0.586526 0.0200266 -0.00801801 0.134963 -0.68867 -0.712403 166 131 116
0.331909 -0.60981 0.213304 -0.258517 -0.771828 -0.580904 178 172 171
0.541167 -0.10344 -0.0704227 0.666591 0.244885 -0.704051 168 151 142
0.260143 -0.16181 -0.143389 -0.099656 -0.481201 -0.870927 162 142 134
0.0405489 -0.265042 -0.0764499 0.530488 -0.766126 -0.362812 124 30 34
0.000731767 0.408562 -0.305643 0.875551 0.294731 -0.382811 181 149 138
0.0415432 -0.114009 -0.247975 0.397443 -0.796696 -0.455318 121 45 49
-0.14402 -0.449806 -0.168433 0.875652 -0.453583 0.165818 158 120 106
-0.0287754 -0.337989 -0.294744 0.606923 -0.603804 0.516783 168 132 119
0.0124779 0.0802932 -0.499433 0.938407 0.310463 -0.151673 137 18 21
0.149189 -0.202933 -0.656043 0.660559 -0.218739 -0.718203 171 138 128
-0.0863829 -0.529184 -0.576027 0.29976 -0.810964 -0.502475 124 106 86
0.070215 -0.238042 -0.781698 0.718259 0.144389 -0.680629 158 129 118
0.00766723 -0.363305 -0.734246 0.456259 -0.846678 0.273797 169 142 135
-0.478502 -0.766886 -0.352314 0.317235 -0.743827 -0.588288 104 94 77
-0.19755 -0.539601 -0.621955 0.31574 -0.701259 -0.639174 118 108 88
-0.0256177 -0.298817 -0.921076 0.418958 -0.727913 -0.542785 116 103 85
-0.619583 -0.711825 -0.493282 0.306214 -0.758451 -0.575313 107 96 77
-0.463822 -0.500946 -0.7166 0.652214 -0.704663 0.279405 104 93 74
-0.0917732 -0.206114 -1.01168 0.591344 -0.148055 -0.792712 64 38 30
-0.247405 -0.32102 -0.975754 0.379839 -0.70199 -0.602439 84 73 61
0.742101 0.142226 0.388158 0.915156 -0.396907 0.0703756 197 181 173
0.717657 0.358005 0.312111 0.870563 0.10699 -0.480285 195 172 170
0.67735 0.645374 0.334295 0.890044 -0.12941 -0.437121 186 163 167
0.574345 0.419051 0.115715 0.599626 -0.0633628 -0.797768 172 157 150
0.489258 -0.497221 -0.00227418 0.320701 -0.651544 -0.687488 177 168 166
-0.000402935 0.683845 0.0699653 0.516578 -0.715563 -0.47023 76 39 26
-0.0879301 0.720816 -0.0857849 0.430668 -0.840314 -0.329239 82 45 29
-0.152039 -0.391516 0.0916414 0.899896 -0.409406 0.150249 68 18 19
0.133537 -0.136347 -0.181555 0.615165 -0.328844 -0.716543 127 25 26
-0.0256542 0.36132 -0.359821 0.73275 -0.0187471 -0.68024 169 135 124
-0.329128 -0.745091 -0.206961 0.322136 -0.931123 -0.170993 179 155 147
-0.293672 -0.688013 -0.399687 0.465852 -0.847817 -0.253354 112 97 77
-0.104151 -0.446774 -0.71592 0.535858 -0.739758 -0.406959 114 98 79
-0.231982 -0.560859 -0.587196 0.485367 -0.872164 0.061237 114 102 81
-0.0983019 -0.306052 -0.936062 0.27293 -0.741905 -0.612444 118 104 82
0.581748 0.354349 0.118613 0.589176 0.29223 -0.753309 165 147 137
-0.0305264 -0.240979 -0.137464 0.625562 -0.644897 -0.439066 110 30 31
0.105826 -0.244074 -0.71306 0.933224 0.0817914 -0.349861 182 150 139
-0.174399 -0.258596 -1.03266 0.327483 -0.698546 -0.636229 92 75 62
0.614797 -0.52858 0.157639 0.724224 -0.559649 -0.402855 70 43 38
0.598626 -0.134841 -0.00990572 0.837878 -0.248823 -0.485848 172 150 140
-0.231778 -0.664672 -0.118337 0.702411 -0.709831 0.0525341 181 152 142
