ply
format ascii 1.0
element vertex 66
property float x
property float y
property float z
property float nx
property float ny
property float nz
property uchar diffuse_red
property uchar diffuse_green
property uchar diffuse_blue
end_header
-0.0075902 0.401513 1.15482 0.525544 -0.742705 0.414962 100 50 39
0.14312 0.28175 0.993091 0.214966 -0.375612 0.901502 160 51 58
-0.141959 0.127843 0.837636 -0.184509 -0.965301 0.184796 155 145 141
-0.359762 0.142577 0.532754 -0.109443 -0.671611 0.732777 138 87 93
-0.646938 0.316981 0.578796 0.481634 -0.858528 -0.175947 60 32 22
-0.629748 0.307457 0.538081 -0.187011 -0.870074 0.456068 51 25 18
-0.70342 0.295491 0.549777 -0.424566 -0.748537 0.509349 75 42 28
0.0843936 -0.382462 0.436404 -0.295279 -0.891789 0.342816 150 139 137
-0.221894 -0.0847095 0.350638 0.389095 -0.226475 0.892925 132 91 96
0.0720218 -0.394383 0.403474 -0.0414231 -0.990828 -0.128617 133 122 118
-0.765164 0.314803 0.491607 -0.00950835 -0.806111 0.591687 78 41 31
-0.450007 0.00646604 0.362598 0.301021 -0.275472 0.912963 128 62 56
-0.429325 -0.00696651 0.354101 0.284074 -0.269131 0.920256 110 24 25
-0.187085 -0.248192 0.302762 0.493569 -0.393917 0.775383 120 16 21
-0.136331 -0.270938 0.251846 0.388561 -0.599905 0.699382 122 38 41
-0.286867 -0.21974 0.333721 0.016091 -0.373184 0.927618 166 132 140
-0.830031 0.114191 0.448401 -0.232928 -0.567496 0.789742 142 114 105
-0.824982 0.0717107 0.399671 0.0885792 -0.670581 0.736528 145 116 107
-0.785294 0.0238623 0.400515 -0.20711 -0.823713 0.527829 149 119 109
-0.786689 0.000276926 0.286473 0.273727 -0.955796 0.107372 134 98 90
-0.417176 -0.256422 0.248742 -0.430248 -0.76146 0.484836 136 87 95
-0.857037 0.0160714 0.325297 0.147253 -0.981822 -0.119756 107 58 45
-0.57175 -0.266928 0.135322 -0.387661 -0.300729 0.871367 105 23 29
-0.891181 -0.106262 0.253471 -0.440622 -0.572584 0.691375 105 80 59
-0.475732 -0.377851 0.135594 -0.1167 -0.529395 0.840311 160 133 141
-0.680454 -0.355473 0.100435 0.488684 -0.25831 0.833345 123 20 24
-0.620352 -0.378493 0.0885758 -0.0745523 -0.688595 0.721303 159 120 125
-0.625309 -0.466096 -0.0327014 -0.0391309 0.28443 0.957898 133 92 84
-0.540188 -0.611355 -0.0104525 0.203643 -0.432652 0.878261 167 139 132
-0.623233 -0.561691 -0.0080609 -0.00673995 -0.118571 0.992923 105 60 46
0.333694 -0.0338191 0.69581 0.195055 -0.308312 0.931073 190 157 147
-0.169212 0.229616 0.934812 -0.34876 -0.619852 0.702957 145 128 125
-0.164032 0.148148 0.857301 -0.544934 -0.751217 0.372452 149 136 133
-0.538342 0.34263 0.641867 0.566107 -0.820606 -0.078281 64 34 25
-0.633206 0.247983 0.527188 0.293065 -0.881276 0.370762 103 75 70
-0.327042 -0.173629 0.35739 0.0896792 -0.244914 0.965389 164 136 143
-0.447539 -0.0902325 0.369353 0.262346 0.0228264 0.964704 162 115 120
-0.572447 -0.0068917 0.380728 0.370919 -0.927476 0.046978 152 115 105
-0.345925 -0.221941 0.335298 -0.328929 -0.774452 0.540398 165 123 130
-0.854509 0.0965787 0.424981 0.562172 -0.392421 0.72799 141 113 107
-0.293508 -0.355148 0.241185 -0.229103 -0.897964 0.375731 132 21 24
-0.768737 0.00534244 0.306201 0.287688 -0.943027 -0.167141 135 100 90
-0.732431 -0.0518446 0.223098 0.248987 -0.438361 0.863624 137 99 90
-0.516788 -0.212206 0.224284 -0.153188 -0.824841 0.544216 115 27 33
-0.593836 -0.226581 0.167925 -0.386239 -0.752262 0.53378 146 120 129
-0.545968 -0.590712 -0.00398 0.0689733 -0.570065 0.818699 163 134 127
0.170086 0.277849 0.988982 0.248367 -0.577385 0.777779 180 100 107
-0.131173 0.291401 0.954212 -0.293802 -0.494977 0.817728 152 132 130
0.252735 -0.149588 0.656927 0.417309 -0.390734 0.820476 182 146 136
-0.164657 0.149142 0.855877 -0.536924 -0.764819 0.35604 149 136 133
-0.445089 0.342258 0.734142 0.268778 -0.953184 -0.138559 86 51 35
-0.724224 0.274169 0.480586 -0.265978 -0.513257 0.815979 136 105 97
-0.432616 0.0382206 0.375711 -0.0931157 -0.64755 0.756312 114 21 22
-0.305368 -0.104761 0.362436 0.338823 -0.216895 0.915509 124 15 18
-0.847817 0.235465 0.440582 -0.0397633 0.00884452 0.99917 139 105 94
-0.406194 -0.122604 0.373141 0.0970898 -0.138329 0.985616 164 139 145
-0.528553 -0.179617 0.310093 -0.387159 -0.585429 0.712307 160 131 139
-0.505324 -0.245541 0.15112 -0.0292703 -0.521563 0.852711 117 16 20
-0.539347 -0.414309 0.0635981 0.182842 -0.964403 0.191042 138 33 38
-0.6981 -0.341811 0.11177 0.291465 0.0547293 0.955015 125 19 19
-0.571359 -0.493705 -0.00124156 -0.159919 -0.0894014 0.983073 151 116 107
-0.390709 -0.17541 0.356512 -0.0885578 -0.549042 0.831089 163 123 130
-0.622648 -0.130813 0.291198 -0.360617 -0.430578 0.82738 137 97 96
-0.817793 -0.0199852 0.256746 0.714002 -0.683903 0.149919 103 55 43
-0.508923 -0.555838 0.0406549 0.282333 -0.333348 0.899537 173 144 137
-0.248274 -0.133347 0.34984 0.337189 -0.245539 0.908853 125 23 26
