ply
format ascii 1.0
element vertex 286
property float x
property float y
property float z
property float nx
property float ny
property float nz
property uchar diffuse_red
property uchar diffuse_green
property uchar diffuse_blue
end_header
0.524036 0.25194 0.753034 0.856419 -0.309168 0.413477 193 164 170
0.495307 0.564385 0.694462 0.862628 -0.00245831 0.505833 198 156 161
0.62211 0.30081 0.644344 0.887642 0.25718 0.382034 203 176 181
0.652799 0.233755 0.600661 0.919554 0.0363685 0.391277 195 154 154
0.608755 0.393599 0.595008 0.913086 0.0439276 0.405393 162 35 39
0.693767 0.629945 0.495773 0.929871 0.230201 0.286962 157 37 40
0.671416 0.712883 0.499523 0.848734 0.152362 0.506394 191 173 178
0.670249 0.281763 0.581898 0.917181 0.288212 0.275162 181 99 102
0.634352 0.263277 0.614607 0.921146 0.213498 0.325439 165 58 60
0.6732 0.349834 0.516605 0.832765 0.21621 0.509662 195 165 171
0.703639 0.71001 0.395026 0.945213 0.226596 -0.235004 164 59 62
0.721267 0.567302 0.371482 0.991293 0.121332 0.0511545 183 152 155
0.690139 0.714119 0.362368 0.920942 -0.112776 -0.373023 154 47 49
0.719259 0.516726 0.348349 0.909966 -0.299732 -0.28657 146 21 24
0.700357 0.567605 0.32483 0.889653 0.00445139 -0.456615 178 133 136
0.741828 0.324616 0.347907 0.954751 0.230259 -0.188232 192 171 167
0.721827 0.386878 0.347428 0.774581 0.42273 -0.47045 167 57 57
0.699362 0.471132 0.332759 0.894686 -0.206003 -0.396357 188 159 163
0.674598 0.528869 0.295883 0.722793 -0.0826619 -0.686103 132 17 19
0.705133 0.372246 0.300899 0.900992 -0.062708 -0.42928 196 176 173
0.70787 0.380428 0.281379 0.994769 0.0851892 0.056368 187 168 166
0.55002 -0.184958 0.437473 0.888643 -0.112497 0.444587 180 145 131
0.695438 0.269666 0.241029 0.904434 -0.186764 -0.383558 186 170 162
0.69849 0.276377 0.24747 0.840468 -0.229673 -0.490778 190 174 166
0.667554 0.390382 0.204261 0.647313 0.176947 -0.741401 190 175 169
0.417888 0.681366 0.22991 0.445316 0.685541 -0.575958 60 32 22
0.672405 -0.389266 0.314848 0.86258 -0.38309 0.330448 185 168 165
0.666163 -0.0177374 0.250773 0.817679 -0.501561 0.282555 177 140 126
0.565856 0.544128 0.162715 0.695381 0.593226 -0.405619 178 165 165
0.611685 -0.0720732 0.262351 0.901362 -0.255249 0.349849 182 152 143
0.666552 0.136857 0.190929 0.908302 0.387066 -0.158641 192 160 148
0.631082 -0.0828125 0.229545 0.921478 -0.0821756 0.379639 186 154 144
0.697774 -0.363752 0.252825 0.830973 -0.555104 -0.0366593 180 162 156
0.608983 0.223391 0.131353 0.731079 0.428359 -0.531068 161 124 109
0.709114 -0.33909 0.204034 0.780452 -0.606024 -0.153721 190 173 169
0.679385 -0.400131 0.228627 0.935748 -0.35169 0.0262742 84 49 43
0.661486 0.0201147 0.13852 0.876695 -0.0503914 -0.478399 172 130 112
0.559054 0.356779 0.100879 0.406679 0.216452 -0.887558 165 149 140
0.602504 0.201639 0.103145 0.706509 0.399815 -0.583946 177 142 130
0.607575 0.210246 0.117175 0.768499 0.469524 -0.434691 177 142 130
0.55385 0.339079 0.0973829 0.618156 0.0417268 -0.784947 156 138 127
0.626686 0.166834 0.110142 0.640198 0.441849 -0.628424 168 128 111
0.650859 -0.0089301 0.112289 0.918157 -0.0641109 -0.390995 174 133 117
0.47221 0.490714 0.0701953 0.389215 0.104724 -0.915174 146 134 128
0.581678 0.217787 0.0834125 0.734479 0.500645 -0.458142 157 112 95
0.640119 0.014822 0.0831872 0.911936 0.109449 -0.395466 188 153 141
0.529515 0.291632 0.069902 0.876837 0.126364 -0.463887 175 145 134
0.691091 -0.326341 0.128826 0.688306 -0.602145 -0.404543 188 171 167
0.508853 0.228542 0.0107005 0.69155 0.382264 -0.612888 163 128 114
0.603963 -0.544713 0.162602 0.641998 -0.619491 -0.451741 68 40 34
0.671439 -0.40313 0.130529 0.970504 0.119543 -0.209358 72 42 35
0.583933 0.131418 0.0367414 0.677218 0.19811 -0.70861 159 117 99
0.629451 -0.0919384 0.070929 0.90691 0.370291 -0.200994 195 172 164
0.629688 -0.0287729 0.047799 0.555392 -0.365337 -0.747041 194 163 152
0.6252 -0.01854 0.0346354 0.677678 -0.199907 -0.707666 185 153 140
0.587415 0.0755845 0.0177251 0.601338 0.197688 -0.774153 157 114 96
0.657276 -0.371388 0.0859942 0.842629 -0.330235 -0.425349 186 172 169
0.620073 -0.078218 0.0295283 0.806748 0.577763 -0.123886 184 161 151
0.193289 0.475518 0.0396484 0.968813 0.0774976 -0.235359 82 49 43
0.621106 -0.425236 0.0624342 0.582418 -0.773127 -0.251124 181 168 165
0.00934964 0.558042 0.0443834 0.438614 0.518679 -0.733887 43 19 14
0.496617 0.16551 -0.0252234 0.600793 0.313921 -0.735187 163 128 114
0.578448 -0.0569502 -0.0154934 0.806982 0.354495 -0.472348 180 160 151
0.46912 0.188857 -0.0376336 0.521355 0.492018 -0.697214 149 109 92
-0.0612245 0.699822 -0.0127516 0.44006 -0.825556 -0.353278 58 30 22
0.488429 0.083994 -0.0577919 0.703407 0.085995 -0.705565 168 139 126
0.597046 -0.244299 -0.0268986 0.808224 0.0959545 -0.581005 180 163 156
-0.0537259 0.540362 -0.0730984 0.5507 0.811203 -0.196671 52 25 23
0.555382 -0.252223 -0.0796614 0.502205 0.473598 -0.723529 169 153 146
0.194665 0.287295 -0.127116 0.960451 0.259394 0.10124 167 135 141
0.482287 -0.260795 -0.113328 0.386025 0.225264 -0.894561 157 141 132
0.199751 0.25459 -0.14967 0.991364 0.127969 -0.0286396 176 146 151
0.215187 0.108909 -0.156396 0.720844 0.143432 -0.678093 134 93 94
0.209266 0.187698 -0.159691 0.982946 0.0662275 -0.171551 138 20 23
0.427064 -0.247235 -0.13102 0.386962 -0.114091 -0.915011 108 84 74
0.438657 -0.201725 -0.150332 0.759181 -0.202512 -0.618574 170 155 148
0.183466 0.20978 -0.211858 0.616554 0.355003 -0.702732 111 13 17
0.185752 0.00227561 -0.177 0.632957 -0.166786 -0.756007 96 10 13
-0.0581417 0.525897 -0.222761 0.857837 0.108865 -0.502258 156 130 125
0.180347 -0.0666656 -0.166952 0.557195 -0.191996 -0.807881 155 129 128
0.160243 -0.112486 -0.172867 0.611696 -0.0794194 -0.787097 158 131 131
0.140916 0.179853 -0.259774 0.641743 0.140927 -0.75386 173 152 156
-0.117399 0.601098 -0.292323 0.72268 -0.013686 -0.691047 46 22 16
0.1255 0.15412 -0.275189 0.492822 0.112576 -0.862817 160 138 142
-0.113847 0.537471 -0.309375 0.814829 0.525495 -0.244764 167 141 135
0.00623404 0.336836 -0.312473 0.805269 0.194986 -0.55993 170 136 127
-0.123973 0.545215 -0.33077 0.756904 0.537467 -0.371787 163 136 129
-0.169051 0.604525 -0.330642 0.670922 0.576261 -0.466678 43 22 15
0.00291875 -0.215749 -0.234935 0.793157 -0.458721 0.400595 103 52 48
0.0891641 0.0836432 -0.314514 0.993957 0.101183 -0.0425697 163 105 109
0.0462591 0.209692 -0.331862 0.782593 0.618108 -0.0740846 145 25 27
-0.130885 -0.423486 -0.206416 0.96094 -0.212575 -0.177217 147 105 91
-0.0547371 0.272093 -0.336382 0.899454 -0.0082696 -0.436938 108 59 46
0.0706043 -0.00313044 -0.315577 0.855997 0.0737499 -0.511694 159 91 94
-0.115885 -0.375736 -0.223052 0.80996 -0.554747 -0.190317 94 49 40
0.0539138 0.159192 -0.360856 0.840371 -0.393845 -0.372374 130 21 24
-0.191893 0.566136 -0.401442 0.554596 0.705525 -0.441201 138 109 103
0.0767197 -0.0128073 -0.355532 0.97728 0.117135 0.176641 169 31 34
-0.0596314 0.305369 -0.399518 0.813264 0.120874 -0.569202 145 105 96
0.0999466 -0.291748 -0.338952 0.757778 0.261941 0.597628 178 142 129
0.076127 -0.142673 -0.351402 0.759915 0.486949 0.430591 186 154 145
-0.147796 0.443534 -0.470019 0.872468 0.411291 -0.263894 160 132 125
0.0827955 -0.102456 -0.388008 0.857057 -0.035251 0.514014 183 144 137
0.0714428 0.00800743 -0.427152 0.937391 0.170888 -0.303472 192 172 176
0.0542607 0.026634 -0.460298 0.891334 0.376069 -0.25317 187 161 167
-0.260426 0.585827 -0.529982 0.574954 0.562529 -0.594128 99 78 64
0.0696666 -0.0406274 -0.490703 0.758455 0.621879 -0.194973 179 147 141
-0.152846 -0.62116 -0.365137 0.753461 -0.320129 -0.574293 150 119 110
0.0990034 -0.06169 -0.495761 0.604822 0.732146 -0.313295 187 154 146
-0.101452 -0.522795 -0.472954 0.828415 -0.539938 0.148979 105 72 63
-0.0434236 0.123065 -0.639887 0.86971 -0.0693976 -0.488659 140 16 19
-0.109177 0.236324 -0.700269 0.695706 0.504424 -0.51142 95 61 50
0.036459 -0.417796 -0.597482 0.712568 -0.700716 0.035263 167 140 132
-0.0219641 -0.454155 -0.594217 0.592077 -0.752019 -0.289676 149 115 107
-0.0269599 -0.441369 -0.633569 0.800292 -0.5853 -0.130216 130 101 95
-0.0254449 -0.433466 -0.651803 0.776696 -0.570433 -0.267112 130 103 98
-0.0486713 -0.46765 -0.644326 0.885577 -0.457683 -0.0792399 114 94 77
-0.00239195 -0.417903 -0.659306 0.627607 -0.639754 -0.44365 154 134 131
0.115781 -0.227951 -0.715094 0.641963 0.394294 -0.657582 172 137 124
-0.0771725 0.107387 -0.772367 0.496357 0.579509 -0.646373 101 69 56
-0.0464508 -0.0708422 -0.777291 0.749863 0.652342 -0.110247 100 56 42
0.0581008 -0.316808 -0.772304 0.811396 -0.340861 -0.474816 165 140 133
-0.201257 0.110274 -0.84985 0.798379 0.396966 -0.452779 114 97 77
0.0689772 -0.279008 -0.782048 0.569169 -0.467731 -0.67622 166 143 135
-0.159445 0.0812357 -0.858044 0.517726 0.538959 -0.664443 114 97 76
-0.00434054 -0.173806 -0.819997 0.568784 0.473082 -0.672813 102 56 42
-0.0235302 -0.0864909 -0.886671 0.555801 0.469483 -0.686055 109 83 65
-0.00984627 -0.131686 -0.905445 0.741591 0.220593 -0.633546 101 64 52
0.0108166 -0.194237 -0.917792 0.686533 0.419269 -0.594042 97 70 50
0.587759 0.232327 0.699232 0.862105 -0.265507 0.431603 189 134 139
0.509692 0.550119 0.66937 0.85176 0.174369 0.494066 168 69 72
0.604139 0.347465 0.635653 0.935786 0.234865 0.262948 192 139 145
0.599258 0.419596 0.605601 0.889089 0.246225 0.385867 169 48 52
0.576316 0.522845 0.584871 0.856049 0.148472 0.495112 167 96 102
0.702027 0.813614 0.448651 0.995898 0.0894836 0.0134503 151 31 35
0.661801 0.248073 0.558016 0.879885 0.257913 0.399104 199 179 177
0.709912 0.498162 0.47147 0.969875 0.0765193 0.231275 162 63 66
0.695489 0.642529 0.408544 0.996287 0.0566744 0.0648121 157 85 90
0.744634 0.339952 0.441612 0.965827 0.0927256 -0.242031 166 36 38
0.725107 0.394793 0.436982 0.982001 -0.177775 0.0637954 182 113 115
0.718097 0.466127 0.414758 0.885442 -0.395685 0.243773 195 161 166
0.722829 0.405849 0.400784 0.99204 0.12583 0.00472213 166 63 64
0.70787 0.544185 0.357711 0.954395 -0.0758463 -0.288751 160 60 62
0.704491 0.510576 0.335913 0.947622 0.00596564 -0.31934 145 22 26
0.695834 0.451379 0.332026 0.902966 0.00449082 -0.429688 192 172 175
0.686186 0.495263 0.304068 0.784227 0.0367071 -0.619387 154 67 69
0.547307 -0.15426 0.478983 0.927262 -0.339708 0.157431 185 154 144
0.703933 0.39512 0.272857 0.958913 0.277004 -0.061281 192 172 171
0.62341 -0.0813911 0.352988 0.89312 -0.446114 -0.057618 184 157 149
0.609414 0.552315 0.24154 0.599062 0.146847 -0.787121 134 34 35
0.61457 -0.454893 0.350253 0.839659 -0.379973 0.388064 100 64 56
0.678816 -0.397644 0.262348 0.861149 -0.507318 -0.0323991 100 64 56
0.704682 -0.319485 0.207438 0.870234 -0.466332 0.158832 193 176 170
0.674219 -0.009483 0.154644 0.950166 0.182013 -0.253093 189 154 141
0.569631 0.252995 0.0969663 0.732848 0.46079 -0.500607 167 133 119
0.593175 0.173246 0.0646462 0.780726 0.444449 -0.439241 179 146 135
0.6168 0.102784 0.0650956 0.848319 0.128841 -0.513571 183 146 133
0.206006 0.509646 0.0920752 0.451133 0.50021 -0.7391 83 58 52
0.625854 -0.423526 0.0982454 0.75143 -0.646127 -0.133686 151 130 126
0.575198 0.0867948 0.0102163 0.563252 0.31958 -0.761981 157 115 97
0.531633 0.028316 -0.0172049 0.619356 0.28976 -0.729683 149 114 96
0.504249 0.0519524 -0.0294886 0.443536 -0.285416 -0.849596 150 115 96
0.126691 0.439856 -0.00042845 0.960528 0.226537 -0.161453 86 24 26
0.512479 0.00192831 -0.0676962 0.557211 0.377068 -0.739821 171 150 142
0.574575 -0.17843 -0.0476421 0.889467 0.131735 -0.4376 186 169 164
-0.0520213 0.733943 -0.0855923 0.314861 -0.836005 -0.449397 91 54 37
0.565199 -0.273773 -0.0762684 0.663965 0.116893 -0.738571 178 162 156
-0.0408689 0.535287 -0.148336 0.593731 0.601959 -0.533975 54 26 22
0.240316 0.0463486 -0.123991 0.950762 -0.0603344 -0.303995 146 117 114
0.199347 0.25353 -0.152602 0.972688 0.211948 -0.0946444 176 142 147
-0.0671029 0.533211 -0.20048 0.936221 -0.264576 -0.231282 113 87 82
0.179358 0.200197 -0.221769 0.63379 0.234719 -0.737032 122 35 39
0.138227 0.303072 -0.230376 0.622729 0.429682 -0.653897 173 159 164
0.125475 -0.154766 -0.178527 0.684728 -0.690969 -0.231757 124 17 19
-0.161821 -0.498445 -0.086294 0.733458 0.629025 0.257617 149 110 98
0.115893 -0.109007 -0.21505 0.449354 -0.568223 -0.689351 115 20 22
-0.254171 0.738102 -0.319092 0.9452 0.308343 -0.107337 36 19 14
-0.136858 -0.47002 -0.157093 0.970143 -0.239131 -0.0404856 176 141 130
-0.0747101 0.511097 -0.342078 0.697453 0.653944 -0.293115 174 147 140
0.0779967 -0.0760058 -0.278859 0.734222 -0.506704 -0.451852 128 31 35
-0.175984 0.606738 -0.376889 0.714742 0.475663 -0.512727 42 21 15
0.0784554 0.0553718 -0.337205 0.975188 -0.220685 -0.0175083 154 31 36
-0.275464 -0.716818 -0.163221 0.646071 -0.753325 -0.122858 186 162 156
0.0502834 0.110589 -0.378846 0.489876 0.44572 -0.749236 155 68 73
-0.152518 -0.56653 -0.238819 0.7204 -0.492316 -0.488517 167 129 115
-0.168289 0.388247 -0.52343 0.634045 0.398686 -0.662597 134 90 77
0.0237299 0.00309593 -0.525096 0.692268 0.61896 -0.371016 118 20 21
-0.142491 0.259721 -0.594262 0.620983 0.456693 -0.637034 125 74 62
-0.0229135 -0.468148 -0.479013 0.950943 -0.256908 0.172357 176 148 140
-0.0483272 0.0126706 -0.579495 0.604533 -0.0257086 -0.796165 158 126 128
-0.0437321 0.0765857 -0.587153 0.890928 -0.340322 -0.300714 111 28 31
0.146933 -0.183518 -0.674894 0.877237 0.382018 -0.290718 159 124 111
0.0251025 -0.216114 -0.806605 0.549305 -0.154214 -0.821269 143 110 99
-0.0203301 -0.105285 -0.817072 0.816746 -0.00375826 0.576985 122 69 50
-0.0154895 -0.305281 -0.856296 0.729153 0.229615 0.64468 114 75 57
0.706172 0.590814 0.43584 0.957403 -0.0562291 0.283228 184 153 158
0.698543 0.722356 0.378758 0.966933 -0.0076017 -0.254915 176 100 103
0.68641 0.653296 0.348639 0.87163 -0.23459 -0.430382 191 147 153
0.599081 0.666356 0.252385 0.290543 0.333893 -0.896716 156 123 126
0.637299 -0.112918 0.277227 0.985949 0.165533 -0.0224661 42 38 39
0.651257 0.107709 0.135432 0.826438 0.0899462 -0.555797 172 130 111
0.635298 -0.120161 0.12972 0.992403 0.0901149 0.0837552 192 166 155
0.629417 -0.00559072 0.0522109 0.849043 0.486872 -0.205137 187 152 139
0.622947 -0.0850927 0.0517122 0.864805 0.49581 -0.0792732 192 169 160
0.577382 0.122632 0.0224023 0.524305 0.30133 -0.796432 152 111 93
0.36319 0.362974 0.00291053 0.495935 0.60971 -0.618306 147 122 112
0.606971 -0.205472 -0.00919565 0.670307 0.195886 -0.715764 113 84 73
0.106913 0.443488 -0.0513441 0.814926 0.577232 -0.0519506 160 141 146
0.576617 -0.266516 -0.0643946 0.590487 0.150104 -0.792965 171 154 146
0.241142 0.147212 -0.127165 0.477624 0.158119 -0.864219 119 20 22
0.0570384 0.413742 -0.195524 0.44232 0.419467 -0.792717 148 41 43
0.404248 -0.195153 -0.166105 0.413641 -0.162967 -0.895736 160 142 133
0.180041 0.248528 -0.199942 0.666954 0.0239588 -0.744713 130 29 33
0.204871 0.142122 -0.209779 0.963383 0.0324513 -0.266156 190 172 177
0.145854 0.307604 -0.213137 0.652206 0.418543 -0.632019 176 162 167
0.133537 -0.136347 -0.181555 0.615165 -0.328844 -0.716543 127 25 26
0.112705 0.166224 -0.282777 0.562093 0.155279 -0.812367 138 108 111
0.131818 -0.00646074 -0.264578 0.644882 -0.346401 -0.681273 176 157 161
0.0651517 0.132132 -0.338406 0.912437 0.293102 -0.285569 142 23 25
0.017921 0.203035 -0.414167 0.857892 0.394608 -0.329098 188 173 179
0.0852601 -0.0494937 -0.385016 0.977624 0.208552 -0.0275249 190 86 88
0.0704429 0.0297641 -0.421509 0.943371 0.0891513 -0.319535 193 175 180
0.116108 -0.273579 -0.364431 0.757323 0.576563 0.306654 181 144 128
-0.260457 -0.695798 -0.265815 0.688687 -0.629862 -0.359143 173 147 138
0.0700922 0.0288814 -0.42333 0.926927 0.163886 -0.337563 192 174 179
0.0473898 0.0465446 -0.45556 0.829165 0.512271 -0.22375 186 153 159
-0.113718 0.305742 -0.488591 0.952446 0.256549 -0.164405 174 137 127
-0.0383951 0.220792 -0.499179 0.658452 0.694879 -0.289109 145 26 27
-0.0179964 0.157243 -0.575919 0.882001 0.0839067 -0.463719 180 163 168
0.00113179 -0.453461 -0.498095 0.632773 -0.770024 0.0816276 168 136 125
-0.146706 0.261633 -0.704525 0.538505 0.589648 -0.601936 103 83 67
-0.0720736 0.0614775 -0.67155 0.876802 -0.394117 -0.275485 171 146 150
0.499602 0.325616 0.814969 0.83848 -0.0157602 0.544704 183 103 107
0.729337 0.150503 0.524513 0.935105 0.10294 0.339088 206 189 180
0.697219 0.503387 0.31862 0.845834 -0.0382906 -0.532069 143 28 31
0.606376 -0.102553 0.400467 0.858844 -0.476881 0.187007 189 157 146
0.637838 0.526452 0.258362 0.698868 0.00273689 -0.715245 146 64 67
0.699833 0.318735 0.251852 0.664254 0.0449181 -0.746156 188 171 163
0.558045 0.269794 0.0936138 0.630247 0.415402 -0.65592 163 128 113
0.602087 0.18482 0.0909582 0.740224 0.331178 -0.58514 172 135 121
0.697669 -0.290048 0.135659 0.994864 0.0272209 0.0974926 192 174 166
0.605578 0.162279 0.0773007 0.781205 0.230454 -0.58018 182 146 133
0.104445 0.744165 0.0767681 0.39153 -0.847964 -0.357297 87 49 32
0.649228 -0.144329 0.067033 0.896601 0.426543 -0.119028 188 167 158
0.440242 0.114832 -0.0761967 0.434304 0.0907995 -0.896179 158 126 112
0.492882 -0.0177082 -0.0814313 0.506659 0.31717 -0.801686 166 149 141
0.408561 0.0987231 -0.090673 0.335241 -0.221473 -0.915731 154 121 108
0.495684 -0.205571 -0.0995252 0.50344 0.0380927 -0.86319 160 144 138
-0.123635 0.761849 -0.145529 0.570475 -0.432396 -0.698278 79 44 34
0.507045 -0.298996 -0.105716 0.383026 -0.212349 -0.898998 167 152 144
0.194295 0.0889104 -0.229634 0.87309 -0.268604 -0.406898 173 97 101
0.0563674 0.121268 -0.356484 0.861595 0.464725 -0.204168 134 18 20
0.0721745 -0.0944214 -0.669505 0.623553 0.770084 -0.134733 173 145 138
0.575252 0.28819 0.714378 0.871326 -0.130303 0.473089 188 138 145
0.591431 0.607358 0.599652 0.803473 -0.156424 0.574423 197 159 165
0.686965 0.783771 0.442887 0.934124 -0.353908 0.0464974 175 127 135
0.6928 0.45469 0.489317 0.834648 -0.272248 0.478794 162 55 60
0.749662 0.340467 0.379306 0.943393 0.319568 0.0888027 167 82 82
0.661153 0.50155 0.279292 0.778105 -0.0175449 -0.627889 166 108 111
0.56254 0.0629468 -0.00552361 0.431697 -0.175774 -0.884727 162 126 111
0.403896 0.216793 -0.0682862 0.561717 0.397722 -0.725459 155 124 111
0.543279 -0.319463 -0.0832747 0.55468 -0.310222 -0.77207 168 153 146
0.40689 -0.128297 -0.151982 0.33325 0.13443 -0.933206 159 143 135
-0.264035 0.693367 -0.309918 0.953257 0.226635 0.199845 67 35 24
0.0808136 0.0658329 -0.316664 0.980605 -0.164945 -0.105863 162 84 89
-0.202282 -0.635462 -0.241718 0.74978 -0.625787 -0.214988 173 143 133
0.126969 -0.210377 -0.366953 0.759963 0.505185 0.408956 186 150 137
0.100999 -0.374469 -0.412776 0.795369 -0.580555 0.174197 186 154 143
-0.00843969 0.0216826 -0.540975 0.630924 0.247582 -0.735281 144 43 44
-0.102617 0.195818 -0.728056 0.664336 0.4901 -0.564321 107 79 63
0.0987112 -0.297827 -0.715795 0.818036 -0.32071 -0.477454 176 147 139
0.701369 0.536011 0.485301 0.957629 0.0504631 0.283548 196 169 174
0.578599 0.491709 0.13343 0.678837 0.232835 -0.696397 174 159 153
0.591966 0.200848 0.0862308 0.768102 0.454238 -0.451317 167 126 111
0.62975 -0.0819109 0.0896877 0.886292 0.300274 -0.352593 182 151 138
-0.193542 -0.629511 -0.13613 0.682515 -0.724078 -0.099426 184 152 142
-0.0386212 0.443691 -0.367134 0.607638 0.366587 -0.704549 172 144 136
0.112439 -0.212248 -0.407901 0.757074 -0.642024 0.121011 180 143 126
-0.035596 0.0800096 -0.570155 0.919354 -0.183583 0.347973 99 39 42
-0.468713 0.650227 -0.621959 0.617917 0.67074 -0.410227 81 67 57
0.693285 0.689853 0.446557 0.966319 0.00225042 0.257335 165 75 77
0.610915 0.419697 0.152473 0.524719 0.0999922 -0.845382 174 158 149
0.675663 -0.190998 0.100988 0.911213 0.40977 -0.0422052 189 169 160
0.188377 -0.218665 -0.53287 0.993886 0.00891434 -0.110055 183 148 136
0.620834 -0.122834 0.0205422 0.938336 -0.0681789 -0.338937 182 162 152
0.178356 0.0612509 -0.242757 0.618863 -0.25183 -0.744037 155 27 30
