ply
format ascii 1.0
element vertex 343
property float x
property float y
property float z
property float nx
property float ny
property float nz
property uchar diffuse_red
property uchar diffuse_green
property uchar diffuse_blue
end_header
0.389469 0.000674631 0.0390703 0.143266 -0.439759 0.886615 57 67 181
0.391411 -0.0323535 0.0357743 0.248086 -0.114514 0.961946 74 81 171
0.33672 0.285709 0.134083 0.58499 0.0482778 0.809602 29 59 109
0.424678 -0.189793 -0.0163996 0.828042 -0.111275 0.549512 66 60 94
0.428906 -0.268796 -0.0429495 0.754394 -0.103482 0.648215 44 66 143
0.322725 0.275688 0.137752 0.137635 -0.140999 0.980396 154 165 196
0.340907 0.213473 0.121474 0.534036 -0.0581744 0.843458 162 170 206
0.299214 0.361407 0.136304 -0.171644 -0.182786 0.968054 155 167 196
0.331611 0.246353 0.133142 0.373657 -0.187847 0.908347 153 159 195
0.360664 0.0754993 0.0837595 0.34186 -0.530817 0.775478 170 171 187
0.419933 -0.28814 -0.0552671 0.412276 -0.197538 0.889386 148 152 179
0.31647 -0.140669 0.131234 0.89999 -0.0214086 0.435384 168 177 197
0.34665 -0.436921 0.0615579 0.803564 0.00470091 0.5952 117 123 148
0.287789 -0.0449751 0.181637 0.870263 0.0429308 0.490713 107 118 140
0.313606 -0.225334 0.137302 0.876301 0.0797414 0.475118 146 157 180
0.300596 -0.146838 0.164067 0.90758 -0.0911629 0.409864 138 151 176
0.302897 -0.179957 0.156709 0.894231 -0.0108157 0.447474 139 151 174
0.285802 -0.0620029 0.18681 0.821434 0.120437 0.557441 144 157 179
0.275322 -0.0223307 0.200829 0.871383 0.0478849 0.488262 146 158 179
0.350415 -0.58131 0.0318753 0.801573 0.0299915 0.597144 144 155 181
0.346927 -0.539545 0.0488449 0.853141 -0.0311037 0.520751 145 156 182
0.261295 -0.119803 0.213091 0.510501 -0.197377 0.836918 118 129 153
0.265502 -0.374105 0.142207 0.265611 -0.279378 0.922713 139 142 157
0.266655 -0.404177 0.133906 0.253973 -0.273589 0.927711 129 133 148
0.241991 -0.423571 0.134628 0.294183 -0.354543 0.887556 115 122 144
0.214817 -0.238665 0.204095 0.514662 -0.169869 0.840397 116 123 143
0.187952 -0.101712 0.246254 0.353025 -0.236125 0.905328 122 129 147
0.152413 0.0965451 0.304087 0.558059 0.094825 0.824366 102 110 129
0.15598 0.0773479 0.302331 0.641861 -0.138484 0.754213 124 131 150
0.210252 -0.426345 0.146416 0.422482 -0.00206269 0.906369 128 133 152
0.22953 -0.6067 0.0866797 0.278426 0.181766 0.943101 83 93 117
0.10908 0.183222 0.279913 0.411254 0.665521 0.622857 154 162 180
0.143252 0.0942522 0.309715 0.515465 0.075638 0.853566 124 131 150
0.205217 -0.440774 0.144954 0.426044 -0.160823 0.890294 97 104 125
0.124171 0.0948757 0.315379 0.628352 -0.0532402 0.776105 141 149 168
0.195456 -0.593615 0.108502 0.740317 -0.128802 0.659804 116 123 146
0.164022 -0.373325 0.186511 0.32614 -0.205225 0.922776 127 132 151
0.0954579 0.129952 0.334192 0.301787 0.180468 0.936139 148 157 177
0.134193 -0.207747 0.240463 0.619205 -0.269853 0.737404 120 126 146
0.122619 -0.14833 0.265338 0.42494 -0.17893 0.887361 98 103 119
0.0606654 0.187287 0.304658 0.365761 0.722258 0.586995 155 163 181
0.145243 -0.447982 0.179638 0.490796 -0.166406 0.855235 145 150 168
0.1191 -0.282253 0.235501 0.56358 -0.125491 0.816474 148 153 169
0.0761178 0.056566 0.329489 0.704462 -0.0682154 0.706456 121 128 147
0.160789 -0.839755 0.0474452 0.344366 -0.266793 0.90013 83 77 105
-0.0516876 0.319763 0.161726 0.601125 0.676472 0.425482 192 195 208
-0.0149264 0.266666 0.233627 0.644425 0.693433 0.322284 135 140 156
0.0216728 0.200366 0.311537 0.226801 0.708313 0.668471 158 166 185
0.0819819 -0.0752532 0.308058 0.552392 -0.179755 0.813973 135 142 159
0.11291 -0.512236 0.173466 0.0939951 -0.351843 0.931328 103 109 130
0.134579 -0.795726 0.076265 0.341405 -0.353569 0.87088 117 122 139
-0.0101915 0.241603 0.274897 0.537892 0.747351 0.390049 148 156 171
0.103506 -0.469307 0.184983 0.38462 -0.226455 0.894866 94 98 120
0.114325 -0.667619 0.120687 0.201872 -0.320741 0.925404 22 30 78
0.0860318 -0.603656 0.151879 0.279722 -0.202459 0.938491 80 105 101
0.0546527 -0.238451 0.268978 0.165451 -0.317349 0.933765 103 105 125
0.0506965 -0.388582 0.223508 0.227908 -0.391698 0.891421 139 140 157
0.068175 -0.536679 0.176866 0.151035 -0.203943 0.967262 76 100 40
0.0836366 -0.769008 0.0968253 0.340105 -0.285496 0.896003 29 25 48
0.0254615 -0.0873035 0.321941 0.383206 -0.250115 0.889155 113 114 129
0.0632414 -0.809908 0.091312 0.223969 -0.285968 0.931698 45 47 69
0.00813502 0.0180135 0.358645 0.231901 -0.216604 0.948317 116 119 127
0.027888 -0.405384 0.224676 0.318979 -0.239277 0.917059 66 54 63
0.0344592 -0.45236 0.208495 0.336463 -0.281567 0.898618 56 40 55
0.055193 -0.830601 0.0906845 0.591198 -0.252303 0.766047 26 27 82
0.00554989 -0.0357607 0.345825 0.587282 -0.24877 0.770203 45 31 43
0.0415433 -0.810888 0.0984957 0.218385 -0.264124 0.93944 33 32 63
-0.00979334 0.0446576 0.369804 0.245253 -0.210797 0.946264 39 72 51
-0.0134811 0.0151075 0.36503 0.228064 -0.257956 0.938853 36 77 51
-0.032806 0.123885 0.381335 0.185466 0.188595 0.964383 17 35 136
-0.0262335 0.069589 0.380537 0.194789 -0.172146 0.96562 19 52 49
0.00607391 -0.299735 0.262811 0.220375 -0.244344 0.944315 39 56 105
-0.0261756 -0.510339 0.203984 0.0969919 -0.306467 0.946927 100 76 86
0.0194755 -0.701725 0.131236 0.304168 -0.251755 0.918749 126 48 38
-0.0856501 0.238497 0.321194 0.182551 0.744852 0.641771 131 133 145
-0.00317097 -0.261182 0.277953 0.288588 -0.313543 0.904659 82 102 146
0.00228683 -0.518557 0.198289 0.321501 -0.293431 0.900297 108 118 104
-0.0386489 0.107659 0.386173 0.222513 0.202613 0.953643 29 64 138
-0.0243695 -0.226439 0.293482 0.330995 -0.251132 0.909601 24 32 70
-0.0165733 -0.374915 0.243174 0.198005 -0.307605 0.930684 48 31 40
-0.00520831 -0.708445 0.136717 0.18653 -0.309533 0.932414 117 102 101
-0.00420148 -0.780481 0.113337 0.215156 -0.293868 0.931316 87 86 99
-0.0536218 0.115946 0.392236 0.201803 -0.154107 0.967226 16 33 139
-0.0469057 -0.030979 0.363368 0.238603 -0.28381 0.92872 74 48 41
-0.0821488 0.180892 0.375722 0.347501 0.524017 0.777592 41 49 88
-0.0151432 -0.730324 0.129781 0.154465 -0.298565 0.941806 72 68 75
-0.0124096 -0.763255 0.121183 0.207675 -0.227034 0.951486 81 80 91
-0.0135446 -0.817126 0.101621 -0.088399 -0.24792 0.964739 47 38 54
-0.0528534 0.0769251 0.388853 0.262336 0.0192174 0.964785 16 31 52
-0.0987077 0.193871 0.373699 0.39363 0.628118 0.671211 173 179 195
-0.0660057 -0.0469087 0.362302 0.336463 -0.273588 0.901079 126 125 134
-0.148753 0.26113 0.312642 0.199334 0.792359 0.576571 66 98 60
-0.0899136 0.1547 0.393711 0.396094 0.304297 0.866321 25 35 132
-0.0710939 -0.0813231 0.352688 0.152489 -0.269188 0.950939 24 29 108
-0.0703578 -0.235528 0.303088 0.256805 -0.341474 0.904127 26 43 93
-0.0496165 -0.55701 0.192605 0.159748 -0.344609 0.925055 43 79 57
-0.0631962 -0.45903 0.224281 0.155759 -0.35198 0.922957 69 68 81
-0.0479541 -0.782137 0.109003 -0.502367 0.198765 0.841498 42 44 62
-0.0851942 0.111142 0.404029 0.296682 -0.00734436 0.954949 13 30 124
-0.0785218 -0.0490627 0.365361 0.4611 -0.0715538 0.884458 50 49 55
-0.0639434 -0.434606 0.233831 0.195024 -0.294705 0.935475 101 101 114
-0.0651747 -0.854941 0.0862365 -0.0900262 0.332569 0.938772 20 23 28
-0.0783362 -0.333956 0.269784 0.148183 -0.369601 0.917299 120 120 129
-0.0772316 -0.362288 0.260088 0.186102 -0.304983 0.933997 145 145 155
-0.0477573 -0.664597 0.152333 -0.0386265 -0.260157 0.964793 117 122 119
-0.188753 0.285024 0.2858 0.215607 0.819098 0.531594 177 180 199
-0.0885942 -0.00477415 0.382887 0.235088 -0.278124 0.931333 43 42 48
-0.103205 0.0841425 0.407606 0.195816 -0.129165 0.972097 10 23 102
-0.091027 -0.433249 0.238163 0.122596 -0.353616 0.927322 46 34 42
-0.108038 0.0449958 0.404088 0.397482 -0.146652 0.905816 13 23 111
-0.117554 -0.128784 0.326518 0.114711 -0.313339 0.942688 91 91 95
-0.108398 -0.46584 0.228762 0.112864 -0.342486 0.93272 46 32 72
-0.113718 -0.309209 0.283555 0.161124 -0.315273 0.935223 108 121 105
-0.20877 0.274494 0.310375 0.133559 0.83567 0.532746 165 167 180
-0.105753 -0.711604 0.137501 0.0636235 -0.136963 0.988531 40 44 64
-0.10328 -0.758077 0.130521 0.0664549 -0.27501 0.959142 66 66 87
-0.166147 0.212753 0.38492 0.0890393 0.771482 0.629991 127 129 144
-0.118758 0.00374628 0.39496 0.196977 -0.344033 0.918064 23 30 101
-0.121563 -0.743691 0.134817 0.0954041 -0.25938 0.961052 99 100 115
-0.104122 -0.64263 0.158207 0.228916 -0.332915 0.914748 37 34 42
-0.143718 -0.337186 0.280328 0.139445 -0.266799 0.953611 39 31 55
-0.166459 -0.0542252 0.367635 0.261792 0.0794616 0.961848 48 51 70
-0.168705 -0.149153 0.330705 0.336813 -0.473216 0.814017 53 55 75
-0.162465 0.0300724 0.408265 0.555708 -0.403294 0.727009 17 27 109
-0.278164 0.292521 0.310332 0.259216 0.819456 0.511176 190 193 206
-0.221305 0.205244 0.400365 0.203536 0.6426 0.738674 33 45 153
-0.181336 -0.127229 0.35098 0.282487 -0.478086 0.831646 98 102 119
-0.185963 -0.327706 0.287176 0.0998945 -0.202599 0.974153 44 44 60
-0.221653 0.197467 0.407154 0.204823 0.620546 0.756948 62 77 167
-0.191356 -0.231079 0.324217 0.130291 -0.251501 0.959047 27 40 50
-0.188832 0.0841781 0.433565 0.393224 -0.0683317 0.9169 32 38 102
-0.195032 -0.345188 0.281154 0.223138 -0.325823 0.918721 124 124 141
-0.21973 0.181699 0.418767 0.310677 0.559035 0.76874 129 144 180
-0.209834 -0.0328202 0.379679 0.0975268 -0.426014 0.899445 36 45 69
-0.206514 0.0159288 0.419658 0.129095 -0.327137 0.936117 146 146 157
-0.220403 -0.141739 0.353 0.0976994 -0.443448 0.89096 114 115 123
-0.22451 -0.223936 0.330453 0.110753 -0.14852 0.982688 27 28 34
-0.230614 -0.0727886 0.381479 -0.0153211 -0.147319 0.988971 50 51 66
-0.245424 -0.156987 0.347552 0.0729187 -0.392949 0.916665 52 56 73
-0.243754 -0.0460785 0.385983 0.193583 -0.202727 0.95991 45 48 64
-0.238728 -0.0959702 0.377192 0.0926389 -0.369855 0.92446 98 99 112
-0.269643 -0.122025 0.367136 0.0466542 -0.419182 0.906702 41 46 65
-0.271036 -0.0751065 0.383891 0.299745 -0.310202 0.902179 50 56 77
-0.277965 -0.0660599 0.38892 0.487282 -0.326956 0.809726 88 96 114
-0.288941 -0.112833 0.376457 0.354789 -0.312615 0.881134 79 84 102
0.358092 0.218067 0.0954158 0.8707 0.238537 0.430094 125 148 196
0.420407 -0.146121 -0.00961877 0.753774 -0.121253 0.64585 42 61 59
0.440579 -0.314872 -0.0572323 0.481937 -0.183258 0.856828 64 59 103
0.434812 -0.470588 -0.133108 0.304864 -0.329745 0.893491 142 148 168
0.36451 -0.323876 -0.0611112 0.180855 -0.373792 0.909709 58 58 63
0.291322 -0.00105123 0.166802 0.900354 0.0882444 0.426117 181 189 206
0.295799 -0.0162278 0.154628 0.923252 0.092896 0.372798 183 190 208
0.319707 -0.241037 0.126457 0.851627 0.176291 0.493611 88 97 119
0.29317 -0.0729272 0.178666 0.818477 0.2735 0.505266 87 96 115
0.26672 0.0348219 0.209303 0.77721 0.0289212 0.628576 80 87 112
0.307721 -0.269191 0.131194 0.836224 0.0359445 0.547208 171 179 199
0.288455 -0.234197 0.169635 0.189756 -0.31049 0.931445 134 145 169
0.346216 -0.626466 0.0326912 0.673261 -0.121097 0.729422 107 120 151
0.195406 0.149576 0.255763 -0.0284203 0.405377 0.913707 155 162 181
0.240429 -0.0236349 0.243802 0.645362 -0.0644355 0.761155 114 123 146
0.271011 -0.610928 0.0761815 0.388635 0.0534155 0.919842 141 147 168
0.249285 -0.513198 0.106429 0.475719 -0.29249 0.829543 117 125 149
0.233078 -0.406244 0.147224 0.337843 -0.308486 0.889212 127 134 154
0.10873 0.233729 0.192752 0.362871 0.838348 0.406813 104 107 120
0.195604 -0.137111 0.23471 0.248429 -0.251568 0.935412 154 158 171
0.166903 0.0575398 0.290375 0.538503 -0.0756328 0.839222 121 128 147
0.124797 0.181336 0.266795 0.410312 0.779882 0.472682 89 96 117
0.100107 0.211311 0.252382 0.281971 0.67886 0.677969 165 170 187
0.107054 0.193304 0.273297 0.482287 0.536493 0.692513 162 168 185
0.180621 -0.428726 0.161373 0.49686 -0.236136 0.835087 133 137 156
0.168754 -0.385543 0.177243 0.49716 -0.178604 0.849077 129 134 153
0.148344 -0.275546 0.216378 0.469905 -0.156596 0.868716 120 126 144
0.13902 -0.222362 0.224768 0.756079 -0.205334 0.621436 123 128 146
0.0931024 0.0850175 0.341209 0.340393 -0.516171 0.785938 110 117 139
0.161893 -0.585497 0.136345 0.412529 -0.226745 0.882274 124 133 157
0.127035 -0.198756 0.250897 0.438087 -0.26676 0.858441 90 98 119
0.11034 -0.241135 0.249904 0.599272 -0.196278 0.776111 149 154 171
-0.0087716 0.258743 0.241574 0.460215 0.796527 0.392106 154 161 180
0.121902 -0.495512 0.173271 0.118956 -0.363913 0.923805 82 92 118
0.0162065 0.227968 0.293652 -0.0911853 0.719514 0.688466 165 171 190
0.0495143 0.141796 0.354758 0.354946 0.490604 0.795815 127 134 154
0.0854811 -0.126604 0.29601 0.660254 -0.0920548 0.745379 131 137 155
-0.0402544 0.289717 0.229653 0.524861 0.71123 0.467624 191 195 208
0.0686558 -0.0558168 0.318622 0.499147 -0.201307 0.84281 129 136 155
0.114735 -0.544227 0.163065 0.270502 -0.262919 0.926122 90 96 113
0.0616705 -0.0216473 0.33243 0.603217 -0.171974 0.778816 122 129 147
-0.0200954 0.248893 0.275946 0.439141 0.735926 0.515333 193 198 211
0.0730815 -0.341965 0.232382 0.309095 -0.247822 0.918174 105 106 120
-0.0200036 0.22055 0.301912 -0.210891 0.759582 0.615272 200 203 218
0.067634 -0.413608 0.213646 0.274273 -0.20523 0.939497 15 19 92
0.0222258 -0.022592 0.341605 0.240993 -0.236808 0.941193 133 133 146
0.0641932 -0.696983 0.123904 0.152836 -0.314466 0.936884 32 19 34
0.0144288 -0.367726 0.237911 0.225687 -0.388659 0.893314 147 147 161
0.0108095 -0.502546 0.199321 0.329696 -0.309904 0.891774 128 132 123
-0.0267393 -0.0439791 0.351103 0.289127 -0.285436 0.913746 130 70 63
-0.020247 -0.163081 0.320586 0.0409607 -0.438875 0.897614 11 43 115
-0.10617 0.246177 0.318222 0.231015 0.777198 0.585317 84 116 88
-0.0226381 -0.303778 0.269116 0.17687 -0.262186 0.94867 27 33 73
-0.0167479 -0.490276 0.207478 0.181054 -0.312758 0.932418 32 30 38
-0.169315 0.310332 0.243272 0.117099 0.821705 0.557754 150 154 173
-0.053802 -0.18238 0.315687 0.20692 -0.398867 0.893359 17 24 111
-0.0525345 -0.302958 0.272562 0.176908 -0.338743 0.924098 149 148 159
-0.0739721 0.0930333 0.397596 0.2708 0.0605304 0.960731 29 61 127
-0.0869289 -0.52804 0.205789 0.113242 -0.219438 0.969033 130 128 139
-0.0861048 -0.559205 0.195597 0.103188 -0.337244 0.935745 64 35 50
-0.0974125 -0.307778 0.281823 0.129132 -0.312467 0.941111 118 124 113
-0.193221 0.258512 0.329926 0.0990745 0.78538 0.611033 82 65 71
-0.0860143 -0.866571 0.0908829 0.108913 0.058028 0.992356 24 28 34
-0.119679 0.04137 0.403219 0.224358 -0.0490192 0.973273 13 23 113
-0.106333 -0.810601 0.100704 0.355967 -0.292484 0.887547 53 57 78
-0.153438 -0.147319 0.327495 0.229096 -0.37387 0.898741 96 97 111
-0.191198 0.223651 0.375838 0.164542 0.713827 0.680719 149 157 157
-0.151176 -0.768367 0.128772 0.166327 -0.299211 0.939579 44 48 67
-0.167545 -0.174729 0.319271 0.0439703 -0.125992 0.991057 119 120 130
-0.247775 0.259535 0.347016 0.275734 0.822056 0.498191 62 61 80
-0.170185 -0.0860179 0.3647 0.405545 -0.22697 0.885448 112 118 136
-0.192359 -0.175565 0.324318 0.178583 -0.234207 0.955644 98 102 117
-0.184352 0.0252917 0.416959 0.368452 -0.348992 0.861654 12 21 109
-0.218124 -0.0724398 0.379636 0.0518787 -0.106756 0.992931 118 117 127
-0.238084 -0.168965 0.340927 0.18126 -0.440892 0.879068 96 98 110
0.271412 0.414232 0.132508 0.475166 0.726231 0.496797 167 163 165
0.24465 0.156603 0.136485 0.803397 0.127312 0.581674 171 175 186
0.370395 -0.590423 0.0110721 0.819384 -0.0721941 0.568679 164 173 196
0.263613 0.0244839 0.219521 0.887042 -0.0652894 0.457049 99 112 135
0.345832 -0.511177 0.0557097 0.773213 -0.0303153 0.63342 146 156 180
0.187381 0.24397 0.136045 0.618942 0.705957 0.344288 180 180 189
0.303753 -0.279955 0.144018 0.789211 -0.0737518 0.609677 160 169 188
0.27603 -0.102334 0.201386 0.822171 -0.0544086 0.566635 163 171 189
0.312683 -0.621185 0.0623378 0.631276 -0.210125 0.74655 139 144 167
0.276125 -0.452166 0.115981 0.230197 -0.282076 0.931365 143 147 165
0.254299 -0.303878 0.167446 0.230977 -0.291975 0.928116 148 150 164
0.222848 -0.134029 0.224711 0.339453 -0.255751 0.905186 151 153 166
0.136737 0.209876 0.220618 0.286403 0.829202 0.479998 190 192 203
0.279731 -0.606768 0.0832211 0.204131 0.415008 0.886623 140 146 168
0.142448 0.195293 0.239419 0.320617 0.828829 0.458526 197 199 211
0.224694 -0.377747 0.167454 0.746757 -0.169039 0.643258 123 128 147
0.077996 0.254102 0.185749 0.20667 0.861989 0.462884 164 169 184
0.15747 0.0603726 0.310423 0.861831 -0.100531 0.497132 126 133 150
0.223421 -0.46866 0.130694 0.363861 -0.310459 0.878192 146 150 168
0.0918718 0.205414 0.25799 0.448946 0.821583 0.351352 165 171 188
0.187281 -0.416518 0.154724 0.295547 -0.0510958 0.953961 131 135 154
0.129103 -0.103974 0.266176 0.299505 0.0184781 0.953915 126 131 149
0.101653 0.0518197 0.324331 0.409426 -0.345359 0.844451 128 133 150
0.156938 -0.492923 0.161418 0.486398 -0.245574 0.838517 147 150 167
0.17332 -0.827995 0.0407259 0.724051 -0.122499 0.678782 76 87 121
0.0318841 0.211251 0.29238 0.224516 0.766229 0.602068 168 174 192
0.0563531 0.128766 0.364911 0.393311 0.48135 0.783331 113 121 140
0.0708645 -0.0794765 0.316055 0.666585 -0.139262 0.732305 119 125 145
0.0261718 0.157346 0.356241 0.282965 0.479964 0.830401 164 168 181
-0.0236763 0.233162 0.300809 0.280444 0.774464 0.567059 190 193 207
0.0242377 0.103198 0.368279 0.172146 0.459914 0.871118 80 84 102
0.0505779 -0.752589 0.113515 0.267892 -0.282762 0.921021 65 67 86
-0.00541394 -0.0816325 0.333775 0.184994 -0.410972 0.892681 8 20 120
0.0151443 -0.582043 0.168604 0.253723 0.162743 0.953489 36 71 52
-0.0117509 -0.117229 0.327893 0.385266 -0.237406 0.891744 8 19 109
-0.070741 0.202787 0.351546 0.326505 0.667705 0.669003 40 64 117
-0.0150487 -0.315922 0.261526 0.149151 -0.396524 0.905827 27 57 125
-0.0533301 0.0406469 0.383362 0.267381 -0.230297 0.935665 47 89 52
-0.0466195 -0.0534221 0.354682 0.306251 -0.297098 0.904402 72 64 70
-0.107128 0.20883 0.364078 0.440079 0.68683 0.578441 174 181 197
-0.0390847 -0.583859 0.181574 0.0362224 -0.266995 0.963017 69 97 75
-0.1462 0.254469 0.321243 0.18442 0.784927 0.591506 62 111 70
-0.0947878 0.170736 0.388777 0.400229 0.389341 0.829596 141 136 151
-0.071418 -0.0213802 0.370768 0.146888 -0.353471 0.923841 150 150 152
-0.0721026 -0.160127 0.327414 0.22558 -0.288213 0.930617 83 45 57
-0.0823118 -0.279464 0.289445 0.24484 -0.290261 0.925096 30 35 66
-0.0765809 -0.760056 0.123947 0.264493 -0.304338 0.915108 62 71 99
-0.109654 0.092495 0.409188 0.165275 0.00853616 0.98621 10 25 121
-0.080264 -0.818733 0.0945952 0.373943 -0.288158 0.88155 89 90 108
-0.0794413 -0.852476 0.0881767 0.0728623 0.149471 0.986078 26 26 33
-0.128647 0.188914 0.398352 0.39345 0.433979 0.810469 87 97 121
-0.124724 0.149756 0.408761 0.248621 0.213676 0.944738 137 141 174
-0.100916 -0.00637314 0.385179 0.211995 -0.266233 0.940308 35 33 84
-0.100876 -0.418347 0.245873 0.158948 -0.255095 0.953762 38 35 44
-0.181317 0.228501 0.367012 0.0904098 0.790717 0.605468 168 175 178
-0.12798 0.0407785 0.410658 0.330366 -0.259226 0.907557 14 25 109
-0.161102 -0.161241 0.322796 0.243183 -0.373721 0.895095 113 114 126
-0.12456 -0.576352 0.197607 0.273476 -0.301785 0.91331 20 26 103
-0.164453 0.159547 0.415507 0.25065 0.313917 0.915768 155 154 163
-0.222635 0.238379 0.365851 0.241797 0.769083 0.591647 30 35 127
-0.177691 -0.0556356 0.373911 0.314831 -0.103442 0.943494 40 47 70
-0.19548 0.153002 0.426537 0.340814 0.288051 0.894914 16 28 130
-0.191298 -0.147116 0.339997 0.282371 -0.473272 0.834434 47 51 71
-0.218246 -0.252777 0.317394 0.179218 -0.426554 0.886528 147 148 157
-0.244067 -0.0732834 0.381741 -0.0472698 -0.147517 0.987929 52 55 73
-0.244365 -0.131517 0.359958 0.0808958 -0.400932 0.912529 45 46 60
-0.295622 0.186299 0.41886 0.226984 0.413196 0.881899 165 162 165
0.340719 0.269338 0.13181 0.490392 -0.0811214 0.867719 37 67 152
0.434462 -0.413338 -0.0939185 0.573428 -0.220718 0.788964 145 150 175
0.325986 0.188916 0.135089 -0.0408168 -0.12433 0.991401 151 150 152
0.397793 -0.180079 -0.00335016 0.350361 -0.388966 0.852028 155 159 175
0.406705 -0.305293 -0.0608837 -0.187845 -0.443653 0.876291 144 146 161
0.324903 -0.187339 0.111827 0.924518 0.0426677 0.378743 173 182 201
0.290405 -0.0179987 0.171739 0.906598 0.0811617 0.414117 167 177 194
0.30392 -0.640665 0.0616249 0.661514 -0.179614 0.728105 139 146 169
0.295384 -0.628247 0.0604764 0.268857 -0.35879 0.89386 141 147 169
0.164545 0.153619 0.283297 0.417298 0.571453 0.706615 185 188 200
0.0748519 0.283914 0.112764 0.415044 0.790168 0.450969 125 129 145
0.147579 0.141988 0.292483 0.596366 0.251984 0.762137 189 192 204
0.17464 -0.234119 0.217655 0.724213 -0.219605 0.653672 124 128 148
0.157316 -0.65017 0.115853 0.162377 -0.273029 0.948203 107 119 145
0.11041 -0.42598 0.194052 0.31799 -0.199787 0.926805 102 107 129
0.035119 0.114006 0.368976 0.504077 0.0554853 0.861875 91 95 113
-0.0383074 0.248865 0.283615 0.280691 0.799087 0.53167 195 197 209
0.0492396 -0.360621 0.232896 0.245656 -0.305829 0.919848 143 143 157
0.059062 -0.431147 0.207213 0.144151 -0.359687 0.92187 29 42 127
0.0474714 -0.30494 0.249303 0.247313 -0.221994 0.943163 133 131 144
0.0129536 -0.745576 0.119499 0.151072 -0.246418 0.957317 105 90 93
-0.116066 0.107854 0.412838 0.310879 0.0752016 0.94747 19 33 134
-0.104286 -0.837959 0.092656 0.27057 -0.131145 0.953726 82 86 104
-0.158042 0.153289 0.416751 0.26211 0.279793 0.923587 145 145 160
-0.173247 -0.161468 0.326291 0.222257 -0.406599 0.88616 81 84 101
-0.160539 -0.215783 0.324812 0.141367 -0.401652 0.904815 22 24 52
-0.291839 0.279162 0.334103 0.245589 0.826989 0.505743 184 183 193
0.460982 -0.541328 -0.178545 0.674664 -0.135804 0.725524 49 47 140
0.439149 -0.537612 -0.159379 0.438905 -0.317787 0.840461 130 136 158
0.372312 -0.509402 0.00782064 0.853412 -0.0733942 0.516045 120 131 154
0.254434 0.0871641 0.229284 0.811518 0.182489 0.555101 186 192 209
0.247386 0.00714427 0.238941 0.838046 0.13993 0.52735 152 163 183
0.273191 -0.358296 0.145775 0.186376 -0.324369 0.927388 138 140 156
0.0364523 0.243739 0.234305 0.293064 0.738827 0.606834 176 181 199
0.0939827 -0.67516 0.122775 0.205518 -0.319595 0.924998 45 48 70
-0.132993 0.173139 0.407948 0.261172 0.189646 0.94648 119 122 138
-0.219555 -0.116495 0.36695 -0.00671826 -0.391114 0.920317 80 78 89
0.39654 -0.247144 -0.0252681 0.315519 -0.293112 0.902515 144 146 159
0.254224 0.1007 0.22152 0.846321 0.459846 0.268857 185 192 209
0.289384 -0.256096 0.166052 0.339932 -0.246116 0.907675 115 128 154
0.251775 -0.246536 0.18369 0.433053 -0.214998 0.875352 145 147 161
0.133643 0.21909 0.212184 -0.206412 0.67283 0.710419 179 179 190
0.196654 -0.258927 0.202129 0.302419 -0.238883 0.922756 117 124 143
0.0931914 0.234389 0.217455 0.321005 0.805176 0.498646 162 167 183
0.195741 -0.211213 0.217315 0.63635 -0.289251 0.715118 120 126 145
-0.214353 0.265909 0.326562 0.173848 0.811071 0.558518 88 90 101
-0.204796 -0.118014 0.364322 0.200212 -0.429987 0.880356 98 81 91
-0.284852 -0.0546178 0.396137 0.36472 -0.309389 0.878213 18 18 27
0.212811 0.144315 0.257376 0.0802333 0.336221 0.938359 166 174 194
0.136994 -0.133826 0.261928 0.36266 -0.0933345 0.927236 92 98 116
0.122114 -0.310715 0.227364 0.595033 -0.178439 0.783643 146 150 166
-0.0428737 -0.156514 0.32434 0.211518 -0.277828 0.937055 43 28 69
-0.0840722 0.09218 0.400787 0.293815 -0.00347874 0.955856 24 58 135
-0.23481 0.16921 0.434071 0.0750181 0.346063 0.935207 166 165 172
0.261948 0.132417 0.104821 0.410634 -0.0170024 0.911642 166 166 175
0.178322 0.108246 0.283848 0.39879 0.186588 0.89786 167 169 180
