ply
format ascii 1.0
element vertex 384
property float x
property float y
property float z
property float nx
property float ny
property float nz
property uchar diffuse_red
property uchar diffuse_green
property uchar diffuse_blue
end_header
0.33672 0.285709 0.134083 0.58499 0.0482778 0.809602 29 59 109
0.342221 0.17422 0.109698 0.305892 -0.493799 0.813998 175 179 195
0.389469 0.000674631 0.0390703 0.143266 -0.439759 0.886615 57 67 181
0.344521 0.153105 0.10516 0.639752 -0.179565 0.747312 173 176 189
0.391411 -0.0323535 0.0357743 0.248086 -0.114514 0.961946 74 81 171
0.360664 0.0754993 0.0837595 0.34186 -0.530817 0.775478 170 171 187
0.413303 -0.134085 0.00736881 0.236567 -0.286552 0.928398 82 86 89
0.440579 -0.314872 -0.0572323 0.481937 -0.183258 0.856828 64 59 103
0.434462 -0.413338 -0.0939185 0.573428 -0.220718 0.788964 145 150 175
0.434812 -0.470588 -0.133108 0.304864 -0.329745 0.893491 142 148 168
0.275322 -0.0223307 0.200829 0.871383 0.0478849 0.488262 146 158 179
0.167984 0.266884 0.107891 0.501647 0.812676 0.296493 178 178 185
0.239845 0.046029 0.238824 0.478265 -0.135508 0.867698 168 177 194
0.326625 -0.423909 0.0915264 0.807596 0.000672089 0.589735 151 162 184
0.345832 -0.511177 0.0557097 0.773213 -0.0303153 0.63342 146 156 180
0.324752 -0.529961 0.0711289 0.392664 -0.31243 0.864987 95 107 137
0.0941746 0.27885 0.0995223 0.489747 0.775197 0.399022 187 187 198
0.180542 0.0744569 0.282998 0.570114 -0.012318 0.821473 131 134 146
0.095027 0.249957 0.174502 0.597712 0.757481 0.262609 127 128 140
0.0746685 0.274089 0.142674 0.537194 0.828305 0.159159 180 183 195
0.187952 -0.101712 0.246254 0.353025 -0.236125 0.905328 122 129 147
0.230876 -0.364342 0.160018 0.280154 -0.303742 0.910634 123 129 149
0.214466 -0.267209 0.192279 0.341775 -0.310776 0.88691 108 116 136
0.0566113 0.282671 0.129548 0.401555 0.777401 0.48415 165 170 187
0.152413 0.0965451 0.304087 0.558059 0.094825 0.824366 102 110 129
0.197324 -0.161907 0.226026 0.312043 -0.0183733 0.94989 134 139 155
0.13881 0.11347 0.310773 0.603853 0.11198 0.789191 117 123 137
0.10908 0.183222 0.279913 0.411254 0.665521 0.622857 154 162 180
0.12779 0.11989 0.315531 0.552617 0.27714 0.786007 152 159 173
0.143252 0.0942522 0.309715 0.515465 0.075638 0.853566 124 131 150
0.024293 0.299656 0.126635 0.374225 0.821688 0.429864 161 165 179
0.124171 0.0948757 0.315379 0.628352 -0.0532402 0.776105 141 149 168
0.206878 -0.471376 0.137106 0.391544 -0.207381 0.896485 146 151 168
0.205217 -0.440774 0.144954 0.426044 -0.160823 0.890294 97 104 125
0.181464 -0.29921 0.198342 0.30452 0.115446 0.945484 70 78 97
0.00361682 0.304576 0.132786 0.328856 0.881851 0.337923 172 173 186
-0.0044756 0.304168 0.141411 0.346297 0.859528 0.375887 123 126 140
0.192102 -0.580962 0.113314 0.732079 -0.109516 0.672359 117 124 148
0.135982 -0.169536 0.254129 0.414295 -0.299129 0.859582 151 154 167
0.184167 -0.536722 0.130817 0.661736 -0.137789 0.736967 116 125 149
0.164896 -0.432284 0.1676 0.667623 -0.0285118 0.743953 125 130 152
0.164022 -0.373325 0.186511 0.32614 -0.205225 0.922776 127 132 151
0.0393899 0.288006 0.138259 0.369505 0.854828 0.364327 174 178 192
0.141148 -0.261671 0.225754 0.337486 -0.202158 0.919367 120 125 144
0.145243 -0.447982 0.179638 0.490796 -0.166406 0.855235 145 150 168
0.0761178 0.056566 0.329489 0.704462 -0.0682154 0.706456 121 128 147
0.121902 -0.495512 0.173271 0.118956 -0.363913 0.923805 82 92 118
0.0252701 0.194398 0.317843 0.373542 0.718452 0.586766 165 173 191
0.0819819 -0.0752532 0.308058 0.552392 -0.179755 0.813973 135 142 159
0.00618982 0.213464 0.309901 0.33278 0.764213 0.552482 115 122 138
0.126179 -0.68089 0.117146 0.232967 -0.308354 0.922304 98 101 125
0.12753 -0.718442 0.104551 0.309423 -0.260256 0.914617 36 37 64
0.0839181 -0.411219 0.209272 0.237548 -0.227634 0.944327 90 94 124
0.0730815 -0.341965 0.232382 0.309095 -0.247822 0.918174 105 106 120
-0.112009 0.334523 0.164501 0.194248 0.94403 0.266598 194 194 204
0.0346895 -0.142988 0.304871 0.475821 -0.24462 0.844841 93 100 127
-0.107043 0.326543 0.185352 0.121779 0.932938 0.338816 176 177 191
0.0625209 -0.495713 0.190888 0.400383 -0.28469 0.871003 78 99 42
0.0144813 0.00714612 0.350476 0.375045 -0.224307 0.899459 123 124 136
0.0254615 -0.0873035 0.321941 0.383206 -0.250115 0.889155 113 114 129
0.0641932 -0.696983 0.123904 0.152836 -0.314466 0.936884 32 19 34
0.0166029 -0.132791 0.319149 0.462458 -0.192115 0.865578 7 40 116
0.0290026 -0.309597 0.253774 0.190468 -0.265137 0.945212 143 144 158
0.0632414 -0.809908 0.091312 0.223969 -0.285968 0.931698 45 47 69
0.0344592 -0.45236 0.208495 0.336463 -0.281567 0.898618 56 40 55
0.0485176 -0.642153 0.148173 0.302309 -0.226978 0.925792 75 80 83
-0.00979334 0.0446576 0.369804 0.245253 -0.210797 0.946264 39 72 51
0.0367387 -0.596017 0.16304 0.272836 -0.230781 0.933971 63 96 82
-0.0134811 0.0151075 0.36503 0.228064 -0.257956 0.938853 36 77 51
-0.13879 0.320551 0.215224 0.133257 0.876865 0.461899 170 171 185
-0.0191074 0.00388194 0.364537 0.255329 -0.230642 0.938941 71 68 47
-0.0121439 -0.0697529 0.342135 0.287296 -0.176033 0.941527 7 18 109
-0.00317097 -0.261182 0.277953 0.288588 -0.313543 0.904659 82 102 146
-0.0838895 0.230752 0.326145 0.351862 0.760193 0.546169 126 127 139
-0.0801705 0.208291 0.350356 0.312521 0.669876 0.673496 56 59 72
-0.0371186 0.0117463 0.371249 0.248298 -0.260956 0.932872 39 64 41
-0.0243695 -0.226439 0.293482 0.330995 -0.251132 0.909601 24 32 70
-0.0167479 -0.490276 0.207478 0.181054 -0.312758 0.932418 32 30 38
-0.184632 0.338003 0.187425 0.0794223 0.925462 0.37042 180 180 192
-0.0414173 -0.019918 0.36391 0.355361 -0.28021 0.891741 57 45 33
-0.0987193 0.21718 0.350035 0.331782 0.648023 0.685556 128 145 135
-0.0821488 0.180892 0.375722 0.347501 0.524017 0.777592 41 49 88
-0.0136677 -0.800294 0.108355 0.150393 -0.191057 0.96999 47 39 47
-0.109501 0.229728 0.342101 0.271385 0.723457 0.634791 83 130 98
-0.045022 -0.191996 0.313222 0.240132 -0.350541 0.905239 15 24 102
-0.0987077 0.193871 0.373699 0.39363 0.628118 0.671211 173 179 195
-0.065249 0.0170786 0.381104 0.331705 -0.346423 0.877475 28 79 46
-0.0660057 -0.0469087 0.362302 0.336463 -0.273588 0.901079 126 125 134
-0.0438934 -0.477907 0.216017 0.169634 -0.316533 0.93329 141 139 151
-0.0289431 -0.814446 0.0981735 -0.177837 -0.219818 0.959195 108 97 107
-0.0899136 0.1547 0.393711 0.396094 0.304297 0.866321 25 35 132
-0.12892 0.237213 0.341487 0.247125 0.775375 0.581139 75 114 99
-0.0640311 -0.251596 0.293833 0.110197 -0.258521 0.9597 81 99 145
-0.0481503 -0.407653 0.239819 0.185257 -0.333875 0.924233 148 147 158
-0.0639748 -0.09175 0.347148 0.21747 -0.247703 0.944113 18 26 108
-0.0506292 -0.524702 0.203438 0.0945996 -0.285773 0.953617 44 54 51
-0.0703578 -0.235528 0.303088 0.256805 -0.341474 0.904127 26 43 93
-0.0851942 0.111142 0.404029 0.296682 -0.00734436 0.954949 13 30 124
-0.0785218 -0.0490627 0.365361 0.4611 -0.0715538 0.884458 50 49 55
-0.0479541 -0.782137 0.109003 -0.502367 0.198765 0.841498 42 44 62
-0.0651747 -0.854941 0.0862365 -0.0900262 0.332569 0.938772 20 23 28
-0.102541 0.136703 0.408039 0.181762 0.483643 0.856185 18 33 143
-0.0884274 -0.0502224 0.371746 0.556699 -0.130071 0.820468 52 47 62
-0.188306 0.285276 0.287453 0.203351 0.821428 0.532826 177 180 198
-0.103205 0.0841425 0.407606 0.195816 -0.129165 0.972097 10 23 102
-0.092188 -0.675292 0.142412 0.0278138 -0.152905 0.98785 68 68 84
-0.198757 0.29164 0.277635 0.144312 0.862482 0.485076 58 66 157
-0.091027 -0.433249 0.238163 0.122596 -0.353616 0.927322 46 34 42
-0.0868314 -0.611518 0.17803 -0.0458582 -0.292739 0.955092 36 38 39
-0.108038 0.0449958 0.404088 0.397482 -0.146652 0.905816 13 23 111
-0.206221 0.289176 0.284852 0.148664 0.860829 0.486697 83 90 169
-0.118713 -0.104922 0.335076 0.185488 -0.33455 0.923943 104 103 108
-0.105753 -0.711604 0.137501 0.0636235 -0.136963 0.988531 40 44 64
-0.106333 -0.810601 0.100704 0.355967 -0.292484 0.887547 53 57 78
-0.181502 0.254031 0.33463 0.150565 0.81163 0.564435 37 64 52
-0.113718 -0.309209 0.283555 0.161124 -0.315273 0.935223 108 121 105
-0.107497 0.128077 0.407052 0.225559 0.652127 0.723778 20 36 147
-0.121563 -0.743691 0.134817 0.0954041 -0.25938 0.961052 99 100 115
-0.20877 0.274494 0.310375 0.133559 0.83567 0.532746 165 167 180
-0.139708 0.131364 0.417658 0.2203 -0.00162464 0.975431 13 28 134
-0.12981 -0.283413 0.295114 0.0835438 -0.302646 0.949435 44 66 49
-0.255164 0.312396 0.250847 0.127701 0.901027 0.414541 125 143 74
-0.196959 0.247051 0.348328 0.14912 0.824168 0.546361 44 101 74
-0.139612 -0.587552 0.195755 0.139882 -0.322705 0.936106 19 27 105
-0.152419 -0.783057 0.12251 0.104211 -0.2878 0.952004 44 51 70
-0.152217 -0.405224 0.25454 0.042265 -0.355759 0.933621 19 25 97
-0.30154 0.347404 0.192926 0.0334535 0.963964 0.26392 157 156 169
-0.262921 0.310517 0.2586 0.137873 0.930617 0.339032 120 140 67
-0.164009 0.136364 0.422935 0.229638 0.262256 0.937277 28 36 125
-0.242751 0.287538 0.297598 0.149423 0.871914 0.466304 42 51 80
-0.167545 -0.174729 0.319271 0.0439703 -0.125992 0.991057 119 120 130
-0.228618 0.259263 0.340545 0.141918 0.752031 0.643667 168 172 191
-0.181381 -0.686031 0.158908 0.18894 -0.319437 0.928581 18 18 22
-0.306675 0.329693 0.240223 0.154103 0.937458 0.31213 82 80 90
-0.181336 -0.127229 0.35098 0.282487 -0.478086 0.831646 98 102 119
-0.185281 -0.161636 0.328573 0.156165 -0.312532 0.936983 55 60 80
-0.252937 0.27174 0.329648 0.191442 0.843653 0.501596 77 61 90
-0.191356 -0.231079 0.324217 0.130291 -0.251501 0.959047 27 40 50
-0.278164 0.292521 0.310332 0.259216 0.819456 0.511176 190 193 206
-0.221305 0.205244 0.400365 0.203536 0.6426 0.738674 33 45 153
-0.203826 -0.177971 0.326801 0.213804 -0.385177 0.897733 102 107 123
-0.321352 0.324923 0.255611 -0.00652012 0.920503 0.390683 64 62 71
-0.220403 -0.141739 0.353 0.0976994 -0.443448 0.89096 114 115 123
-0.230614 -0.0727886 0.381479 -0.0153211 -0.147319 0.988971 50 51 66
-0.243754 -0.0460785 0.385983 0.193583 -0.202727 0.95991 45 48 64
-0.276079 -0.0882066 0.379747 0.19871 -0.362314 0.910628 42 47 68
0.32219 0.332911 0.122847 0.774166 0.307955 0.55302 35 98 192
0.279836 0.429871 0.120338 -0.140975 0.719322 0.680222 154 152 183
0.286036 0.389138 0.141915 0.556402 0.288164 0.779345 168 167 175
0.317289 0.285301 0.143424 0.302549 -0.0349435 0.952493 161 168 188
0.359771 0.01966 0.0557071 -0.0205108 -0.354655 0.934772 159 159 170
0.43217 -0.249718 -0.0570912 0.127641 -0.488896 0.862953 49 66 125
0.368175 -0.00835995 0.0478331 -0.299574 -0.283984 0.910828 160 162 175
0.369871 -0.0410813 0.0238223 -0.626406 -0.311627 0.714496 157 159 170
0.412889 -0.271048 -0.0343719 0.34351 -0.327106 0.880342 147 154 176
0.425343 -0.406604 -0.10261 0.204045 -0.31441 0.927099 144 149 167
0.363661 -0.418694 0.0230936 0.869443 0.22766 0.438452 174 181 200
0.27603 -0.102334 0.201386 0.822171 -0.0544086 0.566635 163 171 189
0.33867 -0.498464 0.0648301 0.775045 -0.0329601 0.631046 153 164 187
0.315292 -0.374169 0.116107 0.320505 -0.305811 0.896525 154 164 185
0.201791 0.14203 0.258214 0.146454 0.38257 0.912245 141 150 172
0.218639 0.0688642 0.263225 0.736199 0.139704 0.662188 126 134 155
0.301969 -0.431069 0.112827 0.405893 -0.248267 0.879554 86 97 125
0.31308 -0.478624 0.0937603 0.430202 -0.250065 0.867407 82 94 125
0.110009 0.241179 0.173268 0.459954 0.825492 0.327116 163 163 172
0.112822 0.235951 0.184216 0.402739 0.83033 0.385164 162 162 171
0.276125 -0.452166 0.115981 0.230197 -0.282076 0.931365 143 147 165
0.104166 0.250952 0.160743 0.31465 0.867094 0.386191 151 151 160
0.279731 -0.606768 0.0832211 0.204131 0.415008 0.886623 140 146 168
0.260203 -0.531275 0.103845 0.166568 -0.362197 0.917098 121 130 154
0.202671 -0.149115 0.228514 0.262829 -0.27915 0.923578 151 155 168
0.0663276 0.276245 0.149333 0.576322 0.792634 0.198958 175 178 191
0.0931914 0.234389 0.217455 0.321005 0.805176 0.498646 162 167 183
0.15598 0.0773479 0.302331 0.641861 -0.138484 0.754213 124 131 150
0.233078 -0.406244 0.147224 0.337843 -0.308486 0.889212 127 134 154
0.238802 -0.466605 0.12295 0.3897 -0.216368 0.895164 145 150 167
0.180672 -0.0913718 0.251859 0.321255 -0.308219 0.895431 125 131 149
0.149954 -0.132412 0.256037 0.331536 -0.29958 0.894615 78 83 100
0.105865 0.123548 0.336209 0.719158 0.489361 0.493293 129 141 165
0.197783 -0.559296 0.11677 0.58278 -0.172917 0.794019 122 129 151
0.168754 -0.385543 0.177243 0.49716 -0.178604 0.849077 129 134 153
0.172096 -0.414909 0.169744 0.455536 -0.199764 0.867515 130 135 154
0.148344 -0.275546 0.216378 0.469905 -0.156596 0.868716 120 126 144
0.0756935 0.165783 0.320498 0.388546 0.68281 0.61871 188 192 205
0.113551 -0.115292 0.276791 0.36738 -0.201641 0.90795 125 129 147
-0.0147414 0.293043 0.163939 0.369564 0.675762 0.637784 172 177 194
0.0838342 0.0469799 0.323555 0.547214 -0.141032 0.825026 125 132 149
0.0418156 0.189811 0.311353 0.353526 0.79974 0.485218 155 163 181
-0.0209706 0.287425 0.186999 0.554741 0.789589 0.26232 162 168 183
-0.010092 0.259113 0.206921 0.827449 0.541916 0.147159 165 172 188
0.140557 -0.52378 0.16142 0.355234 -0.246439 0.901707 108 118 142
0.0162065 0.227968 0.293652 -0.0911853 0.719514 0.688466 165 171 190
0.0718553 0.0431846 0.33148 0.73221 -0.0735771 0.677093 99 106 124
0.1326 -0.577416 0.144262 0.375709 -0.238121 0.895623 85 94 120
0.085759 -0.12594 0.296706 0.699645 -0.129197 0.702713 131 137 155
0.0751747 -0.0658524 0.312885 0.485082 -0.193845 0.852713 134 140 157
0.0686558 -0.0558168 0.318622 0.499147 -0.201307 0.84281 129 136 155
-0.0364227 0.276264 0.225811 -0.157429 0.778966 0.606983 195 199 212
-0.0261631 0.265251 0.255435 0.461026 0.801269 0.381344 195 199 214
-0.0237937 0.26203 0.26442 0.596942 0.711223 0.371244 196 200 214
0.105105 -0.52942 0.169888 0.340302 -0.252074 0.905899 80 87 90
0.103506 -0.469307 0.184983 0.38462 -0.226455 0.894866 94 98 120
0.0892524 -0.50241 0.183026 0.264865 -0.277845 0.92339 55 66 44
0.0529269 -0.213567 0.276302 0.335723 -0.279769 0.899455 110 112 128
0.0412659 -0.154018 0.297446 0.442089 -0.25088 0.861171 109 111 127
0.0952101 -0.74183 0.106538 0.274592 -0.287741 0.917499 122 124 145
0.017939 0.0385707 0.359772 0.046523 -0.482593 0.874608 102 108 127
0.0573788 -0.373247 0.226775 0.313005 -0.284584 0.906112 144 145 159
0.068175 -0.536679 0.176866 0.151035 -0.203943 0.967262 76 100 40
0.0311239 -0.202993 0.289035 0.277835 -0.299701 0.912681 10 39 108
0.00697737 -0.0763637 0.335462 0.353069 -0.23547 0.905481 10 21 111
-0.032806 0.123885 0.381335 0.185466 0.188595 0.964383 17 35 136
0.0108095 -0.502546 0.199321 0.329696 -0.309904 0.891774 128 132 123
-0.0315409 -0.0712536 0.349416 0.211497 -0.109773 0.971195 10 19 107
-0.0226381 -0.303778 0.269116 0.17687 -0.262186 0.94867 27 33 73
-0.0355843 -0.267348 0.281502 0.287955 -0.391013 0.87418 95 113 151
-0.0626614 0.0758999 0.392062 0.273702 0.0818181 0.958328 30 39 62
-0.0527644 -0.0686752 0.351208 0.404079 -0.257215 0.877816 59 64 119
-0.145188 0.278356 0.288283 0.155226 0.825792 0.542193 136 142 126
-0.0364877 -0.685245 0.144771 -0.0820688 -0.27368 0.958313 120 114 112
-0.0535788 -0.439508 0.230742 0.162688 -0.332936 0.928809 108 109 120
-0.148753 0.26113 0.312642 0.199334 0.792359 0.576571 66 98 60
-0.0676815 -0.704424 0.135993 0.0752446 -0.272067 0.959332 30 38 60
-0.107296 0.152211 0.402113 0.277466 0.328808 0.902718 93 101 162
-0.0889839 0.0172756 0.391641 0.266312 -0.257989 0.92872 28 42 41
-0.169921 0.26806 0.309541 0.168141 0.844972 0.50769 145 162 134
-0.0869289 -0.52804 0.205789 0.113242 -0.219438 0.969033 130 128 139
-0.080264 -0.818733 0.0945952 0.373943 -0.288158 0.88155 89 90 108
-0.0996354 -0.449413 0.233554 0.119727 -0.339586 0.932924 51 33 68
-0.108611 -0.0592301 0.357385 -0.120788 -0.411055 0.903574 91 90 95
-0.176365 0.216322 0.383093 0.10478 0.754675 0.647678 135 135 146
-0.125849 -0.635541 0.165661 0.230873 -0.334526 0.913668 32 32 73
-0.181317 0.228501 0.367012 0.0904098 0.790717 0.605468 168 175 178
-0.145372 -0.158571 0.321295 0.133695 -0.279607 0.950761 114 114 121
-0.157404 0.202224 0.401404 0.0751303 0.463666 0.882819 112 116 131
-0.147086 -0.284053 0.295523 0.134642 -0.224108 0.965219 34 48 42
-0.285082 0.325262 0.23433 -0.0913576 0.910149 0.404082 180 184 198
-0.166459 -0.0542252 0.367635 0.261792 0.0794616 0.961848 48 51 70
-0.177703 -0.649456 0.162939 -0.484295 -0.0149123 0.874778 93 90 95
-0.175386 -0.744769 0.139258 0.048831 -0.271885 0.96109 101 106 127
-0.176647 -0.341577 0.281049 0.0755132 -0.332758 0.939984 38 32 68
-0.267594 0.288288 0.311194 0.333568 0.832701 0.441975 179 186 182
-0.192359 -0.175565 0.324318 0.178583 -0.234207 0.955644 98 102 117
-0.198707 0.173346 0.421102 0.313859 0.451491 0.835254 34 30 77
-0.184352 0.0252917 0.416959 0.368452 -0.348992 0.861654 12 21 109
-0.197859 -0.188355 0.321864 0.217665 -0.194023 0.956545 76 79 88
-0.305438 0.315465 0.27813 0.0438025 0.868561 0.493642 181 181 192
-0.209834 -0.0328202 0.379679 0.0975268 -0.426014 0.899445 36 45 69
-0.218246 -0.252777 0.317394 0.179218 -0.426554 0.886528 147 148 157
-0.342569 0.326703 0.24878 -0.081861 0.925455 0.369908 45 43 47
-0.334492 0.313003 0.278706 -0.0601144 0.863079 0.501478 175 174 182
-0.26087 -0.133242 0.360754 0.197565 -0.419296 0.886092 45 50 70
0.315996 0.353512 0.129363 0.799696 0.389122 0.457241 37 103 194
0.269882 0.42984 0.116788 -0.323163 0.74993 0.577211 174 172 178
0.383874 -0.043301 0.0398052 -0.0462448 -0.0832381 0.995456 163 167 191
0.35212 0.0340946 0.0714332 0.233649 -0.20341 0.950806 156 155 161
0.39654 -0.247144 -0.0252681 0.315519 -0.293112 0.902515 144 146 159
0.413198 -0.389112 -0.0899366 0.37179 -0.351986 0.858998 142 144 156
0.23002 0.205463 0.126737 0.852049 0.394631 0.343918 169 169 177
0.325673 -0.377901 0.0845578 0.806934 -0.0138284 0.59048 127 138 162
0.165706 0.210744 0.211708 0.349969 0.792054 0.500172 142 144 156
0.123654 0.230551 0.185415 0.421318 0.791284 0.443128 176 176 186
0.138876 0.204194 0.228675 0.171722 0.871076 0.460151 192 193 206
0.254299 -0.303878 0.167446 0.230977 -0.291975 0.928116 148 150 164
0.141119 0.189741 0.250753 0.10032 0.776631 0.621917 185 187 199
0.222848 -0.134029 0.224711 0.339453 -0.255751 0.905186 151 153 166
0.0911373 0.255574 0.163197 0.422999 0.842409 0.333797 128 132 146
0.0376057 0.302244 0.0960688 0.297091 0.936689 0.185338 197 198 209
0.0395701 0.299242 0.106793 0.283984 0.917181 0.279522 200 201 211
0.0845721 0.235903 0.225917 0.670387 0.525627 0.523735 161 166 182
0.175571 -0.0757006 0.269707 0.76482 -0.218788 0.605957 125 129 147
0.197038 -0.240166 0.206042 0.608612 -0.303599 0.733088 123 129 148
0.172794 -0.165884 0.235421 0.401736 -0.130674 0.906384 146 149 163
0.0976097 0.190839 0.277977 0.366666 0.776845 0.511925 162 168 186
0.117249 -0.105473 0.271755 0.658423 0.0917147 0.747039 126 131 149
-0.0110921 0.290113 0.178211 0.29821 0.886804 0.353058 173 177 191
-5.00604e-05 0.259699 0.228349 0.530793 0.7905 0.305566 171 176 192
-0.0346834 0.304191 0.16986 0.369624 0.857462 0.357963 111 116 132
0.0300267 0.203603 0.308311 0.498049 0.647563 0.576724 164 170 188
0.123424 -0.337415 0.218439 0.346499 -0.337219 0.875341 146 149 165
0.0999166 -0.179725 0.271465 0.507154 -0.208717 0.836201 148 150 165
0.0696976 -0.0795141 0.312455 0.377875 -0.194268 0.905246 124 130 150
0.0616705 -0.0216473 0.33243 0.603217 -0.171974 0.778816 122 129 147
-0.0350835 0.272713 0.25593 0.46268 0.818036 0.341679 194 196 209
-0.0278993 0.245878 0.284172 0.304146 0.794095 0.526221 196 199 211
0.0212965 0.0949453 0.372639 -0.101125 0.240003 0.965491 80 85 104
0.0283458 -0.0097083 0.34728 0.0137949 -0.494227 0.869223 130 133 147
0.0492396 -0.360621 0.232896 0.245656 -0.305829 0.919848 143 143 157
0.0246935 -0.240426 0.277267 0.247203 -0.37598 0.893045 8 19 106
-0.0460587 0.157507 0.374782 0.422137 0.375154 0.825264 19 35 149
0.00498275 -0.762155 0.118092 0.126791 -0.0986085 0.987016 121 122 130
-0.109721 0.216838 0.356556 0.370943 0.671873 0.641084 171 183 192
-0.1462 0.254469 0.321243 0.18442 0.784927 0.591506 62 111 70
-0.071418 -0.0213802 0.370768 0.146888 -0.353471 0.923841 150 150 152
-0.146415 0.236778 0.347809 0.215708 0.814664 0.538325 125 146 147
-0.0823118 -0.279464 0.289445 0.24484 -0.290261 0.925096 30 35 66
-0.109654 0.092495 0.409188 0.165275 0.00853616 0.98621 10 25 121
-0.100916 -0.00637314 0.385179 0.211995 -0.266233 0.940308 35 33 84
-0.130151 0.181522 0.404442 0.30775 0.325179 0.894175 88 95 117
-0.124724 0.149756 0.408761 0.248621 0.213676 0.944738 137 141 174
-0.0933125 -0.882984 0.0913745 0.0520801 0.11397 0.992118 101 104 116
-0.120903 0.116653 0.414603 0.247397 0.104628 0.963248 19 33 136
-0.219204 0.295787 0.275422 0.147627 0.876501 0.458205 22 34 122
-0.193221 0.258512 0.329926 0.0990745 0.78538 0.611033 82 65 71
-0.119679 0.04137 0.403219 0.224358 -0.0490192 0.973273 13 23 113
-0.157345 0.217749 0.380044 0.0484669 0.778592 0.625656 129 133 151
-0.143446 -0.050405 0.362657 0.250805 -0.35565 0.900339 105 106 119
-0.278181 0.322796 0.236901 0.283424 0.933545 0.219463 174 177 179
-0.14771 0.00883597 0.400911 0.173983 -0.473746 0.863304 57 70 124
-0.161102 -0.161241 0.322796 0.243183 -0.373721 0.895095 113 114 126
-0.178994 0.0370978 0.419527 0.571404 -0.210467 0.793222 13 22 106
-0.258079 0.263501 0.345837 0.279713 0.827142 0.487439 164 163 178
-0.220975 0.212538 0.392832 0.0164228 0.63289 0.774068 37 38 122
-0.19548 0.153002 0.426537 0.340814 0.288051 0.894914 16 28 130
-0.227452 0.179103 0.425387 0.475437 0.552696 0.68446 171 173 187
-0.321103 0.307703 0.290775 -0.117931 0.94297 0.311287 176 175 183
-0.229064 -0.156076 0.346161 0.211163 -0.462829 0.860929 98 97 106
-0.210722 0.0307802 0.433137 0.270012 -0.402318 0.874776 147 147 155
-0.244067 -0.0732834 0.381741 -0.0472698 -0.147517 0.987929 52 55 73
-0.332132 0.277158 0.331427 0.0793753 0.78651 0.612455 175 171 176
-0.274119 -0.0297026 0.400217 0.253635 -0.341427 0.90504 19 19 24
0.34672 0.0174778 0.0550727 -0.326149 -0.472533 0.818743 153 152 157
0.380481 -0.114169 0.0202887 0.371531 -0.171633 0.912419 152 153 164
0.395957 -0.284437 -0.0517249 -0.196467 -0.114821 0.973764 145 146 156
0.168836 0.21745 0.206801 0.178379 0.726586 0.663516 137 140 156
0.239833 -0.379532 0.149786 0.25241 -0.287775 0.923837 120 127 146
0.203022 -0.382188 0.166003 0.469621 -0.317894 0.82365 127 132 151
0.201395 -0.412068 0.154971 0.358773 -0.251721 0.898843 129 135 153
0.0845416 0.204592 0.269843 0.425761 0.712439 0.557816 168 173 191
0.168119 -0.178246 0.236401 0.37574 -0.136945 0.916551 82 88 107
0.17464 -0.234119 0.217655 0.724213 -0.219605 0.653672 124 128 148
0.0694343 0.0654886 0.334842 0.728742 -0.0864585 0.679308 114 121 140
-0.0673778 0.320351 0.16275 0.323155 0.91734 0.232504 199 199 209
-0.0406371 0.253471 0.275487 0.277723 0.800257 0.531469 196 198 210
0.059062 -0.431147 0.207213 0.144151 -0.359687 0.92187 29 42 127
-0.10688 0.307766 0.223487 0.214695 0.822533 0.526636 192 194 206
-0.00966202 -0.443202 0.221655 0.172724 -0.293288 0.940292 143 141 144
-0.138041 0.25752 0.313948 0.166287 0.80995 0.562432 81 115 67
-0.101078 0.177806 0.389731 0.456728 0.357315 0.814693 168 172 186
-0.0876361 -0.10145 0.33977 -0.193093 -0.368149 0.909494 24 24 48
-0.0783362 -0.333956 0.269784 0.148183 -0.369601 0.917299 120 120 129
-0.23343 0.338404 0.180812 0.156533 0.922859 0.351891 187 187 195
-0.0791318 -0.225929 0.307399 0.326814 -0.348329 0.878556 29 37 75
-0.100663 0.0160032 0.3945 0.240768 -0.250984 0.937571 50 39 54
-0.104286 -0.837959 0.092656 0.27057 -0.131145 0.953726 82 86 104
-0.10328 -0.758077 0.130521 0.0664549 -0.27501 0.959142 66 66 87
-0.1118 -0.428883 0.243588 0.165941 -0.314666 0.934585 41 35 77
-0.10847 -0.605769 0.181666 -0.0362364 -0.273807 0.961102 39 38 95
-0.149106 -0.0238518 0.378991 -0.140266 -0.402494 0.904613 109 108 115
-0.158042 0.153289 0.416751 0.26211 0.279793 0.923587 145 145 160
-0.155198 -0.052025 0.365141 0.261331 -0.169768 0.950202 60 63 82
-0.167259 -0.441421 0.243453 0.178257 -0.354834 0.917778 99 110 142
-0.279854 0.278732 0.335657 0.394089 0.89688 0.200752 186 187 198
0.404234 -0.122178 0.0118979 0.256374 -0.289969 0.922058 135 136 165
0.288905 0.281301 0.112723 -0.53628 -0.446449 0.716302 165 161 161
0.418998 -0.320908 -0.0631176 -0.277592 -0.441487 0.853248 150 155 174
0.147579 0.141988 0.292483 0.596366 0.251984 0.762137 189 192 204
0.0960691 0.138527 0.330341 0.31014 0.000240155 0.950691 169 174 191
0.152861 -0.409221 0.182982 0.646024 -0.141387 0.750108 86 95 116
-0.0387993 0.229584 0.317648 0.437348 0.793336 0.42349 159 165 184
-0.00972758 -0.426365 0.226482 0.122333 -0.102175 0.987216 143 140 131
-0.129913 0.261049 0.30693 0.159115 0.791668 0.589868 94 125 73
-0.0151432 -0.730324 0.129781 0.154465 -0.298565 0.941806 72 68 75
-0.066474 -0.302661 0.278755 0.241162 -0.210664 0.947345 105 104 117
-0.159783 0.224644 0.371788 0.0446324 0.860624 0.507281 143 145 160
-0.103521 -0.741648 0.135157 0.0811558 -0.152487 0.984967 62 66 89
-0.219555 -0.116495 0.36695 -0.00671826 -0.391114 0.920317 80 78 89
0.24039 0.115074 0.185902 0.715683 -0.318183 0.621737 198 204 222
0.142448 0.195293 0.239419 0.320617 0.828829 0.458526 197 199 211
0.243733 -0.234457 0.189926 0.304764 -0.263953 0.915121 143 145 159
0.114527 -0.201587 0.256931 0.589998 -0.209084 0.779863 108 115 133
0.0906149 -0.316242 0.231188 0.251658 -0.234588 0.938955 108 113 132
-0.0797495 0.266947 0.283261 0.218727 0.799704 0.559135 160 165 183
-0.128647 0.188914 0.398352 0.39345 0.433979 0.810469 87 97 121
-0.153686 -0.09562 0.349031 0.544541 -0.394144 0.740355 32 42 71
-0.188577 -0.115134 0.361026 0.318914 -0.44882 0.834779 60 65 88
-0.300628 0.268015 0.342109 0.381079 0.881547 0.278664 187 185 193
0.090529 -0.050327 0.300595 0.789506 -0.0132208 0.6136 110 116 133
0.0571498 -0.5933 0.160211 0.210661 -0.337764 0.917354 21 69 51
-0.129238 0.0891913 0.415213 0.312674 0.0847353 0.946073 18 23 90
-0.157807 -0.706254 0.147881 0.224043 -0.22568 0.948089 55 61 86
0.137045 0.122424 0.308654 0.591933 0.273219 0.758265 165 171 183
-0.056524 0.307501 0.182903 0.451571 0.842494 0.293748 198 199 209
-0.0824415 0.273473 0.274371 0.204142 0.809365 0.550685 173 177 192
