ply
format ascii 1.0
element vertex 313
property float x
property float y
property float z
property float nx
property float ny
property float nz
property uchar diffuse_red
property uchar diffuse_green
property uchar diffuse_blue
end_header
-0.34 -0.331783 0.0871766 1 0 6.12303e-17 3 77 162
-0.34 -0.31929 0.104392 1 0 6.12303e-17 3 77 161
-0.34 -0.28279 -0.0621741 1 0 6.12303e-17 148 220 247
-0.34 -0.283763 -0.0946055 1 0 6.12303e-17 255 255 255
-0.34 -0.279114 0.116056 1 0 6.12303e-17 3 77 162
-0.34 -0.276296 0.095106 1 0 6.12303e-17 3 77 162
-0.34 -0.278912 0.0573116 1 0 6.12303e-17 3 77 162
-0.34 -0.275234 0.076623 1 0 6.12303e-17 3 77 162
-0.34 -0.272593 0.00693717 1 0 6.12303e-17 255 255 255
-0.34 -0.273904 0.100454 1 0 6.12303e-17 3 77 162
-0.34 -0.273997 0.0725928 1 0 6.12303e-17 3 77 162
-0.34 -0.265641 0.0645914 1 0 6.12303e-17 255 255 255
-0.34 -0.262962 -0.0104298 1 0 6.12303e-17 165 191 221
-0.34 -0.263025 -0.0176731 1 0 6.12303e-17 157 185 217
-0.34 -0.263518 -0.0263577 1 0 6.12303e-17 255 255 255
-0.34 -0.264134 -0.0350089 1 0 6.12303e-17 255 255 255
-0.34 -0.264242 -0.0946792 1 0 6.12303e-17 255 255 255
-0.34 -0.258548 -0.0175149 1 0 6.12303e-17 244 247 250
-0.34 -0.253565 0.0646153 1 0 6.12303e-17 173 179 219
-0.34 -0.251867 0.0644317 1 0 6.12303e-17 173 179 219
-0.34 -0.248738 -0.0769364 1 0 6.12303e-17 255 254 254
-0.34 -0.245836 -0.0217391 1 0 6.12303e-17 255 255 255
-0.34 -0.243728 0.116746 1 0 6.12303e-17 178 182 217
-0.34 -0.2428 0.0477765 1 0 6.12303e-17 128 138 188
-0.34 -0.244264 -0.0401008 1 0 6.12303e-17 128 164 207
-0.34 -0.239319 0.0650245 1 0 6.12303e-17 0 17 112
-0.34 -0.233526 -0.0520477 1 0 6.12303e-17 255 255 255
-0.34 -0.231419 -0.0601666 1 0 6.12303e-17 255 255 255
-0.34 -0.22808 0.0182241 1 0 6.12303e-17 255 255 255
-0.34 -0.222224 0.0186786 1 0 6.12303e-17 253 253 253
-0.34 -0.222003 -0.0843576 1 0 6.12303e-17 61 60 60
-0.34 -0.219831 0.104862 1 0 6.12303e-17 200 199 221
-0.34 -0.219721 0.0619774 1 0 6.12303e-17 208 206 228
-0.34 -0.219031 0.0237426 1 0 6.12303e-17 244 242 246
-0.34 -0.21006 -0.069471 1 0 6.12303e-17 254 254 254
-0.34 -0.210173 -0.0992477 1 0 6.12303e-17 255 255 255
-0.34 -0.202584 -0.0672179 1 0 6.12303e-17 254 254 254
-0.34 -0.200131 0.102162 1 0 6.12303e-17 196 195 217
-0.34 -0.200204 0.0650681 1 0 6.12303e-17 206 205 227
-0.34 -0.18466 -0.062545 1 0 6.12303e-17 255 255 255
-0.34 -0.184118 -0.105725 1 0 6.12303e-17 255 255 255
-0.34 -0.177182 0.104599 1 0 6.12303e-17 198 196 218
-0.34 -0.177286 0.0623424 1 0 6.12303e-17 205 203 225
-0.34 -0.165686 -0.101385 1 0 6.12303e-17 0 0 0
-0.34 -0.159447 -0.0833445 1 0 6.12303e-17 13 48 103
-0.34 -0.146182 0.130733 1 0 6.12303e-17 10 34 128
-0.34 -0.145986 0.0367532 1 0 6.12303e-17 12 30 114
-0.34 -0.144935 -0.0706827 1 0 6.12303e-17 27 27 29
-0.34 -0.13564 0.115319 1 0 6.12303e-17 12 31 108
-0.34 -0.137182 -0.0423282 1 0 6.12303e-17 255 255 255
-0.34 -0.123534 0.0803205 1 0 6.12303e-17 2 2 2
-0.34 -0.122383 -0.0860564 1 0 6.12303e-17 7 7 7
-0.34 -0.112093 -0.106153 1 0 6.12303e-17 46 46 48
-0.34 -0.116244 0.12428 1 0 6.12303e-17 3 3 3
-0.34 -0.11663 0.0908706 1 0 6.12303e-17 2 2 2
-0.34 -0.116485 0.0570181 1 0 6.12303e-17 2 2 2
-0.34 -0.108033 0.0777476 1 0 6.12303e-17 255 203 85
-0.34 -0.105177 0.105558 1 0 6.12303e-17 214 156 38
-0.34 -0.101559 -0.0572274 1 0 6.12303e-17 30 31 33
-0.34 -0.0948498 0.123302 1 0 6.12303e-17 3 3 3
-0.34 -0.0940776 0.0737905 1 0 6.12303e-17 4 4 15
-0.34 -0.0819984 -0.0565139 1 0 6.12303e-17 2 2 3
-0.34 -0.0742223 -0.0782924 1 0 6.12303e-17 2 2 2
-0.34 -0.0626251 0.0395504 1 0 6.12303e-17 0 0 0
-0.34 -0.0495986 0.0518288 1 0 6.12303e-17 73 66 66
-0.34 -0.0463209 -0.00955702 1 0 6.12303e-17 255 255 255
-0.34 -0.0420162 0.0851137 1 0 6.12303e-17 233 236 238
-0.34 -0.0436259 -0.0824532 1 0 6.12303e-17 0 0 0
-0.34 -0.0315839 0.104897 1 0 6.12303e-17 87 90 88
-0.34 -0.0187051 0.1238 1 0 6.12303e-17 71 72 73
-0.34 -0.0187129 -0.00964794 1 0 6.12303e-17 255 255 255
-0.34 -0.0140754 0.0843617 1 0 6.12303e-17 195 200 201
-0.34 -0.0140061 -0.0740866 1 0 6.12303e-17 254 254 255
-0.34 -0.00203454 -0.00777978 1 0 6.12303e-17 255 255 255
-0.34 0.00189448 0.109419 1 0 6.12303e-17 9 8 10
-0.34 0.0144421 0.110685 1 0 6.12303e-17 7 9 10
-0.34 0.0175688 0.10952 1 0 6.12303e-17 6 7 9
-0.34 0.0190121 0.0679215 1 0 6.12303e-17 191 192 189
-0.34 0.0179315 0.0544317 1 0 6.12303e-17 6 6 8
-0.34 0.0322596 0.0419605 1 0 6.12303e-17 213 215 215
-0.34 0.0414829 0.0926303 1 0 6.12303e-17 167 161 144
-0.34 0.0400434 0.0325822 1 0 6.12303e-17 9 9 12
-0.34 0.0414495 -0.055073 1 0 6.12303e-17 170 152 142
-0.34 0.0415564 -0.0958291 1 0 6.12303e-17 157 138 130
-0.34 0.0443519 -0.0350272 1 0 6.12303e-17 255 255 255
-0.34 0.0510056 0.128399 1 0 6.12303e-17 5 5 5
-0.34 0.0518738 -0.119182 1 0 6.12303e-17 58 51 54
-0.34 0.070156 0.108546 1 0 6.12303e-17 3 3 6
-0.34 0.069182 -0.088106 1 0 6.12303e-17 255 255 254
-0.34 0.0705639 -0.110548 1 0 6.12303e-17 254 254 254
-0.34 0.0744616 -0.0353944 1 0 6.12303e-17 254 255 254
-0.34 0.0746449 -0.0521166 1 0 6.12303e-17 42 40 40
-0.34 0.0793451 0.0920342 1 0 6.12303e-17 233 229 224
-0.34 0.0824041 0.080415 1 0 6.12303e-17 138 145 170
-0.34 0.086755 -0.0991744 1 0 6.12303e-17 43 31 38
-0.34 0.0933419 -0.0358409 1 0 6.12303e-17 65 125 170
-0.34 0.0950568 -0.0820237 1 0 6.12303e-17 198 162 130
-0.34 0.10637 0.0966779 1 0 6.12303e-17 250 250 250
-0.34 0.112692 0.00532118 1 0 6.12303e-17 3 3 3
-0.34 0.115778 0.116118 1 0 6.12303e-17 0 0 0
-0.34 0.116176 -0.031526 1 0 6.12303e-17 254 254 254
-0.34 0.119876 0.0824859 1 0 6.12303e-17 119 53 27
-0.34 0.118896 -0.0789238 1 0 6.12303e-17 11 11 12
-0.34 0.124898 0.0185287 1 0 6.12303e-17 150 150 151
-0.34 0.124014 -0.123076 1 0 6.12303e-17 18 17 18
-0.34 0.125786 0.0704564 1 0 6.12303e-17 22 23 22
-0.34 0.129658 -0.100538 1 0 6.12303e-17 21 18 19
-0.34 0.141226 0.0282422 1 0 6.12303e-17 78 105 73
-0.34 0.140062 -0.126403 1 0 6.12303e-17 58 39 44
-0.34 0.143935 0.0986735 1 0 6.12303e-17 33 44 23
-0.34 0.14328 0.0479654 1 0 6.12303e-17 90 123 92
-0.34 0.145819 0.0628404 1 0 6.12303e-17 108 126 104
-0.34 0.148853 -0.0470031 1 0 6.12303e-17 16 16 15
-0.34 0.149648 -0.0941379 1 0 6.12303e-17 51 37 39
-0.34 0.151636 -0.0163515 1 0 6.12303e-17 254 255 255
-0.34 0.154623 -0.077979 1 0 6.12303e-17 45 37 40
-0.34 0.158765 0.0808899 1 0 6.12303e-17 255 255 255
-0.34 0.158886 0.0476273 1 0 6.12303e-17 255 255 255
-0.34 0.157703 -0.00485771 1 0 6.12303e-17 255 255 255
-0.34 0.1667 -0.104434 1 0 6.12303e-17 79 10 26
-0.34 0.175527 0.0623332 1 0 6.12303e-17 31 24 25
-0.34 0.173242 -0.125141 1 0 6.12303e-17 71 47 44
-0.34 0.190683 0.0794816 1 0 6.12303e-17 255 255 255
-0.34 0.194223 -0.122867 1 0 6.12303e-17 135 84 31
-0.34 0.195005 -0.0441402 1 0 6.12303e-17 36 14 22
-0.34 0.200782 -0.120634 1 0 6.12303e-17 188 141 59
-0.34 0.18244 0.126033 1 0 6.12303e-17 255 255 255
-0.34 0.211477 0.0820942 1 0 6.12303e-17 203 107 6
-0.34 0.213857 0.0410621 1 0 6.12303e-17 144 135 139
-0.34 0.215323 0.0129889 1 0 6.12303e-17 187 39 7
-0.34 0.217458 -0.00516908 1 0 6.12303e-17 255 255 255
-0.34 0.219439 -0.0583443 1 0 6.12303e-17 73 57 46
-0.34 0.226307 0.0284521 1 0 6.12303e-17 255 255 255
-0.34 0.229909 0.117174 1 0 6.12303e-17 251 179 109
-0.34 0.237743 0.0826443 1 0 6.12303e-17 155 157 149
-0.34 0.238332 0.00178503 1 0 6.12303e-17 254 255 255
-0.34 0.243038 0.0578528 1 0 6.12303e-17 19 18 23
-0.34 0.247528 0.0956606 1 0 6.12303e-17 255 255 255
-0.34 0.247756 0.0190496 1 0 6.12303e-17 206 78 38
-0.34 0.265762 0.0735776 1 0 6.12303e-17 178 178 181
-0.34 0.288305 0.0304823 1 0 6.12303e-17 255 255 255
-0.34 0.290549 0.0794895 1 0 6.12303e-17 87 57 48
-0.34 0.290015 0.0569211 1 0 6.12303e-17 112 119 109
-0.34 0.291253 0.0474618 1 0 6.12303e-17 93 84 78
-0.34 0.294892 0.0579322 1 0 6.12303e-17 52 76 151
-0.34 0.312852 0.0808086 1 0 6.12303e-17 15 15 15
-0.34 0.319751 0.0239393 1 0 6.12303e-17 255 255 255
-0.34 0.320762 -0.0399919 1 0 6.12303e-17 255 255 255
-0.34 0.319346 -0.111758 1 0 6.12303e-17 170 166 163
-0.34 0.327236 -0.0680384 1 0 6.12303e-17 255 255 255
-0.34 0.32734 -0.0844122 1 0 6.12303e-17 42 42 51
-0.34 -0.318614 0.0728434 1 0 6.12303e-17 3 77 162
-0.34 -0.319618 -0.0567975 1 0 6.12303e-17 255 255 255
-0.34 -0.300266 0.0909406 1 0 6.12303e-17 3 77 162
-0.34 -0.299824 0.0824228 1 0 6.12303e-17 3 77 162
-0.34 -0.291797 -0.0953051 1 0 6.12303e-17 255 255 255
-0.34 -0.284301 -0.0994808 1 0 6.12303e-17 255 255 255
-0.34 -0.283391 -0.0418075 1 0 6.12303e-17 255 255 255
-0.34 -0.276434 -0.0696062 1 0 6.12303e-17 128 213 246
-0.34 -0.260523 -0.0399418 1 0 6.12303e-17 60 116 182
-0.34 -0.257779 0.112876 1 0 6.12303e-17 0 20 99
-0.34 -0.257718 0.0917075 1 0 6.12303e-17 0 14 98
-0.34 -0.259426 0.0796652 1 0 6.12303e-17 201 202 235
-0.34 -0.258707 0.0574767 1 0 6.12303e-17 210 212 240
-0.34 -0.258246 0.0501702 1 0 6.12303e-17 0 6 99
-0.34 -0.258166 0.0183189 1 0 6.12303e-17 255 255 255
-0.34 -0.252874 -0.102825 1 0 6.12303e-17 126 164 207
-0.34 -0.238653 -0.123114 1 0 6.12303e-17 255 255 255
-0.34 -0.228405 0.125821 1 0 6.12303e-17 12 30 104
-0.34 -0.228376 0.0410238 1 0 6.12303e-17 10 28 111
-0.34 -0.219138 0.0839062 1 0 6.12303e-17 11 29 105
-0.34 -0.217713 0.108482 1 0 6.12303e-17 207 200 225
-0.34 -0.202872 0.119899 1 0 6.12303e-17 10 29 106
-0.34 -0.181597 0.0837242 1 0 6.12303e-17 14 32 108
-0.34 -0.181384 0.0391412 1 0 6.12303e-17 11 29 110
-0.34 -0.18248 -0.0836107 1 0 6.12303e-17 14 14 17
-0.34 -0.177999 0.127289 1 0 6.12303e-17 14 33 112
-0.34 -0.178374 0.0381975 1 0 6.12303e-17 13 29 111
-0.34 -0.168423 0.04179 1 0 6.12303e-17 12 30 114
-0.34 -0.142055 -0.0961708 1 0 6.12303e-17 16 16 18
-0.34 -0.137954 0.110625 1 0 6.12303e-17 10 32 115
-0.34 -0.138352 0.0575896 1 0 6.12303e-17 4 25 109
-0.34 -0.13832 -0.12301 1 0 6.12303e-17 255 255 255
-0.34 -0.103268 -0.0335544 1 0 6.12303e-17 255 255 255
-0.34 -0.0983862 0.056996 1 0 6.12303e-17 2 2 2
-0.34 -0.0861695 -0.0644176 1 0 6.12303e-17 37 36 33
-0.34 -0.0841135 -0.0636958 1 0 6.12303e-17 0 0 0
-0.34 -0.0788286 0.120622 1 0 6.12303e-17 232 236 235
-0.34 -0.0770144 0.0848397 1 0 6.12303e-17 39 47 145
-0.34 -0.0673411 0.0885153 1 0 6.12303e-17 221 223 225
-0.34 -0.0614495 0.112324 1 0 6.12303e-17 42 44 48
-0.34 -0.0590247 0.0698034 1 0 6.12303e-17 169 181 187
-0.34 -0.0564653 0.0331932 1 0 6.12303e-17 3 3 3
-0.34 -0.0556923 -0.0191857 1 0 6.12303e-17 253 253 253
-0.34 -0.0499327 -0.077835 1 0 6.12303e-17 7 7 8
-0.34 -0.048571 -0.0992661 1 0 6.12303e-17 5 5 5
-0.34 -0.0331546 0.0678397 1 0 6.12303e-17 24 23 28
-0.34 -0.0275222 0.00975302 1 0 6.12303e-17 3 3 3
-0.34 -0.0291815 -0.0298962 1 0 6.12303e-17 66 104 128
-0.34 -0.0210727 -0.108367 1 0 6.12303e-17 3 0 0
-0.34 -0.00155104 0.0307628 1 0 6.12303e-17 11 11 13
-0.34 0.00257812 0.101089 1 0 6.12303e-17 142 151 150
-0.34 0.00680194 -0.0497167 1 0 6.12303e-17 255 255 255
-0.34 0.010329 -0.0747583 1 0 6.12303e-17 146 133 134
-0.34 0.0458543 -0.11312 1 0 6.12303e-17 162 141 131
-0.34 0.0485292 0.0910237 1 0 6.12303e-17 200 199 190
-0.34 0.0509483 0.0876958 1 0 6.12303e-17 209 209 203
-0.34 0.0537173 0.108657 1 0 6.12303e-17 4 4 4
-0.34 0.0544989 0.0872395 1 0 6.12303e-17 203 203 198
-0.34 0.0567812 0.108365 1 0 6.12303e-17 4 4 4
-0.34 0.0567816 0.0673338 1 0 6.12303e-17 208 208 207
-0.34 0.0594875 0.0866126 1 0 6.12303e-17 203 201 196
-0.34 0.0650156 0.0420296 1 0 6.12303e-17 5 5 4
-0.34 0.0688032 -0.0936452 1 0 6.12303e-17 254 255 255
-0.34 0.0702519 -0.106964 1 0 6.12303e-17 255 255 255
-0.34 0.0732562 -0.0632193 1 0 6.12303e-17 38 36 40
-0.34 0.0828465 0.0655882 1 0 6.12303e-17 184 188 190
-0.34 0.0856779 -0.0155977 1 0 6.12303e-17 255 255 255
-0.34 0.10582 0.057694 1 0 6.12303e-17 11 15 18
-0.34 0.109875 0.117453 1 0 6.12303e-17 1 1 1
-0.34 0.120167 -0.0563312 1 0 6.12303e-17 38 35 36
-0.34 0.133101 0.045245 1 0 6.12303e-17 153 153 132
-0.34 0.141567 0.0606995 1 0 6.12303e-17 31 41 34
-0.34 0.14268 0.00824051 1 0 6.12303e-17 79 102 77
-0.34 0.148024 0.109422 1 0 6.12303e-17 23 32 25
-0.34 0.173489 0.0415195 1 0 6.12303e-17 255 255 255
-0.34 0.179252 0.0624024 1 0 6.12303e-17 14 14 12
-0.34 0.192587 0.00994556 1 0 6.12303e-17 255 255 255
-0.34 0.199736 -0.0171626 1 0 6.12303e-17 102 86 89
-0.34 0.202694 -0.0597276 1 0 6.12303e-17 201 27 37
-0.34 0.206681 -0.0832875 1 0 6.12303e-17 216 37 42
-0.34 0.215011 -0.113473 1 0 6.12303e-17 39 25 28
-0.34 0.215521 0.0623481 1 0 6.12303e-17 165 166 158
-0.34 0.22443 -0.0730469 1 0 6.12303e-17 41 26 34
-0.34 0.226696 -0.00568877 1 0 6.12303e-17 255 255 255
-0.34 0.227056 -0.051882 1 0 6.12303e-17 38 26 28
-0.34 0.228155 -0.0593174 1 0 6.12303e-17 40 25 30
-0.34 0.249526 0.103763 1 0 6.12303e-17 255 255 255
-0.34 0.258574 0.0418024 1 0 6.12303e-17 64 62 62
-0.34 0.266462 0.0260268 1 0 6.12303e-17 255 255 255
-0.34 0.273589 0.0892956 1 0 6.12303e-17 255 255 255
-0.34 0.279103 0.0499085 1 0 6.12303e-17 172 166 144
-0.34 0.298555 0.0792804 1 0 6.12303e-17 13 17 20
-0.34 0.316203 0.101858 1 0 6.12303e-17 255 255 255
-0.34 0.318442 -0.0696863 1 0 6.12303e-17 255 255 255
-0.34 0.323884 0.0453385 1 0 6.12303e-17 74 78 76
-0.34 -0.299684 0.0862549 1 0 6.12303e-17 3 77 162
-0.34 -0.290517 -0.037651 1 0 6.12303e-17 255 255 255
-0.34 -0.283127 -0.0711482 1 0 6.12303e-17 23 181 239
-0.34 -0.26988 0.0943636 1 0 6.12303e-17 0 74 160
-0.34 -0.259219 0.0960366 1 0 6.12303e-17 196 196 224
-0.34 -0.256177 -0.101395 1 0 6.12303e-17 156 180 216
-0.34 -0.253666 -0.0333769 1 0 6.12303e-17 251 252 253
-0.34 -0.252257 -0.0442739 1 0 6.12303e-17 223 232 243
-0.34 -0.200177 0.101624 1 0 6.12303e-17 195 192 215
-0.34 -0.199855 0.065152 1 0 6.12303e-17 206 205 227
-0.34 -0.198103 -0.0562916 1 0 6.12303e-17 255 255 255
-0.34 -0.19227 0.0348514 1 0 6.12303e-17 11 28 110
-0.34 -0.165587 0.0838948 1 0 6.12303e-17 14 32 109
-0.34 -0.162778 0.0430637 1 0 6.12303e-17 10 27 117
-0.34 -0.14739 0.0130546 1 0 6.12303e-17 255 255 255
-0.34 -0.138948 0.0990022 1 0 6.12303e-17 7 29 114
-0.34 -0.113219 0.0136558 1 0 6.12303e-17 2 2 2
-0.34 -0.111443 -0.025906 1 0 6.12303e-17 255 255 255
-0.34 -0.105802 -0.043902 1 0 6.12303e-17 254 254 254
-0.34 -0.0608443 -0.0162375 1 0 6.12303e-17 255 255 255
-0.34 -0.0423713 0.0279842 1 0 6.12303e-17 4 4 4
-0.34 -0.0279062 -0.0434401 1 0 6.12303e-17 68 68 64
-0.34 -0.014093 -0.0812565 1 0 6.12303e-17 255 255 255
-0.34 0.0274491 0.0802626 1 0 6.12303e-17 209 208 206
-0.34 0.0563008 -0.02308 1 0 6.12303e-17 255 255 255
-0.34 0.060907 -0.0609872 1 0 6.12303e-17 32 31 39
-0.34 0.0887517 -0.00678046 1 0 6.12303e-17 255 255 255
-0.34 0.0962172 0.0183718 1 0 6.12303e-17 3 3 3
-0.34 0.113042 -0.0211526 1 0 6.12303e-17 255 255 255
-0.34 0.121734 0.058448 1 0 6.12303e-17 76 80 77
-0.34 0.121861 -0.0609206 1 0 6.12303e-17 36 30 32
-0.34 0.166231 0.0366058 1 0 6.12303e-17 255 255 255
-0.34 0.177782 0.0909142 1 0 6.12303e-17 255 255 255
-0.34 0.192791 -0.0804323 1 0 6.12303e-17 148 43 55
-0.34 0.219011 0.104926 1 0 6.12303e-17 121 30 33
-0.34 0.235601 -0.00871024 1 0 6.12303e-17 255 255 255
-0.34 0.258246 0.102083 1 0 6.12303e-17 255 255 255
-0.34 0.274441 0.0247467 1 0 6.12303e-17 255 255 255
-0.34 0.278888 0.0241212 1 0 6.12303e-17 255 255 255
-0.34 -0.236358 -0.000834404 1 0 6.12303e-17 255 255 255
-0.34 -0.193658 0.0620454 1 0 6.12303e-17 206 204 226
-0.34 -0.220564 -0.00339493 1 0 6.12303e-17 255 255 255
-0.34 -0.219656 0.0450217 1 0 6.12303e-17 10 28 113
-0.34 -0.17764 0.0558598 1 0 6.12303e-17 216 214 235
-0.34 -0.17808 0.0471637 1 0 6.12303e-17 14 32 118
-0.34 -0.137292 -0.0832064 1 0 6.12303e-17 9 9 7
-0.34 -0.0697638 0.0745593 1 0 6.12303e-17 93 95 111
-0.34 -0.0458521 0.0178831 1 0 6.12303e-17 3 3 3
-0.34 -0.0460664 -0.0535189 1 0 6.12303e-17 0 0 0
-0.34 -0.0281171 0.0082734 1 0 6.12303e-17 3 3 3
-0.34 0.00415121 0.0323486 1 0 6.12303e-17 7 5 6
-0.34 0.0472344 -0.0612689 1 0 6.12303e-17 43 41 49
-0.34 0.0483064 0.0827435 1 0 6.12303e-17 214 214 212
-0.34 0.0550831 -0.0137628 1 0 6.12303e-17 255 255 255
-0.34 0.064061 0.0206335 1 0 6.12303e-17 3 4 4
-0.34 0.0792107 0.0173955 1 0 6.12303e-17 3 3 3
-0.34 0.134201 0.0625585 1 0 6.12303e-17 168 173 154
-0.34 0.172254 -0.0178418 1 0 6.12303e-17 255 255 255
-0.34 0.175832 -0.0770959 1 0 6.12303e-17 152 18 39
-0.34 0.195459 -0.037387 1 0 6.12303e-17 44 8 18
-0.34 0.204048 0.0566337 1 0 6.12303e-17 222 220 222
-0.34 0.264587 -0.0703178 1 0 6.12303e-17 255 255 255
-0.34 -0.0148568 0.0338381 1 0 6.12303e-17 9 9 11
-0.34 0.00822376 -0.0281555 1 0 6.12303e-17 255 255 255
-0.34 0.0127863 0.0234801 1 0 6.12303e-17 6 7 8
-0.34 0.104913 0.0270356 1 0 6.12303e-17 4 4 4
-0.34 -0.163697 -0.0113447 1 0 6.12303e-17 255 255 255
