ply
format ascii 1.0
element vertex 15
property float x
property float y
property float z
property float nx
property float ny
property float nz
property uchar diffuse_red
property uchar diffuse_green
property uchar diffuse_blue
end_header
0.025 -0.0469754 0.00977635 -1 0 6.12303e-17 36 67 191
0.025 -0.0394021 -0.0106118 -1 0 6.12303e-17 50 78 200
0.025 -0.0391148 0.00716027 -1 0 6.12303e-17 46 75 198
0.025 -0.0221936 -0.00580217 -1 0 6.12303e-17 31 58 190
0.025 -0.0223487 0.0118881 -1 0 6.12303e-17 52 65 185
0.025 -0.0223158 0.00298047 -1 0 6.12303e-17 40 66 191
0.025 -0.00811284 -0.00329255 -1 0 6.12303e-17 38 44 179
0.025 0.00794777 -0.00223096 -1 0 6.12303e-17 37 46 178
0.025 0.0409084 -0.0113842 -1 0 6.12303e-17 57 67 182
0.025 0.040631 -0.00358937 -1 0 6.12303e-17 57 56 183
0.025 0.0475364 0.00220339 -1 0 6.12303e-17 142 99 170
0.025 -0.0475055 -0.00439856 -1 0 6.12303e-17 26 61 194
0.025 -0.0206134 -0.00259986 -1 0 6.12303e-17 31 57 186
0.025 0.0283873 0.00573138 -1 0 6.12303e-17 41 48 179
0.025 -0.0345183 -0.0020196 -1 0 6.12303e-17 78 40 119
