ply
format ascii 1.0
element vertex 26
property float x
property float y
property float z
property float nx
property float ny
property float nz
property uchar diffuse_red
property uchar diffuse_green
property uchar diffuse_blue
end_header
-0.025 -0.0451878 -0.00969939 1 0 6.12303e-17 46 72 189
-0.025 -0.0436924 -0.00709954 1 0 6.12303e-17 44 69 188
-0.025 -0.0228724 -0.00264105 1 0 6.12303e-17 49 64 191
-0.025 -0.0211075 -0.0129828 1 0 6.12303e-17 68 69 182
-0.025 -0.0129789 -0.00859072 1 0 6.12303e-17 64 44 162
-0.025 0.00757456 -0.0120918 1 0 6.12303e-17 234 195 199
-0.025 0.00871227 -0.00620229 1 0 6.12303e-17 67 73 193
-0.025 0.0132414 -0.0122737 1 0 6.12303e-17 144 124 46
-0.025 0.020546 0.0052952 1 0 6.12303e-17 34 52 189
-0.025 0.021625 -0.00361431 1 0 6.12303e-17 66 79 202
-0.025 0.0221809 0.00497899 1 0 6.12303e-17 29 71 212
-0.025 0.0277935 0.0113388 1 0 6.12303e-17 52 75 211
-0.025 0.0313661 0.0028489 1 0 6.12303e-17 43 72 202
-0.025 0.0312362 0.00214091 1 0 6.12303e-17 62 40 165
-0.025 0.034014 0.00463978 1 0 6.12303e-17 43 46 178
-0.025 0.0432706 -0.00319394 1 0 6.12303e-17 47 61 185
-0.025 0.0488048 -0.00116983 1 0 6.12303e-17 70 85 200
-0.025 -0.0445756 0.00919993 1 0 6.12303e-17 168 144 201
-0.025 -0.0431442 0.000724025 1 0 6.12303e-17 18 62 192
-0.025 -0.0290375 -0.0067957 1 0 6.12303e-17 43 62 184
-0.025 -0.0275955 -0.00747467 1 0 6.12303e-17 49 47 168
-0.025 0.00838776 -0.00422102 1 0 6.12303e-17 60 70 192
-0.025 0.018112 0.00567162 1 0 6.12303e-17 43 49 190
-0.025 0.0193276 0.00277304 1 0 6.12303e-17 48 54 186
-0.025 0.0350311 -0.00998121 1 0 6.12303e-17 252 152 115
-0.025 0.0248702 0.00013179 1 0 6.12303e-17 56 47 176
