ply
format ascii 1.0
element vertex 236
property float x
property float y
property float z
property float nx
property float ny
property float nz
property uchar diffuse_red
property uchar diffuse_green
property uchar diffuse_blue
end_header
0.0122976 0.00356756 0.000651823 0.261968 0.0494787 -0.963808 115 125 231
0.0113619 0.00179287 8.76392e-05 0.292784 -0.0237398 -0.955884 152 159 222
0.0113947 0.000644759 3.63843e-06 0.0633078 0.171459 -0.983155 191 186 218
0.0113088 0.00374075 -0.000253102 -0.0897646 0.23396 -0.968093 75 99 211
0.0110589 0.000206595 -0.000242207 0.00635857 0.197472 -0.980288 73 93 198
0.00823362 -0.00192537 -0.00143965 0.338243 0.333865 -0.879844 42 55 153
0.00717597 0.00024512 -0.000909982 0.23676 0.109092 -0.965424 63 75 167
0.007061 0.00263898 -0.000639049 0.155054 0.246762 -0.956591 196 169 145
0.00681587 0.00510719 0.000147929 0.0274692 0.741129 -0.6708 172 32 32
0.00697852 0.000896682 -0.000885142 0.110604 0.166221 -0.979866 185 158 164
0.00674576 -0.000268747 -0.00108865 0.123669 0.263979 -0.956568 182 167 193
0.00631883 0.000128534 -0.00105372 0.0584694 0.161081 -0.985208 76 61 126
0.0062302 0.0051701 0.000175476 -0.0844194 0.74408 -0.662735 171 29 29
0.00629469 0.00407537 -0.00044971 -0.0384396 0.35299 -0.934837 187 111 119
0.00622532 0.00436705 -0.000325472 -0.0761121 0.482485 -0.872591 190 131 137
0.00617573 0.00465221 -0.000178067 -0.0811182 0.738057 -0.669844 184 110 113
0.00609729 0.000746296 -0.00098359 0.0768788 0.15853 -0.984356 195 175 182
0.00608872 0.00358579 -0.000552918 0.0624484 0.179191 -0.98183 192 102 104
0.00542366 1.50135e-05 -0.00112853 0.0330815 0.177021 -0.983651 69 54 121
0.00543572 0.00281746 -0.000699671 0.0308683 0.114308 -0.992965 197 181 189
0.00534803 -0.00196648 -0.00142465 0.0136581 0.180642 -0.983454 185 172 197
0.0051993 -0.00328495 -0.00137034 0.0164551 -0.229192 -0.973242 182 169 186
0.00435066 0.00432572 -0.000249238 -0.0301084 0.62531 -0.779795 147 134 169
0.00474343 -0.00310954 -0.00140039 -0.0145403 -0.163169 -0.986491 162 149 179
0.00419234 0.00510202 0.00034338 0.0943575 0.858054 -0.504817 183 170 183
0.00418085 0.000853096 -0.00102969 0.0183695 0.176735 -0.984087 180 166 190
0.00383787 0.000920051 -0.00101829 0.00305496 0.172299 -0.98504 78 65 128
0.00384517 0.00276088 -0.000725164 0.00628978 0.148445 -0.9889 68 56 122
0.0039562 0.0015071 -0.000925188 0.000534452 0.173994 -0.984746 76 63 131
0.003598 -0.001977 -0.0014949 -0.0780837 0.13987 -0.987086 186 171 193
0.00342728 0.00315956 -0.000651889 -0.00953635 0.161469 -0.986832 191 176 196
0.00327458 0.00165354 -0.0009065 0.023763 0.208753 -0.97768 171 157 188
0.00278821 0.00581143 0.00202766 0.205435 0.773719 -0.599295 158 149 180
0.00329251 -0.000361326 -0.00121384 0.0129191 0.112878 -0.993525 186 171 189
0.00288781 0.00014723 -0.00115455 0.050386 0.0723616 -0.996105 77 63 126
0.00249168 -0.00379266 -0.00126045 0.0545082 -0.367611 -0.928381 166 155 180
0.00245216 -0.00184457 -0.00148112 -0.00626628 0.152831 -0.988233 120 106 156
0.00209762 0.0051663 0.000752629 0.0559863 0.874413 -0.481941 91 83 144
0.00234527 -0.00140387 -0.00141448 0.0199931 0.175 -0.984365 50 38 113
0.0016654 0.00165302 -0.000925511 -0.0151664 0.124631 -0.992088 175 161 192
0.00138944 0.00413501 -2.38477e-05 -0.0981389 0.470735 -0.876799 189 176 190
0.00141516 0.0032246 -0.000639198 -0.0588915 0.211915 -0.975512 192 178 193
0.00099184 0.0048067 0.000455394 -0.107461 0.773855 -0.624179 47 52 136
0.00128262 -0.00376236 -0.00114767 0.0242278 -0.425073 -0.904834 178 165 187
0.00118225 0.00109155 -0.00103136 -0.00889594 0.220235 -0.975406 63 52 116
0.00124582 -0.000763307 -0.00130885 0.00745282 0.249578 -0.968325 186 171 192
0.000948622 0.000821561 -0.00106082 -0.0221486 0.182754 -0.982909 177 162 187
0.000621101 0.00368381 -0.000352154 -0.207889 0.606502 -0.767423 180 170 193
0.000392628 0.00451764 0.000411278 -0.0807744 0.682598 -0.726316 52 39 117
0.00055031 -0.00451351 -0.000799334 0.0114964 -0.516162 -0.856414 60 50 115
0.000241711 0.00404684 -8.07204e-05 -0.208471 0.51763 -0.829819 193 178 192
0.000460587 0.00310495 -0.00069007 -0.0719305 0.28365 -0.956226 190 177 193
0.000248755 0.000946803 -0.00104555 0.0675906 0.149434 -0.986458 127 127 171
0.000112248 0.00221447 -0.000848373 -0.00266173 0.058154 -0.998304 157 157 187
0.000276341 -0.00182685 -0.0014709 -0.0921831 0.0419232 -0.994859 187 172 189
-5.38488e-06 0.000647027 -0.0010596 -0.00370266 0.11062 -0.993856 174 168 192
-0.00046245 -0.00488332 -0.000526141 0.00697575 -0.59977 -0.800142 173 163 186
-0.000825854 0.00217654 -0.000876193 0.269084 0.189543 -0.944282 169 162 185
-0.000620318 -0.0013491 -0.00140126 0.0486674 0.165035 -0.985086 184 172 191
-0.00113336 -0.00401877 -0.00104785 -0.00679425 -0.449321 -0.893344 179 167 186
-0.00159575 -0.00340347 -0.00132855 0.0106267 -0.420011 -0.907457 179 167 184
-0.00165111 -0.000404766 -0.00115487 0.123466 -0.00705734 -0.992324 184 171 187
-0.0020149 -0.00409542 -0.000996123 -0.00150682 -0.410064 -0.912056 46 53 131
-0.00374726 0.00174977 -0.000839955 0.147669 0.201264 -0.968343 57 69 113
-0.00390379 0.00114961 -0.000960857 -0.00592847 0.200224 -0.979733 64 73 98
-0.00528222 9.45321e-05 -0.00110521 -0.0392943 0.131852 -0.990491 48 67 157
-0.0053102 0.0049832 0.0010028 -0.0874288 0.807623 -0.583181 51 68 141
-0.0048983 -0.00320602 -0.00139411 0.069727 -0.130195 -0.989034 176 136 120
-0.00516976 -0.00248769 -0.00152994 0.0664058 -0.0161188 -0.997662 175 156 163
-0.00575035 0.00397189 0.000423009 -0.0888452 0.745608 -0.660436 75 86 103
-0.0051709 0.0027775 -0.00064061 -0.0366119 0.286481 -0.957386 67 78 116
-0.0054425 0.00248527 -0.000691637 -0.0356901 0.260762 -0.964743 52 69 146
-0.00614433 0.00380988 -2.99291e-05 0.000704881 0.59191 -0.806004 118 112 41
-0.006396 0.000597761 -0.00101452 0.0111697 0.206081 -0.978471 105 103 55
-0.00664437 -0.00138017 -0.00132468 -0.022718 0.206121 -0.978263 183 138 123
-0.0068617 0.00282884 -0.000649208 0.115032 0.331737 -0.936332 49 68 156
-0.007922 -0.000568243 -0.00118055 0.00227796 0.185579 -0.982627 164 146 146
-0.00828957 0.00156037 -0.000791795 0.00268878 0.184474 -0.982833 127 123 59
-0.00883805 0.00200705 -0.000691013 -0.00171363 0.203785 -0.979014 55 66 106
-0.00984133 -0.00150896 -0.00122731 -0.0166208 0.21951 -0.975468 165 86 59
-0.0120758 0.00421137 0.000538821 -0.0440109 0.869709 -0.491599 43 62 130
-0.0117134 -0.000384561 -0.000983627 -0.0595773 0.0693572 -0.995811 162 128 111
-0.0123192 0.00297615 -0.000226232 -0.0762828 0.514896 -0.853852 40 56 114
-0.0122359 0.00146361 -0.000603557 -0.0756838 0.181791 -0.98042 49 60 142
-0.0133435 -0.000533306 -0.000894119 -0.114456 0.16428 -0.979751 154 119 81
0.00953449 -6.30325e-05 -0.000661348 -0.0324645 0.572981 -0.818926 144 154 189
0.00744646 0.00483521 -9.70226e-05 0.00165808 0.54974 -0.835334 189 172 164
0.00763468 0.00107349 -0.000651293 0.320753 -0.0259321 -0.946807 47 68 173
0.0075893 -0.000392952 -0.00147301 -0.544432 0.0127285 -0.838709 45 69 180
0.00732541 -0.00186302 -0.00148982 -0.471787 0.171958 -0.864781 200 184 198
0.00700733 0.00390329 -0.000437191 -0.11025 0.459192 -0.881469 198 177 160
0.00657283 0.00499019 -2.21341e-05 0.00032927 0.752357 -0.658755 177 67 70
0.00669457 -0.00100675 -0.00120185 0.144864 0.149794 -0.978048 65 52 124
0.00630249 -0.00272176 -0.00140911 0.110287 0.0136391 -0.993806 57 44 113
0.00603094 -0.000810021 -0.00126045 0.0113709 0.186325 -0.982423 51 38 119
0.00554151 -0.00172002 -0.00137203 0.0307684 0.190071 -0.981288 188 174 194
0.00553599 0.00483924 -8.49184e-05 -0.0739898 0.651179 -0.755309 169 65 56
0.00579584 0.00174861 -0.000829971 0.113986 0.149703 -0.982139 174 36 36
0.00495818 -0.0012814 -0.00136048 0.0719054 0.104675 -0.991904 55 43 117
0.00474502 -0.0025224 -0.00144943 0.017395 -0.0420482 -0.998965 49 37 110
0.00418222 -0.00410586 -0.00100265 -0.0480208 -0.454813 -0.889291 43 57 150
0.00443483 -0.000847053 -0.00130416 -0.0103899 0.226114 -0.974045 46 34 116
0.00310077 0.00571176 0.0019322 0.210673 0.799293 -0.562804 198 186 196
0.00383312 0.00361155 -0.000470961 -0.134214 0.255452 -0.957461 50 38 118
0.0038062 -0.00351848 -0.00128971 -0.0166256 -0.281286 -0.95948 174 162 188
0.00363222 0.00247462 -0.000785423 0.0173574 0.131491 -0.991166 73 60 125
0.00281764 0.00113036 -0.00101261 0.00484565 0.170462 -0.985353 48 37 114
0.00315381 -0.00400808 -0.00105306 0.0142198 -0.568288 -0.822707 48 39 115
0.00312131 -0.00262068 -0.00144841 -0.0350925 -0.109471 -0.99337 49 37 111
0.00273921 0.00448748 -0.000193712 -0.114191 0.439445 -0.890981 178 165 183
0.00265337 0.00471646 0.000277897 -0.0101629 0.737866 -0.674871 193 179 191
0.00261915 0.00272528 -0.000738272 0.0201431 0.198021 -0.97999 169 155 189
0.00248634 0.00211353 -0.000813565 0.0210098 0.176795 -0.984023 53 40 114
0.00256807 -0.00226017 -0.00146381 0.0540225 -0.00499557 -0.998527 153 139 171
0.00177748 -0.0043593 -0.000894057 0.0187033 -0.422216 -0.906302 46 36 110
0.00164245 -0.00308976 -0.00138608 0.00187223 -0.248776 -0.968559 55 42 109
0.00137642 -0.00220557 -0.00148833 0.0375615 -0.0380688 -0.998569 189 173 189
0.00123789 0.000179663 -0.00115759 0.00362934 0.109298 -0.994002 62 49 116
0.000770882 -0.00126612 -0.00143027 0.0375502 0.17966 -0.983012 50 38 114
0.000255148 0.00189422 -0.00089888 0.0191003 0.0783644 -0.996742 181 170 190
0.000204096 0.0028319 -0.000754652 -0.0489273 0.171382 -0.983989 172 169 194
0.000208545 -0.00214152 -0.00148108 -0.049507 0.0539511 -0.997316 189 173 187
-0.000121107 0.00420135 0.000129705 -0.0562402 0.531622 -0.845113 187 175 192
-0.000466717 9.05405e-05 -0.00113261 -0.10336 0.109032 -0.98865 139 145 186
-0.000495641 -0.000744775 -0.00129819 0.0267421 0.172067 -0.984722 173 166 190
-0.000729367 -0.00102206 -0.00135356 -0.0593618 0.108493 -0.992323 163 160 188
-0.000824109 0.00286206 -0.000790866 0.187375 0.260904 -0.947005 182 171 187
-0.00188132 0.00502879 0.000905965 -0.0266983 0.798843 -0.600947 184 170 183
-0.00214705 -0.00502419 -0.0004479 0.027111 -0.66635 -0.745146 163 155 176
-0.00373605 -0.00356002 -0.00123066 0.0206957 -0.293127 -0.955849 120 105 122
-0.00436638 0.00306033 -0.000549612 -0.0350483 0.306939 -0.951084 102 104 83
-0.00464944 0.00386731 1.09307e-05 -0.0437584 0.606895 -0.793576 122 118 44
-0.00416762 -0.00217579 -0.00151462 -0.150722 8.85449e-05 -0.988576 43 54 143
-0.00442359 -0.00255901 -0.00142938 0.0585072 -0.0852646 -0.994639 49 60 136
-0.00457474 0.000957406 -0.000968864 -0.0393021 0.177521 -0.983332 130 122 44
-0.00455856 0.00198673 -0.000820964 -0.00811856 0.163997 -0.986428 125 119 47
-0.00475337 0.00315225 -0.000535419 -0.0640328 0.256218 -0.964496 85 88 70
-0.00505487 -0.00167768 -0.00140348 0.0314306 0.184145 -0.982397 50 64 154
-0.00512096 -0.000723854 -0.00126895 0.0299486 0.123101 -0.991942 173 162 180
-0.00580726 0.00419398 0.000696983 -0.07474 0.790629 -0.607716 85 91 74
-0.00590312 -0.00011135 -0.00114833 -0.00839229 0.227027 -0.973852 51 67 158
-0.00622749 0.00409584 0.000207467 -0.0343967 0.605163 -0.795359 117 112 31
-0.00599118 0.000893496 -0.000945891 0.0140363 0.196865 -0.98033 117 111 45
-0.00591121 -0.00166503 -0.00141729 -0.0197578 0.212631 -0.976933 182 145 137
-0.00595283 0.00191657 -0.000788021 0.0518691 0.204988 -0.97739 108 105 48
-0.00741254 2.29187e-05 -0.0010845 -0.0387278 0.157767 -0.986717 42 62 164
-0.00810417 0.0022789 -0.000644886 -0.00713994 0.190633 -0.981635 125 120 53
-0.00866595 -0.00373203 -0.00113499 0.0509846 -0.285088 -0.957145 162 38 23
-0.00854351 0.000251552 -0.00104343 -0.00106231 0.181632 -0.983366 161 151 170
-0.00871734 0.00167068 -0.000767381 0.0200418 0.204419 -0.978679 111 109 61
-0.00881758 0.00270388 -0.000549333 -0.0389445 0.268048 -0.962618 83 87 55
-0.00863833 -0.00296967 -0.00132081 0.0229655 -0.101481 -0.994573 166 131 83
-0.00924139 0.00209732 -0.00069134 0.0288696 0.226677 -0.973542 93 95 54
-0.00955475 0.00287629 -0.000493562 -0.032198 0.266546 -0.963284 40 60 137
-0.00954458 -0.00306217 -0.00129752 -0.0264106 -0.136529 -0.990284 147 51 30
-0.0103221 0.00128728 -0.000713236 -0.0812615 0.183173 -0.979717 40 59 153
-0.0131196 -0.00466726 -0.000816227 0.0867049 -0.057677 -0.994563 156 81 41
-0.0131338 0.0026604 -0.000228455 0.0191726 0.290445 -0.9567 150 143 173
-0.0142497 -0.00184092 -0.000681416 -0.148003 0.402922 -0.903189 155 107 58
0.011661 0.00269553 0.000466663 0.777843 0.026111 -0.627915 233 225 242
0.0106868 -0.000277398 -0.000507624 0.412309 -0.114303 -0.903845 56 81 195
0.0106023 0.00141654 -6.73157e-05 0.536729 -0.0928728 -0.838628 52 78 191
0.00945421 0.000463762 -0.000595491 0.402706 0.250675 -0.880335 156 161 188
0.00925782 -0.00188963 -0.00114437 0.13093 0.111483 -0.985104 199 185 202
0.00776211 -0.00409071 -0.000858664 0.0759939 -0.255423 -0.963838 182 168 185
0.0075902 0.00278427 -0.000474942 0.133221 0.348589 -0.927759 196 181 194
0.00723923 -0.00245445 -0.00148805 -0.298062 0.0606602 -0.952617 194 179 191
0.00656191 -0.0037562 -0.00118335 0.0780966 -0.327266 -0.9417 183 170 185
0.00636317 -0.000897643 -0.00123784 0.0342809 0.192061 -0.980784 49 37 120
0.00504091 0.00412541 -0.000469245 -0.146852 0.599051 -0.787129 193 177 186
0.00473568 0.00105329 -0.000969285 0.0566708 0.196442 -0.978877 192 177 193
0.00440627 0.000207341 -0.0011236 -0.00520061 0.153945 -0.988066 60 46 119
0.00433664 0.00233416 -0.000694383 0.136659 0.210369 -0.968023 193 178 191
0.00414681 -0.00173929 -0.00148033 0.00180844 0.0246341 -0.999695 192 177 192
0.00359617 0.00477344 0.000374221 -0.207235 0.77997 -0.590508 45 35 119
0.00371984 0.00124649 -0.000963445 0.0233936 0.169611 -0.985234 48 36 116
0.00334891 -0.00424136 -0.000835399 0.0683301 -0.592005 -0.803033 53 65 159
0.00303462 -0.000649518 -0.00122381 0.00344278 0.2723 -0.962206 192 177 192
0.00227954 0.00368236 -0.000453342 -0.00336576 0.42382 -0.905741 50 38 116
0.00200553 0.00251316 -0.000785648 -0.00497288 0.169461 -0.985524 67 55 129
0.00128889 0.00355221 -0.000547036 0.0234654 0.327556 -0.94454 187 174 191
0.000827759 0.00116598 -0.00100524 -0.0102916 0.187076 -0.982291 153 139 174
0.000371981 -0.00526362 -0.000183326 0.0721884 -0.683453 -0.726416 188 176 191
0.000440882 -0.000235243 -0.00121552 -0.00267048 0.149269 -0.988793 150 135 169
-0.000793237 -0.00331862 -0.00132325 -0.0480715 -0.332023 -0.942046 155 141 168
-0.00284496 -0.00419056 -0.000959648 -0.00144013 -0.510273 -0.860011 57 62 120
-0.00432318 0.00125851 -0.000942827 0.00944256 0.217542 -0.976005 112 106 40
-0.00543389 0.0045619 0.000687943 -0.1011 0.78857 -0.606577 57 73 126
-0.00542105 0.00045178 -0.00105992 -0.0681745 0.17659 -0.981921 70 79 96
-0.00611378 0.00126072 -0.000891702 -0.000146558 0.21312 -0.977026 80 84 66
-0.00606472 0.00348192 -0.000273629 -0.00120634 0.567143 -0.823619 88 93 78
-0.00975775 -0.00422405 -0.000979134 0.0213335 -0.395976 -0.918012 166 130 65
-0.00966322 0.00114321 -0.000801177 -0.0424716 0.183079 -0.982181 37 57 149
-0.011689 0.00204562 -0.000465721 -0.0208244 0.309066 -0.950812 38 58 163
-0.0145015 0.00218199 -0.000283711 -0.332605 -0.156274 -0.930028 32 35 111
-0.0144904 -0.00448996 -0.000985507 0.265343 -0.250127 -0.931145 159 149 172
-0.0143172 0.000674665 -0.00084383 0.491718 0.387747 -0.779657 139 128 157
0.0109125 0.000766294 -0.000337748 0.549734 0.0424259 -0.834261 62 84 189
0.00824531 -0.00098332 -0.00113119 0.178199 0.0844173 -0.980366 47 69 178
0.00546446 -0.00229247 -0.00145068 -0.0119489 0.050877 -0.998633 90 76 135
0.00432551 -0.000523858 -0.00122355 0.0229771 0.11705 -0.99286 73 60 125
0.00344107 0.00432712 -0.000291124 0.0124156 0.413702 -0.910328 124 109 155
0.00166319 0.000734005 -0.00108694 0.0198188 0.172719 -0.984772 124 112 157
0.00140363 -0.00501074 -0.000453214 0.0515396 -0.524531 -0.84983 169 157 181
0.00146741 -0.00342958 -0.00128288 -0.00609864 -0.371127 -0.928562 152 139 173
0.000656139 -0.00353036 -0.00124007 0.00533674 -0.300346 -0.953815 168 155 183
1.48101e-05 0.00512273 0.000876772 0.0433846 0.883047 -0.467275 74 77 154
-0.000502177 0.00329509 -0.00069283 -0.0781963 0.452649 -0.888253 185 175 190
-0.00094673 -0.000987731 -0.0013539 0.0476968 0.166291 -0.984923 159 158 189
-0.00437853 0.00154057 -0.000890785 -0.0553894 0.163944 -0.984913 126 118 42
-0.00736187 0.0049862 0.000451877 0.530866 0.813677 -0.236879 42 60 121
-0.00715307 0.000732722 -0.00101431 -0.0760467 0.191796 -0.978484 41 63 165
-0.0119809 -0.00481128 -0.000676067 0.312709 -0.645233 -0.697056 154 130 91
-0.0115885 0.000487678 -0.000720193 -0.0977138 0.235852 -0.966864 158 121 33
-0.0125476 0.0041864 0.000135596 0.0555962 0.197067 -0.978813 39 63 169
-0.0141339 -0.00158033 -0.000467154 0.597743 -0.320158 -0.734984 155 119 54
0.010215 -0.00382696 -0.0014796 0.175037 -0.606695 -0.775424 39 62 170
0.00819739 0.00390764 -0.000391817 -0.0713034 -0.271478 -0.959799 204 191 205
0.00633383 0.00571738 0.000908876 -0.106418 0.704773 -0.701406 48 66 157
0.0045351 0.00260786 -0.000700948 0.045016 0.0844265 -0.995412 192 177 191
0.0022416 0.00092907 -0.00104659 0.00508421 0.156518 -0.987662 66 53 120
-0.000127032 0.00328285 -0.00083221 -0.078499 0.453989 -0.887543 146 150 185
-0.00184775 -0.00173377 -0.00146104 -0.0302518 0.113241 -0.993107 189 175 189
-0.00329659 0.0048329 0.000572922 -0.240274 0.735627 -0.633341 43 62 162
-0.00442305 -0.000394837 -0.00118764 0.0460581 0.137849 -0.989382 52 69 162
-0.0056343 -0.00452269 -0.000905778 0.0255571 -0.308495 -0.950882 167 105 38
-0.0102009 0.00258704 -0.00052105 -0.189138 0.246459 -0.950519 41 61 139
-0.0110851 -0.00236028 -0.00111718 -0.219244 0.390541 -0.894097 147 28 24
-0.0127501 -0.00419823 -0.00104891 -0.101391 -0.320177 -0.941916 160 122 56
-0.0129724 0.000463171 -0.000738134 -0.0905741 0.155732 -0.983638 149 107 54
0.00419443 -0.00348911 -0.0013062 -0.0319482 -0.245724 -0.968814 165 155 182
0.00199952 0.00559122 0.0014049 0.194215 0.78272 -0.591294 44 52 140
0.00177138 0.00526407 0.000882232 0.153507 0.763898 -0.626815 44 50 133
-0.0125534 0.000415925 -0.00076656 -0.0666452 0.226058 -0.971831 155 117 36
0.00621939 0.00325102 -0.000559556 0.0954249 0.211552 -0.972698 197 117 123
0.00304153 -0.00153366 -0.00143019 -0.00845383 0.136582 -0.990593 126 110 157
