ply
format ascii 1.0
element vertex 516
property float x
property float y
property float z
property float nx
property float ny
property float nz
property uchar diffuse_red
property uchar diffuse_green
property uchar diffuse_blue
end_header
0.188911 -0.116022 -1 0 0 1 0 125 197
0.286184 -0.113995 -1 0 0 1 17 23 21
-0.278878 -0.110983 -1 0 0 1 132 132 132
-0.266506 -0.109056 -1 0 0 1 255 255 255
0.172158 -0.104722 -1 0 0 1 0 125 197
0.193489 -0.0975166 -1 0 0 1 0 125 197
0.201074 -0.0945175 -1 0 0 1 255 255 255
-0.312295 -0.093402 -1 0 0 1 255 255 255
-0.279516 -0.096836 -1 0 0 1 94 94 92
-0.259574 -0.0941671 -1 0 0 1 255 255 255
0.0981748 -0.0936509 -1 0 0 1 255 255 255
0.215984 -0.0950576 -1 0 0 1 255 255 255
-0.130588 -0.0917146 -1 0 0 1 255 255 255
0.0766763 -0.0916284 -1 0 0 1 255 255 255
-0.166348 -0.0904113 -1 0 0 1 255 255 255
0.150357 -0.0831133 -1 0 0 1 255 255 255
-0.0411028 -0.0898559 -1 0 0 1 255 255 255
-0.081559 -0.087994 -1 0 0 1 255 255 255
0.0546247 -0.0878589 -1 0 0 1 255 255 255
-0.158668 -0.0864871 -1 0 0 1 255 255 255
-0.119824 -0.0852879 -1 0 0 1 120 183 228
-0.0474104 -0.0859789 -1 0 0 1 255 255 255
0.0746196 -0.0887813 -1 0 0 1 255 255 255
0.0874464 -0.0850683 -1 0 0 1 0 125 197
-0.185552 -0.0833036 -1 0 0 1 255 255 255
0.109841 -0.084655 -1 0 0 1 0 125 197
-0.290533 -0.0827631 -1 0 0 1 81 81 84
-0.20402 -0.0828079 -1 0 0 1 255 255 255
0.0101385 -0.0823301 -1 0 0 1 255 255 255
0.156091 -0.0826563 -1 0 0 1 255 255 255
-0.260108 -0.0780943 -1 0 0 1 226 223 217
-0.0298624 -0.076566 -1 0 0 1 0 125 197
0.275352 -0.0754976 -1 0 0 1 20 27 21
0.29786 -0.0756539 -1 0 0 1 20 32 23
-0.212174 -0.0736601 -1 0 0 1 120 183 228
-0.196516 -0.0729249 -1 0 0 1 118 182 227
0.0697069 -0.0739743 -1 0 0 1 255 255 255
0.0971346 -0.0741699 -1 0 0 1 255 255 255
0.118343 -0.074228 -1 0 0 1 255 255 255
0.132585 -0.0740787 -1 0 0 1 255 255 255
0.173972 -0.0742125 -1 0 0 1 254 254 254
-0.154839 -0.0725421 -1 0 0 1 255 255 255
-0.140786 -0.0727964 -1 0 0 1 255 255 255
-0.111563 -0.0729208 -1 0 0 1 255 255 255
-0.0964141 -0.0724582 -1 0 0 1 255 255 255
-0.067024 -0.0724078 -1 0 0 1 255 255 255
-0.0528193 -0.0726324 -1 0 0 1 255 255 255
0.162808 -0.0782575 -1 0 0 1 125 189 225
-0.174185 -0.0692115 -1 0 0 1 255 255 255
0.0043872 -0.068383 -1 0 0 1 255 255 255
0.166369 -0.0689677 -1 0 0 1 255 255 255
-0.300822 -0.0666293 -1 0 0 1 122 122 122
-0.278271 -0.0652068 -1 0 0 1 90 90 90
0.170683 -0.0652926 -1 0 0 1 255 255 255
-0.277603 -0.0623576 -1 0 0 1 91 91 91
-0.203918 -0.0617084 -1 0 0 1 255 255 255
-0.24444 -0.0566752 -1 0 0 1 236 233 227
-0.163187 -0.0612936 -1 0 0 1 132 189 230
-0.0305621 -0.0611655 -1 0 0 1 0 124 196
-0.181698 -0.0586524 -1 0 0 1 113 179 226
-0.135363 -0.0587122 -1 0 0 1 116 181 227
-0.114746 -0.0581867 -1 0 0 1 203 226 244
-0.0716885 -0.0584974 -1 0 0 1 238 246 251
-0.0467477 -0.0591942 -1 0 0 1 115 180 227
-0.125747 -0.0568448 -1 0 0 1 255 255 255
-0.0815334 -0.056639 -1 0 0 1 255 255 255
-0.0382698 -0.0571018 -1 0 0 1 255 255 255
-0.168761 -0.0547535 -1 0 0 1 255 255 255
0.0100233 -0.0544648 -1 0 0 1 255 255 255
0.0529701 -0.0552234 -1 0 0 1 255 255 255
0.24886 -0.0490885 -1 0 0 1 222 210 175
0.248827 -0.0481415 -1 0 0 1 225 208 178
0.287174 -0.0426339 -1 0 0 1 157 159 89
-0.311059 -0.0409944 -1 0 0 1 56 58 58
0.257737 -0.0391564 -1 0 0 1 242 240 141
-0.294064 -0.0377142 -1 0 0 1 106 106 106
0.274776 -0.0328391 -1 0 0 1 211 209 206
-0.0129015 -0.0298215 -1 0 0 1 255 255 255
0.256825 -0.0289592 -1 0 0 1 217 212 210
-0.308674 -0.0286023 -1 0 0 1 232 227 221
-0.26695 -0.0284005 -1 0 0 1 233 230 221
-0.0853833 -0.0274994 -1 0 0 1 255 254 255
0.0120718 -0.0280083 -1 0 0 1 255 254 255
0.0296589 -0.0283122 -1 0 0 1 255 255 255
0.052693 -0.0273679 -1 0 0 1 254 254 254
0.0562696 -0.0279676 -1 0 0 1 255 255 254
-0.280914 -0.0267478 -1 0 0 1 212 209 204
0.256453 -0.0265628 -1 0 0 1 223 221 228
0.309169 -0.0268084 -1 0 0 1 232 229 222
-0.0663047 -0.0229319 -1 0 0 1 255 255 255
0.292257 -0.0249552 -1 0 0 1 239 236 229
-0.294595 -0.0222714 -1 0 0 1 232 229 222
-0.276509 -0.0177919 -1 0 0 1 237 236 230
-0.286871 -0.0164911 -1 0 0 1 235 234 229
-0.026062 -0.016073 -1 0 0 1 255 255 255
0.0492015 -0.0120425 -1 0 0 1 255 255 254
-0.104635 -0.0112702 -1 0 0 1 254 254 255
-0.0699294 -0.0108148 -1 0 0 1 255 255 255
0.239199 -0.0109135 -1 0 0 1 255 255 255
0.275997 -0.0105387 -1 0 0 1 249 248 243
0.259111 -0.00830655 -1 0 0 1 255 255 255
-0.0853118 -0.00554716 -1 0 0 1 255 255 255
0.0197449 -0.00654472 -1 0 0 1 206 211 220
0.282226 -0.00649671 -1 0 0 1 249 248 245
0.0869109 -0.00392543 -1 0 0 1 255 255 255
-0.272774 0.00164739 -1 0 0 1 255 255 255
-0.0256329 0.000496851 -1 0 0 1 255 255 255
0.268151 0.000630764 -1 0 0 1 52 52 52
0.296037 0.00117489 -1 0 0 1 255 255 255
0.181421 0.00204979 -1 0 0 1 11 11 11
0.187151 0.00210511 -1 0 0 1 248 248 248
0.192631 0.00156672 -1 0 0 1 210 210 210
0.251164 0.00213012 -1 0 0 1 106 106 106
0.290722 0.00225335 -1 0 0 1 255 255 255
0.307975 0.00286862 -1 0 0 1 246 246 246
-0.0931889 0.00362683 -1 0 0 1 40 56 125
-0.078086 0.00416718 -1 0 0 1 41 56 124
0.0425878 0.00201472 -1 0 0 1 252 252 249
-0.255852 0.00522259 -1 0 0 1 255 255 255
-0.198907 0.00614861 -1 0 0 1 255 255 255
0.0946603 0.00607914 -1 0 0 1 199 201 220
-0.3083 0.00822873 -1 0 0 1 201 212 226
-0.0557921 0.00940844 -1 0 0 1 255 255 255
0.152328 0.0105562 -1 0 0 1 203 203 203
0.237986 0.0101158 -1 0 0 1 255 255 255
0.12085 0.010397 -1 0 0 1 10 10 10
0.149393 0.0107126 -1 0 0 1 213 213 213
0.18999 0.0102616 -1 0 0 1 255 255 255
0.233282 0.0113224 -1 0 0 1 255 255 255
0.259692 0.010597 -1 0 0 1 254 254 254
0.276378 0.0106587 -1 0 0 1 255 255 255
0.293886 0.0106916 -1 0 0 1 255 255 255
0.299522 0.0104464 -1 0 0 1 255 255 255
0.00815885 0.0127203 -1 0 0 1 255 255 255
0.288864 0.0125708 -1 0 0 1 255 255 255
-0.0763968 0.01498 -1 0 0 1 255 255 255
0.31677 0.0138897 -1 0 0 1 255 255 255
-0.264038 0.0159966 -1 0 0 1 137 163 192
-0.184727 0.0154871 -1 0 0 1 230 235 241
-0.300303 0.0173543 -1 0 0 1 255 255 255
-0.160098 0.0193487 -1 0 0 1 46 94 145
-0.285452 0.0158554 -1 0 0 1 255 255 255
-0.184486 0.0212529 -1 0 0 1 235 239 244
-0.20406 0.0252502 -1 0 0 1 255 255 255
-0.303502 0.0285489 -1 0 0 1 255 255 255
-0.256311 0.0283757 -1 0 0 1 255 255 255
-0.238428 0.0294513 -1 0 0 1 255 255 255
-0.226479 0.0297181 -1 0 0 1 255 255 255
-0.209152 0.0302412 -1 0 0 1 255 255 255
-0.186959 0.0295924 -1 0 0 1 255 255 255
-0.246767 0.0333768 -1 0 0 1 255 255 255
-0.181561 0.0338915 -1 0 0 1 255 255 255
0.278653 0.036465 -1 0 0 1 2 106 179
0.297548 0.0366311 -1 0 0 1 2 106 179
-0.298932 0.0376892 -1 0 0 1 255 255 255
-0.211244 0.0393165 -1 0 0 1 132 129 130
0.314328 0.0377168 -1 0 0 1 1 106 179
-0.217386 0.0404682 -1 0 0 1 254 254 254
-0.260716 0.0413277 -1 0 0 1 50 45 46
-0.256307 0.0413215 -1 0 0 1 240 239 240
-0.229425 0.0418593 -1 0 0 1 254 254 254
-0.210931 0.0421307 -1 0 0 1 86 82 82
-0.194946 0.0417227 -1 0 0 1 255 255 255
0.0904474 0.0543893 -1 0 0 1 255 255 255
0.0258612 0.0544321 -1 0 0 1 255 255 255
0.0455526 0.0544189 -1 0 0 1 255 255 255
0.127127 0.0579767 -1 0 0 1 255 255 255
-0.304512 0.0624822 -1 0 0 1 255 255 255
-0.0400563 0.0626965 -1 0 0 1 0 110 173
-0.022116 0.0626424 -1 0 0 1 0 110 172
-0.00449608 0.0623772 -1 0 0 1 0 110 173
0.0163073 0.0625161 -1 0 0 1 0 109 172
0.100581 0.0626064 -1 0 0 1 0 110 173
0.117966 0.0621687 -1 0 0 1 0 110 172
0.135903 0.0626068 -1 0 0 1 0 109 173
-0.270463 0.0642764 -1 0 0 1 255 255 255
0.0357894 0.0625812 -1 0 0 1 0 110 173
0.0551484 0.0626853 -1 0 0 1 0 110 173
0.0806104 0.0627948 -1 0 0 1 0 109 172
0.00590123 0.0677186 -1 0 0 1 255 255 255
0.155688 0.070215 -1 0 0 1 254 254 254
-0.298102 0.0730672 -1 0 0 1 12 12 12
-0.28003 0.0719433 -1 0 0 1 12 12 12
-0.0309907 0.0728445 -1 0 0 1 255 255 255
0.109541 0.0728281 -1 0 0 1 255 255 255
0.279841 0.0723007 -1 0 0 1 1 106 181
0.296419 0.0722934 -1 0 0 1 2 106 179
-0.00236328 0.076815 -1 0 0 1 0 110 172
0.0142412 0.0767952 -1 0 0 1 0 110 173
-0.278542 0.0797836 -1 0 0 1 13 13 13
0.270573 0.0803421 -1 0 0 1 255 255 255
0.305526 0.0804922 -1 0 0 1 253 253 254
-0.0219867 0.0829727 -1 0 0 1 0 110 173
0.0654175 0.0816612 -1 0 0 1 255 255 255
0.119023 0.0826409 -1 0 0 1 0 110 172
0.129945 0.0818443 -1 0 0 1 255 255 255
0.252421 0.0821261 -1 0 0 1 255 255 255
-0.253083 0.0859673 -1 0 0 1 255 255 255
0.00582952 0.0858123 -1 0 0 1 255 255 255
0.278602 0.0859674 -1 0 0 1 255 255 255
0.293806 0.0862295 -1 0 0 1 255 255 255
-0.300145 0.0890325 -1 0 0 1 13 13 13
0.0161519 0.0923176 -1 0 0 1 0 109 172
0.0357819 0.0914184 -1 0 0 1 0 110 173
0.0808303 0.091385 -1 0 0 1 0 110 173
-0.00465163 0.0919291 -1 0 0 1 0 110 173
0.25664 0.0938298 -1 0 0 1 255 255 255
-0.292171 0.0976758 -1 0 0 1 255 255 255
-0.274948 0.0978561 -1 0 0 1 255 255 255
-0.249046 0.0992192 -1 0 0 1 255 255 255
-0.0530731 0.102318 -1 0 0 1 255 255 255
0.0258647 0.0999804 -1 0 0 1 255 255 255
0.0455353 0.100031 -1 0 0 1 255 255 255
0.0903097 0.1 -1 0 0 1 255 255 255
0.0728522 0.100221 -1 0 0 1 255 255 255
-0.284078 0.103323 -1 0 0 1 255 255 255
0.248997 0.102951 -1 0 0 1 255 255 255
0.313181 0.110356 -1 0 0 1 87 152 194
-0.286421 0.104811 -1 0 0 1 255 255 255
-0.280749 0.105215 -1 0 0 1 255 255 255
-0.269298 0.104875 -1 0 0 1 255 255 255
-0.247778 0.103717 -1 0 0 1 255 255 255
-0.0963494 0.104903 -1 0 0 1 255 255 255
-0.0824806 0.104232 -1 0 0 1 255 255 255
-0.173836 0.105691 -1 0 0 1 255 255 255
-0.156365 0.105529 -1 0 0 1 255 255 255
-0.113177 0.104973 -1 0 0 1 255 255 255
-0.0448475 0.107682 -1 0 0 1 255 255 255
0.215385 0.111681 -1 0 0 1 255 255 255
0.219165 0.111144 -1 0 0 1 255 255 255
-0.289358 0.114055 -1 0 0 1 94 94 94
-0.160706 0.112794 -1 0 0 1 203 203 203
-0.126786 0.113448 -1 0 0 1 255 255 255
-0.0745794 0.113223 -1 0 0 1 255 255 255
-0.0640472 0.11348 -1 0 0 1 255 255 255
0.239824 0.113578 -1 0 0 1 255 255 255
0.272166 0.114 -1 0 0 1 255 255 255
0.309044 0.113421 -1 0 0 1 209 223 233
0.00149167 0.116891 -1 0 0 1 255 255 255
0.0153271 0.116684 -1 0 0 1 255 255 255
0.0314192 0.11635 -1 0 0 1 255 255 255
0.0442747 0.117001 -1 0 0 1 255 255 255
0.0785693 0.116769 -1 0 0 1 255 255 255
0.0952245 0.116771 -1 0 0 1 255 255 255
0.227278 0.116625 -1 0 0 1 255 255 255
0.276883 0.11579 -1 0 0 1 255 255 253
0.284189 0.115877 -1 0 0 1 221 234 242
0.0625666 0.118597 -1 0 0 1 255 255 255
-0.173108 0.119757 -1 0 0 1 255 255 255
-0.128637 0.12006 -1 0 0 1 255 255 255
0.206274 -0.113328 -1 0 0 1 255 255 255
-0.283158 -0.101024 -1 0 0 1 133 133 133
0.28635 -0.0996997 -1 0 0 1 68 36 43
0.212412 -0.0957764 -1 0 0 1 202 228 243
-0.256301 -0.091964 -1 0 0 1 254 254 254
-0.0453115 -0.0931118 -1 0 0 1 255 255 255
0.180839 -0.0923174 -1 0 0 1 223 238 247
0.0546547 -0.0904022 -1 0 0 1 255 255 255
-0.00310185 -0.0890312 -1 0 0 1 255 255 255
0.303651 -0.0900928 -1 0 0 1 241 244 235
0.268559 -0.0883892 -1 0 0 1 233 228 228
-0.288768 -0.0863183 -1 0 0 1 140 138 150
-0.179719 -0.0884949 -1 0 0 1 124 185 228
-0.178476 -0.0803998 -1 0 0 1 255 255 255
0.0407452 -0.0807467 -1 0 0 1 15 132 200
0.209158 -0.0767582 -1 0 0 1 0 125 197
-0.148274 -0.0722757 -1 0 0 1 255 255 255
-0.126059 -0.0718577 -1 0 0 1 235 244 251
-0.105137 -0.0721748 -1 0 0 1 255 255 255
-0.0820199 -0.0723137 -1 0 0 1 229 241 249
-0.0601598 -0.0722635 -1 0 0 1 255 255 255
0.0167162 -0.071816 -1 0 0 1 0 124 196
0.0736128 -0.0723586 -1 0 0 1 255 255 255
-0.296949 -0.0695846 -1 0 0 1 101 101 101
-0.189453 -0.0706704 -1 0 0 1 157 203 236
0.126168 -0.0701252 -1 0 0 1 255 255 255
0.192706 -0.0701692 -1 0 0 1 0 125 197
0.0321969 -0.0683492 -1 0 0 1 255 255 255
-0.0316442 -0.0648518 -1 0 0 1 0 124 196
0.0177803 -0.0555329 -1 0 0 1 255 255 255
-0.201477 -0.058807 -1 0 0 1 255 255 255
-0.312998 -0.0574718 -1 0 0 1 232 229 221
-0.125708 -0.054484 -1 0 0 1 255 255 255
0.270823 -0.0503727 -1 0 0 1 22 33 24
0.303333 -0.0510346 -1 0 0 1 25 35 25
-0.275323 -0.0464873 -1 0 0 1 121 78 22
-0.258086 -0.042464 -1 0 0 1 54 57 54
-0.0678939 -0.0295859 -1 0 0 1 255 255 255
-0.265744 -0.0227415 -1 0 0 1 232 227 221
-0.0433512 -0.0229849 -1 0 0 1 255 255 255
-0.11518 -0.0181011 -1 0 0 1 41 55 125
0.126371 -0.0157686 -1 0 0 1 248 248 248
0.240802 -0.01445 -1 0 0 1 255 255 255
0.164136 -0.0116743 -1 0 0 1 255 255 255
0.072963 -0.0109007 -1 0 0 1 255 255 255
0.076342 -0.0115408 -1 0 0 1 255 255 255
0.0387814 -0.00850937 -1 0 0 1 255 255 255
0.0437506 -0.00999093 -1 0 0 1 255 255 255
0.220582 -0.0100601 -1 0 0 1 255 255 255
0.0545096 -0.00705175 -1 0 0 1 255 255 255
0.196767 -0.00806513 -1 0 0 1 255 255 255
0.210763 -0.00828834 -1 0 0 1 255 255 255
-0.126324 -0.00656087 -1 0 0 1 255 255 255
-0.0434306 -0.00315662 -1 0 0 1 40 54 124
-0.0430022 -0.00152296 -1 0 0 1 26 44 115
0.175666 0.00101162 -1 0 0 1 255 255 255
0.198753 0.00110753 -1 0 0 1 59 59 59
0.243376 0.00112312 -1 0 0 1 213 213 213
0.272069 0.00101249 -1 0 0 1 134 134 134
-0.0883474 0.000149307 -1 0 0 1 65 75 127
-0.203244 0.00356412 -1 0 0 1 255 255 255
0.207026 -0.00226486 -1 0 0 1 204 204 204
-0.187342 0.00592063 -1 0 0 1 255 254 254
-0.157057 0.00562429 -1 0 0 1 255 255 255
0.222767 0.00487112 -1 0 0 1 193 193 193
0.163823 0.0123204 -1 0 0 1 255 255 255
0.202025 0.0124137 -1 0 0 1 255 255 255
0.210487 0.0123106 -1 0 0 1 255 255 255
0.2256 0.0122025 -1 0 0 1 255 255 255
-0.295959 0.0141833 -1 0 0 1 255 255 255
-0.307134 0.016732 -1 0 0 1 254 254 254
-0.247895 0.0167581 -1 0 0 1 255 255 255
-0.240669 0.0164285 -1 0 0 1 255 255 255
-0.192128 0.0166298 -1 0 0 1 254 254 254
-0.168502 0.0170798 -1 0 0 1 116 148 182
0.105407 0.0171486 -1 0 0 1 255 255 255
-0.219681 0.0181496 -1 0 0 1 68 110 156
-0.213948 0.0179056 -1 0 0 1 80 120 162
-0.175766 0.0177961 -1 0 0 1 255 255 255
-0.145597 0.0182979 -1 0 0 1 255 255 255
-0.0724577 0.0162548 -1 0 0 1 255 255 255
-0.25601 0.0186065 -1 0 0 1 255 255 255
-0.153057 0.0217542 -1 0 0 1 252 252 252
-0.285104 0.0251634 -1 0 0 1 255 255 255
-0.275628 0.0263344 -1 0 0 1 253 253 254
-0.252118 0.0281068 -1 0 0 1 255 255 255
-0.26004 0.0290633 -1 0 0 1 255 255 255
-0.242842 0.0294345 -1 0 0 1 255 255 255
-0.284479 0.0314037 -1 0 0 1 255 255 255
-0.251468 0.0314381 -1 0 0 1 255 255 255
-0.233044 0.0314791 -1 0 0 1 255 255 255
-0.181176 0.038272 -1 0 0 1 255 255 255
0.260239 0.0380233 -1 0 0 1 2 106 178
-0.272922 0.0402447 -1 0 0 1 219 219 219
-0.246226 0.05188 -1 0 0 1 255 255 255
-0.260932 0.0536754 -1 0 0 1 255 255 255
0.00663821 0.055851 -1 0 0 1 255 255 255
-0.0148618 0.0555739 -1 0 0 1 255 255 255
0.00551448 0.0580466 -1 0 0 1 255 255 254
-0.0267238 0.0602208 -1 0 0 1 30 122 176
0.11388 0.0601849 -1 0 0 1 40 130 179
-0.294764 0.0626436 -1 0 0 1 255 255 255
0.139722 0.0678066 -1 0 0 1 2 109 171
-0.020282 0.0725077 -1 0 0 1 0 110 173
0.120337 0.0715812 -1 0 0 1 0 110 173
0.0673793 0.078932 -1 0 0 1 255 255 255
0.246832 0.082307 -1 0 0 1 255 255 255
-0.279336 0.0836505 -1 0 0 1 13 13 13
-0.265217 0.0835928 -1 0 0 1 13 13 13
0.102193 0.0848445 -1 0 0 1 0 110 173
-0.039073 0.0850245 -1 0 0 1 0 110 173
0.148933 0.0852544 -1 0 0 1 0 108 171
0.269705 0.0854613 -1 0 0 1 255 255 255
0.056491 0.0908825 -1 0 0 1 0 110 173
-0.017757 0.0932357 -1 0 0 1 255 255 255
-0.0596563 0.0960141 -1 0 0 1 255 255 255
0.262641 0.0957353 -1 0 0 1 212 233 245
0.290482 0.0960977 -1 0 0 1 61 131 177
0.300231 0.096062 -1 0 0 1 126 173 203
-0.312136 0.0990824 -1 0 0 1 255 255 255
-0.153782 0.100847 -1 0 0 1 255 255 255
-0.106821 0.10228 -1 0 0 1 255 255 255
0.00613767 0.100354 -1 0 0 1 255 255 255
-0.202881 0.103076 -1 0 0 1 255 255 255
-0.170503 0.103166 -1 0 0 1 255 255 255
-0.0735541 0.102394 -1 0 0 1 255 255 255
0.245181 0.102815 -1 0 0 1 255 255 255
0.270229 0.102588 -1 0 0 1 46 122 174
-0.107432 0.103611 -1 0 0 1 255 255 255
-0.045465 0.111364 -1 0 0 1 255 255 255
0.140785 0.111102 -1 0 0 1 255 255 255
-0.297961 0.112664 -1 0 0 1 93 93 93
-0.212489 0.111907 -1 0 0 1 239 239 239
-0.0803872 0.1117 -1 0 0 1 141 141 141
-0.071127 0.111843 -1 0 0 1 79 79 79
0.146936 0.112482 -1 0 0 1 255 255 255
0.19596 0.112405 -1 0 0 1 255 255 255
0.224855 0.114072 -1 0 0 1 255 255 255
0.292077 0.113576 -1 0 0 1 127 174 210
0.115483 0.114905 -1 0 0 1 255 255 255
0.171544 0.115361 -1 0 0 1 255 255 255
0.195844 0.114869 -1 0 0 1 255 255 255
0.256245 0.114293 -1 0 0 1 254 254 251
-0.0429869 -0.0995187 -1 0 0 1 255 255 255
0.145549 -0.100572 -1 0 0 1 255 255 255
0.214541 -0.0995622 -1 0 0 1 255 255 255
-0.273248 -0.0962348 -1 0 0 1 158 158 158
0.267217 -0.0893302 -1 0 0 1 253 249 247
0.0114856 -0.0880132 -1 0 0 1 255 255 255
-0.251224 -0.0830574 -1 0 0 1 251 251 249
-0.300231 -0.0793971 -1 0 0 1 0 0 1
-0.170363 -0.0797809 -1 0 0 1 202 226 244
-0.125629 -0.0782388 -1 0 0 1 255 255 255
-0.081522 -0.0765247 -1 0 0 1 255 255 255
-0.0356346 -0.0768426 -1 0 0 1 214 234 246
-0.208277 -0.0757122 -1 0 0 1 164 206 236
0.199023 -0.0732812 -1 0 0 1 0 125 197
-0.125734 -0.0682871 -1 0 0 1 235 244 251
-0.0814494 -0.0682227 -1 0 0 1 255 255 255
0.0545141 -0.0689528 -1 0 0 1 255 255 255
0.0729038 -0.059267 -1 0 0 1 255 255 255
0.159496 -0.0578973 -1 0 0 1 255 255 255
0.0311028 -0.0548569 -1 0 0 1 255 255 255
-0.199821 -0.0523737 -1 0 0 1 255 255 255
0.0977183 -0.0516979 -1 0 0 1 255 255 255
-0.125037 -0.0489548 -1 0 0 1 255 255 255
-0.262467 -0.0446485 -1 0 0 1 121 124 148
-0.303296 -0.0419693 -1 0 0 1 32 32 32
0.286582 -0.034651 -1 0 0 1 138 137 135
0.00444857 -0.0303465 -1 0 0 1 255 255 255
-0.0359283 -0.0257899 -1 0 0 1 255 255 255
0.236141 -0.0202917 -1 0 0 1 255 255 255
0.167982 -0.0185349 -1 0 0 1 255 255 255
-0.00971891 -0.011809 -1 0 0 1 253 254 250
0.0998829 -0.00753853 -1 0 0 1 255 255 255
-0.255682 -0.00233654 -1 0 0 1 255 255 255
-0.0853744 -0.00301677 -1 0 0 1 255 255 251
-0.00884152 -0.00306161 -1 0 0 1 191 197 210
0.186409 0.00137193 -1 0 0 1 0 0 0
-0.103086 0.013997 -1 0 0 1 255 255 255
0.259584 0.0136107 -1 0 0 1 255 255 255
0.264643 0.0146901 -1 0 0 1 255 255 255
-0.272538 0.0160804 -1 0 0 1 255 255 254
-0.0236955 0.0142283 -1 0 0 1 255 255 255
0.0118191 0.0162785 -1 0 0 1 255 255 255
-0.124477 0.0207068 -1 0 0 1 255 255 255
0.102736 0.0205854 -1 0 0 1 255 255 255
0.167057 0.0189977 -1 0 0 1 255 255 255
-0.297931 0.0235888 -1 0 0 1 255 255 255
-0.0847037 0.0218962 -1 0 0 1 255 255 255
-0.0800894 0.0219474 -1 0 0 1 255 255 255
0.288316 0.0242292 -1 0 0 1 255 255 255
-0.175822 0.0376461 -1 0 0 1 255 255 255
0.0682248 0.0515354 -1 0 0 1 255 255 255
0.126541 0.0514636 -1 0 0 1 255 255 255
0.245387 0.056681 -1 0 0 1 255 255 255
-0.270124 0.0800539 -1 0 0 1 0 0 0
-0.239846 0.0927351 -1 0 0 1 255 255 255
-0.0643799 0.0911768 -1 0 0 1 255 255 255
-0.0195328 0.0972053 -1 0 0 1 255 255 255
0.00267977 -0.0925384 -1 0 0 1 255 255 255
-0.244279 -0.082365 -1 0 0 1 255 255 255
-0.204055 -0.0816654 -1 0 0 1 255 255 255
-0.0238978 -0.0820505 -1 0 0 1 255 255 255
0.0980409 -0.0773137 -1 0 0 1 255 255 255
-0.172422 -0.0723856 -1 0 0 1 255 255 255
-0.0235016 -0.0714932 -1 0 0 1 255 255 255
0.0411977 -0.0707757 -1 0 0 1 255 255 255
-0.104428 -0.0529851 -1 0 0 1 255 255 255
0.0754254 -0.05033 -1 0 0 1 255 255 255
0.124782 -0.0508326 -1 0 0 1 255 255 255
0.158582 -0.0499739 -1 0 0 1 255 255 255
-0.197713 -0.0443647 -1 0 0 1 255 255 255
0.0629767 -0.0443415 -1 0 0 1 255 255 255
-0.0777591 -0.0401591 -1 0 0 1 255 255 255
-0.0911198 -0.0373264 -1 0 0 1 255 255 255
0.104542 -0.035067 -1 0 0 1 255 255 255
-0.0613747 -0.0275565 -1 0 0 1 255 254 255
0.231623 -0.0287549 -1 0 0 1 255 255 255
-0.153972 -0.0102103 -1 0 0 1 255 255 255
-0.146636 -0.0110682 -1 0 0 1 255 255 255
0.000861294 -0.00925389 -1 0 0 1 249 252 253
-0.293102 -0.00482249 -1 0 0 1 252 251 250
-0.244379 -0.0068989 -1 0 0 1 255 255 255
0.200577 -0.00168442 -1 0 0 1 238 238 238
-0.203169 -0.000833057 -1 0 0 1 255 255 255
0.13422 -0.000225075 -1 0 0 1 124 124 124
0.20064 0.00375129 -1 0 0 1 5 5 5
-0.161949 0.0149931 -1 0 0 1 167 187 208
-0.0630482 0.0178395 -1 0 0 1 255 255 255
0.23094 0.0218968 -1 0 0 1 255 255 255
-0.20366 0.0280897 -1 0 0 1 255 255 255
-0.0396513 0.0338196 -1 0 0 1 255 255 255
-0.0491239 0.0293451 -1 0 0 1 255 255 255
0.230141 0.0328072 -1 0 0 1 255 255 255
-0.291677 0.0511461 -1 0 0 1 255 255 255
0.106966 0.0723151 -1 0 0 1 154 196 219
0.141938 0.0727448 -1 0 0 1 18 117 175
-0.032922 0.0732745 -1 0 0 1 255 255 255
-0.287959 0.0814965 -1 0 0 1 255 255 255
-0.0705764 0.0821464 -1 0 0 1 255 255 255
0.245438 0.0880162 -1 0 0 1 255 255 255
0.144161 -0.0556257 -1 0 0 1 241 248 251
0.106186 -0.0432495 -1 0 0 1 255 255 255
0.224723 -0.040436 -1 0 0 1 255 255 255
0.0653601 -0.0350841 -1 0 0 1 255 255 255
0.0865878 -0.0387743 -1 0 0 1 255 255 255
-0.0175164 -0.0290272 -1 0 0 1 255 255 255
0.0453103 -0.0281373 -1 0 0 1 255 255 255
0.177631 -0.0273093 -1 0 0 1 255 255 255
-0.156591 -0.0232191 -1 0 0 1 255 255 255
-0.064747 -0.00590853 -1 0 0 1 250 252 255
0.0121711 -0.00641255 -1 0 0 1 52 59 110
-0.0185338 0.0246141 -1 0 0 1 255 255 255
-0.113004 0.034316 -1 0 0 1 255 255 255
-0.00296146 0.0388405 -1 0 0 1 255 255 255
0.0144122 0.0408282 -1 0 0 1 255 255 255
0.168097 0.0362259 -1 0 0 1 255 255 255
0.0582673 0.0446963 -1 0 0 1 255 255 255
0.0775626 0.0424108 -1 0 0 1 255 255 255
0.224559 0.0469305 -1 0 0 1 255 255 255
-0.170893 0.0615784 -1 0 0 1 255 255 255
-0.210371 -0.0271684 -1 0 0 1 255 255 255
-0.18806 0.0347099 -1 0 0 1 255 255 255
0.050268 0.0330335 -1 0 0 1 255 255 255
0.0823822 0.0310455 -1 0 0 1 255 255 255
